<?xml version="1.0" encoding="UTF-8" standalone="no"?>
<svg
   width="58.736794mm"
   height="28.673777mm"
   viewBox="0 0 58.736794 28.673777"
   version="1.1"
   id="svg8"
   inkscape:version="1.1 (c68e22c387, 2021-05-23)"
   sodipodi:docname="boxes-wide.svg"
   xmlns:inkscape="http://www.inkscape.org/namespaces/inkscape"
   xmlns:sodipodi="http://sodipodi.sourceforge.net/DTD/sodipodi-0.dtd"
   xmlns="http://www.w3.org/2000/svg"
   xmlns:svg="http://www.w3.org/2000/svg"
   xmlns:rdf="http://www.w3.org/1999/02/22-rdf-syntax-ns#"
   xmlns:cc="http://creativecommons.org/ns#"
   xmlns:dc="http://purl.org/dc/elements/1.1/">
  <defs
     id="defs2">
    <linearGradient
       x1="0"
       y1="0"
       x2="1"
       y2="0"
       gradientUnits="userSpaceOnUse"
       gradientTransform="matrix(50.966957,0,0,-50.966957,143.35254,84.354828)"
       spreadMethod="pad"
       id="linearGradient21861">
      <stop
         style="stop-opacity:1;stop-color:#4dc4cc"
         offset="0"
         id="stop21853" />
      <stop
         style="stop-opacity:1;stop-color:#ec008c"
         offset="0.41783834"
         id="stop21855" />
      <stop
         style="stop-opacity:1;stop-color:#ec008c"
         offset="0.572192"
         id="stop21857" />
      <stop
         style="stop-opacity:1;stop-color:#ec008c"
         offset="1"
         id="stop21859" />
    </linearGradient>
    <linearGradient
       x1="0"
       y1="0"
       x2="1"
       y2="0"
       gradientUnits="userSpaceOnUse"
       gradientTransform="matrix(58.179138,0,0,-58.179138,139.74644,84.354828)"
       spreadMethod="pad"
       id="linearGradient21885">
      <stop
         style="stop-opacity:1;stop-color:#4dc4cc"
         offset="0"
         id="stop21877" />
      <stop
         style="stop-opacity:1;stop-color:#ec008c"
         offset="0.41783834"
         id="stop21879" />
      <stop
         style="stop-opacity:1;stop-color:#ec008c"
         offset="0.572192"
         id="stop21881" />
      <stop
         style="stop-opacity:1;stop-color:#ec008c"
         offset="1"
         id="stop21883" />
    </linearGradient>
    <linearGradient
       x1="0"
       y1="0"
       x2="1"
       y2="0"
       gradientUnits="userSpaceOnUse"
       gradientTransform="matrix(65.539719,0,0,-65.539719,136.06616,84.354828)"
       spreadMethod="pad"
       id="linearGradient21909">
      <stop
         style="stop-opacity:1;stop-color:#4dc4cc"
         offset="0"
         id="stop21901" />
      <stop
         style="stop-opacity:1;stop-color:#ec008c"
         offset="0.41783834"
         id="stop21903" />
      <stop
         style="stop-opacity:1;stop-color:#ec008c"
         offset="0.572192"
         id="stop21905" />
      <stop
         style="stop-opacity:1;stop-color:#ec008c"
         offset="1"
         id="stop21907" />
    </linearGradient>
    <linearGradient
       x1="0"
       y1="0"
       x2="1"
       y2="0"
       gradientUnits="userSpaceOnUse"
       gradientTransform="matrix(73.048706,0,0,-73.048706,132.31166,84.35479)"
       spreadMethod="pad"
       id="linearGradient21933">
      <stop
         style="stop-opacity:1;stop-color:#4dc4cc"
         offset="0"
         id="stop21925" />
      <stop
         style="stop-opacity:1;stop-color:#ec008c"
         offset="0.41783834"
         id="stop21927" />
      <stop
         style="stop-opacity:1;stop-color:#ec008c"
         offset="0.572192"
         id="stop21929" />
      <stop
         style="stop-opacity:1;stop-color:#ec008c"
         offset="1"
         id="stop21931" />
    </linearGradient>
    <linearGradient
       x1="0"
       y1="0"
       x2="1"
       y2="0"
       gradientUnits="userSpaceOnUse"
       gradientTransform="matrix(80.712181,0,0,-80.712181,128.47993,84.355019)"
       spreadMethod="pad"
       id="linearGradient21957">
      <stop
         style="stop-opacity:1;stop-color:#4dc4cc"
         offset="0"
         id="stop21949" />
      <stop
         style="stop-opacity:1;stop-color:#ec008c"
         offset="0.41783834"
         id="stop21951" />
      <stop
         style="stop-opacity:1;stop-color:#ec008c"
         offset="0.572192"
         id="stop21953" />
      <stop
         style="stop-opacity:1;stop-color:#ec008c"
         offset="1"
         id="stop21955" />
    </linearGradient>
    <linearGradient
       x1="0"
       y1="0"
       x2="1"
       y2="0"
       gradientUnits="userSpaceOnUse"
       gradientTransform="matrix(88.53257,0,0,-88.53257,124.56973,84.355019)"
       spreadMethod="pad"
       id="linearGradient21981">
      <stop
         style="stop-opacity:1;stop-color:#4dc4cc"
         offset="0"
         id="stop21973" />
      <stop
         style="stop-opacity:1;stop-color:#ec008c"
         offset="0.41783834"
         id="stop21975" />
      <stop
         style="stop-opacity:1;stop-color:#ec008c"
         offset="0.572192"
         id="stop21977" />
      <stop
         style="stop-opacity:1;stop-color:#ec008c"
         offset="1"
         id="stop21979" />
    </linearGradient>
    <linearGradient
       x1="0"
       y1="0"
       x2="1"
       y2="0"
       gradientUnits="userSpaceOnUse"
       gradientTransform="matrix(96.512314,0,0,-96.512314,120.57986,84.35498)"
       spreadMethod="pad"
       id="linearGradient22005">
      <stop
         style="stop-opacity:1;stop-color:#4dc4cc"
         offset="0"
         id="stop21997" />
      <stop
         style="stop-opacity:1;stop-color:#ec008c"
         offset="0.41783834"
         id="stop21999" />
      <stop
         style="stop-opacity:1;stop-color:#ec008c"
         offset="0.572192"
         id="stop22001" />
      <stop
         style="stop-opacity:1;stop-color:#ec008c"
         offset="1"
         id="stop22003" />
    </linearGradient>
    <linearGradient
       x1="0"
       y1="0"
       x2="1"
       y2="0"
       gradientUnits="userSpaceOnUse"
       gradientTransform="matrix(104.65384,0,0,-104.65384,116.5091,84.35479)"
       spreadMethod="pad"
       id="linearGradient22029">
      <stop
         style="stop-opacity:1;stop-color:#4dc4cc"
         offset="0"
         id="stop22021" />
      <stop
         style="stop-opacity:1;stop-color:#ec008c"
         offset="0.41783834"
         id="stop22023" />
      <stop
         style="stop-opacity:1;stop-color:#ec008c"
         offset="0.572192"
         id="stop22025" />
      <stop
         style="stop-opacity:1;stop-color:#ec008c"
         offset="1"
         id="stop22027" />
    </linearGradient>
    <linearGradient
       x1="0"
       y1="0"
       x2="1"
       y2="0"
       gradientUnits="userSpaceOnUse"
       gradientTransform="matrix(112.96202,0,0,-112.96202,112.35501,84.354828)"
       spreadMethod="pad"
       id="linearGradient22053">
      <stop
         style="stop-opacity:1;stop-color:#4dc4cc"
         offset="0"
         id="stop22045" />
      <stop
         style="stop-opacity:1;stop-color:#ec008c"
         offset="0.41783834"
         id="stop22047" />
      <stop
         style="stop-opacity:1;stop-color:#ec008c"
         offset="0.572192"
         id="stop22049" />
      <stop
         style="stop-opacity:1;stop-color:#ec008c"
         offset="1"
         id="stop22051" />
    </linearGradient>
    <linearGradient
       x1="0"
       y1="0"
       x2="1"
       y2="0"
       gradientUnits="userSpaceOnUse"
       gradientTransform="matrix(121.44049,0,0,-121.44049,108.11578,84.35498)"
       spreadMethod="pad"
       id="linearGradient22077">
      <stop
         style="stop-opacity:1;stop-color:#4dc4cc"
         offset="0"
         id="stop22069" />
      <stop
         style="stop-opacity:1;stop-color:#ec008c"
         offset="0.41783834"
         id="stop22071" />
      <stop
         style="stop-opacity:1;stop-color:#ec008c"
         offset="0.572192"
         id="stop22073" />
      <stop
         style="stop-opacity:1;stop-color:#ec008c"
         offset="1"
         id="stop22075" />
    </linearGradient>
    <linearGradient
       x1="0"
       y1="0"
       x2="1"
       y2="0"
       gradientUnits="userSpaceOnUse"
       gradientTransform="matrix(130.09171,0,0,-130.09171,103.79017,84.35479)"
       spreadMethod="pad"
       id="linearGradient22101">
      <stop
         style="stop-opacity:1;stop-color:#4dc4cc"
         offset="0"
         id="stop22093" />
      <stop
         style="stop-opacity:1;stop-color:#ec008c"
         offset="0.41783834"
         id="stop22095" />
      <stop
         style="stop-opacity:1;stop-color:#ec008c"
         offset="0.572192"
         id="stop22097" />
      <stop
         style="stop-opacity:1;stop-color:#ec008c"
         offset="1"
         id="stop22099" />
    </linearGradient>
    <linearGradient
       x1="0"
       y1="0"
       x2="1"
       y2="0"
       gradientUnits="userSpaceOnUse"
       gradientTransform="matrix(138.91808,0,0,-138.91808,99.376984,84.35479)"
       spreadMethod="pad"
       id="linearGradient22125">
      <stop
         style="stop-opacity:1;stop-color:#4dc4cc"
         offset="0"
         id="stop22117" />
      <stop
         style="stop-opacity:1;stop-color:#ec008c"
         offset="0.41783834"
         id="stop22119" />
      <stop
         style="stop-opacity:1;stop-color:#ec008c"
         offset="0.572192"
         id="stop22121" />
      <stop
         style="stop-opacity:1;stop-color:#ec008c"
         offset="1"
         id="stop22123" />
    </linearGradient>
    <linearGradient
       x1="0"
       y1="0"
       x2="1"
       y2="0"
       gradientUnits="userSpaceOnUse"
       gradientTransform="matrix(147.92691,0,0,-147.92691,94.872566,84.355019)"
       spreadMethod="pad"
       id="linearGradient22149">
      <stop
         style="stop-opacity:1;stop-color:#4dc4cc"
         offset="0"
         id="stop22141" />
      <stop
         style="stop-opacity:1;stop-color:#ec008c"
         offset="0.41783834"
         id="stop22143" />
      <stop
         style="stop-opacity:1;stop-color:#ec008c"
         offset="0.572192"
         id="stop22145" />
      <stop
         style="stop-opacity:1;stop-color:#ec008c"
         offset="1"
         id="stop22147" />
    </linearGradient>
    <linearGradient
       x1="0"
       y1="0"
       x2="1"
       y2="0"
       gradientUnits="userSpaceOnUse"
       gradientTransform="matrix(157.11821,0,0,-157.11821,90.276909,84.354828)"
       spreadMethod="pad"
       id="linearGradient22173">
      <stop
         style="stop-opacity:1;stop-color:#4dc4cc"
         offset="0"
         id="stop22165" />
      <stop
         style="stop-opacity:1;stop-color:#ec008c"
         offset="0.41783834"
         id="stop22167" />
      <stop
         style="stop-opacity:1;stop-color:#ec008c"
         offset="0.572192"
         id="stop22169" />
      <stop
         style="stop-opacity:1;stop-color:#ec008c"
         offset="1"
         id="stop22171" />
    </linearGradient>
    <linearGradient
       x1="0"
       y1="0"
       x2="1"
       y2="0"
       gradientUnits="userSpaceOnUse"
       gradientTransform="matrix(166.49684,0,0,-166.49684,85.587593,84.354828)"
       spreadMethod="pad"
       id="linearGradient22197">
      <stop
         style="stop-opacity:1;stop-color:#4dc4cc"
         offset="0"
         id="stop22189" />
      <stop
         style="stop-opacity:1;stop-color:#ec008c"
         offset="0.41783834"
         id="stop22191" />
      <stop
         style="stop-opacity:1;stop-color:#ec008c"
         offset="0.572192"
         id="stop22193" />
      <stop
         style="stop-opacity:1;stop-color:#ec008c"
         offset="1"
         id="stop22195" />
    </linearGradient>
  </defs>
  <sodipodi:namedview
     id="base"
     pagecolor="#ffffff"
     bordercolor="#666666"
     borderopacity="1.0"
     inkscape:pageopacity="0.0"
     inkscape:pageshadow="2"
     inkscape:zoom="2.8"
     inkscape:cx="132.85714"
     inkscape:cy="40.178571"
     inkscape:document-units="mm"
     inkscape:current-layer="layer1"
     inkscape:document-rotation="0"
     showgrid="false"
     showborder="false"
     inkscape:pagecheckerboard="1"
     inkscape:window-width="2560"
     inkscape:window-height="1351"
     inkscape:window-x="3191"
     inkscape:window-y="-9"
     inkscape:window-maximized="1" />
  <metadata
     id="metadata5">
    <rdf:RDF>
      <cc:Work
         rdf:about="">
        <dc:format>image/svg+xml</dc:format>
        <dc:type
           rdf:resource="http://purl.org/dc/dcmitype/StillImage" />
      </cc:Work>
    </rdf:RDF>
  </metadata>
  <g
     inkscape:label="Warstwa 1"
     inkscape:groupmode="layer"
     id="layer1"
     transform="translate(-84.780411,-207.15716)">
    <g
       id="g25863"
       transform="translate(-276.59741,-69.755704)">
      <g
         id="g21841"
         transform="matrix(0.35277777,0,0,-0.35277777,331.18463,321.00832)">
        <g
           id="g21843">
          <g
             id="g21849">
            <g
               id="g21851">
              <path
                 d="m 168.905,87.611 h -0.138 -25.414 v -6.513 h 0.253 l 25.23,0.002 25.23,-0.002 h 0.254 v 6.513 z m 21.881,-5.942 v 5.373 h 3.027 v -5.374 z m -46.927,5.373 h 3.028 v -5.373 l -3.028,-10e-4 z m 43.463,-0.505 h 2.957 v -4.363 h -2.957 z m -39.928,0 h 2.957 v -4.363 h -2.957 z m 36.534,-0.42 h 2.888 v -3.524 h -2.888 z m -33.071,0 h 2.887 v -3.524 h -2.887 z m 29.744,-0.348 h 2.821 V 82.94 h -2.821 z m -26.351,0 h 2.821 V 82.94 h -2.821 z m 23.09,-2.539 v 2.25 h 2.755 v -2.251 z m -19.764,2.25 h 2.755 v -2.25 l -2.755,-0.001 z m 16.57,-0.239 h 2.688 V 83.47 h -2.688 z m -13.309,0 h 2.688 V 83.47 h -2.688 z m 10.178,-0.2 h 2.625 v -1.372 h -2.625 z m -6.983,0 h 2.624 v -1.372 h -2.624 z m 3.13,-0.165 h 1.329 0.69 1.328 v -1.043 l -1.328,0.001 h -0.345 -0.345 l -1.329,-0.001 z"
                 style="fill:url(#linearGradient21861);stroke:none"
                 id="path21863" />
            </g>
          </g>
        </g>
      </g>
      <g
         id="g21865"
         transform="matrix(0.35277777,0,0,-0.35277777,331.18463,321.00832)">
        <g
           id="g21867">
          <g
             id="g21873">
            <g
               id="g21875">
              <path
                 d="m 168.905,88.22 h -0.138 -29.02 v -7.73 h 0.252 l 28.837,0.002 28.836,-0.002 h 0.253 v 7.73 z m -28.653,-0.57 h 28.515 0.138 28.514 v -6.591 l -28.514,0.002 h -0.069 -0.069 l -28.515,-0.002 z"
                 style="fill:url(#linearGradient21885);stroke:none"
                 id="path21887" />
            </g>
          </g>
        </g>
      </g>
      <g
         id="g21889"
         transform="matrix(0.35277777,0,0,-0.35277777,331.18463,321.00832)">
        <g
           id="g21891">
          <g
             id="g21897">
            <g
               id="g21899">
              <path
                 d="m 168.905,88.953 h -0.138 -32.701 v -9.197 h 0.253 l 32.517,0.003 32.516,-0.003 h 0.254 v 9.197 z m -32.333,-0.569 h 32.195 0.138 32.195 v -8.058 l -32.195,0.003 h -0.069 -0.069 l -32.195,-0.003 z"
                 style="fill:url(#linearGradient21909);stroke:none"
                 id="path21911" />
            </g>
          </g>
        </g>
      </g>
      <g
         id="g21913"
         transform="matrix(0.35277777,0,0,-0.35277777,331.18463,321.00832)">
        <g
           id="g21915">
          <g
             id="g21921">
            <g
               id="g21923">
              <path
                 d="m 168.905,89.837 h -0.138 -36.455 V 78.872 h 0.253 l 36.271,0.003 36.271,-0.003 h 0.253 v 10.965 z m -36.088,-0.571 h 35.95 0.138 35.949 v -9.823 l -35.949,0.003 h -0.069 -0.069 l -35.95,-0.003 z"
                 style="fill:url(#linearGradient21933);stroke:none"
                 id="path21935" />
            </g>
          </g>
        </g>
      </g>
      <g
         id="g21937"
         transform="matrix(0.35277777,0,0,-0.35277777,331.18463,321.00832)">
        <g
           id="g21939">
          <g
             id="g21945">
            <g
               id="g21947">
              <path
                 d="m 168.905,90.902 h -0.138 -40.288 V 77.809 h 0.254 l 40.103,0.002 40.103,-0.002 h 0.253 v 13.093 z m -39.919,-0.571 h 39.781 0.138 39.781 V 78.378 l -39.781,0.004 h -0.069 -0.069 l -39.781,-0.004 z"
                 style="fill:url(#linearGradient21957);stroke:none"
                 id="path21959" />
            </g>
          </g>
        </g>
      </g>
      <g
         id="g21961"
         transform="matrix(0.35277777,0,0,-0.35277777,331.18463,321.00832)">
        <g
           id="g21963">
          <g
             id="g21969">
            <g
               id="g21971">
              <path
                 d="M 168.905,92.184 H 168.767 124.57 V 76.526 h 0.253 l 44.013,0.004 44.013,-0.004 h 0.253 v 15.658 z m -43.829,-0.57 h 43.691 0.138 43.691 V 77.096 l -43.691,0.003 h -0.069 -0.069 l -43.691,-0.003 z"
                 style="fill:url(#linearGradient21981);stroke:none"
                 id="path21983" />
            </g>
          </g>
        </g>
      </g>
      <g
         id="g21985"
         transform="matrix(0.35277777,0,0,-0.35277777,331.18463,321.00832)">
        <g
           id="g21987">
          <g
             id="g21993">
            <g
               id="g21995">
              <path
                 d="M 168.905,93.73 H 168.767 120.58 V 74.981 l 48.256,0.004 48.257,-0.004 V 93.73 Z m -47.819,-0.571 h 47.681 0.138 47.681 V 75.551 l -47.681,0.004 h -0.069 -0.069 l -47.681,-0.004 z"
                 style="fill:url(#linearGradient22005);stroke:none"
                 id="path22007" />
            </g>
          </g>
        </g>
      </g>
      <g
         id="g22009"
         transform="matrix(0.35277777,0,0,-0.35277777,331.18463,321.00832)">
        <g
           id="g22011">
          <g
             id="g22017">
            <g
               id="g22019">
              <path
                 d="M 168.905,95.591 H 168.767 116.51 V 73.119 h 0.252 l 52.074,0.005 52.074,-0.005 h 0.253 v 22.472 z m -51.89,-0.571 h 51.752 0.138 51.752 V 73.689 l -51.752,0.006 h -0.069 -0.069 l -51.752,-0.006 z"
                 style="fill:url(#linearGradient22029);stroke:none"
                 id="path22031" />
            </g>
          </g>
        </g>
      </g>
      <g
         id="g22033"
         transform="matrix(0.35277777,0,0,-0.35277777,331.18463,321.00832)">
        <g
           id="g22035">
          <g
             id="g22041">
            <g
               id="g22043">
              <path
                 d="m 168.905,97.834 h -0.138 -56.412 V 70.876 h 0.253 l 56.228,0.007 56.228,-0.007 h 0.253 v 26.958 z m -56.044,-0.571 h 55.906 0.138 55.906 V 71.447 l -55.906,0.006 h -0.069 -0.069 l -55.906,-0.006 z"
                 style="fill:url(#linearGradient22053);stroke:none"
                 id="path22055" />
            </g>
          </g>
        </g>
      </g>
      <g
         id="g22057"
         transform="matrix(0.35277777,0,0,-0.35277777,331.18463,321.00832)">
        <g
           id="g22059">
          <g
             id="g22065">
            <g
               id="g22067">
              <path
                 d="m 168.905,100.536 h -0.138 -60.651 V 68.174 h 0.253 l 60.467,0.007 60.467,-0.007 h 0.254 v 32.362 z m -60.283,-0.57 h 60.145 0.138 60.145 V 68.744 l -60.145,0.008 h -0.069 -0.069 l -60.145,-0.008 z"
                 style="fill:url(#linearGradient22077);stroke:none"
                 id="path22079" />
            </g>
          </g>
        </g>
      </g>
      <g
         id="g22081"
         transform="matrix(0.35277777,0,0,-0.35277777,331.18463,321.00832)">
        <g
           id="g22083">
          <g
             id="g22089">
            <g
               id="g22091">
              <path
                 d="M 168.905,103.792 H 168.767 103.79 V 64.918 l 65.046,0.01 65.046,-0.01 v 38.874 z m -64.608,-0.57 h 64.47 0.138 64.47 V 65.488 l -64.47,0.009 h -0.069 -0.069 l -64.47,-0.009 z"
                 style="fill:url(#linearGradient22101);stroke:none"
                 id="path22103" />
            </g>
          </g>
        </g>
      </g>
      <g
         id="g22105"
         transform="matrix(0.35277777,0,0,-0.35277777,331.18463,321.00832)">
        <g
           id="g22107">
          <g
             id="g22113">
            <g
               id="g22115">
              <path
                 d="m 168.905,107.714 h -0.138 -69.39 V 60.996 h 0.253 l 69.206,0.011 69.206,-0.011 h 0.253 v 46.718 z m -69.022,-0.57 h 68.884 0.138 68.884 V 61.565 l -68.884,0.011 h -0.069 -0.069 L 99.883,61.565 Z"
                 style="fill:url(#linearGradient22125);stroke:none"
                 id="path22127" />
            </g>
          </g>
        </g>
      </g>
      <g
         id="g22129"
         transform="matrix(0.35277777,0,0,-0.35277777,331.18463,321.00832)">
        <g
           id="g22131">
          <g
             id="g22137">
            <g
               id="g22139">
              <path
                 d="M 168.905,112.441 H 168.767 94.873 V 56.27 h 0.253 l 73.71,0.013 73.71,-0.013 h 0.253 v 56.171 z M 95.378,111.87 h 73.389 0.138 73.389 V 56.84 l -73.389,0.013 h -0.069 -0.069 L 95.378,56.84 Z"
                 style="fill:url(#linearGradient22149);stroke:none"
                 id="path22151" />
            </g>
          </g>
        </g>
      </g>
      <g
         id="g22153"
         transform="matrix(0.35277777,0,0,-0.35277777,331.18463,321.00832)">
        <g
           id="g22155">
          <g
             id="g22161">
            <g
               id="g22163">
              <path
                 d="m 168.905,118.134 h -0.138 -78.49 V 50.576 h 0.253 l 78.306,0.016 78.306,-0.016 h 0.253 v 67.558 z m -78.121,-0.57 h 77.983 0.138 77.984 V 51.145 l -77.984,0.016 h -0.069 -0.069 L 90.784,51.145 Z"
                 style="fill:url(#linearGradient22173);stroke:none"
                 id="path22175" />
            </g>
          </g>
        </g>
      </g>
      <g
         id="g22177"
         transform="matrix(0.35277777,0,0,-0.35277777,331.18463,321.00832)">
        <g
           id="g22179">
          <g
             id="g22185">
            <g
               id="g22187">
              <path
                 d="m 168.905,124.995 h -0.138 -83.18 v -81.28 h 0.253 l 82.996,0.02 82.996,-0.02 h 0.253 v 81.28 z m -82.811,-0.57 h 82.673 0.138 82.674 v -80.14 l -82.674,0.02 h -0.069 -0.069 l -82.673,-0.02 z"
                 style="fill:url(#linearGradient22197);stroke:none"
                 id="path22199" />
            </g>
          </g>
        </g>
      </g>
    </g>
  </g>
</svg>
