<?xml version="1.0" encoding="UTF-8" standalone="no"?>
<!-- Created with Inkscape (http://www.inkscape.org/) -->

<svg
   width="313"
   height="311"
   viewBox="0 0 82.814581 82.285416"
   version="1.1"
   id="svg1"
   inkscape:version="1.3.2 (091e20e, 2023-11-25, custom)"
   sodipodi:docname="2024_logo mobile 10 11 05_v4.svg"
   xmlns:inkscape="http://www.inkscape.org/namespaces/inkscape"
   xmlns:sodipodi="http://sodipodi.sourceforge.net/DTD/sodipodi-0.dtd"
   xmlns="http://www.w3.org/2000/svg"
   xmlns:svg="http://www.w3.org/2000/svg">
  <sodipodi:namedview
     id="namedview1"
     pagecolor="#ffffff"
     bordercolor="#000000"
     borderopacity="0.25"
     inkscape:showpageshadow="2"
     inkscape:pageopacity="0.0"
     inkscape:pagecheckerboard="0"
     inkscape:deskcolor="#d1d1d1"
     inkscape:document-units="mm"
     inkscape:zoom="1.7412505"
     inkscape:cx="377.02789"
     inkscape:cy="163.38832"
     inkscape:window-width="1920"
     inkscape:window-height="1001"
     inkscape:window-x="-9"
     inkscape:window-y="-9"
     inkscape:window-maximized="1"
     inkscape:current-layer="layer1" />
  <defs
     id="defs1" />
  <g
     inkscape:label="Warstwa 1"
     inkscape:groupmode="layer"
     id="layer1">
    <path
       class="cls-2"
       d="M 1.4454335,1.0932906 V 16.689399 H 8.5577752 C 8.7607212,16.103624 8.7376588,15.407146 7.8597623,15.136555 7.3877591,15.001254 6.6666852,14.75372 6.082446,14.349368 5.6319669,14.034183 4.8447816,13.336177 4.8447816,12.121573 V 9.0835271 h 2.6552128 c 1.5528467,0 2.2954445,0.5627174 2.5660406,2.1832089 1.193075,-0.810246 2.206271,-2.0248499 2.206271,-3.4439351 0,-0.7656606 -0.29212,-1.3729615 -0.653425,-1.7773163 C 11.146877,6.8557317 10.13368,7.8012761 8.4901259,7.8012761 H 4.8663064 V 2.7583714 H 7.6352917 C 7.4999944,4.2220442 7.8828247,5.6395924 9.0759024,6.3145421 11.123814,5.4597079 13.036429,3.591681 12.81196,1.0932906 Z"
       id="path1"
       style="fill:#ffffff;stroke-width:0.153747" />
    <path
       class="cls-2"
       d="M 24.997953,4.2497187 23.320574,5.739528 C 22.883931,4.5110884 21.587841,3.5763064 19.616802,3.5763064 c -4.012797,0 -6.634187,3.5715446 -6.634187,7.0508436 0,3.757577 2.922732,6.215995 6.285183,6.215995 3.803703,0 6.077624,-2.991918 5.868529,-6.563464 -0.02307,-0.3474687 -0.393596,-0.3474687 -0.556568,-0.04613 -0.927092,1.692761 -1.924912,2.575264 -3.362445,2.575264 -1.111593,0 -2.075589,-0.488913 -2.738236,-1.291475 l 6.657249,-4.6001129 c -0.06919,-0.8348517 0.02307,-1.6466365 0.232159,-2.4814834 0.06918,-0.2782819 -0.209101,-0.324406 -0.370533,-0.1860336 z m -7.469036,4.4771157 c 0,-1.9018522 0.927097,-2.5983263 1.692761,-2.5983263 0.719536,0 0.974751,0.5565647 0.974751,1.159253 0,0.6026888 -0.278278,1.4375356 -1.368349,2.4353563 l 0.01383,-0.00613 -0.947081,0.8409966 C 17.659598,10.012153 17.528912,9.3925519 17.528912,8.7252913 Z"
       id="path2"
       style="fill:#ffffff;stroke-width:0.153747" />
    <path
       class="cls-2"
       d="M 48.877951,4.4603522 48.659635,3.7423533 c -1.12543,0.4335668 -2.272387,0.65035 -3.397817,0.6518875 0.09072,-1.0147309 0.339782,-1.9572007 0.765664,-2.8074223 L 45.200321,1.1086651 c -1.022418,0.5012158 -2.306206,0.6088386 -3.743739,0.6088386 l -0.218321,0.3044192 v 2.3723179 h -1.457523 l -0.195259,0.325944 c 0.435105,0.6319004 0.435105,1.2837878 0,2.1324718 l 0.195259,0.2183213 h 1.457523 v 5.5056831 c 0,2.742851 1.153099,4.26495 3.570004,4.26495 2.546052,0 3.41626,-1.806533 3.722222,-3.5039 l -0.784113,-0.34747 c -0.261369,0.674949 -0.805637,0.914795 -1.240741,0.914795 -0.631896,0 -1.088529,-0.501214 -1.088529,-1.56668 0,-0.76105 -0.09994,-3.3547641 -0.156819,-5.2673781 h 1.875711 c 0.413579,-1.0224181 0.97937,-2.023312 1.74042,-2.6121634 z"
       id="path3"
       style="fill:#ffffff;stroke-width:0.153747" />
    <path
       class="cls-2"
       d="m 36.20458,4.1836074 h 1.648167 V 8.5776989 H 36.20458 c 0,-1.531321 -1.12697,-3.2087017 -2.48609,-3.2087017 -0.837922,0 -1.24228,0.6641875 -1.24228,1.386799 0,1.0116558 0.722616,1.8787898 2.861236,2.6875024 1.705056,0.6365104 2.716712,1.6758394 2.716712,3.6991534 0,3.064183 -2.542978,3.699159 -4.105051,3.699159 -2.890441,0 -4.01741,-2.052526 -4.710808,-2.052526 -0.230624,0 -0.519665,0.230618 -0.491994,1.560533 H 26.492374 V 10.19358 h 0.519664 c 0.318259,0.808713 0.953235,1.329917 1.705056,1.589746 -0.230617,1.908002 1.50365,3.526963 2.861237,3.526963 0.37514,0 1.09775,-0.115312 1.09775,-1.011656 0,-1.097757 -1.011656,-1.820368 -2.427666,-2.456879 -1.763478,-0.80871 -3.179488,-1.9080018 -3.179488,-4.2495737 0,-2.9196572 2.22626,-4.0174115 4.161933,-4.0174115 2.745925,0 3.439324,2.0817358 4.191146,2.0817358 0.43357,0 0.781034,-0.7810353 0.781034,-1.4744348 z"
       id="path4"
       style="fill:#ffffff;stroke-width:0.153747" />
    <path
       class="cls-2"
       d="m 39.448644,19.916549 c 1.588204,0 2.875072,-0.622675 2.875072,-1.849579 0,-1.226899 -1.286868,-1.849574 -2.875072,-1.849574 -1.58821,0 -2.895062,0.602686 -2.895062,1.849574 0,1.246893 1.286869,1.849579 2.895062,1.849579 z m -3.39781,5.105939 c 1.446761,0.361312 1.748103,1.045483 1.849573,2.572191 0.05996,0.844075 0.05996,2.090964 0,2.935034 -0.09993,1.286861 -1.085449,1.728119 -2.009472,1.789616 -1.306851,0.07994 -1.306851,2.833558 0.401279,2.693649 2.31236,-0.201412 4.643164,-0.201412 6.955518,0 1.708131,0.141449 1.708131,-2.572189 0.401279,-2.713639 -0.784107,-0.07994 -1.668151,-0.542727 -1.70813,-1.769626 -0.07995,-2.855083 -0.03997,-5.688642 0.161439,-7.939499 0.141444,-1.44676 -0.965536,-1.969504 -1.809605,-1.969504 -0.662649,0 -1.24689,0.321331 -1.98949,0.904032 -0.744133,0.582701 -1.56822,0.904034 -2.653675,1.205381 -0.944007,0.24138 -1.205376,1.889553 0.401284,2.290832 z"
       id="path5"
       style="fill:#ffffff;stroke-width:0.153747" />
    <path
       class="cls-2"
       d="m 77.098229,34.50715 h 2.007938 l 2.320042,-3.316324 v 4.060457 H 70.485572 l 0.92863,-1.623568 V 20.17177 l -0.92863,-1.62357 h 7.539754 l -0.928632,1.62357 v 14.33692 z"
       id="path6"
       style="fill:#ffffff;stroke-width:0.153747" />
    <path
       class="cls-2"
       d="m 58.048966,18.843394 -3.347073,16.189568 h -2.255472 l -1.58667,-7.673515 -1.58667,7.673515 H 47.140609 L 43.768937,18.843394 h 4.844571 l -1.436,3.574619 1.31454,8.826623 2.748998,-12.401242 h 0.987053 l 1.875717,12.401242 1.437539,-7.370634 -1.27764,-5.030608 h 3.783711 z"
       id="path7"
       style="fill:#ffffff;stroke-width:0.153747" />
    <g
       id="g12"
       transform="matrix(0.1537471,0,0,0.1537471,0.06939668,-0.00600135)">
      <path
         class="cls-2"
         d="m 375.6,59.17 c 0.69,0.76 1.53,1.12 2.64,1.12 1.55,0 3.67,-0.62 6.23,-1.71 -3.27,-5.32 -6.85,-11.89 -10.88,-19.52 -0.67,8.74 -0.71,17.1 2.01,20.11 z"
         id="path8"
         style="fill:#ffffff" />
      <path
         class="cls-2"
         d="m 400.43,70.28 c 5.04,0 13.21,-15.06 20.57,-29.71 -11.64,8.08 -22.48,15.35 -30.86,19.63 3.99,6.02 7.63,10.08 10.29,10.08 z"
         id="path9"
         style="fill:#ffffff" />
      <path
         class="cls-2"
         d="m 369.69,5.29 c -2.07,0 -5.01,1.06 -8.44,2.8 2.92,4.85 6.12,10.74 9.69,17.51 0.87,-8.79 1.54,-17.73 -0.49,-19.98 -0.22,-0.24 -0.43,-0.33 -0.77,-0.33 z"
         id="path10"
         style="fill:#ffffff" />
      <path
         class="cls-2"
         d="m 481.13,6.17 c -0.35,-0.41 -0.92,-0.89 -2.18,-0.89 -1.97,0 -4.92,1.05 -8.53,2.82 3.29,5.27 6.83,11.71 10.72,19.08 1.39,-9 2.46,-18.11 -0.01,-21.02 z"
         id="path11"
         style="fill:#ffffff" />
      <path
         class="cls-2"
         d="m 484.07,59.02 c 0.74,0.87 1.73,1.27 3.12,1.27 1.72,0 3.89,-0.58 6.42,-1.62 -3.11,-5.23 -6.54,-11.65 -10.41,-19.08 -1.17,8.46 -1.71,16.4 0.87,19.44 z"
         id="path12"
         style="fill:#ffffff" />
    </g>
    <path
       class="cls-2"
       d="m 56.908163,0.80732102 c -0.318258,0 -0.770271,0.16297167 -1.297623,0.43049168 0.448939,0.7456733 0.940931,1.6512439 1.489808,2.6921117 v 0 c 0.133761,-1.3514368 0.236771,-2.7259359 -0.07534,-3.07186721 -0.03382,-0.0368992 -0.06611,-0.0507349 -0.11838,-0.0507349 z"
       id="path13"
       style="fill:#ffffff;stroke-width:0.153747" />
    <path
       class="cls-2"
       d="m 74.041741,0.94261826 c -0.05381,-0.063036 -0.14145,-0.1368348 -0.335168,-0.1368348 -0.302883,0 -0.756436,0.1614341 -1.311466,0.43356674 0.50583,0.8102472 1.05009,1.8003788 1.648167,2.9334948 0.213708,-1.3837239 0.378222,-2.78436 -0.0017,-3.2317643 z"
       id="path14"
       style="fill:#ffffff;stroke-width:0.153747" />
    <path
       class="cls-2"
       d="m 74.493754,9.0681525 c 0.113772,0.133761 0.265983,0.1952582 0.479691,0.1952582 0.264449,0 0.598077,-0.089172 0.98706,-0.2490697 -0.478158,-0.8040971 -1.00551,-1.7911537 -1.600507,-2.9334946 0.02307,-0.1675845 0.04765,-0.3367057 0.07379,-0.5058278 -0.02615,0.1691221 -0.05073,0.3382433 -0.07379,0.5058278 -0.179888,1.3007005 -0.262908,2.5214527 0.133756,2.9888439 z"
       id="path15"
       style="fill:#ffffff;stroke-width:0.153747" />
    <g
       id="g25"
       transform="matrix(0.1537471,0,0,0.1537471,0.06939668,-0.00600135)">
      <path
         class="cls-2"
         d="m 465.84,60.02 c -0.35,-0.41 -0.92,-0.89 -2.18,-0.89 -1.97,0 -4.92,1.05 -8.53,2.82 3.29,5.27 6.83,11.71 10.72,19.08 1.39,-9 2.46,-18.11 -0.01,-21.02 z"
         id="path16"
         style="fill:#ffffff" />
      <path
         class="cls-2"
         d="m 438.64,50.18 c -5.81,0 -14.71,16.5 -22.59,32.22 12.42,-8.69 24.25,-16.86 33.49,-21.93 -4.14,-6.14 -7.96,-10.29 -10.91,-10.29 z"
         id="path17"
         style="fill:#ffffff" />
      <path
         class="cls-2"
         d="m 468.78,112.86 c 0.74,0.87 1.73,1.27 3.12,1.27 1.72,0 3.89,-0.58 6.42,-1.62 -3.11,-5.22 -6.54,-11.65 -10.41,-19.08 -1.17,8.46 -1.71,16.4 0.87,19.44 z"
         id="path18"
         style="fill:#ffffff" />
      <path
         class="cls-2"
         d="m 502.67,114.65 c 3.61,-5.62 7.58,-13 11.3,-20.13 -11.18,8.11 -21.66,15.4 -30.02,19.65 0.11,0.17 0.21,0.32 0.32,0.48 z"
         id="path19"
         style="fill:#ffffff" />
      <path
         class="cls-2"
         d="m 415.01,104.48 c 17.37,0 25.53,10.17 25.53,10.17 h 24.72 c -3.56,-5.28 -2.21,-15.76 -0.42,-27.14 -4.21,-8.09 -8.8,-16.79 -13.16,-23.75 -10.15,5.58 -24.05,15.31 -36.83,24.26 -0.82,0.57 -1.63,1.14 -2.44,1.71 -2.99,6.03 -5.72,11.45 -8.26,16.2 3.11,-0.89 6.72,-1.45 10.86,-1.45 z"
         id="path20"
         style="fill:#ffffff" />
      <path
         class="cls-2"
         d="m 355.17,59.47 c -0.22,-0.24 -0.43,-0.33 -0.77,-0.33 -2.07,0 -5.01,1.06 -8.44,2.8 2.92,4.85 6.12,10.74 9.69,17.51 0.87,-8.79 1.54,-17.73 -0.49,-19.98 z"
         id="path21"
         style="fill:#ffffff" />
      <path
         class="cls-2"
         d="m 388.35,116.21 v 0 c 0,0 3.13,-4.67 10.16,-8.11 2.39,-4.27 4.83,-8.99 7.19,-13.68 -11.64,8.08 -22.48,15.35 -30.86,19.63 0.5,0.75 0.99,1.47 1.48,2.16 h 12.02 z"
         id="path22"
         style="fill:#ffffff" />
      <path
         class="cls-2"
         d="m 340.47,60.48 c -3.91,-6.1 -7.43,-10.3 -9.87,-10.3 -0.4,0 -0.82,0.07 -1.24,0.17 v 17.27 c 3.72,-2.6 7.51,-5.09 11.11,-7.14 z"
         id="path23"
         style="fill:#ffffff" />
      <path
         class="cls-2"
         d="M 329.36,113.21 H 277.2 v 3 h 80.78 c -0.2,-0.18 -0.39,-0.36 -0.58,-0.57 -4.45,-4.93 -3.68,-16.88 -2.46,-29.13 -3.95,-7.56 -8.32,-15.91 -12.4,-22.7 -4.12,2.38 -8.68,5.44 -13.17,8.67 v 40.74 z"
         id="path24"
         style="fill:#ffffff" />
      <path
         class="cls-2"
         d="m 362.95,114.13 c 1.55,0 3.67,-0.62 6.22,-1.71 -3.27,-5.32 -6.85,-11.88 -10.88,-19.52 -0.67,8.74 -0.71,17.1 2.01,20.11 0.69,0.76 1.53,1.12 2.64,1.12 z"
         id="path25"
         style="fill:#ffffff" />
    </g>
    <path
       class="cls-2"
       d="m 78.297457,10.799346 c 0.704166,0 2.001789,-2.3584815 3.145668,-4.5509152 -1.718892,1.2468891 -3.330165,2.3677051 -4.615487,3.0211332 0.581161,0.907107 1.103905,1.529782 1.469819,1.529782 z"
       id="path26"
       style="fill:#ffffff;stroke-width:0.153747" />
    <path
       class="cls-2"
       d="M 68.223946,34.539435 V 21.452484 c 0,-3.594608 -2.502999,-4.819974 -4.553984,-4.819974 -2.361555,0 -3.693011,1.560533 -4.281859,3.52235 -0.08917,0.209095 -0.139909,0.439712 -0.139909,0.685711 0,1.011657 0.745673,1.757331 1.757331,1.757331 0.959381,0 1.705054,-0.745674 1.705054,-1.757331 0,-0.959382 -0.745673,-1.705056 -1.705054,-1.705056 -0.201413,0 -0.392058,0.03073 -0.567332,0.0861 0.562717,-0.916335 1.180777,-1.283794 1.846506,-1.283794 1.416008,0 1.895699,1.680458 1.940286,3.673021 l -1.646632,1.385263 c -2.263154,1.917225 -4.633936,4.660075 -4.633936,7.748855 0,3.542333 1.891091,4.740021 3.940536,4.740021 0.862527,0 1.798845,-0.290581 2.343107,-1.332989 v 1.093142 h 5.796271 V 34.5379 h -1.801919 z m -5.059812,-0.332094 c -0.931711,0 -1.225366,-2.29083 -1.225366,-4.740021 0,-1.437538 0.07995,-4.899919 1.783464,-6.551166 l 0.505828,-0.493526 v 9.2279 c 0,1.625108 -0.452014,2.556813 -1.065466,2.556813 z"
       id="path27"
       style="fill:#ffffff;stroke-width:0.153747" />
    <path
       class="cls-1"
       d="M 76.512454,8.7591213 C 75.89132,7.7228654 75.227132,6.4452273 74.632129,5.2967362 c -0.03998,-0.076874 -0.07995,-0.1522093 -0.118385,-0.2290831 0.01075,-0.067648 0.0215,-0.1337602 0.0323,-0.2014086 0.307496,-1.9279886 0.571939,-3.59307 -0.04456,-4.31568106 -0.04922,-0.0568892 -0.103013,-0.10762333 -0.161434,-0.15067233 h -1.508257 c -0.232158,0.0860984 -0.487379,0.19833337 -0.76105,0.33363126 -0.07687,-0.11531063 -0.153745,-0.22754612 -0.229084,-0.33363126 h -0.744133 c 0.142983,0.18449648 0.29058,0.38898022 0.441251,0.61191369 -1.420623,0.7794974 -3.240991,2.0356113 -5.148987,3.3716736 0.747209,-1.4898091 1.552845,-3.0242054 2.270841,-3.98358729 h -0.7426 C 67.113934,1.5652943 66.269864,3.2657369 65.358142,5.1045525 v 0 C 63.342517,6.5144132 61.216199,7.9826981 59.729465,8.7391345 59.029912,7.6090924 58.282704,6.1823195 57.60929,4.8923814 57.62312,4.7601587 57.63544,4.6279366 57.64927,4.500326 57.869131,2.3555542 57.979827,1.0118048 57.474001,0.45216485 c -0.01848,-0.01999 -0.03998,-0.0353592 -0.05996,-0.0538094 H 56.02724 C 55.798156,0.48445498 55.552163,0.59361469 55.293868,0.72429988 55.2216,0.61052682 55.149345,0.50136646 55.07862,0.39835581 h -0.727224 c 0.133762,0.18449647 0.273671,0.39051789 0.41512,0.61191369 -1.389878,0.7948726 -2.982696,2.0094746 -4.058923,2.8750706 V 0.40142868 H 0.530638 V 17.399708 h 35.447931 v 0.461241 H 32.034958 V 35.84936 H 82.211863 V 17.621104 h -4.146565 c 0.568866,-0.925557 1.205382,-2.134006 1.954129,-3.577693 0.05381,-0.103013 0.107624,-0.207559 0.162974,-0.313644 0.0784,-0.05843 0.158359,-0.115312 0.236765,-0.173734 0.598077,-0.438178 1.200768,-0.879436 1.791157,-1.303778 v -0.74106 c -0.456628,0.325946 -0.922483,0.664188 -1.396026,1.010117 0.458168,-0.86252 0.93171,-1.720426 1.396026,-2.469174 V 8.9497672 c -0.807171,1.1515648 -1.640479,2.7274748 -2.498391,4.3787218 -2.029462,1.485194 -4.071226,2.962706 -5.553346,3.709914 -0.62114,-1.036254 -1.285327,-2.313895 -1.880324,-3.462381 -0.03998,-0.07688 -0.07995,-0.152211 -0.118387,-0.229083 0.01075,-0.06765 0.0215,-0.133762 0.03231,-0.201413 0.307496,-1.927985 0.571939,-3.5930688 -0.04457,-4.3156808 -0.193719,-0.2275461 -0.46739,-0.3474692 -0.791796,-0.3474692 -0.401285,0 -0.962456,0.1952592 -1.637412,0.5288906 C 68.905089,7.7982016 68.1917,7.104802 67.509063,7.104802 c -1.389872,0 -2.833558,2.905822 -4.504789,6.277496 -2.015626,1.409861 -4.141943,2.878146 -5.628682,3.634582 -0.699547,-1.130043 -1.446754,-2.556815 -2.12017,-3.845217 0.01383,-0.132221 0.02614,-0.264442 0.03997,-0.392056 0.219867,-2.144769 0.330565,-3.4885195 -0.175263,-4.0481603 -0.147598,-0.1629723 -0.342856,-0.2506085 -0.565792,-0.2506085 -0.418195,0 -0.982445,0.2014092 -1.612808,0.5227405 C 52.157427,7.7812895 51.505536,7.104802 50.896697,7.104802 c -0.06304,0 -0.127608,0.00615 -0.190644,0.015376 V 4.6632983 c 1.189999,-0.9716818 2.956557,-2.3215816 4.375641,-3.1410535 0.628828,1.0439429 1.300703,2.3277313 1.906462,3.4900593 -0.18757,1.8834021 -0.305956,3.7206793 0.378221,4.4786559 0.221396,0.2459931 0.508903,0.3705274 0.853296,0.3705274 0.34439,0 0.765658,-0.1276077 1.280714,-0.3536182 0.802557,1.2176778 1.48212,1.8910938 2.130932,1.8910938 1.177704,0 2.373857,-2.2216475 4.192684,-5.8885182 0.124535,-0.087636 0.250608,-0.1752717 0.375142,-0.2629078 1.96489,-1.3760362 4.101976,-2.8735331 5.662509,-3.7299044 0.670336,1.0700799 1.376036,2.4076796 2.023308,3.6514936 -0.289041,1.8357403 -0.505829,3.5208091 0.149137,4.2880081 0.230618,0.2690575 0.545802,0.405893 0.937858,0.405893 0.358232,0 0.797944,-0.1214598 1.302238,-0.3382479 0.764123,1.2038416 1.406781,1.8741836 2.020234,1.8741836 1.063932,0 2.193975,-2.017167 3.91594,-5.328879 V 4.7647714 c -0.04922,0.093786 -0.09839,0.187571 -0.146057,0.2828945 -2.029462,1.485197 -4.071226,2.9627067 -5.553346,3.7099177 z"
       id="path28"
       style="fill:none;stroke-width:0.153747" />
    <g
       id="g32"
       transform="matrix(0.1537471,0,0,0.1537471,0.06939668,-0.00600135)">
      <path
         class="cls-2"
         d="m 151.98,158.59 -1.53,13.37 17.52,-9.53 c -5.08,-1.27 -10.44,-2.56 -15.99,-3.84 z"
         id="path29"
         style="fill:#ffffff" />
      <path
         class="cls-2"
         d="m 131.83,216.73 -14.61,18.28 2.66,-23.25 -36.43,19.81 28.58,-30.12 -23.06,-3.5 21.4,-9.37 -35.24,-21.69 40.22,9.7 -8.45,-21.79 18.74,13.88 0.45,-15.53 c -24.83,-4.69 -50.5,-7.87 -69.95,-6.25 0.31,2.48 0.03,5.08 -0.96,7.57 -3.12,7.89 -12.05,11.75 -19.94,8.62 -2.92,-1.16 -5.29,-3.11 -6.95,-5.51 -1.38,1.92 -2.33,4.1 -2.78,6.55 -4.12,22.53 31.22,58.65 45.28,72.08 h 66.72 l -5.7,-19.48 z"
         id="path30"
         style="fill:#ffffff" />
      <path
         class="cls-2"
         d="m 138.5,166.98 7.74,-9.69 c -3.7,-0.82 -7.47,-1.63 -11.28,-2.4 l 3.54,12.1 z"
         id="path31"
         style="fill:#ffffff" />
      <path
         class="cls-2"
         d="M 0,-0.35 V 236.21 H 64.62 C 59.63,230.84 52.9,223.25 46.36,214.75 29.44,192.75 21.95,175.63 24.1,163.87 c 0.53,-2.89 1.68,-5.42 3.38,-7.62 -2.15,-3.88 -2.6,-8.65 -0.84,-13.1 3.13,-7.89 12.05,-11.75 19.94,-8.62 4.93,1.95 8.29,6.17 9.35,10.99 16.93,-1.42 40.42,0.45 70.24,5.61 l 0.69,-23.96 7.43,25.42 c 1.33,0.25 2.65,0.49 4.01,0.75 3.23,0.62 6.43,1.25 9.58,1.9 l 5.23,-6.54 -0.85,7.45 c 6.79,1.43 13.3,2.89 19.34,4.3 l 15.29,-8.31 -9.25,9.75 c 14.91,3.59 26.13,6.66 30.28,7.82 V 116.2 h 25.65 v -3 H 3 V 2.65 h 326.36 v 22.68 c 7,-5.64 17.36,-13.54 26.4,-18.7 -0.93,-1.44 -1.83,-2.78 -2.7,-3.98 h 4.73 c 0.46,0.68 0.93,1.39 1.4,2.12 1.68,-0.85 3.27,-1.57 4.77,-2.12 h 9.02 c 0.13,0.12 0.27,0.22 0.39,0.35 3.28,3.64 2.57,12.37 1.14,26.33 -0.09,0.84 -0.17,1.69 -0.26,2.55 4.37,8.38 9.24,17.67 13.79,25.02 9.67,-4.92 23.5,-14.47 36.61,-23.64 v 0 c 5.93,-11.97 11.42,-23.02 16.65,-30.6 h 4.83 c -4.67,6.24 -9.91,16.22 -14.77,25.91 12.42,-8.69 24.25,-16.86 33.49,-21.93 -0.98,-1.45 -1.93,-2.78 -2.87,-3.98 h 4.84 c 0.49,0.69 0.99,1.42 1.49,2.17 1.78,-0.88 3.43,-1.61 4.95,-2.17 h 9.81 c 0.38,0.28 0.73,0.61 1.05,0.98 4.01,4.7 2.28,15.53 0.29,28.07 -0.07,0.43 -0.14,0.87 -0.21,1.31 0.26,0.49 0.51,0.98 0.77,1.49 3.88,7.46 8.2,15.78 12.23,22.52 9.64,-4.86 22.92,-14.47 36.12,-24.13 0.32,-0.61 0.64,-1.23 0.95,-1.84 v 8.49 c -11.2,21.54 -18.54,34.66 -25.47,34.66 -4,0 -8.17,-4.36 -13.14,-12.19 -3.28,1.4 -6.15,2.2 -8.47,2.2 -2.55,0 -4.6,-0.89 -6.1,-2.64 -4.26,-4.99 -2.85,-15.95 -0.97,-27.89 -4.21,-8.09 -8.8,-16.79 -13.16,-23.75 -10.15,5.58 -24.05,15.31 -36.83,24.26 -0.82,0.57 -1.63,1.14 -2.44,1.71 -11.83,23.85 -19.61,38.3 -27.27,38.3 -4.22,0 -8.64,-4.37 -13.86,-12.3 -3.35,1.47 -6.18,2.3 -8.33,2.3 -2.15,0 -4.11,-0.81 -5.55,-2.41 C 368.23,56.87 369,44.92 370.22,32.67 366.27,25.11 361.9,16.76 357.82,9.97 348.58,15.3 337.1,24.08 329.36,30.4 v 15.98 c 0.41,-0.06 0.82,-0.1 1.24,-0.1 3.95,0 8.2,4.41 13.3,12.35 4.11,-2.08 7.78,-3.4 10.49,-3.4 1.45,0 2.72,0.56 3.68,1.63 3.28,3.64 2.57,12.37 1.14,26.33 -0.09,0.84 -0.17,1.69 -0.26,2.55 4.37,8.38 9.24,17.67 13.79,25.01 9.67,-4.92 23.5,-14.47 36.61,-23.64 10.87,-21.93 20.26,-40.83 29.3,-40.83 4.44,0 9.08,4.51 14.37,12.4 4.4,-2.17 8.04,-3.44 10.65,-3.44 2.11,0 3.89,0.78 5.15,2.26 4.01,4.7 2.28,15.53 0.29,28.07 -0.07,0.43 -0.14,0.87 -0.21,1.31 0.26,0.49 0.51,0.98 0.77,1.49 3.88,7.46 8.2,15.78 12.23,22.52 9.64,-4.86 22.92,-14.47 36.12,-24.13 5.58,-10.74 11,-20.98 16.25,-28.48 v 7.17 c -3.02,4.87 -6.1,10.45 -9.08,16.06 3.08,-2.25 6.11,-4.45 9.08,-6.57 v 4.82 c -3.85,2.77 -7.76,5.63 -11.65,8.48 -0.52,0.38 -1.03,0.75 -1.54,1.13 -0.35,0.68 -0.71,1.36 -1.06,2.04 -4.87,9.39 -9.01,17.25 -12.71,23.27 h 26.97 V 233.24 H 207.91 v -59.9 c -5.17,-1.5 -17.11,-5.01 -32.57,-9.01 l -17.04,17.96 23.06,3.5 -21.4,9.37 35.24,21.69 -40.22,-9.7 8.45,21.79 -18.74,-13.88 -0.61,21.17 H 537.29 V -0.35 Z"
         id="path32"
         style="fill:#ffffff" />
      <circle
         class="cls-2"
         cx="136.57001"
         cy="192.41"
         r="13.1"
         transform="rotate(-72.94,136.54937,192.4057)"
         id="circle32"
         style="fill:#ffffff" />
    </g>
    <path
       class="cls-1"
       d="M 22.162172,63.609141 H 22.1237 C 21.740788,57.194778 20.63046,45.038089 19.883062,37.130476 H 16.801219 C 16.07382,44.942743 14.886605,57.923719 14.54212,63.781382 H 14.50365 C 14.33141,58.171311 13.316427,45.038089 12.684369,37.130476 H 9.8132131 l 3.1402839,33.563532 h 2.775813 c 0.765856,-7.601584 1.95307,-19.452239 2.488242,-25.59748 h 0.07693 c 0.536714,5.762317 1.647042,17.902088 2.354455,25.59748 h 2.9096 L 26.96641,37.130476 h -2.8527 c -0.632056,8.079853 -1.5886,20.447225 -1.95307,26.478665 z"
       id="path1-6"
       style="fill:#ffffff;stroke-width:0.153785" />
    <path
       class="cls-1"
       d="M 6.806765,54.34207 C 4.7767963,52.408995 4.3938808,51.124892 4.3938808,48.655108 c 0,-2.125306 0.3444722,-3.906133 1.5701421,-3.906133 1.1303139,0 1.551685,1.627042 1.551685,3.867687 v 1.264112 h 2.5266851 v -1.339466 c 0,-3.464772 -0.4782721,-6.528165 -3.8861417,-6.528165 -3.6569989,0 -4.4797549,3.541663 -4.4797549,7.103319 0,4.230621 1.244127,5.514723 3.6570112,7.907614 2.4128717,2.374438 2.9295987,3.713903 2.9295987,6.911089 0,2.814262 -0.5367127,4.538189 -2.0868691,4.538189 -1.5501438,0 -2.1822003,-1.55015 -2.1822003,-4.096826 V 62.691047 H 1.330483 v 1.665489 c 0,3.695448 1.0149843,6.835734 4.7673266,6.835734 3.9445834,0 4.8826674,-3.675456 4.8826674,-7.676937 0,-4.728883 -0.976528,-6.145239 -4.173712,-9.170189 z"
       id="path2-5"
       style="fill:#ffffff;stroke-width:0.153785" />
    <polygon
       class="cls-1"
       points="54.55,8.43 36.12,8.43 31.52,35.57 45.46,35.57 "
       id="polygon2"
       style="fill:#ffffff"
       transform="matrix(0.1537848,0,0,0.1537848,0.06482869,35.83407)" />
    <path
       class="cls-1"
       d="m 62.215425,70.694008 h 2.814257 L 61.200441,37.130476 h -3.790798 l -3.395566,30.847692 h -2.76812 v -13.15629 l 3.330972,-2.11454 v -2.90192 l -3.330972,2.097624 V 37.130476 H 39.356849 v 2.901919 h 3.618556 v 30.660074 h 2.718913 V 40.032395 h 2.834255 v 13.580734 l -0.976529,0.61514 v 2.940365 l 0.976529,-0.619752 v 14.145126 h 7.946055 l 1.081106,-10.588084 h 3.527824 l 1.136479,10.588084 z M 59.344256,40.902817 c 0.209144,3.409408 0.755079,9.202482 1.525546,16.427292 h -3.089536 c 0.55517,-5.83152 1.294874,-13.700689 1.447119,-16.427292 h 0.115281 z"
       id="path3-0"
       style="fill:#ffffff;stroke-width:0.153785" />
    <rect
       class="cls-1"
       x="27.387789"
       y="37.130474"
       width="2.7189152"
       height="33.563534"
       id="rect3"
       style="fill:#ffffff;stroke-width:0.153785" />
    <path
       class="cls-1"
       d="m 34.434196,37.130476 -3.695442,33.563532 h 2.757357 l 1.081107,-10.588084 h 3.527823 l 1.136466,10.588084 h 2.814269 L 38.224994,37.130476 Z m 1.933071,3.772341 c 0.209158,3.409408 0.755093,9.202482 1.525547,16.427292 h -3.089537 c 0.555171,-5.83152 1.294876,-13.700689 1.44712,-16.427292 h 0.11528 z"
       id="path4-3"
       style="fill:#ffffff;stroke-width:0.153785" />
    <polygon
       class="cls-1"
       points="537.28,175.18 498.59,137.58 537.28,192.46 "
       id="polygon4"
       style="fill:#ffffff"
       transform="matrix(0.1537848,0,0,0.1537848,0.06482869,35.83407)" />
    <polygon
       class="cls-1"
       points="537.28,159.42 501.78,134.39 537.28,170.92 "
       id="polygon5"
       style="fill:#ffffff"
       transform="matrix(0.1537848,0,0,0.1537848,0.06482869,35.83407)" />
    <polygon
       class="cls-1"
       points="520.05,236.43 537.28,236.43 537.28,230.11 490.93,142.27 "
       id="polygon6"
       style="fill:#ffffff"
       transform="matrix(0.1537848,0,0,0.1537848,0.06482869,35.83407)" />
    <polygon
       class="cls-1"
       points="518.26,236.43 486.65,143.66 499.98,236.43 "
       id="polygon7"
       style="fill:#ffffff"
       transform="matrix(0.1537848,0,0,0.1537848,0.06482869,35.83407)" />
    <polygon
       class="cls-1"
       points="537.28,196.78 494.94,140.23 537.28,226.32 "
       id="polygon8"
       style="fill:#ffffff"
       transform="matrix(0.1537848,0,0,0.1537848,0.06482869,35.83407)" />
    <polygon
       class="cls-1"
       points="537.28,146.9 504.42,130.75 537.28,155.34 "
       id="polygon9"
       style="fill:#ffffff"
       transform="matrix(0.1537848,0,0,0.1537848,0.06482869,35.83407)" />
    <polygon
       class="cls-1"
       points="537.28,126.68 507.86,122.45 537.28,132.47 "
       id="polygon10"
       style="fill:#ffffff"
       transform="matrix(0.1537848,0,0,0.1537848,0.06482869,35.83407)" />
    <polygon
       class="cls-1"
       points="537.28,136.26 506.47,126.73 537.28,142.99 "
       id="polygon11"
       style="fill:#ffffff"
       transform="matrix(0.1537848,0,0,0.1537848,0.06482869,35.83407)" />
    <polygon
       class="cls-1"
       points="480.95,-0.08 482.2,87.12 497.29,-0.08 "
       id="polygon12"
       style="fill:#ffffff"
       transform="matrix(0.14795632,0,0,0.15218437,2.7922724,36.304166)" />
    <polygon
       class="cls-1"
       points="443.27,-0.08 473.24,87.83 460.59,-0.08 "
       id="polygon13"
       style="fill:#ffffff"
       transform="matrix(0.14795632,0,0,0.15218437,2.7922724,36.304166)" />
    <polygon
       class="cls-1"
       points="486.65,87.83 516.62,-0.08 499.29,-0.08 "
       id="polygon14"
       style="fill:#ffffff"
       transform="matrix(0.14795632,0,0,0.15218437,2.7922724,36.304166)" />
    <polygon
       class="cls-1"
       points="477.69,87.12 478.94,-0.08 462.59,-0.08 "
       id="polygon15"
       style="fill:#ffffff"
       transform="matrix(0.14795632,0,0,0.15218437,2.7922724,36.304166)" />
    <polygon
       class="cls-1"
       points="459.9,236.43 473.24,143.66 441.63,236.43 "
       id="polygon16"
       style="fill:#ffffff"
       transform="matrix(0.1537848,0,0,0.1537848,0.06482869,35.83407)" />
    <polygon
       class="cls-1"
       points="498.13,236.43 482.2,144.37 480.88,236.43 "
       id="polygon17"
       style="fill:#ffffff"
       transform="matrix(0.1537848,0,0,0.1537848,0.06482869,35.83407)" />
    <polygon
       class="cls-1"
       points="421.82,-0.08 468.96,89.22 441.33,-0.08 "
       id="polygon18"
       style="fill:#ffffff"
       transform="matrix(0.14795632,0,0,0.15218437,2.7922724,36.304166)" />
    <polygon
       class="cls-1"
       points="537.28,117.59 508.57,118 537.28,122.97 "
       id="polygon19"
       style="fill:#ffffff"
       transform="matrix(0.1537848,0,0,0.1537848,0.06482869,35.83407)" />
    <polygon
       class="cls-1"
       points="479,236.43 477.69,144.37 461.76,236.43 "
       id="polygon20"
       style="fill:#ffffff"
       transform="matrix(0.1537848,0,0,0.1537848,0.06482869,35.83407)" />
    <polygon
       class="cls-1"
       points="414.85,80.78 455.46,100.75 413.56,69.38 "
       id="polygon21"
       style="fill:#ffffff"
       transform="matrix(0.1537848,0,0,0.1537848,0.06482869,35.83407)" />
    <polygon
       class="cls-1"
       points="452.03,122.45 420.1,127.04 420.78,133.1 "
       id="polygon22"
       style="fill:#ffffff"
       transform="matrix(0.1537848,0,0,0.1537848,0.06482869,35.83407)" />
    <polygon
       class="cls-1"
       points="451.32,118 419.69,123.47 419.02,117.54 "
       id="polygon23"
       style="fill:#ffffff"
       transform="matrix(0.1537848,0,0,0.1537848,0.06482869,35.83407)" />
    <polygon
       class="cls-1"
       points="451.32,113.49 417.91,107.71 418.61,113.96 "
       id="polygon24"
       style="fill:#ffffff"
       transform="matrix(0.1537848,0,0,0.1537848,0.06482869,35.83407)" />
    <polygon
       class="cls-1"
       points="416.69,97 417.49,104.08 452.03,109.04 "
       id="polygon25"
       style="fill:#ffffff"
       transform="matrix(0.1537848,0,0,0.1537848,0.06482869,35.83407)" />
    <polygon
       class="cls-1"
       points="453.42,126.73 421.94,143.34 421.19,136.7 "
       id="polygon26"
       style="fill:#ffffff"
       transform="matrix(0.1537848,0,0,0.1537848,0.06482869,35.83407)" />
    <polygon
       class="cls-1"
       points="453.42,104.76 416.27,93.27 415.29,84.64 "
       id="polygon27"
       style="fill:#ffffff"
       transform="matrix(0.1537848,0,0,0.1537848,0.06482869,35.83407)" />
    <polygon
       class="cls-1"
       points="410.78,44.82 461.3,93.91 407.73,17.93 "
       id="polygon28"
       style="fill:#ffffff"
       transform="matrix(0.1537848,0,0,0.1537848,0.06482869,35.83407)" />
    <polygon
       class="cls-1"
       points="422.36,147.02 423.25,154.86 455.46,130.75 "
       id="polygon29"
       style="fill:#ffffff"
       transform="matrix(0.1537848,0,0,0.1537848,0.06482869,35.83407)" />
    <polygon
       class="cls-1"
       points="413.11,65.38 458.11,97.1 411.24,48.87 "
       id="polygon30"
       style="fill:#ffffff"
       transform="matrix(0.1537848,0,0,0.1537848,0.06482869,35.83407)" />
    <g
       id="g34"
       transform="matrix(0.1537848,0,0,0.1537848,0.06482869,35.83407)">
      <polygon
         class="cls-1"
         points="461.3,137.66 426.83,186.56 425.26,172.69 "
         id="polygon31"
         style="fill:#ffffff" />
      <polygon
         class="cls-1"
         points="464.94,140.31 429.71,211.97 427.29,190.61 "
         id="polygon32"
         style="fill:#ffffff" />
      <polygon
         class="cls-1"
         points="406.02,2.96 407.41,15.15 407.32,14.38 464.94,91.35 420.05,-0.04 0,-0.04 0,236.52 439.84,236.52 468.95,142.36 430.15,215.9 432.15,233.52 3,233.52 3,2.96 "
         id="polygon33"
         style="fill:#ffffff" />
      <polygon
         class="cls-1"
         points="518.53,0 490.93,89.22 537.28,1.39 537.28,0 "
         id="polygon34"
         style="fill:#ffffff" />
    </g>
    <polygon
       class="cls-1"
       points="537.28,60.57 501.78,97.1 537.28,72.07 "
       id="polygon35"
       style="fill:#ffffff"
       transform="matrix(0.1537848,0,0,0.1537848,0.06482869,35.83407)" />
    <polygon
       class="cls-1"
       points="537.28,76.15 504.42,100.75 537.28,84.59 "
       id="polygon36"
       style="fill:#ffffff"
       transform="matrix(0.1537848,0,0,0.1537848,0.06482869,35.83407)" />
    <polygon
       class="cls-1"
       points="537.28,88.5 506.47,104.76 537.28,95.23 "
       id="polygon37"
       style="fill:#ffffff"
       transform="matrix(0.1537848,0,0,0.1537848,0.06482869,35.83407)" />
    <polygon
       class="cls-1"
       points="424.81,168.66 458.11,134.39 423.68,158.67 "
       id="polygon38"
       style="fill:#ffffff"
       transform="matrix(0.1537848,0,0,0.1537848,0.06482869,35.83407)" />
    <polygon
       class="cls-1"
       points="537.28,99.02 507.86,109.04 537.28,104.82 "
       id="polygon39"
       style="fill:#ffffff"
       transform="matrix(0.1537848,0,0,0.1537848,0.06482869,35.83407)" />
    <polygon
       class="cls-1"
       points="537.28,108.53 508.57,113.49 537.28,113.9 "
       id="polygon40"
       style="fill:#ffffff"
       transform="matrix(0.1537848,0,0,0.1537848,0.06482869,35.83407)" />
    <polygon
       class="cls-1"
       points="537.28,5.17 494.94,91.27 537.28,34.72 "
       id="polygon41"
       style="fill:#ffffff"
       transform="matrix(0.1537848,0,0,0.1537848,0.06482869,35.83407)" />
    <polygon
       class="cls-1"
       points="537.28,39.04 498.59,93.91 537.28,56.32 "
       id="polygon42"
       style="fill:#ffffff"
       transform="matrix(0.1537848,0,0,0.1537848,0.06482869,35.83407)" />
    <path
       d="M 3.1907015,66.178131 H 4.9147843 V 60.038714 H 3.5060825 c 0,0.626557 -0.7106585,1.114346 -1.5895202,1.126962 v 0.950348 h 1.2741392 z m 4.9662039,0.08831 c 1.5811101,0 2.2875636,-0.613942 2.2875636,-1.673622 v -2.968787 c 0,-1.055475 -0.7064535,-1.673621 -2.2875636,-1.673621 -1.5811101,0 -2.2833584,0.618146 -2.2833584,1.673621 v 2.968787 c 0,1.05968 0.7022483,1.673622 2.2833584,1.673622 z M 7.6018349,64.962863 v -3.713086 h 1.1143462 v 3.713086 z m 3.5364741,-0.78635 h 2.060489 v -1.244704 h -2.060489 z m 3.801397,2.001618 h 1.724083 v -6.139417 h -1.408702 c 0,0.626557 -0.710659,1.114346 -1.58952,1.126962 v 0.950348 h 1.274139 z m 3.72991,0 h 1.724083 v -6.139417 h -1.408702 c 0,0.626557 -0.710659,1.114346 -1.58952,1.126962 v 0.950348 h 1.274139 z m 2.653409,0 h 1.593726 v -1.560085 h -1.593726 z m 4.583542,0.08831 c 1.58111,0 2.287564,-0.613942 2.287564,-1.673622 v -2.968787 c 0,-1.055475 -0.706454,-1.673621 -2.287564,-1.673621 -1.58111,0 -2.283358,0.618146 -2.283358,1.673621 v 2.968787 c 0,1.05968 0.702248,1.673622 2.283358,1.673622 z m -0.55507,-1.303575 v -3.713086 h 1.114346 v 3.713086 z m 5.874498,1.303575 c 1.526444,0 2.237102,-0.613942 2.237102,-1.673622 v -1.484393 c 0,-0.773735 -0.525635,-1.269934 -1.442342,-1.269934 -0.672813,0 -1.063885,0.218664 -1.30778,0.613941 v -1.202653 h 2.750122 v -1.211063 h -4.47 v 3.477601 h 1.719878 v -0.630762 h 1.017629 v 2.07731 h -1.017629 v -0.925118 h -1.719878 v 0.555071 c 0,1.05968 0.702249,1.673622 2.232898,1.673622 z m 49.325766,-0.08831 h 4.503641 v -1.282549 h -2.783763 v -0.52143 l 2.783763,-1.215268 v -1.534855 c 0,-1.055475 -0.702249,-1.673621 -2.258128,-1.673621 -1.551675,0 -2.245513,0.618146 -2.245513,1.673621 v 0.689634 h 1.719878 v -1.063886 h 1.05968 v 1.198448 l -2.779558,1.206858 z m 7.602788,0.08831 c 1.58111,0 2.287564,-0.613942 2.287564,-1.673622 v -2.968787 c 0,-1.055475 -0.706454,-1.673621 -2.287564,-1.673621 -1.58111,0 -2.283358,0.618146 -2.283358,1.673621 v 2.968787 c 0,1.05968 0.702248,1.673622 2.283358,1.673622 z m -0.55507,-1.303575 v -3.713086 h 1.114346 v 3.713086 z m 3.658421,1.215268 h 4.50364 v -1.282549 h -2.783763 v -0.52143 l 2.783763,-1.215268 v -1.534855 c 0,-1.055475 -0.702248,-1.673621 -2.258128,-1.673621 -1.551674,0 -2.245512,0.618146 -2.245512,1.673621 v 0.689634 h 1.719877 v -1.063886 h 1.05968 v 1.198448 L 91.2579,63.655083 Z m 7.56495,0 h 1.58111 v -0.967168 h 0.64758 v -1.223679 h -0.64758 v -3.94857 h -2.653405 l -1.442343,4.015852 v 1.156397 h 2.514638 z m -1.063885,-2.190847 0.710659,-2.022643 c 0.08831,-0.252305 0.168203,-0.508815 0.248099,-0.756914 h 0.113537 c -0.0042,0.248099 -0.0084,0.504609 -0.0084,0.756914 v 2.022643 z"
       id="text2"
       style="font-weight:bold;font-size:8.41016px;font-family:'Pressio TEST';-inkscape-font-specification:'Pressio TEST Bold';text-align:center;text-anchor:middle;mix-blend-mode:color;fill:#ffffff;stroke-width:0.35286"
       transform="scale(0.8057732,1.241044)"
       aria-label="10-11.05                            2024" />
    <rect
       style="mix-blend-mode:color;fill:#ffffff;fill-opacity:1;stroke-width:0.0631594"
       id="rect2"
       width="33.489719"
       height="0.76188368"
       x="28.915752"
       y="78.214417" />
  </g>
</svg>
