<?xml version="1.0" encoding="UTF-8" standalone="no"?>
<!-- Created with Inkscape (http://www.inkscape.org/) -->

<svg
   width="313"
   height="311"
   viewBox="0 0 82.814581 82.285416"
   version="1.1"
   id="svg1"
   inkscape:version="1.3.2 (091e20e, 2023-11-25, custom)"
   sodipodi:docname="2024_logo mobile 10 11 05.svg"
   xmlns:inkscape="http://www.inkscape.org/namespaces/inkscape"
   xmlns:sodipodi="http://sodipodi.sourceforge.net/DTD/sodipodi-0.dtd"
   xmlns="http://www.w3.org/2000/svg"
   xmlns:svg="http://www.w3.org/2000/svg">
  <sodipodi:namedview
     id="namedview1"
     pagecolor="#ffffff"
     bordercolor="#000000"
     borderopacity="0.25"
     inkscape:showpageshadow="2"
     inkscape:pageopacity="0.0"
     inkscape:pagecheckerboard="0"
     inkscape:deskcolor="#d1d1d1"
     inkscape:document-units="mm"
     inkscape:zoom="1.9830139"
     inkscape:cx="121.78432"
     inkscape:cy="164.64837"
     inkscape:window-width="1920"
     inkscape:window-height="1001"
     inkscape:window-x="-9"
     inkscape:window-y="-9"
     inkscape:window-maximized="1"
     inkscape:current-layer="layer1" />
  <defs
     id="defs1" />
  <g
     inkscape:label="Warstwa 1"
     inkscape:groupmode="layer"
     id="layer1">
    <path
       class="cls-2"
       d="M 4.2849151,3.5482947 V 18.061456 H 10.903397 C 11.092251,17.516355 11.07079,16.868238 10.253852,16.616436 9.8146233,16.49053 9.1436186,16.260184 8.5999473,15.883909 8.1807481,15.59061 7.4482226,14.941071 7.4482226,13.810806 v -2.827093 h 2.4708427 c 1.4450217,0 2.1360557,0.523644 2.3878627,2.031613 1.110231,-0.753984 2.053074,-1.88425 2.053074,-3.2047981 0,-0.7124954 -0.271836,-1.2776272 -0.608053,-1.6539048 -0.439229,0.753986 -1.382073,1.6338746 -2.911504,1.6338746 H 7.4682528 V 5.0977573 h 2.5767152 c -0.1259027,1.3620397 0.230345,2.6811576 1.340579,3.3092408 1.905711,-0.7954771 3.68552,-2.5337938 3.476637,-4.8587034 z"
       id="path1"
       style="fill:#ffffff;stroke-width:0.143071" />
    <path
       class="cls-2"
       d="M 26.202018,6.4855499 24.641111,7.8719112 C 24.234787,6.7287708 23.028694,5.8588973 21.194518,5.8588973 c -3.73416,0 -6.173529,3.3235472 -6.173529,6.5612547 0,3.496661 2.719787,5.784374 5.848759,5.784374 3.539585,0 5.655612,-2.784168 5.461036,-6.107716 -0.02147,-0.323342 -0.366266,-0.323342 -0.517922,-0.04293 -0.862717,1.57522 -1.791252,2.396445 -3.128967,2.396445 -1.034407,0 -1.931466,-0.454964 -2.548101,-1.201799 l 6.19499,-4.2806944 C 26.266394,8.1909495 26.352254,7.4355327 26.546822,6.658655 26.611202,6.3996962 26.352241,6.3567748 26.202018,6.4855391 Z M 19.25161,10.651788 c 0,-1.7697933 0.862722,-2.4179063 1.57522,-2.4179063 0.669574,0 0.907068,0.5179185 0.907068,1.0787579 0,0.5608399 -0.258956,1.3377174 -1.273335,2.2662524 l 0.01287,-0.0057 -0.881318,0.782601 c -0.218898,-0.507935 -0.34051,-1.084513 -0.34051,-1.705441 z"
       id="path2"
       style="fill:#ffffff;stroke-width:0.143071" />
    <path
       class="cls-2"
       d="M 48.42386,6.6815576 48.220703,6.0134144 C 47.17342,6.4168756 46.106104,6.618606 45.058821,6.6200368 45.143241,5.6757658 45.375009,4.7987383 45.771319,4.0075535 L 45.001594,3.5626017 c -0.951425,0.4664128 -2.14607,0.5665626 -3.483785,0.5665626 L 41.314647,4.4124456 V 6.6200368 H 39.95833 l -0.1817,0.3033114 c 0.404892,0.5880231 0.404892,1.1946454 0,1.9843993 l 0.1817,0.2031617 h 1.356317 v 5.1233848 c 0,2.552395 1.073032,3.968804 3.322114,3.968804 2.369262,0 3.179045,-1.681092 3.463762,-3.260599 l -0.729667,-0.323343 c -0.24322,0.628083 -0.749696,0.851274 -1.154587,0.851274 -0.588019,0 -1.012945,-0.466411 -1.012945,-1.457894 0,-0.708205 -0.093,-3.121819 -0.14593,-4.9016268 h 1.745467 C 47.187723,8.1594848 47.714227,7.22809 48.422432,6.6801267 Z"
       id="path3"
       style="fill:#ffffff;stroke-width:0.143071" />
    <path
       class="cls-2"
       d="m 36.63049,6.4240291 h 1.533723 V 10.513008 H 36.63049 c 0,-1.4249906 -1.048716,-2.985899 -2.313463,-2.985899 -0.779739,0 -1.15602,0.6180683 -1.15602,1.2905038 0,0.9414094 0.67244,1.7483322 2.66256,2.5008902 1.586662,0.592313 2.528072,1.559474 2.528072,3.442295 0,2.851415 -2.366401,3.4423 -3.820008,3.4423 -2.689738,0 -3.738453,-1.910004 -4.383704,-1.910004 -0.21461,0 -0.483581,0.214604 -0.457831,1.452174 h -2.097425 v -5.72858 h 0.48358 c 0.29616,0.752557 0.887045,1.23757 1.586662,1.479358 -0.214604,1.775516 1.399241,3.282061 2.662561,3.282061 0.349092,0 1.021526,-0.107305 1.021526,-0.94141 0,-1.021532 -0.94141,-1.693967 -2.259096,-2.28628 -1.641028,-0.752556 -2.958714,-1.775516 -2.958714,-3.9544961 0,-2.7169249 2.071675,-3.7384544 3.872941,-3.7384544 2.555256,0 3.200507,1.9371862 3.900125,1.9371862 0.403464,0 0.726801,-0.7268025 0.726801,-1.3720544 z"
       id="path4"
       style="fill:#ffffff;stroke-width:0.143071" />
    <path
       class="cls-2"
       d="m 39.649296,21.064522 c 1.477924,0 2.675436,-0.579438 2.675436,-1.72115 0,-1.141707 -1.197512,-1.721145 -2.675436,-1.721145 -1.477929,0 -2.694037,0.560837 -2.694037,1.721145 0,1.160313 1.197512,1.72115 2.694037,1.72115 z M 36.48742,25.81592 c 1.346302,0.336223 1.62672,0.972887 1.721144,2.393585 0.0558,0.785465 0.0558,1.945774 0,2.731234 -0.09299,1.197506 -1.010079,1.608124 -1.86994,1.665351 -1.216107,0.07439 -1.216107,2.636804 0.373415,2.50661 2.151797,-0.187427 4.320757,-0.187427 6.472548,0 1.589523,0.131627 1.589523,-2.393584 0.373415,-2.525212 -0.729661,-0.07439 -1.552319,-0.505042 -1.589522,-1.646749 -0.0744,-2.656834 -0.0372,-5.293639 0.150229,-7.388203 0.131622,-1.346302 -0.898492,-1.832748 -1.683952,-1.832748 -0.616636,0 -1.160309,0.299019 -1.851345,0.841259 -0.692463,0.54224 -1.459328,0.84126 -2.469412,1.121683 -0.878458,0.224619 -1.121678,1.758348 0.37342,2.131763 z"
       id="path5"
       style="fill:#ffffff;stroke-width:0.143071" />
    <path
       class="cls-2"
       d="m 74.684606,34.641995 h 1.868513 l 2.158945,-3.086048 v 3.778511 H 68.531112 l 0.864149,-1.510833 V 21.302021 l -0.864149,-1.510834 h 7.016216 l -0.86415,1.510834 v 13.341407 z"
       id="path6"
       style="fill:#ffffff;stroke-width:0.143071" />
    <path
       class="cls-2"
       d="M 56.958067,20.065884 53.843405,35.131296 H 51.744546 L 50.26805,27.990607 48.791553,35.131296 H 46.807154 L 43.669601,20.065884 h 4.508178 l -1.336288,3.326408 1.223262,8.213728 2.558116,-11.540136 h 0.918515 l 1.745473,11.540136 1.33772,-6.858839 -1.188924,-4.681297 h 3.520981 z"
       id="path7"
       style="fill:#ffffff;stroke-width:0.143071" />
    <g
       id="g12"
       transform="matrix(0.14307136,0,0,0.14307136,3.0044262,2.5253343)">
      <path
         class="cls-2"
         d="m 375.6,59.17 c 0.69,0.76 1.53,1.12 2.64,1.12 1.55,0 3.67,-0.62 6.23,-1.71 -3.27,-5.32 -6.85,-11.89 -10.88,-19.52 -0.67,8.74 -0.71,17.1 2.01,20.11 z"
         id="path8"
         style="fill:#ffffff" />
      <path
         class="cls-2"
         d="m 400.43,70.28 c 5.04,0 13.21,-15.06 20.57,-29.71 -11.64,8.08 -22.48,15.35 -30.86,19.63 3.99,6.02 7.63,10.08 10.29,10.08 z"
         id="path9"
         style="fill:#ffffff" />
      <path
         class="cls-2"
         d="m 369.69,5.29 c -2.07,0 -5.01,1.06 -8.44,2.8 2.92,4.85 6.12,10.74 9.69,17.51 0.87,-8.79 1.54,-17.73 -0.49,-19.98 -0.22,-0.24 -0.43,-0.33 -0.77,-0.33 z"
         id="path10"
         style="fill:#ffffff" />
      <path
         class="cls-2"
         d="m 481.13,6.17 c -0.35,-0.41 -0.92,-0.89 -2.18,-0.89 -1.97,0 -4.92,1.05 -8.53,2.82 3.29,5.27 6.83,11.71 10.72,19.08 1.39,-9 2.46,-18.11 -0.01,-21.02 z"
         id="path11"
         style="fill:#ffffff" />
      <path
         class="cls-2"
         d="m 484.07,59.02 c 0.74,0.87 1.73,1.27 3.12,1.27 1.72,0 3.89,-0.58 6.42,-1.62 -3.11,-5.23 -6.54,-11.65 -10.41,-19.08 -1.17,8.46 -1.71,16.4 0.87,19.44 z"
         id="path12"
         style="fill:#ffffff" />
    </g>
    <path
       class="cls-2"
       d="m 55.896478,3.282182 c -0.296159,0 -0.716786,0.1516554 -1.20752,0.4005996 0.417766,0.693896 0.875596,1.5365865 1.38636,2.5051795 v 0 c 0.124473,-1.257597 0.220331,-2.536655 -0.07011,-2.8585659 -0.03147,-0.034337 -0.06152,-0.047212 -0.11016,-0.047212 z"
       id="path13"
       style="fill:#ffffff;stroke-width:0.143071" />
    <path
       class="cls-2"
       d="m 71.840351,3.4080846 c -0.05007,-0.058659 -0.131628,-0.1273334 -0.311895,-0.1273334 -0.281851,0 -0.703911,0.1502246 -1.220401,0.4034612 0.470706,0.753986 0.977175,1.6753658 1.533723,2.7298016 0.198869,-1.2876422 0.351959,-2.5910223 -0.0016,-3.0073602 z"
       id="path14"
       style="fill:#ffffff;stroke-width:0.143071" />
    <path
       class="cls-2"
       d="m 72.260978,10.969406 c 0.105872,0.124473 0.247514,0.1817 0.446383,0.1817 0.246086,0 0.556548,-0.08298 0.918521,-0.231775 C 73.180926,10.171068 72.690192,9.2525496 72.13651,8.1895295 72.15798,8.0335816 72.18085,7.8762036 72.20518,7.7188249 72.18085,7.8762036 72.15797,8.0335816 72.13651,8.1895295 71.969112,9.3999132 71.891857,10.5359 72.260978,10.970837 Z"
       id="path15"
       style="fill:#ffffff;stroke-width:0.143071" />
    <g
       id="g25"
       transform="matrix(0.14307136,0,0,0.14307136,3.0044262,2.5253343)">
      <path
         class="cls-2"
         d="m 465.84,60.02 c -0.35,-0.41 -0.92,-0.89 -2.18,-0.89 -1.97,0 -4.92,1.05 -8.53,2.82 3.29,5.27 6.83,11.71 10.72,19.08 1.39,-9 2.46,-18.11 -0.01,-21.02 z"
         id="path16"
         style="fill:#ffffff" />
      <path
         class="cls-2"
         d="m 438.64,50.18 c -5.81,0 -14.71,16.5 -22.59,32.22 12.42,-8.69 24.25,-16.86 33.49,-21.93 -4.14,-6.14 -7.96,-10.29 -10.91,-10.29 z"
         id="path17"
         style="fill:#ffffff" />
      <path
         class="cls-2"
         d="m 468.78,112.86 c 0.74,0.87 1.73,1.27 3.12,1.27 1.72,0 3.89,-0.58 6.42,-1.62 -3.11,-5.22 -6.54,-11.65 -10.41,-19.08 -1.17,8.46 -1.71,16.4 0.87,19.44 z"
         id="path18"
         style="fill:#ffffff" />
      <path
         class="cls-2"
         d="m 502.67,114.65 c 3.61,-5.62 7.58,-13 11.3,-20.13 -11.18,8.11 -21.66,15.4 -30.02,19.65 0.11,0.17 0.21,0.32 0.32,0.48 z"
         id="path19"
         style="fill:#ffffff" />
      <path
         class="cls-2"
         d="m 415.01,104.48 c 17.37,0 25.53,10.17 25.53,10.17 h 24.72 c -3.56,-5.28 -2.21,-15.76 -0.42,-27.14 -4.21,-8.09 -8.8,-16.79 -13.16,-23.75 -10.15,5.58 -24.05,15.31 -36.83,24.26 -0.82,0.57 -1.63,1.14 -2.44,1.71 -2.99,6.03 -5.72,11.45 -8.26,16.2 3.11,-0.89 6.72,-1.45 10.86,-1.45 z"
         id="path20"
         style="fill:#ffffff" />
      <path
         class="cls-2"
         d="m 355.17,59.47 c -0.22,-0.24 -0.43,-0.33 -0.77,-0.33 -2.07,0 -5.01,1.06 -8.44,2.8 2.92,4.85 6.12,10.74 9.69,17.51 0.87,-8.79 1.54,-17.73 -0.49,-19.98 z"
         id="path21"
         style="fill:#ffffff" />
      <path
         class="cls-2"
         d="m 388.35,116.21 v 0 c 0,0 3.13,-4.67 10.16,-8.11 2.39,-4.27 4.83,-8.99 7.19,-13.68 -11.64,8.08 -22.48,15.35 -30.86,19.63 0.5,0.75 0.99,1.47 1.48,2.16 h 12.02 z"
         id="path22"
         style="fill:#ffffff" />
      <path
         class="cls-2"
         d="m 340.47,60.48 c -3.91,-6.1 -7.43,-10.3 -9.87,-10.3 -0.4,0 -0.82,0.07 -1.24,0.17 v 17.27 c 3.72,-2.6 7.51,-5.09 11.11,-7.14 z"
         id="path23"
         style="fill:#ffffff" />
      <path
         class="cls-2"
         d="M 329.36,113.21 H 277.2 v 3 h 80.78 c -0.2,-0.18 -0.39,-0.36 -0.58,-0.57 -4.45,-4.93 -3.68,-16.88 -2.46,-29.13 -3.95,-7.56 -8.32,-15.91 -12.4,-22.7 -4.12,2.38 -8.68,5.44 -13.17,8.67 v 40.74 z"
         id="path24"
         style="fill:#ffffff" />
      <path
         class="cls-2"
         d="m 362.95,114.13 c 1.55,0 3.67,-0.62 6.22,-1.71 -3.27,-5.32 -6.85,-11.88 -10.88,-19.52 -0.67,8.74 -0.71,17.1 2.01,20.11 0.69,0.76 1.53,1.12 2.64,1.12 z"
         id="path25"
         style="fill:#ffffff" />
    </g>
    <path
       class="cls-2"
       d="m 75.800563,12.58039 c 0.655271,0 1.862791,-2.194715 2.927242,-4.2349127 -1.599537,1.1603089 -3.098928,2.2032987 -4.295001,2.8113547 0.540807,0.84412 1.027253,1.423558 1.367759,1.423558 z"
       id="path26"
       style="fill:#ffffff;stroke-width:0.143071" />
    <path
       class="cls-2"
       d="M 66.426527,34.672038 V 22.493806 c 0,-3.345009 -2.329198,-4.485289 -4.237769,-4.485289 -2.197576,0 -3.436579,1.452174 -3.98454,3.277768 -0.08298,0.194576 -0.130194,0.40918 -0.130194,0.638098 0,0.94141 0.693896,1.635307 1.635307,1.635307 0.892765,0 1.586661,-0.693897 1.586661,-1.635307 0,-0.892766 -0.693896,-1.586662 -1.586661,-1.586662 -0.187427,0 -0.364834,0.0286 -0.527938,0.08012 0.523644,-0.852707 1.098788,-1.194651 1.71829,-1.194651 1.317685,0 1.764068,1.563772 1.805559,3.417977 l -1.532295,1.289075 c -2.106007,1.784098 -4.312169,4.336493 -4.312169,7.210797 0,3.296364 1.759779,4.410888 3.666917,4.410888 0.802635,0 1.673938,-0.270404 2.180408,-1.24043 v 1.017238 h 5.393795 v -0.658126 h -1.676799 z m -4.708474,-0.309034 c -0.867016,0 -1.14028,-2.131762 -1.14028,-4.410888 0,-1.33772 0.0744,-4.559683 1.659625,-6.096273 l 0.470705,-0.459257 v 8.587142 c 0,1.512266 -0.420627,2.379276 -0.991483,2.379276 z"
       id="path27"
       style="fill:#ffffff;stroke-width:0.143071" />
    <path
       class="cls-1"
       d="m 74.139505,10.681833 c -0.578004,-0.9643014 -1.196073,-2.1532241 -1.74976,-3.2219674 -0.0372,-0.071536 -0.0744,-0.1416404 -0.110165,-0.2131763 0.01,-0.062951 0.02001,-0.1244723 0.03006,-0.1874234 0.286144,-1.7941148 0.532225,-3.3435779 -0.04147,-4.016013 -0.0458,-0.052939 -0.09586,-0.1001503 -0.150224,-0.1402101 h -1.403528 c -0.216038,0.08012 -0.453537,0.1845617 -0.708205,0.3104649 -0.07153,-0.1073038 -0.14307,-0.211746 -0.213177,-0.3104649 h -0.692463 c 0.133055,0.1716856 0.270403,0.3619706 0.410612,0.5694242 -1.321979,0.7253715 -3.015946,1.8942646 -4.791457,3.1375547 0.695325,-1.3863612 1.44502,-2.8142136 2.113161,-3.7069789 h -0.691036 c -0.748262,1.0844811 -1.533723,2.66685 -2.382137,4.3779837 v 0 C 61.88405,8.5929907 59.905377,9.9593223 58.521877,10.663234 57.870899,9.6116586 57.175575,8.2839566 56.548921,7.083588 c 0.01287,-0.1230416 0.02433,-0.2460826 0.0372,-0.3648323 0.204595,-1.9958452 0.307604,-3.2462887 -0.163099,-3.7670689 -0.0172,-0.018602 -0.0372,-0.032904 -0.0558,-0.050073 h -1.290498 c -0.213177,0.080121 -0.442089,0.181701 -0.682449,0.3033118 -0.06725,-0.105873 -0.134488,-0.2074536 -0.200302,-0.3033115 h -0.676728 c 0.124474,0.1716856 0.254668,0.3634015 0.386296,0.5694242 -1.293369,0.7396791 -2.775587,1.8699427 -3.777084,2.6754343 V 2.9044736 H 3.4336403 V 18.722443 H 36.420173 v 0.429214 h -3.669779 v 16.739349 h 46.69277 v -16.96254 h -3.858639 c 0.529365,-0.861289 1.121683,-1.985827 1.81844,-3.329269 0.05007,-0.09586 0.100151,-0.193147 0.151657,-0.291865 0.07296,-0.05437 0.147363,-0.107305 0.220325,-0.161671 0.556548,-0.407752 1.11739,-0.81837 1.666784,-1.213247 v -0.689603 c -0.424921,0.303313 -0.858428,0.618068 -1.29909,0.939977 0.426354,-0.802629 0.867015,-1.600965 1.29909,-2.297722 v -1.025825 c -0.751123,1.071604 -1.526569,2.538087 -2.32491,4.074676 -1.888542,1.382067 -3.788532,2.756985 -5.167738,3.452309 -0.57801,-0.9643 -1.196078,-2.153225 -1.74976,-3.221964 -0.0372,-0.07154 -0.0744,-0.141642 -0.110166,-0.213176 0.01,-0.06295 0.02001,-0.124474 0.03007,-0.187427 0.286144,-1.794112 0.532225,-3.343577 -0.04148,-4.016013 -0.180267,-0.211746 -0.434935,-0.323342 -0.736815,-0.323342 -0.373421,0 -0.895626,0.181701 -1.523715,0.492166 -0.756844,-1.1288333 -1.420697,-1.7740853 -2.055934,-1.7740853 -1.293363,0 -2.636804,2.7040503 -4.19199,5.8416053 -1.875667,1.311964 -3.854339,2.678296 -5.237843,3.382207 -0.650972,-1.051576 -1.346296,-2.379277 -1.972952,-3.578216 0.01287,-0.12304 0.02433,-0.24608 0.0372,-0.364833 0.2046,-1.995842 0.307611,-3.246287 -0.163094,-3.767068 -0.137349,-0.151656 -0.319049,-0.233207 -0.526505,-0.233207 -0.389156,0 -0.914227,0.187424 -1.500819,0.486443 -0.729661,-1.1374171 -1.336287,-1.7669313 -1.90285,-1.7669313 -0.05866,0 -0.118747,0.00572 -0.177406,0.014308 v -2.286281 c 1.107369,-0.9042111 2.751263,-2.1603779 4.07181,-2.9229481 0.585164,0.9714546 1.210386,2.1661006 1.774083,3.24772 -0.174546,1.7526243 -0.284712,3.4623264 0.351958,4.1676714 0.206023,0.228912 0.473566,0.344799 0.794046,0.344799 0.320476,0 0.712493,-0.118747 1.191785,-0.329064 0.74683,1.133126 1.379206,1.759782 1.982966,1.759782 1.095928,0 2.209024,-2.067383 3.901557,-5.4796371 0.115887,-0.081551 0.233206,-0.1631014 0.349093,-0.2446523 1.828454,-1.2804883 3.817147,-2.6740035 5.269321,-3.4709109 0.62379,0.9957767 1.280488,2.2404975 1.882816,3.3979447 -0.268971,1.708272 -0.470706,3.2763346 0.138781,3.9902616 0.214605,0.250375 0.507903,0.377709 0.872736,0.377709 0.333357,0 0.742537,-0.113026 1.211814,-0.314761 0.711065,1.120251 1.309099,1.744046 1.879955,1.744046 0.990056,0 2.041632,-1.877101 3.644029,-4.9588576 V 6.9648388 c -0.0458,0.087274 -0.09156,0.1745467 -0.135915,0.2632512 -1.888542,1.3820693 -3.788532,2.7569851 -5.167738,3.452312 z"
       id="path28"
       style="fill:none;stroke-width:0.143071" />
    <g
       id="g32"
       transform="matrix(0.14307136,0,0,0.14307136,3.0044262,2.5253343)">
      <path
         class="cls-2"
         d="m 151.98,158.59 -1.53,13.37 17.52,-9.53 c -5.08,-1.27 -10.44,-2.56 -15.99,-3.84 z"
         id="path29"
         style="fill:#ffffff" />
      <path
         class="cls-2"
         d="m 131.83,216.73 -14.61,18.28 2.66,-23.25 -36.43,19.81 28.58,-30.12 -23.06,-3.5 21.4,-9.37 -35.24,-21.69 40.22,9.7 -8.45,-21.79 18.74,13.88 0.45,-15.53 c -24.83,-4.69 -50.5,-7.87 -69.95,-6.25 0.31,2.48 0.03,5.08 -0.96,7.57 -3.12,7.89 -12.05,11.75 -19.94,8.62 -2.92,-1.16 -5.29,-3.11 -6.95,-5.51 -1.38,1.92 -2.33,4.1 -2.78,6.55 -4.12,22.53 31.22,58.65 45.28,72.08 h 66.72 l -5.7,-19.48 z"
         id="path30"
         style="fill:#ffffff" />
      <path
         class="cls-2"
         d="m 138.5,166.98 7.74,-9.69 c -3.7,-0.82 -7.47,-1.63 -11.28,-2.4 l 3.54,12.1 z"
         id="path31"
         style="fill:#ffffff" />
      <path
         class="cls-2"
         d="M 0,-0.35 V 236.21 H 64.62 C 59.63,230.84 52.9,223.25 46.36,214.75 29.44,192.75 21.95,175.63 24.1,163.87 c 0.53,-2.89 1.68,-5.42 3.38,-7.62 -2.15,-3.88 -2.6,-8.65 -0.84,-13.1 3.13,-7.89 12.05,-11.75 19.94,-8.62 4.93,1.95 8.29,6.17 9.35,10.99 16.93,-1.42 40.42,0.45 70.24,5.61 l 0.69,-23.96 7.43,25.42 c 1.33,0.25 2.65,0.49 4.01,0.75 3.23,0.62 6.43,1.25 9.58,1.9 l 5.23,-6.54 -0.85,7.45 c 6.79,1.43 13.3,2.89 19.34,4.3 l 15.29,-8.31 -9.25,9.75 c 14.91,3.59 26.13,6.66 30.28,7.82 V 116.2 h 25.65 v -3 H 3 V 2.65 h 326.36 v 22.68 c 7,-5.64 17.36,-13.54 26.4,-18.7 -0.93,-1.44 -1.83,-2.78 -2.7,-3.98 h 4.73 c 0.46,0.68 0.93,1.39 1.4,2.12 1.68,-0.85 3.27,-1.57 4.77,-2.12 h 9.02 c 0.13,0.12 0.27,0.22 0.39,0.35 3.28,3.64 2.57,12.37 1.14,26.33 -0.09,0.84 -0.17,1.69 -0.26,2.55 4.37,8.38 9.24,17.67 13.79,25.02 9.67,-4.92 23.5,-14.47 36.61,-23.64 v 0 c 5.93,-11.97 11.42,-23.02 16.65,-30.6 h 4.83 c -4.67,6.24 -9.91,16.22 -14.77,25.91 12.42,-8.69 24.25,-16.86 33.49,-21.93 -0.98,-1.45 -1.93,-2.78 -2.87,-3.98 h 4.84 c 0.49,0.69 0.99,1.42 1.49,2.17 1.78,-0.88 3.43,-1.61 4.95,-2.17 h 9.81 c 0.38,0.28 0.73,0.61 1.05,0.98 4.01,4.7 2.28,15.53 0.29,28.07 -0.07,0.43 -0.14,0.87 -0.21,1.31 0.26,0.49 0.51,0.98 0.77,1.49 3.88,7.46 8.2,15.78 12.23,22.52 9.64,-4.86 22.92,-14.47 36.12,-24.13 0.32,-0.61 0.64,-1.23 0.95,-1.84 v 8.49 c -11.2,21.54 -18.54,34.66 -25.47,34.66 -4,0 -8.17,-4.36 -13.14,-12.19 -3.28,1.4 -6.15,2.2 -8.47,2.2 -2.55,0 -4.6,-0.89 -6.1,-2.64 -4.26,-4.99 -2.85,-15.95 -0.97,-27.89 -4.21,-8.09 -8.8,-16.79 -13.16,-23.75 -10.15,5.58 -24.05,15.31 -36.83,24.26 -0.82,0.57 -1.63,1.14 -2.44,1.71 -11.83,23.85 -19.61,38.3 -27.27,38.3 -4.22,0 -8.64,-4.37 -13.86,-12.3 -3.35,1.47 -6.18,2.3 -8.33,2.3 -2.15,0 -4.11,-0.81 -5.55,-2.41 C 368.23,56.87 369,44.92 370.22,32.67 366.27,25.11 361.9,16.76 357.82,9.97 348.58,15.3 337.1,24.08 329.36,30.4 v 15.98 c 0.41,-0.06 0.82,-0.1 1.24,-0.1 3.95,0 8.2,4.41 13.3,12.35 4.11,-2.08 7.78,-3.4 10.49,-3.4 1.45,0 2.72,0.56 3.68,1.63 3.28,3.64 2.57,12.37 1.14,26.33 -0.09,0.84 -0.17,1.69 -0.26,2.55 4.37,8.38 9.24,17.67 13.79,25.01 9.67,-4.92 23.5,-14.47 36.61,-23.64 10.87,-21.93 20.26,-40.83 29.3,-40.83 4.44,0 9.08,4.51 14.37,12.4 4.4,-2.17 8.04,-3.44 10.65,-3.44 2.11,0 3.89,0.78 5.15,2.26 4.01,4.7 2.28,15.53 0.29,28.07 -0.07,0.43 -0.14,0.87 -0.21,1.31 0.26,0.49 0.51,0.98 0.77,1.49 3.88,7.46 8.2,15.78 12.23,22.52 9.64,-4.86 22.92,-14.47 36.12,-24.13 5.58,-10.74 11,-20.98 16.25,-28.48 v 7.17 c -3.02,4.87 -6.1,10.45 -9.08,16.06 3.08,-2.25 6.11,-4.45 9.08,-6.57 v 4.82 c -3.85,2.77 -7.76,5.63 -11.65,8.48 -0.52,0.38 -1.03,0.75 -1.54,1.13 -0.35,0.68 -0.71,1.36 -1.06,2.04 -4.87,9.39 -9.01,17.25 -12.71,23.27 h 26.97 V 233.24 H 207.91 v -59.9 c -5.17,-1.5 -17.11,-5.01 -32.57,-9.01 l -17.04,17.96 23.06,3.5 -21.4,9.37 35.24,21.69 -40.22,-9.7 8.45,21.79 -18.74,-13.88 -0.61,21.17 H 537.29 V -0.35 Z"
         id="path32"
         style="fill:#ffffff" />
      <circle
         class="cls-2"
         cx="136.57001"
         cy="192.41"
         r="13.1"
         transform="rotate(-72.94,136.54937,192.4057)"
         id="circle32"
         style="fill:#ffffff" />
    </g>
    <path
       class="cls-1"
       d="m 23.563145,61.72323 h -0.0358 C 23.171021,55.754262 22.137791,44.441697 21.44229,37.083165 h -2.867849 c -0.676891,7.269806 -1.781669,19.349422 -2.102234,24.800346 h -0.0358 C 16.276128,56.662987 15.331622,44.441697 14.743453,37.083165 h -2.671792 l 2.922232,31.23298 h 2.583069 c 0.712677,-7.073752 1.817455,-18.101533 2.315466,-23.820067 h 0.07159 c 0.499446,5.362199 1.532676,16.65902 2.190969,23.820067 h 2.707566 l 3.171238,-31.23298 H 25.379174 C 24.791006,44.601977 23.900882,56.110596 23.56172,61.72323 Z"
       id="path1-6"
       style="fill:#ffffff;stroke-width:0.143107" />
    <path
       class="cls-1"
       d="M 9.2739717,53.099637 C 7.384958,51.300789 7.028631,50.10585 7.028631,47.807561 c 0,-1.977731 0.3205531,-3.634903 1.4611161,-3.634903 1.0518283,0 1.4439406,1.514065 1.4439406,3.599126 v 1.176336 h 2.3512393 v -1.246457 c 0,-3.224189 -0.445062,-6.074869 -3.6162993,-6.074869 -3.4030677,0 -4.168694,3.295741 -4.168694,6.610086 0,3.936859 1.1577385,5.131797 3.4030792,7.358533 2.2453291,2.209564 2.7261761,3.45602 2.7261761,6.431203 0,2.618848 -0.499445,4.223071 -1.9419631,4.223071 -1.4425064,0 -2.0306748,-1.442512 -2.0306748,-3.812355 V 60.868886 H 4.1779464 v 1.549842 c 0,3.438848 0.9445068,6.361081 4.4362977,6.361081 3.6706829,0 4.5436299,-3.420243 4.5436299,-7.143873 0,-4.400523 -0.908721,-5.718532 -3.8839023,-8.533438 z"
       id="path2-5"
       style="fill:#ffffff;stroke-width:0.143107" />
    <polygon
       class="cls-1"
       points="54.55,8.43 36.12,8.43 31.52,35.57 45.46,35.57 "
       id="polygon2"
       style="fill:#ffffff"
       transform="matrix(0.14310644,0,0,0.14310644,3.0001754,35.876778)" />
    <path
       class="cls-1"
       d="m 60.83522,68.316145 h 2.618843 l -3.56335,-31.23298 h -3.527576 l -3.159788,28.70572 h -2.57591 V 53.546129 l 3.099679,-1.967713 v -2.700419 l -3.099679,1.951971 V 37.083165 H 39.563875 v 2.700418 h 3.367294 v 28.53113 h 2.53012 v -28.53113 h 2.637453 v 12.637729 l -0.908722,0.572426 v 2.736195 l 0.908722,-0.576718 v 13.16293 h 7.394304 l 1.006038,-9.852879 h 3.282862 l 1.057565,9.852879 z M 58.163416,40.593566 c 0.194622,3.172669 0.702649,8.563489 1.419617,15.28663 h -2.875008 c 0.51662,-5.426597 1.204962,-12.749354 1.346635,-15.28663 h 0.107276 z"
       id="path3-0"
       style="fill:#ffffff;stroke-width:0.143107" />
    <rect
       class="cls-1"
       x="28.425911"
       y="37.083164"
       width="2.5301218"
       height="31.232981"
       id="rect3"
       style="fill:#ffffff;stroke-width:0.143107" />
    <path
       class="cls-1"
       d="m 34.983036,37.083165 -3.438841,31.23298 h 2.565894 l 1.006038,-9.852879 h 3.282862 l 1.057553,9.852879 h 2.618855 l -3.564784,-31.23298 z m 1.798845,3.510401 c 0.194634,3.172669 0.702661,8.563489 1.419617,15.28663 H 35.32649 c 0.516621,-5.426597 1.204963,-12.749354 1.346636,-15.28663 h 0.107275 z"
       id="path4-3"
       style="fill:#ffffff;stroke-width:0.143107" />
    <polygon
       class="cls-1"
       points="537.28,192.46 537.28,175.18 498.59,137.58 "
       id="polygon4"
       style="fill:#ffffff"
       transform="matrix(0.14310644,0,0,0.14310644,3.0001754,35.876778)" />
    <polygon
       class="cls-1"
       points="537.28,170.92 537.28,159.42 501.78,134.39 "
       id="polygon5"
       style="fill:#ffffff"
       transform="matrix(0.14310644,0,0,0.14310644,3.0001754,35.876778)" />
    <polygon
       class="cls-1"
       points="520.05,236.43 537.28,236.43 537.28,230.11 490.93,142.27 "
       id="polygon6"
       style="fill:#ffffff"
       transform="matrix(0.14310644,0,0,0.14310644,3.0001754,35.876778)" />
    <polygon
       class="cls-1"
       points="499.98,236.43 518.26,236.43 486.65,143.66 "
       id="polygon7"
       style="fill:#ffffff"
       transform="matrix(0.14310644,0,0,0.14310644,3.0001754,35.876778)" />
    <polygon
       class="cls-1"
       points="537.28,226.32 537.28,196.78 494.94,140.23 "
       id="polygon8"
       style="fill:#ffffff"
       transform="matrix(0.14310644,0,0,0.14310644,3.0001754,35.876778)" />
    <polygon
       class="cls-1"
       points="537.28,155.34 537.28,146.9 504.42,130.75 "
       id="polygon9"
       style="fill:#ffffff"
       transform="matrix(0.14310644,0,0,0.14310644,3.0001754,35.876778)" />
    <polygon
       class="cls-1"
       points="537.28,132.47 537.28,126.68 507.86,122.45 "
       id="polygon10"
       style="fill:#ffffff"
       transform="matrix(0.14310644,0,0,0.14310644,3.0001754,35.876778)" />
    <polygon
       class="cls-1"
       points="537.28,142.99 537.28,136.26 506.47,126.73 "
       id="polygon11"
       style="fill:#ffffff"
       transform="matrix(0.14310644,0,0,0.14310644,3.0001754,35.876778)" />
    <polygon
       class="cls-1"
       points="480.95,-0.08 482.2,87.12 497.29,-0.08 "
       id="polygon12"
       style="fill:#ffffff"
       transform="matrix(0.12472973,0,0,0.12472973,3.0001754,36.40521)" />
    <polygon
       class="cls-1"
       points="443.27,-0.08 473.24,87.83 460.59,-0.08 "
       id="polygon13"
       style="fill:#ffffff"
       transform="matrix(0.12472973,0,0,0.12472973,3.0001754,36.40521)" />
    <polygon
       class="cls-1"
       points="486.65,87.83 516.62,-0.08 499.29,-0.08 "
       id="polygon14"
       style="fill:#ffffff"
       transform="matrix(0.12472973,0,0,0.12472973,3.0001754,36.40521)" />
    <polygon
       class="cls-1"
       points="477.69,87.12 478.94,-0.08 462.59,-0.08 "
       id="polygon15"
       style="fill:#ffffff"
       transform="matrix(0.12472973,0,0,0.12472973,3.0001754,36.40521)" />
    <polygon
       class="cls-1"
       points="441.63,236.43 459.9,236.43 473.24,143.66 "
       id="polygon16"
       style="fill:#ffffff"
       transform="matrix(0.14310644,0,0,0.14310644,3.0001754,35.876778)" />
    <polygon
       class="cls-1"
       points="480.88,236.43 498.13,236.43 482.2,144.37 "
       id="polygon17"
       style="fill:#ffffff"
       transform="matrix(0.14310644,0,0,0.14310644,3.0001754,35.876778)" />
    <polygon
       class="cls-1"
       points="421.82,-0.08 468.96,89.22 441.33,-0.08 "
       id="polygon18"
       style="fill:#ffffff"
       transform="matrix(0.12472973,0,0,0.12472973,3.0001754,36.40521)" />
    <polygon
       class="cls-1"
       points="537.28,122.97 537.28,117.59 508.57,118 "
       id="polygon19"
       style="fill:#ffffff"
       transform="matrix(0.14310644,0,0,0.14310644,3.0001754,35.876778)" />
    <polygon
       class="cls-1"
       points="461.76,236.43 479,236.43 477.69,144.37 "
       id="polygon20"
       style="fill:#ffffff"
       transform="matrix(0.14310644,0,0,0.14310644,3.0001754,35.876778)" />
    <polygon
       class="cls-1"
       points="413.56,69.38 414.85,80.78 455.46,100.75 "
       id="polygon21"
       style="fill:#ffffff"
       transform="matrix(0.14310644,0,0,0.14310644,3.0001754,35.876778)" />
    <polygon
       class="cls-1"
       points="420.78,133.1 452.03,122.45 420.1,127.04 "
       id="polygon22"
       style="fill:#ffffff"
       transform="matrix(0.14310644,0,0,0.14310644,3.0001754,35.876778)" />
    <polygon
       class="cls-1"
       points="419.02,117.54 451.32,118 419.69,123.47 "
       id="polygon23"
       style="fill:#ffffff"
       transform="matrix(0.14310644,0,0,0.14310644,3.0001754,35.876778)" />
    <polygon
       class="cls-1"
       points="418.61,113.96 451.32,113.49 417.91,107.71 "
       id="polygon24"
       style="fill:#ffffff"
       transform="matrix(0.14310644,0,0,0.14310644,3.0001754,35.876778)" />
    <polygon
       class="cls-1"
       points="452.03,109.04 416.69,97 417.49,104.08 "
       id="polygon25"
       style="fill:#ffffff"
       transform="matrix(0.14310644,0,0,0.14310644,3.0001754,35.876778)" />
    <polygon
       class="cls-1"
       points="421.19,136.7 453.42,126.73 421.94,143.34 "
       id="polygon26"
       style="fill:#ffffff"
       transform="matrix(0.14310644,0,0,0.14310644,3.0001754,35.876778)" />
    <polygon
       class="cls-1"
       points="415.29,84.64 453.42,104.76 416.27,93.27 "
       id="polygon27"
       style="fill:#ffffff"
       transform="matrix(0.14310644,0,0,0.14310644,3.0001754,35.876778)" />
    <polygon
       class="cls-1"
       points="407.73,17.93 410.78,44.82 461.3,93.91 "
       id="polygon28"
       style="fill:#ffffff"
       transform="matrix(0.14310644,0,0,0.14310644,3.0001754,35.876778)" />
    <polygon
       class="cls-1"
       points="455.46,130.75 422.36,147.02 423.25,154.86 "
       id="polygon29"
       style="fill:#ffffff"
       transform="matrix(0.14310644,0,0,0.14310644,3.0001754,35.876778)" />
    <polygon
       class="cls-1"
       points="411.24,48.87 413.11,65.38 458.11,97.1 "
       id="polygon30"
       style="fill:#ffffff"
       transform="matrix(0.14310644,0,0,0.14310644,3.0001754,35.876778)" />
    <g
       id="g34"
       transform="matrix(0.14310644,0,0,0.14310644,3.0001754,35.876778)">
      <polygon
         class="cls-1"
         points="425.26,172.69 461.3,137.66 426.83,186.56 "
         id="polygon31"
         style="fill:#ffffff" />
      <polygon
         class="cls-1"
         points="427.29,190.61 464.94,140.31 429.71,211.97 "
         id="polygon32"
         style="fill:#ffffff" />
      <polygon
         class="cls-1"
         points="430.15,215.9 432.15,233.52 3,233.52 3,2.96 406.02,2.96 407.41,15.15 407.32,14.38 464.94,91.35 420.05,-0.04 0,-0.04 0,236.52 439.84,236.52 468.95,142.36 "
         id="polygon33"
         style="fill:#ffffff" />
      <polygon
         class="cls-1"
         points="518.53,0 490.93,89.22 537.28,1.39 537.28,0 "
         id="polygon34"
         style="fill:#ffffff" />
    </g>
    <polygon
       class="cls-1"
       points="537.28,72.07 537.28,60.57 501.78,97.1 "
       id="polygon35"
       style="fill:#ffffff"
       transform="matrix(0.14310644,0,0,0.14310644,3.0001754,35.876778)" />
    <polygon
       class="cls-1"
       points="537.28,84.59 537.28,76.15 504.42,100.75 "
       id="polygon36"
       style="fill:#ffffff"
       transform="matrix(0.14310644,0,0,0.14310644,3.0001754,35.876778)" />
    <polygon
       class="cls-1"
       points="537.28,95.23 537.28,88.5 506.47,104.76 "
       id="polygon37"
       style="fill:#ffffff"
       transform="matrix(0.14310644,0,0,0.14310644,3.0001754,35.876778)" />
    <polygon
       class="cls-1"
       points="423.68,158.67 424.81,168.66 458.11,134.39 "
       id="polygon38"
       style="fill:#ffffff"
       transform="matrix(0.14310644,0,0,0.14310644,3.0001754,35.876778)" />
    <polygon
       class="cls-1"
       points="537.28,104.82 537.28,99.02 507.86,109.04 "
       id="polygon39"
       style="fill:#ffffff"
       transform="matrix(0.14310644,0,0,0.14310644,3.0001754,35.876778)" />
    <polygon
       class="cls-1"
       points="537.28,113.9 537.28,108.53 508.57,113.49 "
       id="polygon40"
       style="fill:#ffffff"
       transform="matrix(0.14310644,0,0,0.14310644,3.0001754,35.876778)" />
    <polygon
       class="cls-1"
       points="537.28,34.72 537.28,5.17 494.94,91.27 "
       id="polygon41"
       style="fill:#ffffff"
       transform="matrix(0.14310644,0,0,0.14310644,3.0001754,35.876778)" />
    <polygon
       class="cls-1"
       points="537.28,56.32 537.28,39.04 498.59,93.91 "
       id="polygon42"
       style="fill:#ffffff"
       transform="matrix(0.14310644,0,0,0.14310644,3.0001754,35.876778)" />
    <text
       xml:space="preserve"
       style="font-style:normal;font-variant:normal;font-weight:bold;font-stretch:normal;font-size:7.05556px;font-family:'Pressio TEST';-inkscape-font-specification:'Pressio TEST Bold';text-align:center;text-anchor:middle;mix-blend-mode:color;fill:#ffffff;fill-opacity:1;stroke-width:0.296026"
       x="46.524963"
       y="69.708092"
       id="text2"
       transform="scale(0.89378193,1.1188411)"><tspan
         sodipodi:role="line"
         id="tspan2"
         style="font-style:normal;font-variant:normal;font-weight:bold;font-stretch:normal;font-size:7.05556px;font-family:'Pressio TEST';-inkscape-font-specification:'Pressio TEST Bold';text-align:center;text-anchor:middle;fill:#ffffff;fill-opacity:1;stroke-width:0.296026"
         x="46.524963"
         y="69.708092">10-11.05                            2024</tspan></text>
    <rect
       style="mix-blend-mode:color;fill:#ffffff;fill-opacity:1;stroke-width:0.0587738"
       id="rect2"
       width="31.164293"
       height="0.70898074"
       x="29.847776"
       y="74.821938" />
  </g>
</svg>
