<?xml version="1.0" encoding="UTF-8" standalone="no"?>
<!-- Created with Inkscape (http://www.inkscape.org/) -->

<svg
   width="1200"
   height="327"
   viewBox="0 0 294.15168 80.156333"
   version="1.1"
   id="svg1"
   inkscape:version="1.3.2 (091e20e, 2023-11-25, custom)"
   sodipodi:docname="2024_logo strona interenetowa 10 11 05.svg"
   xmlns:inkscape="http://www.inkscape.org/namespaces/inkscape"
   xmlns:sodipodi="http://sodipodi.sourceforge.net/DTD/sodipodi-0.dtd"
   xmlns="http://www.w3.org/2000/svg"
   xmlns:svg="http://www.w3.org/2000/svg">
  <sodipodi:namedview
     id="namedview1"
     pagecolor="#ffffff"
     bordercolor="#000000"
     borderopacity="0.25"
     inkscape:showpageshadow="2"
     inkscape:pageopacity="0.0"
     inkscape:pagecheckerboard="0"
     inkscape:deskcolor="#d1d1d1"
     inkscape:document-units="mm"
     inkscape:zoom="0.70110129"
     inkscape:cx="397.23219"
     inkscape:cy="-123.37732"
     inkscape:window-width="1920"
     inkscape:window-height="1001"
     inkscape:window-x="-9"
     inkscape:window-y="-9"
     inkscape:window-maximized="1"
     inkscape:current-layer="layer1" />
  <defs
     id="defs1">
    <rect
       x="92.711283"
       y="269.57588"
       width="1064.0403"
       height="55.62677"
       id="rect1" />
  </defs>
  <g
     inkscape:label="Warstwa 1"
     inkscape:groupmode="layer"
     id="layer1"
     style="mix-blend-mode:color">
    <g
       id="g42"
       transform="matrix(0.30370127,0,0,0.35636469,32.06904,4.414179)">
      <path
         class="cls-2"
         d="m 468.28,124.78 h -0.17 C 466.39,95.97 461.4,41.36 458.05,5.85 H 444.2 c -3.27,35.09 -8.6,93.39 -10.15,119.7 h -0.17 c -0.77,-25.2 -5.33,-84.19 -8.17,-119.7 h -12.9 l 14.1,150.75 h 12.47 c 3.44,-34.14 8.77,-87.37 11.18,-114.98 h 0.34 c 2.41,25.88 7.4,80.41 10.58,114.98 h 13.07 L 489.86,5.85 h -12.81 c -2.84,36.29 -7.14,91.84 -8.77,118.93 z"
         id="path1"
         style="fill:#ffffff" />
      <path
         class="cls-2"
         d="m 399.32,83.16 c -9.12,-8.69 -10.84,-14.45 -10.84,-25.54 0,-9.55 1.55,-17.54 7.05,-17.54 5.07,0 6.97,7.31 6.97,17.37 v 5.68 h 11.35 v -6.02 c 0,-15.57 -2.15,-29.32 -17.46,-29.32 -16.43,0 -20.12,15.91 -20.12,31.9 0,19 5.59,24.77 16.43,35.52 10.84,10.66 13.16,16.68 13.16,31.04 0,12.64 -2.41,20.38 -9.37,20.38 -6.96,0 -9.8,-6.97 -9.8,-18.4 v -7.57 h -11.95 v 7.48 c 0,16.6 4.56,30.7 21.41,30.7 17.71,0 21.93,-16.51 21.93,-34.48 0,-21.24 -4.39,-27.6 -18.75,-41.19 z"
         id="path2"
         style="fill:#ffffff" />
      <polygon
         class="cls-2"
         points="406.72,5.85 393.99,5.85 390.81,24.6 400.44,24.6 "
         id="polygon2"
         style="fill:#ffffff" />
      <path
         class="cls-2"
         d="m 648.19,156.6 h 12.64 L 643.63,5.85 H 626.6 L 611.35,144.41 H 598.91 V 85.32 l 14.96,-9.5 V 62.78 L 598.91,72.2 V 5.85 h -53.4 v 13.04 h 16.25 V 156.6 h 12.21 V 18.89 h 12.73 v 61 l -4.39,2.76 v 13.21 l 4.39,-2.78 v 63.53 h 35.69 l 4.85,-47.56 h 15.84 l 5.1,47.56 z M 635.29,22.79 c 0.94,15.32 3.39,41.33 6.86,73.78 h -13.87 c 2.49,-26.2 5.82,-61.54 6.5,-73.78 h 0.52 z"
         id="path3"
         style="fill:#ffffff" />
      <rect
         class="cls-2"
         x="491.76001"
         y="5.8499999"
         width="12.21"
         height="150.75"
         id="rect3"
         style="fill:#ffffff" />
      <path
         class="cls-2"
         d="m 523.41,5.85 -16.6,150.75 h 12.38 l 4.85,-47.56 h 15.84 l 5.1,47.56 h 12.64 L 540.42,5.85 h -17.03 z m 8.69,16.94 c 0.94,15.32 3.39,41.33 6.86,73.78 h -13.87 c 2.49,-26.2 5.82,-61.54 6.5,-73.78 h 0.52 z"
         id="path4"
         style="fill:#ffffff" />
      <polygon
         class="cls-2"
         points="713.43,95.06 740.15,132.96 740.15,121.03 "
         id="polygon4"
         style="fill:#ffffff" />
      <polygon
         class="cls-2"
         points="715.63,92.86 740.15,118.09 740.15,110.14 "
         id="polygon5"
         style="fill:#ffffff" />
      <polygon
         class="cls-2"
         points="728.25,163.34 740.15,163.34 740.15,158.97 708.14,98.3 "
         id="polygon6"
         style="fill:#ffffff" />
      <polygon
         class="cls-2"
         points="705.18,99.26 714.39,163.34 727.01,163.34 "
         id="polygon7"
         style="fill:#ffffff" />
      <polygon
         class="cls-2"
         points="710.91,96.89 740.15,156.35 740.15,135.95 "
         id="polygon8"
         style="fill:#ffffff" />
      <polygon
         class="cls-2"
         points="717.46,90.34 740.15,107.33 740.15,101.5 "
         id="polygon9"
         style="fill:#ffffff" />
      <polygon
         class="cls-2"
         points="719.83,84.61 740.15,91.53 740.15,87.53 "
         id="polygon10"
         style="fill:#ffffff" />
      <polygon
         class="cls-2"
         points="718.87,87.57 740.15,98.79 740.15,94.15 "
         id="polygon11"
         style="fill:#ffffff" />
      <polygon
         class="cls-2"
         points="701.24,-0.03 702.1,60.21 712.53,-0.03 "
         id="polygon12"
         style="fill:#ffffff" />
      <polygon
         class="cls-2"
         points="675.22,-0.03 695.92,60.69 687.18,-0.03 "
         id="polygon13"
         style="fill:#ffffff" />
      <polygon
         class="cls-2"
         points="705.18,60.69 725.88,-0.03 713.91,-0.03 "
         id="polygon14"
         style="fill:#ffffff" />
      <polygon
         class="cls-2"
         points="698.99,60.21 699.85,-0.03 688.56,-0.03 "
         id="polygon15"
         style="fill:#ffffff" />
      <polygon
         class="cls-2"
         points="695.92,99.26 674.08,163.34 686.71,163.34 "
         id="polygon16"
         style="fill:#ffffff" />
      <polygon
         class="cls-2"
         points="702.1,99.75 701.2,163.34 713.11,163.34 "
         id="polygon17"
         style="fill:#ffffff" />
      <polygon
         class="cls-2"
         points="660.4,-0.03 692.96,61.65 673.88,-0.03 "
         id="polygon18"
         style="fill:#ffffff" />
      <polygon
         class="cls-2"
         points="720.32,81.53 740.15,84.96 740.15,81.25 "
         id="polygon19"
         style="fill:#ffffff" />
      <polygon
         class="cls-2"
         points="698.99,99.75 687.99,163.34 699.9,163.34 "
         id="polygon20"
         style="fill:#ffffff" />
      <polygon
         class="cls-2"
         points="683.64,69.62 654.7,47.95 655.59,55.82 "
         id="polygon21"
         style="fill:#ffffff" />
      <polygon
         class="cls-2"
         points="659.21,87.78 659.68,91.96 681.26,84.61 "
         id="polygon22"
         style="fill:#ffffff" />
      <polygon
         class="cls-2"
         points="658.93,85.31 658.47,81.21 680.78,81.53 "
         id="polygon23"
         style="fill:#ffffff" />
      <polygon
         class="cls-2"
         points="657.7,74.43 658.19,78.74 680.78,78.42 "
         id="polygon24"
         style="fill:#ffffff" />
      <polygon
         class="cls-2"
         points="657.41,71.92 681.26,75.35 656.86,67.03 "
         id="polygon25"
         style="fill:#ffffff" />
      <polygon
         class="cls-2"
         points="660.48,99.04 659.97,94.45 682.23,87.57 "
         id="polygon26"
         style="fill:#ffffff" />
      <polygon
         class="cls-2"
         points="656.57,64.45 655.89,58.49 682.23,72.39 "
         id="polygon27"
         style="fill:#ffffff" />
      <polygon
         class="cls-2"
         points="687.67,64.9 650.67,12.41 652.77,30.98 "
         id="polygon28"
         style="fill:#ffffff" />
      <polygon
         class="cls-2"
         points="661.39,107 683.64,90.34 660.77,101.58 "
         id="polygon29"
         style="fill:#ffffff" />
      <polygon
         class="cls-2"
         points="685.47,67.1 653.09,33.78 654.38,45.18 "
         id="polygon30"
         style="fill:#ffffff" />
      <g
         id="g34">
        <polygon
           class="cls-2"
           points="663.86,128.89 662.77,119.31 687.67,95.12 "
           id="polygon31"
           style="fill:#ffffff" />
        <polygon
           class="cls-2"
           points="665.85,146.44 664.18,131.69 690.18,96.94 "
           id="polygon32"
           style="fill:#ffffff" />
        <polygon
           class="cls-2"
           points="659.18,0 369.04,0 369.04,163.4 672.85,163.4 692.96,98.36 666.16,149.15 667.54,161.32 371.11,161.32 371.11,2.07 649.49,2.07 650.44,10.49 650.38,9.96 690.18,63.13 "
           id="polygon33"
           style="fill:#ffffff" />
        <polygon
           class="cls-2"
           points="727.2,0.03 708.14,61.65 740.15,0.98 740.15,0.03 "
           id="polygon34"
           style="fill:#ffffff" />
      </g>
      <polygon
         class="cls-2"
         points="715.63,67.1 740.15,49.81 740.15,41.87 "
         id="polygon35"
         style="fill:#ffffff" />
      <polygon
         class="cls-2"
         points="717.46,69.62 740.15,58.46 740.15,52.63 "
         id="polygon36"
         style="fill:#ffffff" />
      <polygon
         class="cls-2"
         points="718.87,72.39 740.15,65.81 740.15,61.16 "
         id="polygon37"
         style="fill:#ffffff" />
      <polygon
         class="cls-2"
         points="685.47,92.86 661.68,109.62 662.47,116.52 "
         id="polygon38"
         style="fill:#ffffff" />
      <polygon
         class="cls-2"
         points="719.83,75.35 740.15,72.43 740.15,68.42 "
         id="polygon39"
         style="fill:#ffffff" />
      <polygon
         class="cls-2"
         points="720.32,78.42 740.15,78.7 740.15,74.99 "
         id="polygon40"
         style="fill:#ffffff" />
      <polygon
         class="cls-2"
         points="710.91,63.07 740.15,24.01 740.15,3.6 "
         id="polygon41"
         style="fill:#ffffff" />
      <polygon
         class="cls-2"
         points="713.43,64.9 740.15,38.93 740.15,26.99 "
         id="polygon42"
         style="fill:#ffffff" />
    </g>
    <path
       class="cls-2"
       d="M 33.945913,6.2601406 V 31.230618 h 9.703257 c 0.276362,-0.937236 0.245995,-2.052664 -0.950591,-2.487423 -0.643836,-0.217386 -1.627829,-0.612951 -2.426573,-1.261534 -0.61347,-0.506039 -1.688575,-1.621452 -1.688575,-3.567203 v -4.864384 h 3.623158 c 2.119833,0 3.131156,0.901602 3.501679,3.495937 1.62783,-1.297168 3.009677,-3.242918 3.009677,-5.512954 0,-1.225902 -0.397855,-2.19877 -0.889845,-2.847354 -0.643849,1.297167 -2.025684,2.811707 -4.267008,2.811707 H 38.616846 V 8.9257546 h 3.77804 c -0.185261,2.3413154 0.337108,4.6113654 1.96495,5.6947074 2.794049,-1.368448 5.405883,-4.358346 5.096106,-8.3603214 z"
       id="path42"
       style="fill:#ffffff;stroke-width:0.32898" />
    <path
       class="cls-2"
       d="m 66.08055,11.313402 -2.289916,2.387633 c -0.595257,-1.967121 -2.365827,-3.463852 -5.053585,-3.463852 -5.475735,0 -9.050301,5.719641 -9.050301,11.289627 0,6.01543 3.987598,9.953265 8.576524,9.953265 5.190254,0 8.291044,-4.789543 8.005563,-10.509197 -0.03035,-0.555919 -0.537547,-0.555919 -0.759246,-0.07487 -1.266438,2.711933 -2.627024,4.123136 -4.588926,4.123136 -1.515469,0 -2.830498,-0.784005 -3.735532,-2.06691 l 9.083704,-7.366069 c -0.09416,-1.336362 0.03035,-2.637091 0.31586,-3.973467 0.09416,-0.445444 -0.285481,-0.520286 -0.507192,-0.295776 z m -10.189188,7.166491 c 0,-3.043355 1.266437,-4.158783 2.311177,-4.158783 0.980944,0 1.330206,0.890917 1.330206,1.856663 0,0.965759 -0.379629,2.30212 -1.867766,3.898639 l 0.01821,-0.01018 -1.290734,1.347062 C 56.070537,20.5402 55.891347,19.545946 55.891347,18.480413 Z"
       id="path43"
       style="fill:#ffffff;stroke-width:0.32898" />
    <path
       class="cls-2"
       d="m 98.664657,11.651948 -0.297635,-1.15106 c -1.536729,0.69134 -3.100789,1.040586 -4.637519,1.044147 0.124516,-1.6250268 0.464671,-3.1324422 1.04474,-4.4937516 L 93.644474,6.2850886 C 92.24745,7.0869162 90.498129,7.2615322 88.536214,7.2615322 L 88.238591,7.749747 v 3.798851 H 86.249345 L 85.98209,12.07246 c 0.595257,1.012077 0.595257,2.056225 0,3.413973 l 0.267255,0.349231 h 1.989246 v 8.816467 c 0,4.390417 1.573167,6.827944 4.871372,6.827944 3.474335,0 4.661814,-2.893686 5.077881,-5.609181 l -1.069035,-0.555932 c -0.355321,1.079794 -1.099389,1.464659 -1.691611,1.464659 -0.862513,0 -1.485102,-0.801814 -1.485102,-2.508807 0,-1.218765 -0.136669,-5.37041 -0.215628,-8.431588 h 2.560208 c 0.564878,-1.639276 1.336278,-3.239356 2.374945,-4.180154 z"
       id="path44"
       style="fill:#ffffff;stroke-width:0.32898" />
    <path
       class="cls-2"
       d="m 81.371903,11.206489 h 2.247395 v 7.034632 h -2.247395 c 0,-2.45179 -1.536728,-5.135213 -3.39234,-5.135213 -1.144958,0 -1.694659,1.065533 -1.694659,2.220156 0,1.61789 0.987028,3.007722 3.905604,4.30489 2.326354,1.0192 3.708188,2.683423 3.708188,5.922779 0,4.90358 -3.4713,5.92278 -5.60025,5.92278 -3.945077,0 -5.481806,-3.285689 -6.429361,-3.285689 -0.315847,0 -0.710654,0.370618 -0.671168,2.498122 h -3.076506 v -9.857052 h 0.710666 c 0.434292,1.297167 1.302876,2.127505 2.326354,2.544455 -0.315848,3.05404 2.04998,5.644813 3.905591,5.644813 0.513263,0 1.497256,-0.185316 1.497256,-1.617905 0,-1.756873 -1.378811,-2.915057 -3.313382,-3.934257 -2.405313,-1.297168 -4.33686,-3.054041 -4.33686,-6.802998 0,-4.675507 3.03702,-6.432395 5.679221,-6.432395 3.747674,0 4.692181,3.332022 5.718695,3.332022 0.592209,0 1.065987,-1.25085 1.065987,-2.35914 z"
       id="path45"
       style="fill:#ffffff;stroke-width:0.32898" />
    <path
       class="cls-2"
       d="m 85.796829,36.397902 c 2.165388,0 3.920781,-0.997816 3.920781,-2.96139 0,-1.96356 -1.755393,-2.96139 -3.920781,-2.96139 -2.165388,0 -3.948113,0.965759 -3.948113,2.96139 0,1.995645 1.755393,2.96139 3.948113,2.96139 z m -4.634483,8.175006 c 1.974056,0.58088 2.3871,1.674923 2.523757,4.119589 0.08202,1.350609 0.08202,3.346254 0,4.696878 -0.136657,2.059787 -1.482053,2.768951 -2.742421,2.865177 -1.782724,0.128225 -1.782724,4.536525 0.549701,4.312014 3.155452,-0.320737 6.335213,-0.320737 9.490665,0 2.332424,0.224511 2.332424,-4.119574 0.549701,-4.344084 -1.069035,-0.128371 -2.277762,-0.869533 -2.332425,-2.833107 -0.109276,-4.568595 -0.05464,-9.108681 0.218664,-12.711531 0.191331,-2.316368 -1.315031,-3.153829 -2.469095,-3.153829 -0.905021,0 -1.70073,0.513176 -2.715089,1.44685 -1.01436,0.933674 -2.138057,1.446837 -3.620111,1.93149 -1.287698,0.384879 -1.646066,3.025546 0.549688,3.666992 z"
       id="path46"
       style="fill:#ffffff;stroke-width:0.32898" />
    <path
       class="cls-2"
       d="m 137.1679,59.754052 h 2.73938 l 3.16457,-5.309829 v 6.500084 h -14.92691 l 1.26642,-2.601459 V 36.800604 l -1.26642,-2.601473 h 10.2894 l -1.26644,2.601473 z"
       id="path47"
       style="fill:#ffffff;stroke-width:0.32898" />
    <path
       class="cls-2"
       d="m 111.17714,34.676661 -4.56463,25.918414 h -3.07953 L 101.36759,48.31118 99.202203,60.595075 h -2.909457 l -4.60108,-25.918414 h 6.608552 l -1.95888,5.723217 1.794879,14.129872 3.750713,-19.853089 h 1.3454 l 2.56019,19.853089 1.96191,-11.799242 -1.74325,-8.053847 h 5.16292 z"
       id="path48"
       style="fill:#ffffff;stroke-width:0.32898" />
    <g
       id="g53"
       transform="matrix(0.30370127,0,0,0.35636469,32.06904,4.414179)">
      <path
         class="cls-2"
         d="m 259.43,41.11 c 0.47,0.53 1.05,0.77 1.83,0.77 1.07,0 2.54,-0.43 4.3,-1.18 -2.26,-3.67 -4.73,-8.21 -7.51,-13.48 -0.47,6.04 -0.49,11.81 1.39,13.89 z"
         id="path49"
         style="fill:#ffffff" />
      <path
         class="cls-2"
         d="m 276.59,48.78 c 3.48,0 9.12,-10.4 14.21,-20.52 -8.04,5.58 -15.53,10.6 -21.31,13.56 2.76,4.15 5.27,6.96 7.11,6.96 z"
         id="path50"
         style="fill:#ffffff" />
      <path
         class="cls-2"
         d="m 255.35,3.89 c -1.43,0 -3.46,0.73 -5.83,1.93 2.02,3.35 4.23,7.42 6.7,12.09 0.6,-6.07 1.06,-12.25 -0.34,-13.8 -0.15,-0.17 -0.3,-0.23 -0.53,-0.23 z"
         id="path51"
         style="fill:#ffffff" />
      <path
         class="cls-2"
         d="m 332.33,4.51 c -0.24,-0.28 -0.63,-0.61 -1.5,-0.61 -1.36,0 -3.4,0.72 -5.89,1.95 2.27,3.64 4.72,8.09 7.4,13.18 0.96,-6.22 1.7,-12.51 0,-14.52 z"
         id="path52"
         style="fill:#ffffff" />
      <path
         class="cls-2"
         d="m 334.36,41.01 c 0.51,0.6 1.19,0.88 2.15,0.88 1.19,0 2.69,-0.4 4.43,-1.12 -2.15,-3.61 -4.51,-8.05 -7.19,-13.18 -0.81,5.84 -1.18,11.33 0.6,13.43 z"
         id="path53"
         style="fill:#ffffff" />
    </g>
    <path
       class="cls-2"
       d="m 109.61916,5.8004353 c -0.43429,0 -1.0508,0.2601425 -1.77058,0.6877923 0.61347,1.1938164 1.28465,2.6442138 2.0348,4.3084354 v 0 c 0.18222,-2.1631224 0.32192,-4.3654534 -0.1032,-4.9178242 -0.0456,-0.060622 -0.0911,-0.081994 -0.16096,-0.081994 z"
       id="path54"
       style="fill:#ffffff;stroke-width:0.32898" />
    <path
       class="cls-2"
       d="m 132.99809,6.0213833 c -0.0728,-0.099731 -0.19134,-0.2173865 -0.45556,-0.2173865 -0.41303,0 -1.03259,0.256581 -1.7888,0.6949168 0.68941,1.2971664 1.43347,2.8829848 2.24739,4.6968904 0.29155,-2.2165934 0.51629,-4.4581336 0,-5.1744207 z"
       id="path55"
       style="fill:#ffffff;stroke-width:0.32898" />
    <path
       class="cls-2"
       d="m 133.6146,19.028688 c 0.15488,0.213825 0.3614,0.313599 0.65294,0.313599 0.36143,0 0.81696,-0.142617 1.3454,-0.399126 -0.65295,-1.286468 -1.36969,-2.868725 -2.1836,-4.696878 0.0303,-0.267281 0.0668,-0.53811 0.10024,-0.808953 -0.0365,0.270843 -0.0699,0.541672 -0.10024,0.808953 -0.24601,2.081173 -0.35837,4.037609 0.18222,4.785967 z"
       id="path56"
       style="fill:#ffffff;stroke-width:0.32898" />
    <g
       id="g66"
       transform="matrix(0.30370127,0,0,0.35636469,32.06904,4.414179)">
      <path
         class="cls-2"
         d="m 321.77,41.7 c -0.24,-0.28 -0.63,-0.61 -1.5,-0.61 -1.36,0 -3.4,0.72 -5.89,1.95 2.27,3.64 4.72,8.09 7.4,13.18 0.96,-6.22 1.7,-12.51 0,-14.52 z"
         id="path57"
         style="fill:#ffffff" />
      <path
         class="cls-2"
         d="m 302.98,34.9 c -4.01,0 -10.16,11.4 -15.6,22.26 8.58,-6 16.75,-11.64 23.14,-15.15 -2.86,-4.24 -5.5,-7.11 -7.53,-7.11 z"
         id="path58"
         style="fill:#ffffff" />
      <path
         class="cls-2"
         d="m 323.8,78.2 c 0.51,0.6 1.19,0.88 2.15,0.88 1.19,0 2.69,-0.4 4.43,-1.12 -2.15,-3.61 -4.51,-8.05 -7.19,-13.18 -0.81,5.84 -1.18,11.33 0.6,13.43 z"
         id="path59"
         style="fill:#ffffff" />
      <path
         class="cls-2"
         d="m 347.21,79.43 c 2.5,-3.88 5.24,-8.98 7.81,-13.9 -7.72,5.6 -14.96,10.64 -20.74,13.57 0.07,0.12 0.15,0.22 0.22,0.33 z"
         id="path60"
         style="fill:#ffffff" />
      <path
         class="cls-2"
         d="m 286.65,72.41 c 12,0 17.63,7.02 17.63,7.02 h 17.07 c -2.46,-3.65 -1.53,-10.88 -0.29,-18.74 -2.91,-5.59 -6.08,-11.6 -9.09,-16.41 -7.01,3.85 -16.61,10.58 -25.44,16.76 -0.56,0.4 -1.13,0.79 -1.69,1.18 -2.07,4.16 -3.95,7.91 -5.7,11.19 2.15,-0.61 4.64,-1 7.5,-1 z"
         id="path61"
         style="fill:#ffffff" />
      <path
         class="cls-2"
         d="m 245.32,41.32 c -0.15,-0.17 -0.3,-0.23 -0.53,-0.23 -1.43,0 -3.46,0.73 -5.83,1.93 2.02,3.35 4.23,7.42 6.7,12.09 0.6,-6.07 1.06,-12.25 -0.34,-13.8 z"
         id="path62"
         style="fill:#ffffff" />
      <path
         class="cls-2"
         d="m 268.24,80.51 v 0 c 0,0 2.16,-3.22 7.02,-5.6 1.65,-2.95 3.34,-6.21 4.97,-9.45 -8.04,5.58 -15.53,10.6 -21.32,13.56 0.35,0.52 0.69,1.02 1.02,1.49 h 8.3 z"
         id="path63"
         style="fill:#ffffff" />
      <path
         class="cls-2"
         d="m 235.17,42.02 c -2.7,-4.22 -5.13,-7.11 -6.82,-7.11 -0.28,0 -0.56,0.05 -0.85,0.11 v 11.93 c 2.57,-1.8 5.19,-3.51 7.67,-4.93 z"
         id="path64"
         style="fill:#ffffff" />
      <path
         class="cls-2"
         d="m 227.5,78.44 h -36.03 v 2.07 h 55.79 c -0.14,-0.12 -0.27,-0.25 -0.4,-0.39 -3.07,-3.41 -2.54,-11.66 -1.7,-20.12 -2.73,-5.22 -5.74,-10.99 -8.57,-15.68 -2.85,1.64 -6,3.76 -9.1,5.99 v 28.14 z"
         id="path65"
         style="fill:#ffffff" />
      <path
         class="cls-2"
         d="m 250.7,79.07 c 1.07,0 2.54,-0.43 4.3,-1.18 -2.26,-3.67 -4.73,-8.21 -7.51,-13.48 -0.47,6.04 -0.49,11.81 1.39,13.89 0.47,0.53 1.05,0.77 1.83,0.77 z"
         id="path66"
         style="fill:#ffffff" />
    </g>
    <path
       class="cls-2"
       d="m 138.80485,21.797653 c 0.95969,0 2.73027,-3.777466 4.2913,-7.287665 -2.34458,1.995645 -4.54337,3.791727 -6.29876,4.835876 0.79266,1.453959 1.50635,2.451789 2.00442,2.451789 z"
       id="path67"
       style="fill:#ffffff;stroke-width:0.32898" />
    <path
       class="cls-2"
       d="M 125.05932,59.807508 V 38.853267 c 0,-5.755301 -3.41663,-7.7153 -6.21371,-7.7153 -3.22227,0 -5.03841,2.498108 -5.84017,5.641252 -0.12155,0.334984 -0.19134,0.70204 -0.19134,1.097604 0,1.621452 1.01739,2.815283 2.39923,2.815283 1.30896,0 2.32635,-1.193831 2.32635,-2.815283 0,-1.53594 -1.01739,-2.729756 -2.32635,-2.729756 -0.27333,0 -0.53452,0.04986 -0.77444,0.135494 0.76533,-1.468222 1.61266,-2.056225 2.51769,-2.056225 1.93154,0 2.5845,2.690547 2.64827,5.880024 l -2.24738,2.220141 c -3.08865,3.068302 -6.32306,7.462281 -6.32306,12.405054 0,5.669761 2.57842,7.590565 5.37854,7.590565 1.17532,0 2.45392,-0.466829 3.19797,-2.134614 v 1.74975 h 7.9084 v -1.133237 h -2.45696 z m -6.90312,-0.530986 c -1.27251,0 -1.67036,-3.666991 -1.67036,-7.590564 0,-2.302121 0.10927,-7.843599 2.43569,-10.487813 l 0.68939,-0.791129 v 14.77488 c 0,2.601457 -0.6165,4.091064 -1.45472,4.091064 z"
       id="path68"
       style="fill:#ffffff;stroke-width:0.32898" />
    <path
       class="cls-1"
       d="m 136.36916,18.533349 c -0.84732,-1.657099 -1.75235,-3.706201 -2.56627,-5.541477 -0.0546,-0.124736 -0.10928,-0.242319 -0.16097,-0.367056 0.0153,-0.106854 0.0303,-0.21381 0.0425,-0.320722 0.41912,-3.0861256 0.78052,-5.7517244 -0.0607,-6.9099089 -0.0668,-0.092607 -0.1397,-0.1710535 -0.22171,-0.2423338 h -2.05908 c -0.3189,0.1389837 -0.66511,0.3171611 -1.03867,0.5345475 -0.10629,-0.1853013 -0.20955,-0.3634933 -0.3128,-0.5345475 h -1.01438 c 0.19438,0.29579 0.39786,0.6236366 0.60133,0.9800073 -1.94064,1.2472716 -4.42189,3.2607398 -7.0246,5.3989154 1.02043,-2.3840716 2.11983,-4.8429836 3.09775,-6.3789227 h -1.01436 c -1.09636,1.8673471 -2.25043,4.5899789 -3.49258,7.5335447 v 0 c -2.74849,2.255789 -5.65187,4.607804 -7.68059,5.819445 -0.95363,-1.806769 -1.97407,-4.094628 -2.89124,-6.157991 0.0182,-0.213811 0.0365,-0.424073 0.0546,-0.627198 0.30065,-3.4353572 0.44947,-5.5842324 -0.23689,-6.4822732 -0.0242,-0.032131 -0.0546,-0.05699 -0.082,-0.085484 h -1.89206 c -0.31281,0.1354938 -0.64992,0.3135987 -0.99918,0.5238621 -0.10023,-0.1817545 -0.19741,-0.3563702 -0.29459,-0.5238621 h -0.99311 c 0.18223,0.29579 0.37356,0.6236367 0.56792,0.9800068 -1.89509,1.2722196 -4.06958,3.2179698 -5.53646,4.6042254 V 5.1518952 H 32.697657 V 32.363898 H 81.06512 v 0.737687 H 75.683526 V 61.899409 H 144.14691 V 32.716706 h -5.65796 c 0.77748,-1.482483 1.64607,-3.417534 2.6665,-5.726779 0.0728,-0.16393 0.14577,-0.331422 0.22169,-0.502476 0.1063,-0.09261 0.21563,-0.185316 0.32497,-0.277967 0.81695,-0.702039 1.63695,-1.407641 2.4448,-2.088296 v -1.186693 c -0.62259,0.520286 -1.26037,1.061972 -1.90422,1.61789 0.62563,-1.379132 1.26948,-2.754688 1.90422,-3.952082 v -1.763996 c -1.10244,1.845962 -2.23828,4.365455 -3.40753,7.009684 -2.76975,2.376948 -5.55469,4.74321 -7.57735,5.940604 -0.84733,-1.657099 -1.75235,-3.706202 -2.56627,-5.541478 -0.0546,-0.124736 -0.1094,-0.242319 -0.16096,-0.367056 0.0152,-0.106854 0.0303,-0.21381 0.0425,-0.320722 0.4191,-3.086126 0.7805,-5.751726 -0.0607,-6.90991 -0.26422,-0.363493 -0.63776,-0.555933 -1.08118,-0.555933 -0.54666,0 -1.31198,0.313599 -2.23523,0.848147 -1.10851,-1.94219 -2.08341,-3.050479 -3.01576,-3.050479 -1.89509,0 -3.86612,4.654122 -6.14691,10.053054 -2.7485,2.255788 -5.65188,4.607789 -7.68061,5.819429 -0.95363,-1.806767 -1.97406,-4.094627 -2.89123,-6.157975 0.0182,-0.213825 0.0365,-0.424074 0.0546,-0.627213 0.30066,-3.435358 0.44948,-5.584234 -0.23689,-6.482275 -0.20044,-0.260143 -0.4677,-0.399126 -0.7714,-0.399126 -0.57096,0 -1.33933,0.324299 -2.20183,0.837461 -1.06903,-1.956436 -1.95888,-3.039793 -2.79102,-3.039793 -0.0881,0 -0.17311,0.01018 -0.25814,0.02501 v -3.934273 c 1.6248,-1.553748 4.03314,-3.7168702 5.97077,-5.0282996 0.85643,1.6713462 1.77361,3.7275706 2.60271,5.5877946 -0.25511,3.014846 -0.4191,5.958427 0.5163,7.170067 0.3037,0.392003 0.69548,0.591566 1.16317,0.591566 0.46771,0 1.04474,-0.206701 1.74628,-0.566618 1.09333,1.949312 2.02265,3.025532 2.90642,3.025532 1.60658,0 3.2405,-3.556518 5.7187,-9.425842 0.17007,-0.138983 0.34014,-0.281528 0.51325,-0.420512 2.68169,-2.202346 5.59721,-4.6006792 7.72616,-5.9726726 0.91415,1.7141162 1.87688,3.8558676 2.76065,5.8479366 -0.39482,2.940005 -0.6894,5.63769 0.20348,6.863592 0.3128,0.431197 0.74406,0.652146 1.27858,0.652146 0.48897,0 1.08725,-0.196002 1.77665,-0.541672 1.04473,1.927928 1.91939,3.000585 2.75761,3.000585 1.45169,0 2.9945,-3.228671 5.34211,-8.531376 v -2.091859 c -0.0668,0.14967 -0.13363,0.299353 -0.20045,0.452583 -2.76975,2.376963 -5.55469,4.743211 -7.57734,5.940604 z"
       id="path69"
       style="fill:none;stroke-width:0.32898" />
    <g
       id="g73"
       transform="matrix(0.30370127,0,0,0.35636469,32.06904,4.414179)">
      <path
         class="cls-2"
         d="m 104.98,109.78 -1.06,9.23 12.1,-6.58 c -3.51,-0.88 -7.21,-1.77 -11.05,-2.65 z"
         id="path70"
         style="fill:#ffffff" />
      <path
         class="cls-2"
         d="m 91.06,149.94 -10.09,12.63 1.84,-16.06 -25.17,13.69 19.74,-20.8 -15.92,-2.42 14.78,-6.47 -24.34,-14.98 27.78,6.7 -5.83,-15.05 12.94,9.59 0.31,-10.73 c -17.15,-3.24 -34.88,-5.44 -48.31,-4.32 0.22,1.72 0.02,3.51 -0.66,5.23 -2.16,5.45 -8.32,8.11 -13.77,5.95 -2.02,-0.8 -3.65,-2.15 -4.8,-3.81 -0.96,1.33 -1.61,2.83 -1.92,4.53 -2.85,15.56 21.56,40.51 31.28,49.79 H 95 l -3.93,-13.45 z"
         id="path71"
         style="fill:#ffffff" />
      <path
         class="cls-2"
         d="m 95.67,115.58 5.35,-6.69 c -2.56,-0.57 -5.16,-1.12 -7.79,-1.66 z"
         id="path72"
         style="fill:#ffffff" />
      <path
         class="cls-2"
         d="m 0,0 v 163.4 h 44.64 c -3.44,-3.71 -8.1,-8.95 -12.61,-14.82 -11.69,-15.2 -16.86,-27.02 -15.38,-35.14 0.37,-1.99 1.16,-3.74 2.34,-5.26 -1.48,-2.68 -1.8,-5.98 -0.58,-9.05 2.16,-5.45 8.32,-8.11 13.77,-5.95 3.41,1.35 5.72,4.26 6.46,7.59 11.69,-0.98 27.92,0.31 48.52,3.88 l 0.48,-16.55 5.14,17.56 c 0.92,0.17 1.83,0.34 2.77,0.52 2.23,0.43 4.44,0.87 6.62,1.31 l 3.61,-4.52 -0.59,5.15 c 4.69,0.99 9.19,2 13.36,2.97 l 10.56,-5.74 -6.39,6.73 c 10.3,2.48 18.05,4.6 20.91,5.4 V 80.52 h 17.72 V 78.45 H 2.07 V 2.07 H 227.5 v 15.67 c 4.84,-3.89 11.99,-9.35 18.23,-12.92 -0.64,-1 -1.26,-1.92 -1.87,-2.75 h 3.27 c 0.32,0.47 0.64,0.96 0.97,1.47 1.16,-0.59 2.26,-1.08 3.29,-1.47 h 6.23 c 0.09,0.08 0.18,0.15 0.27,0.24 2.27,2.51 1.78,8.55 0.78,18.19 -0.06,0.58 -0.12,1.17 -0.18,1.76 3.02,5.79 6.38,12.2 9.52,17.28 6.68,-3.4 16.23,-10 25.29,-16.33 v 0 c 4.09,-8.26 7.89,-15.9 11.5,-21.14 h 3.34 c -3.23,4.31 -6.85,11.2 -10.2,17.9 8.58,-6 16.75,-11.64 23.13,-15.15 -0.67,-1 -1.33,-1.92 -1.98,-2.75 h 3.34 c 0.34,0.48 0.68,0.98 1.03,1.5 1.23,-0.61 2.37,-1.11 3.42,-1.5 h 6.78 c 0.26,0.2 0.51,0.42 0.73,0.68 2.77,3.24 1.58,10.73 0.2,19.39 -0.05,0.3 -0.1,0.6 -0.14,0.9 0.18,0.34 0.35,0.68 0.53,1.03 2.68,5.16 5.66,10.9 8.45,15.55 6.66,-3.36 15.83,-10 24.95,-16.67 0.22,-0.42 0.44,-0.85 0.66,-1.27 v 5.87 c -7.73,14.88 -12.81,23.94 -17.59,23.94 -2.76,0 -5.64,-3.01 -9.08,-8.42 -2.27,0.97 -4.24,1.52 -5.85,1.52 -1.76,0 -3.18,-0.61 -4.21,-1.83 -2.94,-3.45 -1.97,-11.02 -0.67,-19.26 -2.91,-5.59 -6.08,-11.6 -9.09,-16.41 -7.01,3.85 -16.61,10.58 -25.44,16.76 -0.56,0.4 -1.13,0.79 -1.69,1.18 -8.17,16.47 -13.55,26.45 -18.83,26.45 -2.91,0 -5.97,-3.02 -9.57,-8.49 -2.31,1.01 -4.27,1.59 -5.75,1.59 -1.48,0 -2.84,-0.56 -3.83,-1.66 -3.07,-3.41 -2.54,-11.66 -1.7,-20.12 -2.73,-5.22 -5.74,-10.99 -8.57,-15.68 -6.38,3.68 -14.31,9.75 -19.66,14.11 v 11.04 c 0.28,-0.04 0.57,-0.07 0.85,-0.07 2.73,0 5.66,3.04 9.19,8.53 2.84,-1.44 5.37,-2.35 7.25,-2.35 1,0 1.88,0.39 2.54,1.12 2.27,2.51 1.78,8.55 0.78,18.19 -0.06,0.58 -0.12,1.17 -0.18,1.76 3.02,5.79 6.38,12.2 9.52,17.28 6.68,-3.4 16.23,-10 25.29,-16.33 7.51,-15.15 13.99,-28.21 20.24,-28.21 3.07,0 6.27,3.11 9.93,8.56 3.04,-1.5 5.56,-2.38 7.36,-2.38 1.46,0 2.69,0.54 3.56,1.56 2.77,3.24 1.58,10.73 0.2,19.39 -0.05,0.3 -0.1,0.6 -0.14,0.9 0.18,0.34 0.35,0.68 0.53,1.03 2.68,5.16 5.66,10.9 8.45,15.55 6.66,-3.36 15.83,-10 24.95,-16.67 3.85,-7.42 7.6,-14.49 11.22,-19.67 v 4.95 c -2.09,3.36 -4.21,7.22 -6.27,11.09 2.12,-1.55 4.22,-3.07 6.27,-4.54 v 3.33 c -2.66,1.91 -5.36,3.89 -8.05,5.86 -0.36,0.26 -0.71,0.52 -1.07,0.78 -0.25,0.47 -0.49,0.94 -0.73,1.41 -3.36,6.49 -6.23,11.91 -8.78,16.07 h 18.63 V 161.3 H 143.62 v -41.37 c -3.57,-1.04 -11.82,-3.46 -22.49,-6.22 l -11.77,12.4 15.92,2.42 -14.78,6.47 24.34,14.98 -27.78,-6.7 5.83,15.05 -12.94,-9.59 -0.42,14.62 h 271.6 V 0 Z"
         id="path73"
         style="fill:#ffffff" />
      <circle
         class="cls-2"
         cx="94.330002"
         cy="133.14999"
         r="9.0500002"
         transform="rotate(-72.94,94.321222,133.13827)"
         id="circle73"
         style="fill:#ffffff" />
    </g>
    <text
       xml:space="preserve"
       style="font-style:normal;font-variant:normal;font-weight:bold;font-stretch:normal;font-size:13.0734px;font-family:'Pressio TEST';-inkscape-font-specification:'Pressio TEST Bold';text-align:center;text-anchor:middle;fill:#ffffff;fill-opacity:1;stroke-width:0.245126"
       x="144.48456"
       y="76.230957"
       id="text2"><tspan
         sodipodi:role="line"
         id="tspan2"
         style="font-style:normal;font-variant:normal;font-weight:bold;font-stretch:normal;font-size:13.0734px;font-family:'Pressio TEST';-inkscape-font-specification:'Pressio TEST Bold';text-align:center;text-anchor:middle;fill:#ffffff;fill-opacity:1;stroke-width:0.245126"
         x="144.48456"
         y="76.230957">10-11.05                                                       2024</tspan></text>
    <rect
       style="fill:#ffffff;fill-opacity:1;stroke-width:0.17333"
       id="rect2"
       width="137.40479"
       height="1.398522"
       x="83.911316"
       y="70.066727" />
  </g>
</svg>
