<?xml version="1.0" encoding="UTF-8" standalone="no"?>
<!-- Created with Inkscape (http://www.inkscape.org/) -->

<svg
   width="1200"
   height="327"
   viewBox="0 0 294.15168 80.156333"
   version="1.1"
   id="svg1"
   inkscape:version="1.3.2 (091e20e, 2023-11-25, custom)"
   sodipodi:docname="2024_logo strona interenetowa 10 11 05_v3.svg"
   xmlns:inkscape="http://www.inkscape.org/namespaces/inkscape"
   xmlns:sodipodi="http://sodipodi.sourceforge.net/DTD/sodipodi-0.dtd"
   xmlns="http://www.w3.org/2000/svg"
   xmlns:svg="http://www.w3.org/2000/svg">
  <sodipodi:namedview
     id="namedview1"
     pagecolor="#ffffff"
     bordercolor="#000000"
     borderopacity="0.25"
     inkscape:showpageshadow="2"
     inkscape:pageopacity="0.0"
     inkscape:pagecheckerboard="0"
     inkscape:deskcolor="#d1d1d1"
     inkscape:document-units="mm"
     inkscape:zoom="0.70110129"
     inkscape:cx="397.23219"
     inkscape:cy="-123.37732"
     inkscape:window-width="1920"
     inkscape:window-height="1001"
     inkscape:window-x="-9"
     inkscape:window-y="-9"
     inkscape:window-maximized="1"
     inkscape:current-layer="layer1" />
  <defs
     id="defs1">
    <rect
       x="92.711283"
       y="269.57588"
       width="1064.0403"
       height="55.62677"
       id="rect1" />
  </defs>
  <g
     inkscape:label="Warstwa 1"
     inkscape:groupmode="layer"
     id="layer1"
     style="mix-blend-mode:color">
    <path
       d="M 3.6250381,80.293106 H 7.1253926 V 67.828429 H 4.2653469 c 0,1.27208 -1.442829,2.262425 -3.2271561,2.288037 v 1.929464 h 2.5868473 z m 10.0827369,0.179287 c 3.210081,0 4.644373,-1.246468 4.644373,-3.397906 v -6.027439 c 0,-2.1429 -1.434292,-3.397905 -4.644373,-3.397905 -3.210081,0 -4.6358351,1.255005 -4.6358351,3.397905 v 6.027439 c 0,2.151438 1.4257541,3.397906 4.6358351,3.397906 z m -1.126943,-2.64661 v -7.538568 h 2.262424 v 7.538568 z m 7.179999,-1.596503 h 4.18335 v -2.527085 h -4.18335 z m 7.717864,4.063826 h 3.500354 V 67.828429 h -2.860045 c 0,1.27208 -1.442829,2.262425 -3.227156,2.288037 v 1.929464 h 2.586847 z m 7.572727,0 h 3.500355 V 67.828429 h -2.860046 c 0,1.27208 -1.442829,2.262425 -3.227156,2.288037 v 1.929464 h 2.586847 z m 5.38714,0 h 3.235694 v -3.167394 h -3.235694 z m 9.305827,0.179287 c 3.210081,0 4.644373,-1.246468 4.644373,-3.397906 v -6.027439 c 0,-2.1429 -1.434292,-3.397905 -4.644373,-3.397905 -3.210081,0 -4.635835,1.255005 -4.635835,3.397905 v 6.027439 c 0,2.151438 1.425754,3.397906 4.635835,3.397906 z m -1.126943,-2.64661 v -7.538568 h 2.262424 v 7.538568 z m 11.926822,2.64661 c 3.099094,0 4.541923,-1.246468 4.541923,-3.397906 v -3.013719 c 0,-1.570891 -1.067181,-2.57831 -2.928345,-2.57831 -1.365992,0 -2.159975,0.443947 -2.655147,1.246468 v -2.441711 h 5.583492 V 67.828429 H 56.010882 V 74.8889 h 3.491817 v -1.280617 h 2.066063 v 4.2175 h -2.066063 v -1.878239 h -3.491817 v 1.126943 c 0,2.151438 1.425754,3.397906 4.533386,3.397906 z M 251.28014,80.293106 h 9.14361 v -2.603922 h -5.65179 V 76.63054 l 5.65179,-2.467323 v -3.116169 c 0,-2.1429 -1.42575,-3.397905 -4.58461,-3.397905 -3.15032,0 -4.559,1.255005 -4.559,3.397905 v 1.400142 h 3.49182 v -2.159975 h 2.15144 v 2.433173 l -5.64326,2.450248 z m 15.43572,0.179287 c 3.21008,0 4.64437,-1.246468 4.64437,-3.397906 v -6.027439 c 0,-2.1429 -1.43429,-3.397905 -4.64437,-3.397905 -3.21008,0 -4.63584,1.255005 -4.63584,3.397905 v 6.027439 c 0,2.151438 1.42576,3.397906 4.63584,3.397906 z m -1.12694,-2.64661 v -7.538568 h 2.26242 v 7.538568 z m 7.4276,2.467323 h 9.14361 v -2.603922 h -5.6518 V 76.63054 l 5.6518,-2.467323 v -3.116169 c 0,-2.1429 -1.42576,-3.397905 -4.58461,-3.397905 -3.15032,0 -4.559,1.255005 -4.559,3.397905 v 1.400142 h 3.49181 v -2.159975 h 2.15144 v 2.433173 l -5.64325,2.450248 z m 15.35888,0 h 3.21008 v -1.963613 h 1.31477 v -2.484398 h -1.31477 v -8.016666 h -5.38713 l -2.92834,8.153265 v 2.347799 h 5.10539 z m -2.15997,-4.448011 1.44282,-4.106514 c 0.17929,-0.512247 0.3415,-1.033031 0.50371,-1.536741 h 0.23052 c -0.009,0.50371 -0.0171,1.024494 -0.0171,1.536741 v 4.106514 z"
       id="text2"
       style="font-weight:bold;font-size:17.0749px;font-family:'Pressio TEST';-inkscape-font-specification:'Pressio TEST Bold';text-align:center;text-anchor:middle;fill:#ffffff;stroke-width:0.320153"
       aria-label="10-11.05                                                       2024" />
    <rect
       style="fill:#ffffff;fill-opacity:1;stroke-width:0.226382"
       id="rect2"
       width="179.46117"
       height="1.8265768"
       x="67.962646"
       y="72.242149" />
    <g
       id="g42"
       transform="matrix(0.39675971,0,0,0.39675971,0.06692152,0.00273805)">
      <path
         class="cls-2"
         d="m 468.28,124.78 h -0.17 C 466.39,95.97 461.4,41.36 458.05,5.85 H 444.2 c -3.27,35.09 -8.6,93.39 -10.15,119.7 h -0.17 c -0.77,-25.2 -5.33,-84.19 -8.17,-119.7 h -12.9 l 14.1,150.75 h 12.47 c 3.44,-34.14 8.77,-87.37 11.18,-114.98 h 0.34 c 2.41,25.88 7.4,80.41 10.58,114.98 h 13.07 L 489.86,5.85 h -12.81 c -2.84,36.29 -7.14,91.84 -8.77,118.93 z"
         id="path1"
         style="fill:#ffffff" />
      <path
         class="cls-2"
         d="m 399.32,83.16 c -9.12,-8.69 -10.84,-14.45 -10.84,-25.54 0,-9.55 1.55,-17.54 7.05,-17.54 5.07,0 6.97,7.31 6.97,17.37 v 5.68 h 11.35 v -6.02 c 0,-15.57 -2.15,-29.32 -17.46,-29.32 -16.43,0 -20.12,15.91 -20.12,31.9 0,19 5.59,24.77 16.43,35.52 10.84,10.66 13.16,16.68 13.16,31.04 0,12.64 -2.41,20.38 -9.37,20.38 -6.96,0 -9.8,-6.97 -9.8,-18.4 v -7.57 h -11.95 v 7.48 c 0,16.6 4.56,30.7 21.41,30.7 17.71,0 21.93,-16.51 21.93,-34.48 0,-21.24 -4.39,-27.6 -18.75,-41.19 z"
         id="path2"
         style="fill:#ffffff" />
      <polygon
         class="cls-2"
         points="390.81,24.6 400.44,24.6 406.72,5.85 393.99,5.85 "
         id="polygon2"
         style="fill:#ffffff" />
      <path
         class="cls-2"
         d="m 648.19,156.6 h 12.64 L 643.63,5.85 H 626.6 L 611.35,144.41 H 598.91 V 85.32 l 14.96,-9.5 V 62.78 L 598.91,72.2 V 5.85 h -53.4 v 13.04 h 16.25 V 156.6 h 12.21 V 18.89 h 12.73 v 61 l -4.39,2.76 v 13.21 l 4.39,-2.78 v 63.53 h 35.69 l 4.85,-47.56 h 15.84 l 5.1,47.56 z M 635.29,22.79 c 0.94,15.32 3.39,41.33 6.86,73.78 h -13.87 c 2.49,-26.2 5.82,-61.54 6.5,-73.78 h 0.52 z"
         id="path3"
         style="fill:#ffffff" />
      <rect
         class="cls-2"
         x="491.76001"
         y="5.8499999"
         width="12.21"
         height="150.75"
         id="rect3"
         style="fill:#ffffff" />
      <path
         class="cls-2"
         d="m 523.41,5.85 -16.6,150.75 h 12.38 l 4.85,-47.56 h 15.84 l 5.1,47.56 h 12.64 L 540.42,5.85 h -17.03 z m 8.69,16.94 c 0.94,15.32 3.39,41.33 6.86,73.78 h -13.87 c 2.49,-26.2 5.82,-61.54 6.5,-73.78 h 0.52 z"
         id="path4"
         style="fill:#ffffff" />
      <polygon
         class="cls-2"
         points="740.15,121.03 713.43,95.06 740.15,132.96 "
         id="polygon4"
         style="fill:#ffffff" />
      <polygon
         class="cls-2"
         points="740.15,110.14 715.63,92.86 740.15,118.09 "
         id="polygon5"
         style="fill:#ffffff" />
      <polygon
         class="cls-2"
         points="740.15,158.97 708.14,98.3 728.25,163.34 740.15,163.34 "
         id="polygon6"
         style="fill:#ffffff" />
      <polygon
         class="cls-2"
         points="727.01,163.34 705.18,99.26 714.39,163.34 "
         id="polygon7"
         style="fill:#ffffff" />
      <polygon
         class="cls-2"
         points="740.15,135.95 710.91,96.89 740.15,156.35 "
         id="polygon8"
         style="fill:#ffffff" />
      <polygon
         class="cls-2"
         points="740.15,101.5 717.46,90.34 740.15,107.33 "
         id="polygon9"
         style="fill:#ffffff" />
      <polygon
         class="cls-2"
         points="740.15,87.53 719.83,84.61 740.15,91.53 "
         id="polygon10"
         style="fill:#ffffff" />
      <polygon
         class="cls-2"
         points="740.15,94.15 718.87,87.57 740.15,98.79 "
         id="polygon11"
         style="fill:#ffffff" />
      <polygon
         class="cls-2"
         points="712.53,-0.03 701.24,-0.03 702.1,60.21 "
         id="polygon12"
         style="fill:#ffffff" />
      <polygon
         class="cls-2"
         points="687.18,-0.03 675.22,-0.03 695.92,60.69 "
         id="polygon13"
         style="fill:#ffffff" />
      <polygon
         class="cls-2"
         points="713.91,-0.03 705.18,60.69 725.88,-0.03 "
         id="polygon14"
         style="fill:#ffffff" />
      <polygon
         class="cls-2"
         points="688.56,-0.03 698.99,60.21 699.85,-0.03 "
         id="polygon15"
         style="fill:#ffffff" />
      <polygon
         class="cls-2"
         points="686.71,163.34 695.92,99.26 674.08,163.34 "
         id="polygon16"
         style="fill:#ffffff" />
      <polygon
         class="cls-2"
         points="713.11,163.34 702.1,99.75 701.2,163.34 "
         id="polygon17"
         style="fill:#ffffff" />
      <polygon
         class="cls-2"
         points="673.88,-0.03 660.4,-0.03 692.96,61.65 "
         id="polygon18"
         style="fill:#ffffff" />
      <polygon
         class="cls-2"
         points="740.15,81.25 720.32,81.53 740.15,84.96 "
         id="polygon19"
         style="fill:#ffffff" />
      <polygon
         class="cls-2"
         points="699.9,163.34 698.99,99.75 687.99,163.34 "
         id="polygon20"
         style="fill:#ffffff" />
      <polygon
         class="cls-2"
         points="655.59,55.82 683.64,69.62 654.7,47.95 "
         id="polygon21"
         style="fill:#ffffff" />
      <polygon
         class="cls-2"
         points="681.26,84.61 659.21,87.78 659.68,91.96 "
         id="polygon22"
         style="fill:#ffffff" />
      <polygon
         class="cls-2"
         points="680.78,81.53 658.93,85.31 658.47,81.21 "
         id="polygon23"
         style="fill:#ffffff" />
      <polygon
         class="cls-2"
         points="680.78,78.42 657.7,74.43 658.19,78.74 "
         id="polygon24"
         style="fill:#ffffff" />
      <polygon
         class="cls-2"
         points="656.86,67.03 657.41,71.92 681.26,75.35 "
         id="polygon25"
         style="fill:#ffffff" />
      <polygon
         class="cls-2"
         points="682.23,87.57 660.48,99.04 659.97,94.45 "
         id="polygon26"
         style="fill:#ffffff" />
      <polygon
         class="cls-2"
         points="682.23,72.39 656.57,64.45 655.89,58.49 "
         id="polygon27"
         style="fill:#ffffff" />
      <polygon
         class="cls-2"
         points="652.77,30.98 687.67,64.9 650.67,12.41 "
         id="polygon28"
         style="fill:#ffffff" />
      <polygon
         class="cls-2"
         points="660.77,101.58 661.39,107 683.64,90.34 "
         id="polygon29"
         style="fill:#ffffff" />
      <polygon
         class="cls-2"
         points="654.38,45.18 685.47,67.1 653.09,33.78 "
         id="polygon30"
         style="fill:#ffffff" />
      <g
         id="g34">
        <polygon
           class="cls-2"
           points="687.67,95.12 663.86,128.89 662.77,119.31 "
           id="polygon31"
           style="fill:#ffffff" />
        <polygon
           class="cls-2"
           points="690.18,96.94 665.85,146.44 664.18,131.69 "
           id="polygon32"
           style="fill:#ffffff" />
        <polygon
           class="cls-2"
           points="672.85,163.4 692.96,98.36 666.16,149.15 667.54,161.32 371.11,161.32 371.11,2.07 649.49,2.07 650.44,10.49 650.38,9.96 690.18,63.13 659.18,0 369.04,0 369.04,163.4 "
           id="polygon33"
           style="fill:#ffffff" />
        <polygon
           class="cls-2"
           points="740.15,0.98 740.15,0.03 727.2,0.03 708.14,61.65 "
           id="polygon34"
           style="fill:#ffffff" />
      </g>
      <polygon
         class="cls-2"
         points="740.15,41.87 715.63,67.1 740.15,49.81 "
         id="polygon35"
         style="fill:#ffffff" />
      <polygon
         class="cls-2"
         points="740.15,52.63 717.46,69.62 740.15,58.46 "
         id="polygon36"
         style="fill:#ffffff" />
      <polygon
         class="cls-2"
         points="740.15,61.16 718.87,72.39 740.15,65.81 "
         id="polygon37"
         style="fill:#ffffff" />
      <polygon
         class="cls-2"
         points="662.47,116.52 685.47,92.86 661.68,109.62 "
         id="polygon38"
         style="fill:#ffffff" />
      <polygon
         class="cls-2"
         points="740.15,68.42 719.83,75.35 740.15,72.43 "
         id="polygon39"
         style="fill:#ffffff" />
      <polygon
         class="cls-2"
         points="740.15,74.99 720.32,78.42 740.15,78.7 "
         id="polygon40"
         style="fill:#ffffff" />
      <polygon
         class="cls-2"
         points="740.15,3.6 710.91,63.07 740.15,24.01 "
         id="polygon41"
         style="fill:#ffffff" />
      <polygon
         class="cls-2"
         points="740.15,26.99 713.43,64.9 740.15,38.93 "
         id="polygon42"
         style="fill:#ffffff" />
    </g>
    <path
       class="cls-2"
       d="M 2.5188962,2.0579538 V 29.858907 H 15.195371 c 0.361051,-1.043479 0.321374,-2.285336 -1.24186,-2.769384 -0.84113,-0.242024 -2.126633,-0.682426 -3.17011,-1.404529 C 9.9819467,25.121594 8.5774168,23.879738 8.5774168,21.71343 V 16.297659 H 13.31076 c 2.769385,0 4.090593,1.003803 4.574641,3.892213 2.126631,-1.444206 3.931888,-3.610513 3.931888,-6.137873 0,-1.364854 -0.519754,-2.448007 -1.162505,-3.17011 -0.841131,1.444205 -2.646387,3.130434 -5.574474,3.130434 H 8.6210605 V 5.0257157 h 4.9356915 c -0.242024,2.6067121 0.440403,5.1340703 2.567035,6.3402193 3.65019,-1.5235554 7.062322,-4.8523704 6.657628,-9.3079812 z"
       id="path42"
       style="fill:#ffffff;stroke-width:0.396759" />
    <path
       class="cls-2"
       d="m 44.500043,7.6840059 -2.99157,2.6582891 C 40.730825,8.1521821 38.417716,6.4857911 34.906392,6.4857911 c -7.153577,0 -11.823439,6.3679929 -11.823439,12.5693489 0,6.697302 5.209455,11.081498 11.204495,11.081498 6.780623,0 10.83154,-5.33245 10.458585,-11.700443 -0.03968,-0.618946 -0.702265,-0.618946 -0.991899,-0.08333 -1.654488,3.019341 -3.431971,4.590509 -5.995039,4.590509 -1.979832,0 -3.697801,-0.872871 -4.880145,-2.301206 L 44.746033,12.44115 C 44.623036,10.953301 44.785701,9.5051281 45.158663,8.0172789 45.281659,7.5213292 44.78571,7.4380106 44.496074,7.6879682 Z M 31.188754,15.662844 c 0,-3.388328 1.654488,-4.630187 3.019342,-4.630187 1.281533,0 1.737806,0.9919 1.737806,2.067117 0,1.075221 -0.495949,2.56307 -2.440071,4.340553 l 0.02381,-0.01197 -1.68623,1.499753 C 31.42284,17.956119 31.188753,16.849159 31.188753,15.662848 Z"
       id="path43"
       style="fill:#ffffff;stroke-width:0.396759" />
    <path
       class="cls-2"
       d="M 87.068391,8.0609275 86.679566,6.7793941 C 84.671963,7.5491075 82.628651,7.9379322 80.621046,7.9418995 80.783718,6.1326758 81.228088,4.4543817 81.9859,2.9387594 L 80.509954,2.0857273 c -1.825095,0.8927086 -4.110431,1.087121 -6.673499,1.087121 l -0.388824,0.5435605 v 4.2294594 h -2.598777 l -0.349147,0.5832355 c 0.777647,1.1267979 0.777647,2.2893043 0,3.8009573 l 0.349147,0.388825 h 2.598777 v 9.815836 c 0,4.88808 2.055214,7.601916 6.364025,7.601916 4.538931,0 6.090261,-3.221688 6.633823,-6.244997 l -1.396594,-0.618947 c -0.464209,1.202182 -1.436271,1.630684 -2.209952,1.630684 -1.126797,0 -1.940156,-0.89271 -1.940156,-2.793189 0,-1.356917 -0.178541,-5.979169 -0.281698,-9.387335 h 3.344683 c 0.737973,-1.825094 1.745743,-3.6065458 3.102662,-4.6539906 z"
       id="path44"
       style="fill:#ffffff;stroke-width:0.396759" />
    <path
       class="cls-2"
       d="m 64.476894,7.5649778 h 2.936021 v 7.8320362 h -2.936021 c 0,-2.729706 -2.007605,-5.717306 -4.431807,-5.717306 -1.495784,0 -2.213918,1.186311 -2.213918,2.471811 0,1.80129 1.289468,3.348653 5.102329,4.792859 3.039179,1.134733 4.844435,2.987601 4.844435,6.594146 0,5.459414 -4.534962,6.594147 -7.316248,6.594147 -5.153908,0 -7.161513,-3.658126 -8.399403,-3.658126 -0.41263,0 -0.928417,0.412631 -0.87684,2.781286 H 47.166267 V 18.281458 h 0.928418 c 0.567366,1.444205 1.702099,2.368656 3.03918,2.832864 -0.412632,3.400231 2.678127,6.284674 5.102329,6.284674 0.670524,0 1.956026,-0.206315 1.956026,-1.801289 0,-1.956026 -1.801289,-3.245495 -4.328648,-4.380227 -3.142339,-1.444204 -5.665729,-3.400231 -5.665729,-7.574143 0,-5.205488 3.967597,-7.161513 7.419406,-7.161513 4.896015,0 6.129937,3.709703 7.470985,3.709703 0.773682,0 1.392627,-1.3926266 1.392627,-2.6265492 z"
       id="path45"
       style="fill:#ffffff;stroke-width:0.396759" />
    <path
       class="cls-2"
       d="m 70.257681,35.611921 c 2.828898,0 5.122169,-1.110927 5.122169,-3.297072 0,-2.186145 -2.293271,-3.297073 -5.122169,-3.297073 -2.828896,0 -5.157876,1.075218 -5.157876,3.297073 0,2.221855 2.293273,3.297072 5.157876,3.297072 z m -6.054551,9.101668 c 2.578937,0.646719 3.118531,1.864772 3.297072,4.586543 0.107119,1.503718 0.107119,3.725574 0,5.229293 -0.178541,2.293271 -1.936187,3.082822 -3.582739,3.189947 -2.32898,0.142841 -2.32898,5.050751 0.718134,4.800794 4.122334,-0.357084 8.276408,-0.357084 12.398741,0 3.047114,0.249957 3.047114,-4.586542 0.718135,-4.836502 -1.396594,-0.142841 -2.975698,-0.968092 -3.047115,-3.154239 -0.14284,-5.086459 -0.07142,-10.141179 0.285667,-14.15242 0.249959,-2.578937 -1.717969,-3.511322 -3.225656,-3.511322 -1.182344,0 -2.221854,0.571334 -3.547032,1.610844 -1.325176,1.03951 -2.793188,1.610845 -4.729375,2.150438 -1.682261,0.428501 -2.150438,3.368489 0.718135,4.082658 z"
       id="path46"
       style="fill:#ffffff;stroke-width:0.396759" />
    <path
       class="cls-2"
       d="m 137.36958,61.615554 h 3.57877 l 4.13424,-5.911721 v 7.236898 h -19.50073 l 1.65449,-2.896346 V 36.06026 l -1.65449,-2.896344 h 13.44221 l -1.65449,2.896344 z"
       id="path47"
       style="fill:#ffffff;stroke-width:0.396759" />
    <path
       class="cls-2"
       d="M 103.4149,33.695573 97.451593,62.551907 H 93.428449 L 90.599552,48.8756 87.770656,62.551907 h -3.800958 l -6.01091,-28.856334 h 8.633491 l -2.5591,6.371961 2.34485,15.731523 4.899983,-22.103484 h 1.757645 l 3.344685,22.103484 2.563067,-13.136714 -2.2774,-8.96677 h 6.744911 z"
       id="path48"
       style="fill:#ffffff;stroke-width:0.396759" />
    <g
       id="g53"
       transform="matrix(0.39675971,0,0,0.39675971,0.06692152,0.00273805)">
      <path
         class="cls-2"
         d="m 259.43,41.11 c 0.47,0.53 1.05,0.77 1.83,0.77 1.07,0 2.54,-0.43 4.3,-1.18 -2.26,-3.67 -4.73,-8.21 -7.51,-13.48 -0.47,6.04 -0.49,11.81 1.39,13.89 z"
         id="path49"
         style="fill:#ffffff" />
      <path
         class="cls-2"
         d="m 276.59,48.78 c 3.48,0 9.12,-10.4 14.21,-20.52 -8.04,5.58 -15.53,10.6 -21.31,13.56 2.76,4.15 5.27,6.96 7.11,6.96 z"
         id="path50"
         style="fill:#ffffff" />
      <path
         class="cls-2"
         d="m 255.35,3.89 c -1.43,0 -3.46,0.73 -5.83,1.93 2.02,3.35 4.23,7.42 6.7,12.09 0.6,-6.07 1.06,-12.25 -0.34,-13.8 -0.15,-0.17 -0.3,-0.23 -0.53,-0.23 z"
         id="path51"
         style="fill:#ffffff" />
      <path
         class="cls-2"
         d="m 332.33,4.51 c -0.24,-0.28 -0.63,-0.61 -1.5,-0.61 -1.36,0 -3.4,0.72 -5.89,1.95 2.27,3.64 4.72,8.09 7.4,13.18 0.96,-6.22 1.7,-12.51 0,-14.52 z"
         id="path52"
         style="fill:#ffffff" />
      <path
         class="cls-2"
         d="m 334.36,41.01 c 0.51,0.6 1.19,0.88 2.15,0.88 1.19,0 2.69,-0.4 4.43,-1.12 -2.15,-3.61 -4.51,-8.05 -7.19,-13.18 -0.81,5.84 -1.18,11.33 0.6,13.43 z"
         id="path53"
         style="fill:#ffffff" />
    </g>
    <path
       class="cls-2"
       d="m 101.37951,1.5461338 c -0.56736,0 -1.37278,0.2896342 -2.313106,0.7657464 0.801457,1.3291443 1.678296,2.9439572 2.658286,4.7968246 v 0 c 0.23807,-2.4083311 0.42057,-4.8603075 -0.13489,-5.4752835 -0.0595,-0.067446 -0.11903,-0.091257 -0.21028,-0.091257 z"
       id="path54"
       style="fill:#ffffff;stroke-width:0.396759" />
    <path
       class="cls-2"
       d="m 131.92209,1.7921243 c -0.0952,-0.1111002 -0.24997,-0.2420233 -0.59515,-0.2420233 -0.53959,0 -1.34898,0.285667 -2.33692,0.7736807 0.90065,1.4442067 1.8727,3.2097867 2.93603,5.229293 0.38088,-2.4678451 0.67448,-4.9634635 0,-5.7609504 z"
       id="path55"
       style="fill:#ffffff;stroke-width:0.396759" />
    <path
       class="cls-2"
       d="m 132.72749,16.273854 c 0.20236,0.238057 0.47215,0.349149 0.85305,0.349149 0.47214,0 1.06728,-0.158704 1.75764,-0.444372 -0.85304,-1.432302 -1.78938,-3.193916 -2.8527,-5.229294 0.0396,-0.297568 0.0872,-0.599105 0.13094,-0.900644 -0.0476,0.301539 -0.0913,0.603076 -0.13094,0.900644 -0.32139,2.317079 -0.46818,4.495288 0.23805,5.328484 z"
       id="path56"
       style="fill:#ffffff;stroke-width:0.396759" />
    <g
       id="g66"
       transform="matrix(0.39675971,0,0,0.39675971,0.06692152,0.00273805)">
      <path
         class="cls-2"
         d="m 321.77,41.7 c -0.24,-0.28 -0.63,-0.61 -1.5,-0.61 -1.36,0 -3.4,0.72 -5.89,1.95 2.27,3.64 4.72,8.09 7.4,13.18 0.96,-6.22 1.7,-12.51 0,-14.52 z"
         id="path57"
         style="fill:#ffffff" />
      <path
         class="cls-2"
         d="m 302.98,34.9 c -4.01,0 -10.16,11.4 -15.6,22.26 8.58,-6 16.75,-11.64 23.14,-15.15 -2.86,-4.24 -5.5,-7.11 -7.53,-7.11 z"
         id="path58"
         style="fill:#ffffff" />
      <path
         class="cls-2"
         d="m 323.8,78.2 c 0.51,0.6 1.19,0.88 2.15,0.88 1.19,0 2.69,-0.4 4.43,-1.12 -2.15,-3.61 -4.51,-8.05 -7.19,-13.18 -0.81,5.84 -1.18,11.33 0.6,13.43 z"
         id="path59"
         style="fill:#ffffff" />
      <path
         class="cls-2"
         d="m 347.21,79.43 c 2.5,-3.88 5.24,-8.98 7.81,-13.9 -7.72,5.6 -14.96,10.64 -20.74,13.57 0.07,0.12 0.15,0.22 0.22,0.33 z"
         id="path60"
         style="fill:#ffffff" />
      <path
         class="cls-2"
         d="m 286.65,72.41 c 12,0 17.63,7.02 17.63,7.02 h 17.07 c -2.46,-3.65 -1.53,-10.88 -0.29,-18.74 -2.91,-5.59 -6.08,-11.6 -9.09,-16.41 -7.01,3.85 -16.61,10.58 -25.44,16.76 -0.56,0.4 -1.13,0.79 -1.69,1.18 -2.07,4.16 -3.95,7.91 -5.7,11.19 2.15,-0.61 4.64,-1 7.5,-1 z"
         id="path61"
         style="fill:#ffffff" />
      <path
         class="cls-2"
         d="m 245.32,41.32 c -0.15,-0.17 -0.3,-0.23 -0.53,-0.23 -1.43,0 -3.46,0.73 -5.83,1.93 2.02,3.35 4.23,7.42 6.7,12.09 0.6,-6.07 1.06,-12.25 -0.34,-13.8 z"
         id="path62"
         style="fill:#ffffff" />
      <path
         class="cls-2"
         d="m 268.24,80.51 v 0 c 0,0 2.16,-3.22 7.02,-5.6 1.65,-2.95 3.34,-6.21 4.97,-9.45 -8.04,5.58 -15.53,10.6 -21.32,13.56 0.35,0.52 0.69,1.02 1.02,1.49 h 8.3 z"
         id="path63"
         style="fill:#ffffff" />
      <path
         class="cls-2"
         d="m 235.17,42.02 c -2.7,-4.22 -5.13,-7.11 -6.82,-7.11 -0.28,0 -0.56,0.05 -0.85,0.11 v 11.93 c 2.57,-1.8 5.19,-3.51 7.67,-4.93 z"
         id="path64"
         style="fill:#ffffff" />
      <path
         class="cls-2"
         d="m 227.5,78.44 h -36.03 v 2.07 h 55.79 c -0.14,-0.12 -0.27,-0.25 -0.4,-0.39 -3.07,-3.41 -2.54,-11.66 -1.7,-20.12 -2.73,-5.22 -5.74,-10.99 -8.57,-15.68 -2.85,1.64 -6,3.76 -9.1,5.99 v 28.14 z"
         id="path65"
         style="fill:#ffffff" />
      <path
         class="cls-2"
         d="m 250.7,79.07 c 1.07,0 2.54,-0.43 4.3,-1.18 -2.26,-3.67 -4.73,-8.21 -7.51,-13.48 -0.47,6.04 -0.49,11.81 1.39,13.89 0.47,0.53 1.05,0.77 1.83,0.77 z"
         id="path66"
         style="fill:#ffffff" />
    </g>
    <path
       class="cls-2"
       d="m 139.50812,19.356677 c 1.25376,0 3.56687,-4.205653 5.60622,-8.113736 -3.06299,2.221854 -5.93552,4.221524 -8.2288,5.384029 1.03555,1.61878 1.96794,2.729707 2.61861,2.729707 z"
       id="path67"
       style="fill:#ffffff;stroke-width:0.396759" />
    <path
       class="cls-2"
       d="M 121.55078,61.675068 V 38.345596 c 0,-6.407669 -4.46355,-8.589847 -8.11771,-8.589847 -4.20962,0 -6.58224,2.781285 -7.62968,6.280707 -0.15871,0.372953 -0.24996,0.781616 -0.24996,1.222018 0,1.805258 1.32914,3.134403 3.1344,3.134403 1.71003,0 3.03918,-1.329145 3.03918,-3.134403 0,-1.710033 -1.32915,-3.039178 -3.03918,-3.039178 -0.35708,0 -0.6983,0.05555 -1.01174,0.150772 0.99984,-1.634651 2.1068,-2.289305 3.28913,-2.289305 2.5234,0 3.37643,2.995537 3.45975,6.546536 l -2.93602,2.471814 c -4.03505,3.4161 -8.26054,8.308147 -8.26054,13.811204 0,6.312448 3.36849,8.450982 7.02662,8.450982 1.53546,0 3.20582,-0.519756 4.17788,-2.376589 v 1.948088 h 10.33162 v -1.261699 h -3.20979 z m -9.01835,-0.591173 c -1.66242,0 -2.18218,-4.082656 -2.18218,-8.450981 0,-2.563068 0.14284,-8.732682 3.18201,-11.676639 l 0.90065,-0.880807 v 16.449658 c 0,2.896346 -0.80543,4.554802 -1.90048,4.554802 z"
       id="path68"
       style="fill:#ffffff;stroke-width:0.396759" />
    <path
       class="cls-1"
       d="m 136.32611,15.722358 c -1.10696,-1.844934 -2.28931,-4.126302 -3.35262,-6.1696142 -0.0714,-0.1388593 -0.14276,-0.2697972 -0.21027,-0.4086625 0.0199,-0.1190308 0.0396,-0.2380561 0.0556,-0.3570841 0.54754,-3.4359381 1.01969,-6.4037015 -0.0793,-7.6931693 -0.0872,-0.10315282 -0.18251,-0.19044515 -0.28963,-0.26979663 h -2.69004 c -0.41658,0.15473743 -0.8689,0.35311533 -1.35691,0.59513863 -0.13886,-0.2063139 -0.27377,-0.4046951 -0.40867,-0.59513863 h -1.32518 c 0.25393,0.32931073 0.51976,0.69432923 0.78559,1.09108823 -2.53529,1.38866 -5.77682,3.630352 -9.17705,6.0109097 1.33311,-2.6543215 2.76938,-5.3919649 4.04695,-7.10199793 h -1.32518 c -1.4323,2.07902033 -2.93999,5.11026493 -4.56274,8.38750033 v 0 c -3.59068,2.5114874 -7.38369,5.1301014 -10.03405,6.4790854 -1.24582,-2.011572 -2.57894,-4.558769 -3.77715,-6.8560073 0.0238,-0.238056 0.0477,-0.4721449 0.0714,-0.6982979 0.39279,-3.8247628 0.5872,-6.2172235 -0.30948,-7.21705876 -0.0317,-0.0357065 -0.0714,-0.0634816 -0.10712,-0.0952214 H 99.8084 C 99.399702,0.97480308 98.959297,1.1731794 98.503024,1.4072667 98.372096,1.2049201 98.24513,1.0105077 98.118167,0.82403127 H 96.820763 C 97.058819,1.153342 97.308776,1.5183605 97.562702,1.9151195 95.086924,3.3315512 92.246124,5.4978606 90.329774,7.0412548 V 0.82403127 H 0.8882146 V 31.120603 H 64.076166 v 0.821292 H 57.045583 V 64.004047 H 146.48713 V 31.513394 h -7.39164 c 1.01572,-1.65052 2.15045,-3.804925 3.48355,-6.375929 0.0952,-0.182509 0.19044,-0.368986 0.28963,-0.559431 0.13887,-0.103153 0.2817,-0.206315 0.42454,-0.309471 1.06728,-0.781617 2.13853,-1.567202 3.19392,-2.325012 v -1.32121 c -0.81336,0.579269 -1.64656,1.182343 -2.48768,1.801288 0.81733,-1.535459 1.65844,-3.066952 2.48768,-4.400065 v -1.963961 c -1.44024,2.055215 -2.92412,4.860307 -4.45164,7.804265 -3.61845,2.646387 -7.25674,5.28087 -9.89916,6.613984 -1.10697,-1.844933 -2.28931,-4.126302 -3.35262,-6.169614 -0.0714,-0.138859 -0.14284,-0.269797 -0.21028,-0.408663 0.0198,-0.119031 0.0396,-0.238056 0.0556,-0.357084 0.54753,-3.435937 1.01967,-6.403701 -0.0794,-7.693171 -0.34518,-0.404695 -0.8332,-0.618945 -1.41247,-0.618945 -0.71416,0 -1.714,0.349149 -2.92015,0.944289 -1.44817,-2.162341 -2.72177,-3.396264 -3.93982,-3.396264 -2.47579,0 -5.05075,5.181683 -8.03042,11.192593 -3.59067,2.511489 -7.3837,5.130102 -10.03406,6.479085 -1.24582,-2.011572 -2.578928,-4.558768 -3.777147,-6.856007 0.02381,-0.238057 0.04762,-0.472145 0.07141,-0.698298 0.392791,-3.824762 0.587204,-6.217224 -0.309473,-7.217059 -0.261862,-0.289634 -0.61101,-0.444371 -1.007771,-0.444371 -0.745907,0 -1.749709,0.361053 -2.876506,0.932387 -1.396595,-2.178213 -2.5591,-3.384363 -3.646224,-3.384363 -0.115065,0 -0.226152,0.01197 -0.337244,0.02777 V 8.4299164 c 2.122664,-1.7298722 5.268969,-4.1382048 7.800296,-5.5982804 1.118861,1.8608034 2.317079,4.1501064 3.400219,6.2211926 -0.33328,3.3565874 -0.54752,6.6338234 0.67449,7.9828044 0.39677,0.436436 0.9086,0.658622 1.51959,0.658622 0.61102,0 1.36486,-0.23012 2.28138,-0.630848 1.42833,2.170276 2.64242,3.36849 3.79699,3.36849 2.09885,0 4.23342,-3.959661 7.47099,-10.494294 0.22218,-0.1547372 0.44436,-0.3134412 0.67051,-0.4681764 3.50339,-2.4519749 7.31229,-5.1221682 10.09357,-6.6496936 1.19424,1.9084142 2.45197,4.2929406 3.60654,6.5108283 -0.5158,3.2732657 -0.90063,6.2767377 0.26582,7.6415917 0.40868,0.480078 0.97208,0.726069 1.67037,0.726069 0.63878,0 1.4204,-0.218217 2.32105,-0.603075 1.36485,2.146471 2.50751,3.340719 3.60256,3.340719 1.89652,0 3.91206,-3.594645 6.97902,-9.498428 V 8.6084585 c -0.0872,0.1666388 -0.17459,0.3332777 -0.26187,0.503884 -3.61845,2.6463865 -7.25674,5.2808715 -9.89916,6.6139845 z"
       id="path69"
       style="fill:none;stroke-width:0.396759" />
    <g
       id="g73"
       transform="matrix(0.39675971,0,0,0.39675971,0.06692152,0.00273805)">
      <path
         class="cls-2"
         d="m 104.98,109.78 -1.06,9.23 12.1,-6.58 c -3.51,-0.88 -7.21,-1.77 -11.05,-2.65 z"
         id="path70"
         style="fill:#ffffff" />
      <path
         class="cls-2"
         d="m 91.06,149.94 -10.09,12.63 1.84,-16.06 -25.17,13.69 19.74,-20.8 -15.92,-2.42 14.78,-6.47 -24.34,-14.98 27.78,6.7 -5.83,-15.05 12.94,9.59 0.31,-10.73 c -17.15,-3.24 -34.88,-5.44 -48.31,-4.32 0.22,1.72 0.02,3.51 -0.66,5.23 -2.16,5.45 -8.32,8.11 -13.77,5.95 -2.02,-0.8 -3.65,-2.15 -4.8,-3.81 -0.96,1.33 -1.61,2.83 -1.92,4.53 -2.85,15.56 21.56,40.51 31.28,49.79 H 95 l -3.93,-13.45 z"
         id="path71"
         style="fill:#ffffff" />
      <path
         class="cls-2"
         d="m 95.67,115.58 5.35,-6.69 c -2.56,-0.57 -5.16,-1.12 -7.79,-1.66 z"
         id="path72"
         style="fill:#ffffff" />
      <path
         class="cls-2"
         d="m 0,0 v 163.4 h 44.64 c -3.44,-3.71 -8.1,-8.95 -12.61,-14.82 -11.69,-15.2 -16.86,-27.02 -15.38,-35.14 0.37,-1.99 1.16,-3.74 2.34,-5.26 -1.48,-2.68 -1.8,-5.98 -0.58,-9.05 2.16,-5.45 8.32,-8.11 13.77,-5.95 3.41,1.35 5.72,4.26 6.46,7.59 11.69,-0.98 27.92,0.31 48.52,3.88 l 0.48,-16.55 5.14,17.56 c 0.92,0.17 1.83,0.34 2.77,0.52 2.23,0.43 4.44,0.87 6.62,1.31 l 3.61,-4.52 -0.59,5.15 c 4.69,0.99 9.19,2 13.36,2.97 l 10.56,-5.74 -6.39,6.73 c 10.3,2.48 18.05,4.6 20.91,5.4 V 80.52 h 17.72 V 78.45 H 2.07 V 2.07 H 227.5 v 15.67 c 4.84,-3.89 11.99,-9.35 18.23,-12.92 -0.64,-1 -1.26,-1.92 -1.87,-2.75 h 3.27 c 0.32,0.47 0.64,0.96 0.97,1.47 1.16,-0.59 2.26,-1.08 3.29,-1.47 h 6.23 c 0.09,0.08 0.18,0.15 0.27,0.24 2.27,2.51 1.78,8.55 0.78,18.19 -0.06,0.58 -0.12,1.17 -0.18,1.76 3.02,5.79 6.38,12.2 9.52,17.28 6.68,-3.4 16.23,-10 25.29,-16.33 v 0 c 4.09,-8.26 7.89,-15.9 11.5,-21.14 h 3.34 c -3.23,4.31 -6.85,11.2 -10.2,17.9 8.58,-6 16.75,-11.64 23.13,-15.15 -0.67,-1 -1.33,-1.92 -1.98,-2.75 h 3.34 c 0.34,0.48 0.68,0.98 1.03,1.5 1.23,-0.61 2.37,-1.11 3.42,-1.5 h 6.78 c 0.26,0.2 0.51,0.42 0.73,0.68 2.77,3.24 1.58,10.73 0.2,19.39 -0.05,0.3 -0.1,0.6 -0.14,0.9 0.18,0.34 0.35,0.68 0.53,1.03 2.68,5.16 5.66,10.9 8.45,15.55 6.66,-3.36 15.83,-10 24.95,-16.67 0.22,-0.42 0.44,-0.85 0.66,-1.27 v 5.87 c -7.73,14.88 -12.81,23.94 -17.59,23.94 -2.76,0 -5.64,-3.01 -9.08,-8.42 -2.27,0.97 -4.24,1.52 -5.85,1.52 -1.76,0 -3.18,-0.61 -4.21,-1.83 -2.94,-3.45 -1.97,-11.02 -0.67,-19.26 -2.91,-5.59 -6.08,-11.6 -9.09,-16.41 -7.01,3.85 -16.61,10.58 -25.44,16.76 -0.56,0.4 -1.13,0.79 -1.69,1.18 -8.17,16.47 -13.55,26.45 -18.83,26.45 -2.91,0 -5.97,-3.02 -9.57,-8.49 -2.31,1.01 -4.27,1.59 -5.75,1.59 -1.48,0 -2.84,-0.56 -3.83,-1.66 -3.07,-3.41 -2.54,-11.66 -1.7,-20.12 -2.73,-5.22 -5.74,-10.99 -8.57,-15.68 -6.38,3.68 -14.31,9.75 -19.66,14.11 v 11.04 c 0.28,-0.04 0.57,-0.07 0.85,-0.07 2.73,0 5.66,3.04 9.19,8.53 2.84,-1.44 5.37,-2.35 7.25,-2.35 1,0 1.88,0.39 2.54,1.12 2.27,2.51 1.78,8.55 0.78,18.19 -0.06,0.58 -0.12,1.17 -0.18,1.76 3.02,5.79 6.38,12.2 9.52,17.28 6.68,-3.4 16.23,-10 25.29,-16.33 7.51,-15.15 13.99,-28.21 20.24,-28.21 3.07,0 6.27,3.11 9.93,8.56 3.04,-1.5 5.56,-2.38 7.36,-2.38 1.46,0 2.69,0.54 3.56,1.56 2.77,3.24 1.58,10.73 0.2,19.39 -0.05,0.3 -0.1,0.6 -0.14,0.9 0.18,0.34 0.35,0.68 0.53,1.03 2.68,5.16 5.66,10.9 8.45,15.55 6.66,-3.36 15.83,-10 24.95,-16.67 3.85,-7.42 7.6,-14.49 11.22,-19.67 v 4.95 c -2.09,3.36 -4.21,7.22 -6.27,11.09 2.12,-1.55 4.22,-3.07 6.27,-4.54 v 3.33 c -2.66,1.91 -5.36,3.89 -8.05,5.86 -0.36,0.26 -0.71,0.52 -1.07,0.78 -0.25,0.47 -0.49,0.94 -0.73,1.41 -3.36,6.49 -6.23,11.91 -8.78,16.07 h 18.63 V 161.3 H 143.62 v -41.37 c -3.57,-1.04 -11.82,-3.46 -22.49,-6.22 l -11.77,12.4 15.92,2.42 -14.78,6.47 24.34,14.98 -27.78,-6.7 5.83,15.05 -12.94,-9.59 -0.42,14.62 h 271.6 V 0 Z"
         id="path73"
         style="fill:#ffffff" />
      <circle
         class="cls-2"
         cx="94.330002"
         cy="133.14999"
         r="9.0500002"
         transform="rotate(-72.94,94.321222,133.13827)"
         id="circle73"
         style="fill:#ffffff" />
    </g>
  </g>
</svg>
