<svg width="313" height="311" viewBox="0 0 313 311" fill="none" xmlns="http://www.w3.org/2000/svg">
<path d="M83.7055 241.318H83.5599C82.1093 217.02 77.9034 170.97 75.0722 141.016H63.3981C60.6427 170.609 56.1454 219.782 54.8405 241.971H54.6949C54.0425 220.719 50.1977 170.97 47.8034 141.016H36.9274L48.8229 268.156H59.3378C62.2388 239.361 66.7361 194.47 68.7633 171.192H69.0546C71.0876 193.02 75.2936 239.005 77.9733 268.156H88.995L101.904 141.016H91.098C88.7037 171.623 85.0803 218.471 83.6997 241.318H83.7055Z" fill="white"/>
<path d="M25.5386 206.214C17.8491 198.892 16.3986 194.027 16.3986 184.672C16.3986 176.621 17.7034 169.875 22.3463 169.875C26.628 169.875 28.2242 176.038 28.2242 184.526V189.315H37.7953V184.241C37.7953 171.116 35.9836 159.512 23.0745 159.512C9.22163 159.512 6.10503 172.928 6.10503 186.419C6.10503 202.445 10.8178 207.309 19.9579 216.374C29.098 225.368 31.0553 230.442 31.0553 242.553C31.0553 253.214 29.0222 259.744 23.1502 259.744C17.2782 259.744 14.8839 253.872 14.8839 244.225V237.84H4.79431V244.149C4.79431 258.148 8.63909 270.043 22.8531 270.043C37.7953 270.043 41.3488 256.121 41.3488 240.963C41.3488 223.05 37.6497 217.684 25.5386 206.226V206.214Z" fill="white"/>
<path d="M31.7777 141.016H21.0414L18.3618 156.826H26.4824L31.7777 141.016Z" fill="white"/>
<path d="M235.429 268.156H246.089L231.584 141.016H217.224L204.362 257.868H193.876V208.032L206.494 200.022V189.029L193.876 196.975V141.022H148.84V152.014H162.547V268.156H172.846V152.014H183.582V203.459L179.883 205.789V216.927L183.582 214.579V268.162H213.682L217.778 228.054H231.141L235.446 268.162L235.429 268.156ZM224.553 155.306C225.345 168.221 227.413 190.165 230.331 217.533H218.628C220.731 195.443 223.533 165.634 224.11 155.306H224.547H224.553Z" fill="white"/>
<path d="M113.8 141.016H103.5V268.156H113.8V141.016Z" fill="white"/>
<path d="M130.192 141.016L116.194 268.156H126.639L130.734 228.048H144.098L148.403 268.156H159.063L144.558 141.016H130.198H130.192ZM137.515 155.306C138.307 168.221 140.375 190.165 143.294 217.533H131.59C133.693 195.443 136.495 165.634 137.072 155.306H137.509H137.515Z" fill="white"/>
<path d="M312.988 248.221V238.155L290.45 216.251L312.988 248.221Z" fill="white"/>
<path d="M312.988 235.673V228.974L292.308 214.393L312.988 235.673Z" fill="white"/>
<path d="M302.951 273.836H312.988V270.154L285.987 218.984L302.951 273.836Z" fill="white"/>
<path d="M291.26 273.836H301.908L283.494 219.793L291.26 273.836Z" fill="white"/>
<path d="M312.988 267.946V250.738L288.323 217.795L312.988 267.946Z" fill="white"/>
<path d="M312.988 226.597V221.681L293.846 212.273L312.988 226.597Z" fill="white"/>
<path d="M312.988 213.275V209.902L295.85 207.438L312.988 213.275Z" fill="white"/>
<path d="M312.988 219.403V215.482L295.04 209.931L312.988 219.403Z" fill="white"/>
<path d="M280.902 186.856L289.692 136.059H280.174L280.902 186.856Z" fill="white"/>
<path d="M275.682 187.27L268.313 136.059H258.224L275.682 187.27Z" fill="white"/>
<path d="M300.953 136.059H290.858L283.494 187.27L300.953 136.059Z" fill="white"/>
<path d="M279.003 136.059H269.478L278.275 186.856L279.003 136.059Z" fill="white"/>
<path d="M257.268 273.836H267.911L275.682 219.793L257.268 273.836Z" fill="white"/>
<path d="M280.133 273.836H290.182L280.902 220.207L280.133 273.836Z" fill="white"/>
<path d="M273.189 188.08L257.093 136.059H245.728L273.189 188.08Z" fill="white"/>
<path d="M312.988 207.74V204.606L296.264 204.845L312.988 207.74Z" fill="white"/>
<path d="M268.995 273.836H279.038L278.275 220.207L268.995 273.836Z" fill="white"/>
<path d="M240.916 176.522L241.668 183.163L265.325 194.796L240.916 176.522Z" fill="white"/>
<path d="M245.122 213.642L263.327 207.438L244.726 210.111L245.122 213.642Z" fill="white"/>
<path d="M244.097 204.577L262.913 204.845L244.487 208.032L244.097 204.577Z" fill="white"/>
<path d="M243.858 202.492L262.913 202.218L243.45 198.851L243.858 202.492Z" fill="white"/>
<path d="M263.327 199.626L242.74 192.612L243.206 196.736L263.327 199.626Z" fill="white"/>
<path d="M245.361 215.739L264.136 209.931L245.798 219.607L245.361 215.739Z" fill="white"/>
<path d="M241.924 185.412L264.136 197.132L242.495 190.439L241.924 185.412Z" fill="white"/>
<path d="M237.52 146.55L239.297 162.215L268.727 190.812L237.52 146.55Z" fill="white"/>
<path d="M265.325 212.273L246.043 221.751L246.561 226.318L265.325 212.273Z" fill="white"/>
<path d="M239.565 164.574L240.654 174.192L266.868 192.67L239.565 164.574Z" fill="white"/>
<path d="M247.732 236.704L268.727 216.298L248.647 244.784L247.732 236.704Z" fill="white"/>
<path d="M248.915 247.144L270.847 217.842L250.324 259.587L248.915 247.144Z" fill="white"/>
<path d="M251.746 272.14H1.74763V137.83H236.524L237.334 144.931L237.281 144.482L270.847 189.32L244.697 136.082H0V273.888H256.225L273.183 219.036L250.581 261.876L251.746 272.14Z" fill="white"/>
<path d="M302.066 136.105L285.987 188.08L312.988 136.915V136.105H302.066Z" fill="white"/>
<path d="M312.988 178.089V171.39L292.308 192.67L312.988 178.089Z" fill="white"/>
<path d="M312.988 185.382V180.466L293.846 194.796L312.988 185.382Z" fill="white"/>
<path d="M312.988 191.581V187.66L295.04 197.132L312.988 191.581Z" fill="white"/>
<path d="M246.812 228.537L247.47 234.357L266.868 214.393L246.812 228.537Z" fill="white"/>
<path d="M312.988 197.167V193.789L295.85 199.626L312.988 197.167Z" fill="white"/>
<path d="M312.988 202.457V199.329L296.264 202.218L312.988 202.457Z" fill="white"/>
<path d="M312.988 156.331V139.117L288.323 189.274L312.988 156.331Z" fill="white"/>
<path d="M312.988 168.914V158.848L290.45 190.812L312.988 168.914Z" fill="white"/>
<path d="M5.21375 4.36909V63.4622H32.1622C32.9311 61.2427 32.8437 58.6038 29.5174 57.5785C27.729 57.0659 24.9969 56.128 22.7832 54.5959C21.0764 53.4017 18.0938 50.7569 18.0938 46.1549V34.6438H28.1543C34.0379 34.6438 36.8516 36.7759 37.8769 42.9159C42.3974 39.8459 46.2364 35.2438 46.2364 29.867C46.2364 26.9659 45.1295 24.6649 43.7606 23.1328C41.9722 26.2028 38.1332 29.7854 31.9058 29.7854H18.1753V10.678H28.6669C28.1543 16.2238 29.6048 21.5949 34.1253 24.1522C41.8848 20.9133 49.1316 13.8354 48.2811 4.36909H5.21375Z" fill="white"/>
<path d="M94.4534 16.3287L88.0979 21.9735C86.4435 17.319 81.5326 13.7772 74.0644 13.7772C58.8601 13.7772 48.9277 27.3096 48.9277 40.4926C48.9277 54.7299 60.0019 64.0447 72.7421 64.0447C87.1542 64.0447 95.77 52.7085 94.9777 39.176C94.8903 37.8595 93.4864 37.8595 92.8689 39.0012C89.3562 45.415 85.5755 48.7588 80.1287 48.7588C75.9169 48.7588 72.2644 46.9063 69.7536 43.8655L94.9777 26.4358C94.7156 23.2726 95.0651 20.1968 95.8573 17.0336C96.1195 15.9792 95.0651 15.8044 94.4534 16.3287ZM66.1535 33.2923C66.1535 26.0863 69.6662 23.4474 72.5673 23.4474C75.2936 23.4474 76.2606 25.5562 76.2606 27.8397C76.2606 30.1233 75.2062 33.2865 71.076 37.0672L71.1284 37.0439L67.54 40.2304C66.6487 38.1624 66.1535 35.8147 66.1535 33.2865V33.2923Z" fill="white"/>
<path d="M184.934 17.1268L184.107 14.4063C179.843 16.0491 175.497 16.8705 171.233 16.8763C171.576 13.0315 172.52 9.46052 174.134 6.23906L171 4.42735C167.126 6.32644 162.261 6.73422 156.815 6.73422L155.987 7.88765V16.8763H150.465L149.725 18.1113C151.374 20.5055 151.374 22.9755 149.725 26.1911L150.465 27.0183H155.987V47.8792C155.987 58.2717 160.356 64.0389 169.514 64.0389C179.161 64.0389 182.458 57.194 183.617 50.7628L180.646 49.4462C179.656 52.0036 177.594 52.9123 175.945 52.9123C173.551 52.9123 171.821 51.0133 171.821 46.9762C171.821 44.0927 171.442 34.2652 171.227 27.0183H178.334C179.901 23.1444 182.045 19.3521 184.928 17.1209L184.934 17.1268Z" fill="white"/>
<path d="M136.915 16.0782H143.16V32.7273H136.915C136.915 26.9251 132.645 20.5696 127.495 20.5696C124.32 20.5696 122.788 23.0862 122.788 25.8241C122.788 29.6573 125.526 32.9428 133.629 36.007C140.09 38.4187 143.923 42.3567 143.923 50.0229C143.923 61.633 134.288 64.0389 128.369 64.0389C117.417 64.0389 113.147 56.262 110.52 56.262C109.646 56.262 108.551 57.1358 108.656 62.1748H100.116V38.8498H102.085C103.291 41.914 105.696 43.8888 108.545 44.8733C107.671 52.1026 114.242 58.2368 119.386 58.2368C120.808 58.2368 123.546 57.7999 123.546 54.4037C123.546 50.2443 119.712 47.5064 114.347 45.0946C107.665 42.0305 102.3 37.8653 102.3 28.9932C102.3 17.9307 110.735 13.7713 118.07 13.7713C128.474 13.7713 131.101 21.659 133.95 21.659C135.593 21.659 136.909 18.6996 136.909 16.0724L136.915 16.0782Z" fill="white"/>
<path d="M149.207 75.6897C155.224 75.6897 160.1 73.3305 160.1 68.6818C160.1 64.0331 155.224 61.6738 149.207 61.6738C143.189 61.6738 138.237 63.9573 138.237 68.6818C138.237 73.4062 143.113 75.6897 149.207 75.6897ZM136.332 95.036C141.814 96.405 142.956 98.9973 143.34 104.782C143.568 107.98 143.568 112.704 143.34 115.903C142.962 120.779 139.228 122.45 135.727 122.683C130.775 122.986 130.775 133.42 137.247 132.89C146.008 132.126 154.84 132.126 163.601 132.89C170.073 133.426 170.073 123.144 165.122 122.608C162.151 122.305 158.801 120.551 158.65 115.903C158.347 105.085 158.498 94.3486 159.261 85.8202C159.797 80.3384 155.603 78.3578 152.405 78.3578C149.894 78.3578 147.68 79.5753 144.867 81.7831C142.047 83.991 138.925 85.2085 134.812 86.3503C131.235 87.2649 130.245 93.5097 136.332 95.0302V95.036Z" fill="white"/>
<path d="M291.86 130.973H299.468L308.258 118.408V133.793H266.804L270.323 127.641V76.6568L266.804 70.5051H295.372L291.854 76.6568V130.979L291.86 130.973Z" fill="white"/>
<path d="M219.682 71.6236L207.001 132.965H198.455L192.443 103.891L186.431 132.965H178.351L165.576 71.6236H183.932L178.491 85.1677L183.472 118.611L193.887 71.6236H197.627L204.734 118.611L210.181 90.6844L205.34 71.6236H219.677H219.682Z" fill="white"/>
<path d="M218.803 34.6729C219.205 35.1157 219.694 35.3254 220.341 35.3254C221.244 35.3254 222.479 34.9642 223.97 34.3292C222.065 31.2301 219.98 27.4028 217.632 22.958C217.242 28.0494 217.218 32.9195 218.803 34.6729Z" fill="white"/>
<path d="M233.267 41.145C236.203 41.145 240.963 32.3719 245.25 23.8377C238.47 28.5446 232.155 32.7797 227.273 35.273C229.597 38.7799 231.718 41.145 233.267 41.145Z" fill="white"/>
<path d="M215.36 3.28552C214.154 3.28552 212.441 3.90302 210.443 4.91664C212.144 7.74197 214.009 11.1731 216.088 15.117C216.595 9.99641 216.985 4.78848 215.803 3.47776C215.675 3.33795 215.552 3.28552 215.354 3.28552H215.36Z" fill="white"/>
<path d="M280.279 3.7982C280.075 3.55936 279.743 3.27974 279.009 3.27974C277.861 3.27974 276.143 3.89141 274.04 4.92251C275.956 7.99251 278.018 11.7441 280.284 16.0374C281.094 10.7945 281.717 5.48757 280.279 3.79238V3.7982Z" fill="white"/>
<path d="M281.991 34.5856C282.422 35.0924 282.999 35.3254 283.809 35.3254C284.811 35.3254 286.075 34.9875 287.549 34.3817C285.737 31.335 283.739 27.5951 281.485 23.2668C280.803 28.1951 280.488 32.8205 281.991 34.5914V34.5856Z" fill="white"/>
<path d="M215.36 3.28557C214.154 3.28557 212.441 3.90306 210.443 4.91669C212.144 7.74202 214.009 11.1732 216.088 15.117C216.595 9.99646 216.985 4.78853 215.803 3.47781C215.675 3.338 215.552 3.28557 215.354 3.28557H215.36Z" fill="white"/>
<path d="M280.279 3.7982C280.075 3.55936 279.743 3.27974 279.009 3.27974C277.861 3.27974 276.143 3.89141 274.04 4.92251C275.956 7.99251 278.018 11.7441 280.284 16.0374C281.094 10.7945 281.717 5.48757 280.279 3.79238V3.7982Z" fill="white"/>
<path d="M281.991 34.5856C282.422 35.0924 282.999 35.3254 283.809 35.3254C284.811 35.3254 286.075 34.9875 287.549 34.3817C285.737 31.335 283.739 27.5951 281.485 23.2668C280.803 28.1951 280.488 32.8205 281.991 34.5914V34.5856Z" fill="white"/>
<path d="M271.371 35.1681C271.168 34.9293 270.836 34.6497 270.102 34.6497C268.954 34.6497 267.235 35.2613 265.132 36.2924C267.049 39.3624 269.111 43.114 271.377 47.4073C272.187 42.1645 272.81 36.8575 271.371 35.1623V35.1681Z" fill="white"/>
<path d="M255.526 29.4359C252.142 29.4359 246.957 39.0478 242.367 48.2054C249.602 43.1431 256.493 38.3837 261.876 35.4303C259.464 31.8534 257.239 29.4359 255.521 29.4359H255.526Z" fill="white"/>
<path d="M273.084 65.9497C273.515 66.4565 274.092 66.6895 274.902 66.6895C275.904 66.6895 277.168 66.3516 278.642 65.7458C276.83 62.7049 274.832 58.9591 272.577 54.6309C271.896 59.5592 271.581 64.1846 273.084 65.9555V65.9497Z" fill="white"/>
<path d="M292.826 66.9924C294.929 63.7185 297.242 59.4194 299.409 55.2658C292.896 59.9902 286.791 64.237 281.921 66.7128C281.985 66.8118 282.044 66.8992 282.108 66.9924H292.826Z" fill="white"/>
<path d="M241.761 61.068C251.88 61.068 256.633 66.9924 256.633 66.9924H271.034C268.96 63.9166 269.746 57.8115 270.789 51.1822C268.336 46.4694 265.663 41.4013 263.123 37.3468C257.21 40.5974 249.113 46.2656 241.668 51.4793C241.19 51.8114 240.718 52.1434 240.246 52.4755C238.504 55.9882 236.914 59.1456 235.434 61.9126C237.246 61.3942 239.349 61.068 241.761 61.068Z" fill="white"/>
<path d="M206.901 34.8477C206.773 34.7079 206.651 34.6555 206.453 34.6555C205.247 34.6555 203.534 35.273 201.536 36.2866C203.237 39.1119 205.101 42.5431 207.181 46.4869C207.688 41.3664 208.078 36.1584 206.896 34.8477H206.901Z" fill="white"/>
<path d="M226.23 67.9012C226.23 67.9012 228.054 65.1807 232.149 63.1767C233.541 60.6893 234.963 57.9397 236.337 55.2076C229.557 59.9145 223.242 64.1496 218.36 66.6429C218.651 67.0798 218.937 67.4992 219.222 67.9012H226.224H226.23Z" fill="white"/>
<path d="M198.338 35.4361C196.06 31.8826 194.01 29.4359 192.588 29.4359C192.355 29.4359 192.111 29.4767 191.866 29.5349V39.5954C194.033 38.0808 196.241 36.6303 198.338 35.4361Z" fill="white"/>
<path d="M191.866 66.1535H161.481V67.9012H208.538C208.422 67.7963 208.311 67.6914 208.201 67.5691C205.608 64.6972 206.057 57.7358 206.768 50.5997C204.467 46.1956 201.921 41.3314 199.544 37.3759C197.144 38.7624 194.488 40.545 191.872 42.4266V66.1594L191.866 66.1535Z" fill="white"/>
<path d="M211.434 66.6895C212.337 66.6895 213.572 66.3283 215.057 65.6933C213.152 62.5942 211.067 58.7727 208.719 54.3221C208.329 59.4135 208.305 64.2836 209.89 66.037C210.292 66.4798 210.781 66.6895 211.428 66.6895H211.434Z" fill="white"/>
<path d="M296.403 41.145C299.071 41.145 303.988 32.2088 308.322 23.9017C301.809 28.6262 295.704 32.8729 290.834 35.3487C293.036 38.7857 295.017 41.145 296.403 41.145Z" fill="white"/>
<path d="M258.235 131.095V81.5093C258.235 67.8895 248.751 63.2466 240.98 63.2466C232.032 63.2466 226.988 69.1594 224.756 76.5927C224.419 77.3849 224.226 78.2588 224.226 79.1908C224.226 83.024 227.052 85.8493 230.885 85.8493C234.52 85.8493 237.345 83.024 237.345 79.1908C237.345 75.5558 234.52 72.7304 230.885 72.7304C230.122 72.7304 229.399 72.8469 228.735 73.0567C230.867 69.5847 233.209 68.1924 235.732 68.1924C241.097 68.1924 242.914 74.5596 243.083 82.1094L236.844 87.3581C228.269 94.6224 219.286 105.015 219.286 116.718C219.286 130.14 226.452 134.678 234.217 134.678C237.485 134.678 241.033 133.577 243.095 129.627V133.769H265.057V131.09H258.229L258.235 131.095ZM239.064 129.837C235.533 129.837 234.421 121.157 234.421 111.877C234.421 106.431 234.724 93.3117 241.178 87.0551L243.095 85.1852V120.149C243.095 126.307 241.382 129.837 239.058 129.837H239.064Z" fill="white"/>
<path d="M88.5348 92.5893L87.6436 100.378L97.8497 94.8263C94.8904 94.0864 91.768 93.335 88.5348 92.5893Z" fill="white"/>
<path d="M76.7966 126.458L68.2856 137.107L69.8352 123.563L48.6132 135.103L65.2622 117.557L51.8288 115.518L64.2952 110.06L43.7664 97.4244L67.1963 103.075L62.2738 90.3815L73.1906 98.4672L73.4528 89.4203C58.9882 86.6881 44.0344 84.8357 32.7039 85.7794C32.8845 87.2241 32.7214 88.7387 32.1447 90.1892C30.3272 94.7855 25.1251 97.0341 20.5288 95.2107C18.8278 94.535 17.4472 93.399 16.4801 92.0009C15.6762 93.1194 15.1228 94.3894 14.8607 95.8166C12.4606 108.941 33.0476 129.983 41.2382 137.806H80.1054L76.7849 126.458H76.7966Z" fill="white"/>
<path d="M80.6821 97.4768L85.191 91.832C83.0356 91.3543 80.8394 90.8825 78.6199 90.4339L80.6821 97.4827V97.4768Z" fill="white"/>
<path d="M0 3.05176e-05V137.806H37.6439C34.737 134.678 30.8165 130.256 27.0067 125.305C17.15 112.489 12.7868 102.516 14.0393 95.6651C14.348 93.9816 15.0179 92.5078 16.0083 91.2262C14.7558 88.9659 14.4937 86.1872 15.5189 83.5948C17.3423 78.9986 22.5386 76.75 27.1348 78.5733C30.0068 79.7093 31.9641 82.1676 32.5816 84.9755C42.444 84.1483 56.1279 85.2376 73.4994 88.2435L73.9013 74.2858L78.2296 89.094C79.0044 89.2397 79.7733 89.3795 80.5656 89.531C82.4472 89.8921 84.3113 90.2591 86.1464 90.6378L89.1931 86.828L88.6979 91.1679C92.6534 92.0009 96.4457 92.8514 99.9643 93.6728L108.871 88.8319L103.483 94.5117C112.169 96.603 118.705 98.3914 121.122 99.0672V67.8953H136.064V66.1477H1.74763V1.74766H191.866V14.9597C195.944 11.6742 201.979 7.07209 207.245 4.06618C206.703 3.22731 206.179 2.44671 205.672 1.74766H208.428C208.696 2.14379 208.97 2.55739 209.243 2.98265C210.222 2.48749 211.148 2.06806 212.022 1.74766H217.277C217.352 1.81756 217.434 1.87582 217.504 1.95155C219.415 4.072 219.001 9.1576 218.168 17.2899C218.115 17.7792 218.069 18.2744 218.016 18.7754C220.562 23.6571 223.399 29.0689 226.05 33.3506C231.683 30.4845 239.739 24.9212 247.377 19.5793C250.831 12.6062 254.029 6.16915 257.076 1.75348H259.89C257.169 5.38855 254.117 11.2023 251.285 16.8472C258.521 11.7849 265.412 7.02549 270.795 4.072C270.224 3.22731 269.671 2.45253 269.123 1.75348H271.942C272.228 2.15544 272.519 2.58069 272.81 3.0176C273.847 2.50496 274.809 2.07971 275.694 1.75348H281.409C281.63 1.91659 281.834 2.10883 282.02 2.32437C284.356 5.06232 283.349 11.3713 282.189 18.6763C282.149 18.9268 282.108 19.1831 282.067 19.4395C282.218 19.7249 282.364 20.0104 282.516 20.3075C284.776 24.6532 287.292 29.5 289.64 33.4263C295.256 30.5952 302.992 24.9969 310.681 19.3696C310.868 19.0142 311.054 18.653 311.235 18.2977V23.2435C304.71 35.7914 300.435 43.4344 296.398 43.4344C294.067 43.4344 291.638 40.8945 288.743 36.3332C286.832 37.1488 285.16 37.6148 283.809 37.6148C282.323 37.6148 281.129 37.0963 280.255 36.0769C277.774 33.17 278.595 26.7853 279.69 19.8298C277.238 15.117 274.564 10.0489 272.024 5.99439C266.111 9.24498 258.014 14.9131 250.569 20.1269C250.091 20.4589 249.619 20.791 249.148 21.123C242.256 35.0166 237.724 43.4344 233.262 43.4344C230.803 43.4344 228.228 40.8887 225.188 36.2691C223.236 37.1255 221.587 37.609 220.335 37.609C219.083 37.609 217.941 37.1371 217.102 36.205C214.51 33.3331 214.958 26.3717 215.669 19.2356C213.368 14.8316 210.822 9.96733 208.445 6.01187C203.063 9.11682 196.375 14.2315 191.866 17.9132V27.2222C192.105 27.1873 192.344 27.164 192.588 27.164C194.89 27.164 197.365 29.733 200.336 34.3584C202.731 33.1467 204.868 32.3777 206.447 32.3777C207.292 32.3777 208.032 32.704 208.591 33.3273C210.502 35.4477 210.088 40.5333 209.255 48.6656C209.203 49.1549 209.156 49.6501 209.104 50.1511C211.649 55.0328 214.486 60.4446 217.137 64.7205C222.77 61.8544 230.827 56.2911 238.464 50.9492C244.796 38.174 250.266 27.164 255.532 27.164C258.119 27.164 260.822 29.7912 263.903 34.3875C266.466 33.1234 268.587 32.3836 270.107 32.3836C271.337 32.3836 272.373 32.8379 273.107 33.7001C275.443 36.438 274.436 42.747 273.276 50.0521C273.236 50.3026 273.195 50.5589 273.154 50.8152C273.306 51.1006 273.451 51.3861 273.603 51.6832C275.863 56.0289 278.379 60.8757 280.727 64.802C286.343 61.9709 294.079 56.3727 301.769 50.7453C305.019 44.4888 308.177 38.5236 311.235 34.1545V38.3313C309.476 41.1683 307.681 44.4189 305.945 47.6869C307.74 46.3762 309.505 45.0946 311.235 43.8596V46.6675C308.992 48.2811 306.714 49.9472 304.448 51.6075C304.145 51.8288 303.848 52.0444 303.551 52.2657C303.347 52.6619 303.138 53.058 302.934 53.4541C300.097 58.9242 297.685 63.503 295.53 67.0099H311.241V136.076H121.116V101.182C118.105 100.308 111.149 98.2633 102.143 95.9331L92.2164 106.396L105.65 108.434L93.1835 113.893L113.712 126.528L90.2824 120.878L95.2049 133.571L84.288 125.485L83.9327 137.818H312.05L313 136.897V3.05176e-05H0Z" fill="white"/>
<path d="M86.8499 114.518C88.0864 110.489 85.8224 106.22 81.7932 104.984C77.764 103.747 73.4954 106.011 72.2589 110.04C71.0224 114.07 73.2864 118.338 77.3156 119.575C81.3448 120.811 85.6135 118.547 86.8499 114.518Z" fill="white"/>
<path d="M4.09496 310.721H9.63108V285.279H5.09674C5.09674 287.353 2.82957 288.991 0 289.043V292.197H4.09496V310.721Z" fill="white"/>
<path d="M20.05 311C25.0589 311 27.3436 309.031 27.3436 305.563V301.991C27.3436 299.534 26.3418 298.157 24.3734 297.791V297.739C26.3418 297.338 27.3436 295.961 27.3436 293.504V290.437C27.3436 286.969 25.0589 285 20.05 285C15.0411 285 12.774 286.969 12.774 290.437V294.097H18.3101V289.13H21.7899V296.17H17.2029V299.412H21.7899V306.853H18.3101V301.555H12.774V305.563C12.774 309.031 15.0411 311 20.05 311Z" fill="white"/>
<path d="M29.6358 301.747H38.9329V297.721H29.6358V301.747Z" fill="white"/>
<path d="M44.4281 310.721H49.9642V285.279H45.4299C45.4299 287.353 43.1627 288.991 40.3332 289.043V292.197H44.4281V310.721Z" fill="white"/>
<path d="M60.8953 310.721H65.9745V306.574H68.101V302.618H65.9745V285.279H57.3452L52.5472 302.618V306.574H60.8953V310.721ZM57.2749 302.618L59.4542 293.696C59.8232 292.197 60.1572 290.681 60.4559 289.165H60.9129C60.8953 290.681 60.8953 292.18 60.8953 293.696V302.618H57.2749Z" fill="white"/>
<path d="M70.2853 310.721H75.382V305.18H70.2853V310.721Z" fill="white"/>
<path d="M85.3926 311C90.5421 311 92.7916 309.031 92.7916 305.563V290.437C92.7916 286.987 90.5421 285 85.3926 285C80.2607 285 77.9935 286.987 77.9935 290.437V305.563C77.9935 309.031 80.2607 311 85.3926 311ZM83.5296 306.853V289.13H87.2555V306.853H83.5296Z" fill="white"/>
<path d="M102.742 311C107.75 311 110 309.031 110 305.58V296.728C110 294.097 108.418 292.389 105.378 292.389C103.181 292.389 101.828 293.155 101.002 294.55V289.217H110V285.279H95.4655V298.732H101.002V296.066H104.464V306.853H101.002V301.729H95.4655V305.58C95.4655 309.031 97.7503 311 102.742 311Z" fill="white"/>
<line x1="116" y1="300" x2="238" y2="300" stroke="white" stroke-width="4"/>
<path d="M246 310.721H260.643V306.626H251.56V303.332L260.643 296.763V290.437C260.643 286.987 258.359 285 253.312 285C248.231 285 246 286.987 246 290.437V294.253H251.56V289.13H255.065V294.776L246 301.363V310.721Z" fill="white"/>
<path d="M270.814 311C276.002 311 278.268 309.031 278.268 305.563V290.437C278.268 286.987 276.002 285 270.814 285C265.644 285 263.36 286.987 263.36 290.437V305.563C263.36 309.031 265.644 311 270.814 311ZM268.937 306.853V289.13H272.691V306.853H268.937Z" fill="white"/>
<path d="M280.962 310.721H295.605V306.626H286.522V303.332L295.605 296.763V290.437C295.605 286.987 293.321 285 288.274 285C283.193 285 280.962 286.987 280.962 290.437V294.253H286.522V289.13H290.027V294.776L280.962 301.363V310.721Z" fill="white"/>
<path d="M305.652 311C310.698 311 313 309.031 313 305.563V301.991C313 299.534 311.991 298.157 310.008 297.791V297.739C311.991 297.338 313 295.961 313 293.504V290.437C313 286.969 310.698 285 305.652 285C300.606 285 298.322 286.969 298.322 290.437V294.097H303.899V289.13H307.405V296.17H302.784V299.412H307.405V306.853H303.899V301.555H298.322V305.563C298.322 309.031 300.606 311 305.652 311Z" fill="white"/>
</svg>
