<svg width="1200" height="327" viewBox="0 0 1200 327" fill="none" xmlns="http://www.w3.org/2000/svg">
<path d="M759.219 202.354H758.943C756.155 155.644 748.065 67.1053 742.633 9.53317H720.178C714.877 66.4243 706.235 160.946 703.722 203.602H703.447C702.198 162.745 694.805 67.1053 690.201 9.53317H669.286L692.146 253.943H712.364C717.941 198.592 726.582 112.291 730.49 67.5268H731.041C734.948 109.486 743.039 197.895 748.194 253.943H769.385L794.207 9.53317H773.438C768.833 68.3699 761.862 158.433 759.219 202.354Z" fill="white"/>
<path d="M647.415 134.875C632.629 120.786 629.84 111.448 629.84 93.4675C629.84 77.9842 632.353 65.0301 641.27 65.0301C649.49 65.0301 652.57 76.8817 652.57 93.1919V102.401H670.972V92.6407C670.972 67.3971 667.486 45.1044 642.664 45.1044C616.027 45.1044 610.044 70.8991 610.044 96.8236C610.044 127.628 619.107 136.983 636.682 154.412C654.257 171.695 658.018 181.455 658.018 204.737C658.018 225.23 654.111 237.779 642.826 237.779C631.542 237.779 626.938 226.478 626.938 207.947V195.674H607.563V207.801C607.563 234.715 614.956 257.575 642.275 257.575C670.988 257.575 677.83 230.807 677.83 201.673C677.83 167.236 670.713 156.925 647.431 134.892L647.415 134.875Z" fill="white"/>
<path d="M659.412 9.53317H638.773L633.618 39.9324H649.231L659.412 9.53317Z" fill="white"/>
<path d="M1050.91 253.943H1071.4L1043.51 9.53317H1015.9L991.177 234.179H971.009V138.377L995.263 122.975V101.833L971.009 117.106V9.53317H884.432V30.6748H910.778V253.943H930.573V30.6748H951.213V129.574L944.095 134.048V155.466L951.213 150.959V253.959H1009.08L1016.94 176.851H1042.62L1050.89 253.959L1050.91 253.943ZM1029.99 36.9979C1031.52 61.8361 1035.49 104.006 1041.11 156.617H1018.63C1022.66 114.139 1028.06 56.8425 1029.16 36.9979H1030.01H1029.99Z" fill="white"/>
<path d="M817.083 9.53317H797.287V253.943H817.083V9.53317Z" fill="white"/>
<path d="M848.601 9.53317L821.688 253.943H841.759L849.622 176.834H875.304L883.572 253.943H904.065L876.179 9.53317H848.569H848.601ZM862.69 36.9979C864.214 61.8361 868.186 104.006 873.812 156.617H851.325C855.362 114.139 860.761 56.8425 861.863 36.9979H862.706H862.69Z" fill="white"/>
<path d="M1200 215.616V196.274L1156.68 154.169L1200 215.616Z" fill="white"/>
<path d="M1200 191.507V178.618L1160.25 150.602L1200 191.507Z" fill="white"/>
<path d="M1180.71 264.871H1200V257.786L1148.1 159.422L1180.71 264.871Z" fill="white"/>
<path d="M1158.24 264.871H1178.7L1143.3 160.978L1158.24 264.871Z" fill="white"/>
<path d="M1200 253.538V220.463L1152.59 157.136L1200 253.538Z" fill="white"/>
<path d="M1200 174.062V164.61L1163.21 146.516L1200 174.062Z" fill="white"/>
<path d="M1200 148.446V141.96L1167.06 137.226L1200 148.446Z" fill="white"/>
<path d="M1200 160.216V152.693L1165.5 142.025L1200 160.216Z" fill="white"/>
<path d="M1138.31 97.6667L1155.22 0H1136.92L1138.31 97.6667Z" fill="white"/>
<path d="M1128.29 98.4449L1114.12 0H1094.73L1128.29 98.4449Z" fill="white"/>
<path d="M1176.86 0H1157.46L1143.3 98.4449L1176.86 0Z" fill="white"/>
<path d="M1134.66 0H1116.36L1133.27 97.6667L1134.66 0Z" fill="white"/>
<path d="M1092.88 264.871H1113.36L1128.29 160.978L1092.88 264.871Z" fill="white"/>
<path d="M1136.85 264.871H1156.16L1138.31 161.773L1136.85 264.871Z" fill="white"/>
<path d="M1123.49 100.001L1092.56 0H1070.7L1123.49 100.001Z" fill="white"/>
<path d="M1200 137.794V131.779L1167.85 132.233L1200 137.794Z" fill="white"/>
<path d="M1115.43 264.871H1134.74L1133.27 161.773L1115.43 264.871Z" fill="white"/>
<path d="M1061.46 77.7896L1062.9 90.5492L1108.38 112.923L1061.46 77.7896Z" fill="white"/>
<path d="M1069.53 149.143L1104.52 137.226L1068.77 142.366L1069.53 149.143Z" fill="white"/>
<path d="M1067.57 131.714L1103.74 132.233L1068.32 138.361L1067.57 131.714Z" fill="white"/>
<path d="M1067.12 127.709L1103.74 127.19L1066.32 120.721L1067.12 127.709Z" fill="white"/>
<path d="M1104.52 122.213L1064.96 108.724L1065.85 116.652L1104.52 122.213Z" fill="white"/>
<path d="M1070 153.18L1106.09 142.025L1070.83 160.621L1070 153.18Z" fill="white"/>
<path d="M1063.39 94.8781L1106.09 117.414L1064.49 104.541L1063.39 94.8781Z" fill="white"/>
<path d="M1054.93 20.1689L1058.33 50.2763L1114.91 105.271L1054.93 20.1689Z" fill="white"/>
<path d="M1108.38 146.516L1071.3 164.74L1072.31 173.527L1108.38 146.516Z" fill="white"/>
<path d="M1058.85 54.8159L1060.94 73.2987L1111.35 108.837L1058.85 54.8159Z" fill="white"/>
<path d="M1074.54 193.485L1114.91 154.266L1076.31 209.017L1074.54 193.485Z" fill="white"/>
<path d="M1076.83 213.557L1118.98 157.217L1079.54 237.471L1076.83 213.557Z" fill="white"/>
<path d="M1082.28 261.596H601.678V3.40472H1053.01L1054.55 17.056L1054.46 16.1967L1118.98 102.401L1068.72 0.048645H598.322V264.968H1090.89L1123.49 159.519L1080.04 241.864L1082.28 261.596Z" fill="white"/>
<path d="M1179 0.09729L1148.1 100.001L1200 1.63752V0.09729H1179Z" fill="white"/>
<path d="M1200 80.8052V67.9322L1160.25 108.837L1200 80.8052Z" fill="white"/>
<path d="M1200 94.8294V85.3773L1163.21 112.923L1200 94.8294Z" fill="white"/>
<path d="M1200 106.746V99.2069L1165.5 117.414L1200 106.746Z" fill="white"/>
<path d="M1072.78 177.775L1074.06 188.962L1111.35 150.602L1072.78 177.775Z" fill="white"/>
<path d="M1200 117.479V110.977L1167.06 122.213L1200 117.479Z" fill="white"/>
<path d="M1200 127.644V121.629L1167.85 127.19L1200 127.644Z" fill="white"/>
<path d="M1200 38.9759V5.88528L1152.59 102.304L1200 38.9759Z" fill="white"/>
<path d="M1200 63.1656V43.8073L1156.68 105.271L1200 63.1656Z" fill="white"/>
<path d="M10.0195 8.44699V122.051H61.8198C63.2952 117.787 63.1331 112.712 56.7452 110.734C53.308 109.745 48.0551 107.946 43.7911 104.995C40.516 102.693 34.7767 97.6181 34.7767 88.7658V66.6352H54.1187C65.4353 66.6352 70.8342 70.7371 72.8122 82.5401C81.5023 76.6386 88.8792 67.7863 88.8792 57.4587C88.8792 51.8814 86.7553 47.4553 84.1288 44.5045C80.6917 50.4061 73.3148 57.2965 61.3497 57.2965H34.955V20.5743H55.1239C54.1349 31.2262 56.9235 41.5538 65.6137 46.4825C80.5296 40.2568 94.4727 26.6541 92.819 8.44699H10.0195Z" fill="white"/>
<path d="M181.569 31.437L169.344 42.2996C166.166 33.3501 156.714 26.5406 142.366 26.5406C113.134 26.5406 94.0512 52.5624 94.0512 77.9032C94.0512 105.271 115.339 123.186 139.837 123.186C167.544 123.186 184.098 101.396 182.574 75.374C182.412 72.8448 179.704 72.8448 178.521 75.0335C171.76 87.3716 164.496 93.7919 154.023 93.7919C145.933 93.7919 138.912 90.225 134.081 84.3884L182.574 50.8763C182.071 44.7964 182.736 38.8787 184.26 32.7988C184.763 30.7722 182.736 30.4318 181.552 31.4532L181.569 31.437ZM127.174 64.0412C127.174 50.1953 133.935 45.1207 139.512 45.1207C144.749 45.1207 146.614 49.1739 146.614 53.5676C146.614 57.9613 144.587 64.0412 136.643 71.3045L136.74 71.2559L129.849 77.3844C128.131 73.4122 127.174 68.8888 127.174 64.0412Z" fill="white"/>
<path d="M355.517 32.9772L353.928 27.7404C345.725 30.8857 337.375 32.4746 329.171 32.4908C329.836 25.0977 331.652 18.2396 334.748 12.0463L328.717 8.56049C321.259 12.2084 311.921 13.0028 301.447 13.0028L299.858 15.224V32.507H289.239L287.812 34.8903C290.99 39.4948 290.99 44.2451 287.812 50.4223L289.239 52.0111H299.858V92.1219C299.858 112.096 308.256 123.186 325.864 123.186C344.411 123.186 350.751 110.021 352.972 97.6667L347.265 95.1375C345.368 100.05 341.396 101.801 338.234 101.801C333.63 101.801 330.306 98.1531 330.306 90.3871C330.306 84.8423 329.576 65.9543 329.155 52.0273H342.822C345.838 44.5694 349.956 37.2898 355.501 33.0096L355.517 32.9772Z" fill="white"/>
<path d="M263.201 30.9505H275.198V62.9549H263.201C263.201 51.8004 254.997 39.592 245.091 39.592C238.979 39.592 236.044 44.4397 236.044 49.6927C236.044 57.0534 241.313 63.3764 256.894 69.2779C269.313 73.9148 276.69 81.4862 276.69 96.2238C276.69 118.533 258.158 123.17 246.793 123.17C225.733 123.17 217.529 108.221 212.47 108.221C210.784 108.221 208.677 109.908 208.887 119.587H192.464V74.7417H196.258C198.576 80.6432 203.213 84.4208 208.677 86.3177C206.99 100.212 219.62 111.999 229.526 111.999C232.266 111.999 237.519 111.156 237.519 104.638C237.519 96.6453 230.159 91.3761 219.831 86.7392C206.99 80.8377 196.679 72.8448 196.679 55.7888C196.679 34.5174 212.892 26.5244 226.997 26.5244C247.004 26.5244 252.046 41.6835 257.526 41.6835C260.688 41.6835 263.217 35.9928 263.217 30.9505H263.201Z" fill="white"/>
<path d="M286.823 145.56C298.383 145.56 307.754 141.02 307.754 132.087C307.754 123.153 298.383 118.614 286.823 118.614C275.263 118.614 265.746 123.008 265.746 132.087C265.746 141.166 275.117 145.56 286.823 145.56ZM262.082 182.752C272.62 185.395 274.825 190.372 275.555 201.494C275.993 207.639 275.993 216.718 275.555 222.863C274.825 232.234 267.643 235.46 260.915 235.898C251.398 236.482 251.398 256.537 263.849 255.516C280.694 254.057 297.669 254.057 314.515 255.516C326.966 256.537 326.966 236.774 317.449 235.752C311.742 235.169 305.289 231.796 304.998 222.863C304.414 202.078 304.706 181.423 306.165 165.031C307.186 154.493 299.145 150.683 292.984 150.683C288.152 150.683 283.905 153.018 278.489 157.265C273.074 161.513 267.075 163.848 259.164 166.053C252.289 167.804 250.376 179.818 262.098 182.736L262.082 182.752Z" fill="white"/>
<path d="M561.065 251.819H575.689L592.583 227.662V257.234H512.896L519.657 245.399V147.392L512.896 135.556H567.825L561.065 147.392V251.819Z" fill="white"/>
<path d="M422.314 137.729L397.946 255.645H381.507L369.947 199.759L358.387 255.645H342.855L318.292 137.729H353.572L343.114 163.767L352.696 228.051L372.719 137.729H379.901L393.569 228.051L404.043 174.37L394.736 137.729H422.298H422.314Z" fill="white"/>
<path d="M420.612 66.7C421.374 67.5593 422.314 67.9484 423.579 67.9484C425.314 67.9484 427.697 67.2513 430.551 66.0353C426.886 60.0852 422.882 52.7245 418.375 44.1803C417.613 53.9729 417.58 63.3277 420.628 66.7H420.612Z" fill="white"/>
<path d="M448.433 79.1354C454.075 79.1354 463.22 62.2739 471.472 45.8664C458.437 54.9132 446.293 63.0521 436.922 67.8512C441.397 74.5795 445.466 79.1354 448.45 79.1354H448.433Z" fill="white"/>
<path d="M413.997 6.35554C411.679 6.35554 408.387 7.53908 404.545 9.48463C407.82 14.916 411.403 21.5146 415.408 29.0861C416.38 19.2448 417.126 9.22523 414.856 6.71222C414.613 6.4366 414.37 6.33932 413.997 6.33932V6.35554Z" fill="white"/>
<path d="M538.804 7.36069C538.415 6.90673 537.783 6.3717 536.372 6.3717C534.167 6.3717 530.86 7.53903 526.823 9.53322C530.503 15.4347 534.475 22.6495 538.82 30.9019C540.377 20.8174 541.577 10.6195 538.82 7.36069H538.804Z" fill="white"/>
<path d="M542.095 66.5379C542.922 67.5107 544.025 67.9646 545.581 67.9646C547.511 67.9646 549.943 67.3161 552.764 66.1488C549.278 60.2959 545.452 53.0974 541.106 44.7802C539.793 54.2485 539.193 63.1494 542.079 66.5541L542.095 66.5379Z" fill="white"/>
<path d="M413.997 6.35554C411.679 6.35554 408.387 7.53908 404.545 9.48463C407.82 14.916 411.403 21.5146 415.408 29.0861C416.38 19.2448 417.126 9.22523 414.856 6.71222C414.613 6.4366 414.37 6.33932 413.997 6.33932V6.35554Z" fill="white"/>
<path d="M538.804 7.36072C538.415 6.90676 537.783 6.37173 536.372 6.37173C534.167 6.37173 530.86 7.53907 526.823 9.53326C530.503 15.4348 534.475 22.6495 538.82 30.9019C540.377 20.8175 541.577 10.6195 538.82 7.36072H538.804Z" fill="white"/>
<path d="M542.095 66.5379C542.922 67.5107 544.025 67.9647 545.581 67.9647C547.511 67.9647 549.942 67.3162 552.764 66.1488C549.278 60.296 545.452 53.0974 541.106 44.7802C541.269 43.5642 541.463 42.332 541.641 41.0999C541.447 42.332 541.269 43.5642 541.106 44.7802C539.793 54.2485 539.193 63.1494 542.079 66.5542L542.095 66.5379Z" fill="white"/>
<path d="M521.683 67.6567C521.294 67.2027 520.662 66.6677 519.251 66.6677C517.046 66.6677 513.739 67.835 509.702 69.8292C513.382 75.7307 517.354 82.9455 521.7 91.1979C523.256 81.1134 524.456 70.9155 521.7 67.6567H521.683Z" fill="white"/>
<path d="M491.219 56.6319C484.718 56.6319 474.747 75.1146 465.927 92.7218C479.838 82.9941 493.084 73.85 503.444 68.1593C498.807 61.285 494.527 56.6319 491.235 56.6319H491.219Z" fill="white"/>
<path d="M524.975 126.834C525.801 127.807 526.904 128.261 528.46 128.261C530.39 128.261 532.822 127.612 535.643 126.445C532.157 120.592 528.331 113.393 523.986 105.076C522.672 114.544 522.072 123.445 524.958 126.85L524.975 126.834Z" fill="white"/>
<path d="M562.929 128.828C566.982 122.537 571.425 114.269 575.591 106.292C563.075 115.371 551.337 123.543 541.966 128.293C542.079 128.488 542.209 128.65 542.322 128.828H562.929Z" fill="white"/>
<path d="M464.744 117.447C484.199 117.447 493.327 128.828 493.327 128.828H521.002C517.014 122.91 518.522 111.188 520.532 98.445C515.814 89.382 510.675 79.638 505.795 71.8396C494.429 78.0816 478.865 88.9929 464.549 99.0125C463.641 99.661 462.717 100.293 461.809 100.926C458.453 107.67 455.405 113.75 452.568 119.068C456.053 118.079 460.09 117.447 464.727 117.447H464.744Z" fill="white"/>
<path d="M397.736 67.0406C397.492 66.765 397.249 66.6677 396.876 66.6677C394.558 66.6677 391.267 67.8512 387.424 69.7968C390.699 75.2281 394.282 81.8268 398.287 89.3982C399.26 79.557 400.005 69.5374 397.736 67.0244V67.0406Z" fill="white"/>
<path d="M434.896 130.579C434.896 130.579 438.398 125.358 446.277 121.5C448.952 116.717 451.692 111.432 454.335 106.179C441.3 115.225 429.156 123.364 419.769 128.163C420.336 129.006 420.888 129.817 421.423 130.579H434.879H434.896Z" fill="white"/>
<path d="M381.279 68.1755C376.902 61.3336 372.962 56.6481 370.222 56.6481C369.768 56.6481 369.314 56.7291 368.844 56.8264V76.1684C373.011 73.2501 377.259 70.4777 381.279 68.1755Z" fill="white"/>
<path d="M368.844 127.223H310.429V130.579H400.881C400.654 130.384 400.443 130.174 400.232 129.947C395.255 124.418 396.114 111.042 397.476 97.3263C393.05 88.8631 388.17 79.5083 383.582 71.9044C378.961 74.5633 373.854 78.0005 368.828 81.616V127.239L368.844 127.223Z" fill="white"/>
<path d="M406.458 128.244C408.193 128.244 410.576 127.547 413.43 126.331C409.765 120.381 405.761 113.02 401.254 104.476C400.492 114.269 400.459 123.624 403.507 126.996C404.269 127.855 405.21 128.244 406.474 128.244H406.458Z" fill="white"/>
<path d="M569.803 79.1354C574.927 79.1354 584.379 61.9497 592.712 45.9799C580.196 55.0592 568.458 63.2305 559.087 67.9809C563.318 74.5958 567.128 79.1354 569.787 79.1354H569.803Z" fill="white"/>
<path d="M496.424 252.062V156.73C496.424 130.547 478.184 121.629 463.252 121.629C446.05 121.629 436.355 132.995 432.075 147.294C431.426 148.819 431.053 150.488 431.053 152.288C431.053 159.665 436.484 165.096 443.861 165.096C450.849 165.096 456.28 159.665 456.28 152.288C456.28 145.3 450.849 139.869 443.861 139.869C442.402 139.869 441.008 140.096 439.727 140.485C443.813 133.805 448.336 131.13 453.168 131.13C463.479 131.13 466.965 143.371 467.305 157.882L455.308 167.982C438.819 181.942 421.552 201.932 421.552 224.419C421.552 250.214 435.317 258.953 450.265 258.953C456.54 258.953 463.365 256.829 467.338 249.241V257.202H509.556V252.046H496.44L496.424 252.062ZM459.572 249.647C452.778 249.647 450.655 232.964 450.655 215.113C450.655 204.64 451.238 179.429 463.657 167.399L467.338 163.799V231.018C467.338 242.853 464.046 249.63 459.572 249.63V249.647Z" fill="white"/>
<path d="M170.203 178.034L168.485 192.999L188.102 182.331C182.412 180.904 176.413 179.461 170.187 178.034H170.203Z" fill="white"/>
<path d="M147.635 243.145L131.276 263.622L134.259 237.584L93.4514 259.78L125.456 226.057L99.6447 222.133L123.607 211.644L84.1452 187.357L129.185 198.219L119.733 173.819L140.712 189.367L141.215 171.971C113.409 166.718 84.664 163.151 62.89 164.967C63.2467 167.755 62.9224 170.657 61.82 173.446C58.318 182.282 48.3308 186.595 39.4947 183.093C36.2197 181.796 33.577 179.607 31.7125 176.916C30.1561 179.072 29.1023 181.504 28.5997 184.26C23.979 209.487 63.5547 249.939 79.3137 264.984H154.023L147.651 243.178L147.635 243.145Z" fill="white"/>
<path d="M155.109 187.438L163.783 176.591C159.633 175.667 155.417 174.775 151.153 173.9L155.109 187.438Z" fill="white"/>
<path d="M0 0.0487061V264.968H72.3745C66.7973 258.953 59.242 250.457 51.93 240.94C32.9771 216.297 24.595 197.133 26.9945 183.968C27.5944 180.742 28.8752 177.905 30.7884 175.44C28.3888 171.095 27.87 165.745 29.848 160.767C33.35 151.931 43.3372 147.619 52.1732 151.121C57.7018 153.31 61.447 158.027 62.6468 163.426C81.5997 161.838 107.913 163.929 141.312 169.717L142.09 142.885L150.424 171.354C151.915 171.63 153.391 171.906 154.915 172.198C158.53 172.895 162.113 173.608 165.647 174.321L171.5 166.993L170.544 175.343C178.148 176.948 185.443 178.585 192.204 180.158L209.325 170.852L198.965 181.763C215.664 185.784 228.229 189.221 232.866 190.518V130.595H261.596V127.239H3.35608V3.40478H368.844V28.8104C376.691 22.5036 388.283 13.6514 398.4 7.86334C397.363 6.24204 396.357 4.75045 395.368 3.40478H400.67C401.189 4.16679 401.708 4.96122 402.243 5.78808C404.123 4.83152 405.907 4.03709 407.577 3.40478H417.677C417.823 3.53449 417.969 3.64798 418.115 3.79389C421.796 7.86334 421.001 17.6559 419.38 33.2852C419.283 34.2256 419.185 35.1821 419.088 36.1387C423.984 45.526 429.432 55.9185 434.523 64.1546C445.353 58.6422 460.836 47.9417 475.525 37.6789C482.156 24.287 488.317 11.9004 494.17 3.40478H499.585C494.348 10.3926 488.479 21.5633 483.048 32.4259C496.959 22.6982 510.205 13.5541 520.549 7.86334C519.462 6.24204 518.392 4.75045 517.338 3.40478H522.753C523.305 4.183 523.856 4.99365 524.423 5.83672C526.418 4.84773 528.266 4.03709 529.968 3.40478H540.961C541.382 3.72904 541.787 4.08572 542.144 4.50726C546.635 9.76025 544.706 21.9037 542.468 35.9441C542.387 36.4305 542.306 36.9169 542.241 37.4033C542.533 37.9545 542.809 38.5058 543.101 39.0732C547.446 47.4391 552.277 56.7453 556.801 64.2843C567.598 58.8368 582.466 48.0714 597.252 37.2574C597.609 36.5764 597.965 35.8793 598.322 35.1983V44.7153C585.789 68.8402 577.553 83.5291 569.803 83.5291C565.329 83.5291 560.659 78.649 555.082 69.8778C551.402 71.4504 548.208 72.3421 545.597 72.3421C542.744 72.3421 540.442 71.3532 538.772 69.3752C534.005 63.7817 535.578 51.5085 537.686 38.1491C532.968 29.0861 527.828 19.3421 522.948 11.5437C511.583 17.7856 496.018 28.6969 481.702 38.7165C480.794 39.3651 479.87 39.9974 478.962 40.6297C465.716 67.3324 456.994 83.5129 448.433 83.5129C443.715 83.5129 438.754 78.6166 432.918 69.7481C429.172 71.3856 425.995 72.3259 423.595 72.3259C421.196 72.3259 418.991 71.418 417.386 69.6346C412.408 64.106 413.268 50.7303 414.629 37.0142C410.203 28.551 405.323 19.1962 400.735 11.5923C390.391 17.5587 377.534 27.3999 368.86 34.4687V52.3678C369.314 52.303 369.784 52.2543 370.238 52.2543C374.665 52.2543 379.415 57.1831 385.138 66.084C389.743 63.7493 393.844 62.2739 396.893 62.2739C398.514 62.2739 399.941 62.9062 401.011 64.0898C404.691 68.1592 403.896 77.9518 402.275 93.5811C402.178 94.5214 402.081 95.478 401.983 96.4346C406.88 105.822 412.327 116.214 417.418 124.451C428.248 118.938 443.732 108.238 458.421 97.9748C470.596 73.4122 481.102 52.2381 491.236 52.2381C496.213 52.2381 501.401 57.2803 507.335 66.1164C512.264 63.6844 516.349 62.2577 519.268 62.2577C521.635 62.2577 523.629 63.1332 525.04 64.7869C529.53 70.0399 527.601 82.1834 525.364 96.2238C525.283 96.7102 525.202 97.1966 525.137 97.683C525.429 98.2342 525.704 98.7854 525.996 99.3529C530.341 107.719 535.173 117.025 539.696 124.564C550.494 119.116 565.361 108.351 580.147 97.537C586.389 85.507 592.469 74.0445 598.338 65.6462V73.6716C594.95 79.1192 591.513 85.3773 588.173 91.6517C591.61 89.1387 595.014 86.6744 598.338 84.2911V89.69C594.026 92.7867 589.648 95.9968 585.287 99.1908C584.703 99.6123 584.136 100.034 583.552 100.455C583.147 101.217 582.758 101.979 582.368 102.741C576.921 113.264 572.268 122.051 568.133 128.796H598.338V261.563H232.85V194.49C227.062 192.804 213.686 188.881 196.387 184.406L177.305 204.51L203.116 208.433L179.153 218.923L218.615 243.21L173.576 232.348L183.028 256.748L162.048 241.2L161.367 264.903H601.71V0.0487061H0Z" fill="white"/>
<path d="M166.972 220.201C169.349 212.454 164.996 204.247 157.249 201.87C149.502 199.492 141.295 203.845 138.918 211.592C136.54 219.339 140.893 227.546 148.64 229.924C156.387 232.301 164.594 227.948 166.972 220.201Z" fill="white"/>
<path d="M7.45304 325.804H16.588V283.464H9.10604C9.10604 286.915 5.36505 289.641 0.696045 289.728V294.977H7.45304V325.804Z" fill="white"/>
<path d="M33.7801 326.268C42.0451 326.268 45.8151 322.991 45.8151 317.22V311.275C45.8151 307.186 44.1621 304.895 40.9141 304.286V304.199C44.1621 303.532 45.8151 301.241 45.8151 297.152V292.048C45.8151 286.277 42.0451 283 33.7801 283C25.5151 283 21.7741 286.277 21.7741 292.048V298.138H30.9091V289.873H36.6511V301.589H29.0821V306.983H36.6511V319.366H30.9091V310.55H21.7741V317.22C21.7741 322.991 25.5151 326.268 33.7801 326.268Z" fill="white"/>
<path d="M49.5973 310.869H64.9383V304.17H49.5973V310.869Z" fill="white"/>
<path d="M74.0058 325.804H83.1408V283.464H75.6588C75.6588 286.915 71.9178 289.641 67.2488 289.728V294.977H74.0058V325.804Z" fill="white"/>
<path d="M101.178 325.804H109.559V318.902H113.068V312.319H109.559V283.464H95.3199L87.4029 312.319V318.902H101.178V325.804ZM95.2039 312.319L98.7999 297.471C99.4089 294.977 99.9599 292.454 100.453 289.931H101.207C101.178 292.454 101.178 294.948 101.178 297.471V312.319H95.2039Z" fill="white"/>
<path d="M116.672 325.804H125.082V316.582H116.672V325.804Z" fill="white"/>
<path d="M141.6 326.268C150.097 326.268 153.809 322.991 153.809 317.22V292.048C153.809 286.306 150.097 283 141.6 283C133.132 283 129.391 286.306 129.391 292.048V317.22C129.391 322.991 133.132 326.268 141.6 326.268ZM138.526 319.366V289.873H144.674V319.366H138.526Z" fill="white"/>
<path d="M170.227 326.268C178.492 326.268 182.204 322.991 182.204 317.249V302.517C182.204 298.138 179.594 295.296 174.577 295.296C170.952 295.296 168.719 296.572 167.356 298.892V290.018H182.204V283.464H158.221V305.852H167.356V301.415H173.069V319.366H167.356V310.84H158.221V317.249C158.221 322.991 161.991 326.268 170.227 326.268Z" fill="white"/>
<path d="M1088.05 325.804H1112.03V318.989H1097.15V313.508L1112.03 302.575V292.048C1112.03 286.306 1108.29 283 1100.02 283C1091.7 283 1088.05 286.306 1088.05 292.048V298.399H1097.15V289.873H1102.89V299.269L1088.05 310.231V325.804Z" fill="white"/>
<path d="M1128.69 326.268C1137.19 326.268 1140.9 322.991 1140.9 317.22V292.048C1140.9 286.306 1137.19 283 1128.69 283C1120.22 283 1116.48 286.306 1116.48 292.048V317.22C1116.48 322.991 1120.22 326.268 1128.69 326.268ZM1125.61 319.366V289.873H1131.76V319.366H1125.61Z" fill="white"/>
<path d="M1145.31 325.804H1169.29V318.989H1154.42V313.508L1169.29 302.575V292.048C1169.29 286.306 1165.55 283 1157.29 283C1148.96 283 1145.31 286.306 1145.31 292.048V298.399H1154.42V289.873H1160.16V299.269L1145.31 310.231V325.804Z" fill="white"/>
<path d="M1185.75 326.268C1194.01 326.268 1197.78 322.991 1197.78 317.22V311.275C1197.78 307.186 1196.13 304.895 1192.88 304.286V304.199C1196.13 303.532 1197.78 301.241 1197.78 297.152V292.048C1197.78 286.277 1194.01 283 1185.75 283C1177.48 283 1173.74 286.277 1173.74 292.048V298.138H1182.88V289.873H1188.62V301.589H1181.05V306.983H1188.62V319.366H1182.88V310.55H1173.74V317.22C1173.74 322.991 1177.48 326.268 1185.75 326.268Z" fill="white"/>
<line x1="188" y1="308" x2="1077" y2="308" stroke="white" stroke-width="6"/>
</svg>
