<svg width="75.338mm" height="36.409mm" version="1.1" viewBox="0 0 75.338 36.409" xmlns="http://www.w3.org/2000/svg">
 <defs>
  <linearGradient id="t" x2="1" gradientTransform="matrix(0 84.852 84.852 0 273.06 575.84)" gradientUnits="userSpaceOnUse">
   <stop stop-color="#4dc4cc" offset="0"/>
   <stop stop-color="#4dc4cc" offset=".063811"/>
   <stop stop-color="#ec008c" offset="1"/>
  </linearGradient>
  <linearGradient id="s" x2="1" gradientTransform="matrix(0 75.729 75.729 0 273.06 580.76)" gradientUnits="userSpaceOnUse">
   <stop stop-color="#4dc4cc" offset="0"/>
   <stop stop-color="#4dc4cc" offset=".063811"/>
   <stop stop-color="#ec008c" offset="1"/>
  </linearGradient>
  <linearGradient id="r" x2="1" gradientTransform="matrix(0 66.443 66.443 0 273.06 585.07)" gradientUnits="userSpaceOnUse">
   <stop stop-color="#4dc4cc" offset="0"/>
   <stop stop-color="#4dc4cc" offset=".063811"/>
   <stop stop-color="#ec008c" offset="1"/>
  </linearGradient>
  <linearGradient id="q" x2="1" gradientTransform="matrix(0 57.224 57.224 0 273.06 589.68)" gradientUnits="userSpaceOnUse">
   <stop stop-color="#4dc4cc" offset="0"/>
   <stop stop-color="#4dc4cc" offset=".063811"/>
   <stop stop-color="#ec008c" offset="1"/>
  </linearGradient>
  <linearGradient id="p" x2="1" gradientTransform="matrix(0 48.007 48.007 0 273.06 594.29)" gradientUnits="userSpaceOnUse">
   <stop stop-color="#4dc4cc" offset="0"/>
   <stop stop-color="#4dc4cc" offset=".063811"/>
   <stop stop-color="#ec008c" offset="1"/>
  </linearGradient>
  <linearGradient id="o" x2="1" gradientTransform="matrix(0 38.789 38.789 0 273.06 598.9)" gradientUnits="userSpaceOnUse">
   <stop stop-color="#4dc4cc" offset="0"/>
   <stop stop-color="#4dc4cc" offset=".063811"/>
   <stop stop-color="#ec008c" offset="1"/>
  </linearGradient>
  <linearGradient id="n" x2="1" gradientTransform="matrix(0 29.571 29.571 0 273.06 603.5)" gradientUnits="userSpaceOnUse">
   <stop stop-color="#4dc4cc" offset="0"/>
   <stop stop-color="#4dc4cc" offset=".063811"/>
   <stop stop-color="#ec008c" offset="1"/>
  </linearGradient>
  <linearGradient id="m" x2="1" gradientTransform="matrix(0 20.353 20.353 0 273.06 608.11)" gradientUnits="userSpaceOnUse">
   <stop stop-color="#4dc4cc" offset="0"/>
   <stop stop-color="#4dc4cc" offset=".063811"/>
   <stop stop-color="#ec008c" offset="1"/>
  </linearGradient>
  <linearGradient id="l" x2="1" gradientTransform="matrix(0 11.135 11.135 0 273.06 612.72)" gradientUnits="userSpaceOnUse">
   <stop stop-color="#4dc4cc" offset="0"/>
   <stop stop-color="#4dc4cc" offset=".063811"/>
   <stop stop-color="#ec008c" offset="1"/>
  </linearGradient>
  <linearGradient id="k" x2="1" gradientTransform="matrix(0 .45278 .45278 0 273.06 618.04)" gradientUnits="userSpaceOnUse">
   <stop stop-color="#4dc4cc" offset="0"/>
   <stop stop-color="#4dc4cc" offset=".063811"/>
   <stop stop-color="#ec008c" offset="1"/>
  </linearGradient>
  <linearGradient id="j" x2="1" gradientTransform="matrix(0 -12.438 -12.438 0 338.32 637.31)" gradientUnits="userSpaceOnUse">
   <stop stop-color="#4dc4cc" offset="0"/>
   <stop stop-color="#ec008c" offset=".41784"/>
   <stop stop-color="#ec008c" offset=".57219"/>
   <stop stop-color="#ec008c" offset="1"/>
  </linearGradient>
  <linearGradient id="i" x2="1" gradientTransform="matrix(0 -14.893 -14.893 0 338.31 638.54)" gradientUnits="userSpaceOnUse">
   <stop stop-color="#4dc4cc" offset="0"/>
   <stop stop-color="#ec008c" offset=".41784"/>
   <stop stop-color="#ec008c" offset=".57219"/>
   <stop stop-color="#ec008c" offset="1"/>
  </linearGradient>
  <linearGradient id="h" x2="1" gradientTransform="matrix(0 -17.851 -17.851 0 338.31 640.02)" gradientUnits="userSpaceOnUse">
   <stop stop-color="#4dc4cc" offset="0"/>
   <stop stop-color="#ec008c" offset=".41784"/>
   <stop stop-color="#ec008c" offset=".57219"/>
   <stop stop-color="#ec008c" offset="1"/>
  </linearGradient>
  <linearGradient id="g" x2="1" gradientTransform="matrix(0 -21.414 -21.414 0 338.31 641.8)" gradientUnits="userSpaceOnUse">
   <stop stop-color="#4dc4cc" offset="0"/>
   <stop stop-color="#ec008c" offset=".41784"/>
   <stop stop-color="#ec008c" offset=".57219"/>
   <stop stop-color="#ec008c" offset="1"/>
  </linearGradient>
  <linearGradient id="f" x2="1" gradientTransform="matrix(0 -25.707 -25.707 0 338.31 643.94)" gradientUnits="userSpaceOnUse">
   <stop stop-color="#4dc4cc" offset="0"/>
   <stop stop-color="#ec008c" offset=".41784"/>
   <stop stop-color="#ec008c" offset=".57219"/>
   <stop stop-color="#ec008c" offset="1"/>
  </linearGradient>
  <linearGradient id="e" x2="1" gradientTransform="matrix(0 -30.88 -30.88 0 338.31 646.53)" gradientUnits="userSpaceOnUse">
   <stop stop-color="#4dc4cc" offset="0"/>
   <stop stop-color="#ec008c" offset=".41784"/>
   <stop stop-color="#ec008c" offset=".57219"/>
   <stop stop-color="#ec008c" offset="1"/>
  </linearGradient>
  <linearGradient id="d" x2="1" gradientTransform="matrix(0 -37.112 -37.112 0 338.31 649.65)" gradientUnits="userSpaceOnUse">
   <stop stop-color="#4dc4cc" offset="0"/>
   <stop stop-color="#ec008c" offset=".41784"/>
   <stop stop-color="#ec008c" offset=".57219"/>
   <stop stop-color="#ec008c" offset="1"/>
  </linearGradient>
  <linearGradient id="c" x2="1" gradientTransform="matrix(0 -44.62 -44.62 0 338.31 653.4)" gradientUnits="userSpaceOnUse">
   <stop stop-color="#4dc4cc" offset="0"/>
   <stop stop-color="#ec008c" offset=".41784"/>
   <stop stop-color="#ec008c" offset=".57219"/>
   <stop stop-color="#ec008c" offset="1"/>
  </linearGradient>
  <linearGradient id="b" x2="1" gradientTransform="matrix(0 -53.667 -53.667 0 338.31 657.92)" gradientUnits="userSpaceOnUse">
   <stop stop-color="#4dc4cc" offset="0"/>
   <stop stop-color="#ec008c" offset=".41784"/>
   <stop stop-color="#ec008c" offset=".57219"/>
   <stop stop-color="#ec008c" offset="1"/>
  </linearGradient>
  <linearGradient id="a" x2="1" gradientTransform="matrix(0 -64.566 -64.566 0 338.31 663.37)" gradientUnits="userSpaceOnUse">
   <stop stop-color="#4dc4cc" offset="0"/>
   <stop stop-color="#ec008c" offset=".41784"/>
   <stop stop-color="#ec008c" offset=".57219"/>
   <stop stop-color="#ec008c" offset="1"/>
  </linearGradient>
  <clipPath id="u">
   <path d="M 0,841.89 H 595.276 V 0 H 0 Z"/>
  </clipPath>
 </defs>
 <g transform="translate(-197.43 -82.337)">
  <g transform="matrix(.35278 0 0 -.35278 241.08 88.972)">
   <path d="m0 0v-29.057h-37.497v-2.17h37.497v-27.611h-37.497v-25.561h-31.349v84.399z" fill="#231f20"/>
  </g>
  <g transform="matrix(.35278 0 0 -.35278 261.67 82.337)">
   <path d="m0 0h2.412l-13.987-15.192h-2.411z" fill="#231f20"/>
  </g>
  <g transform="matrix(.35278 0 0 -.35278 242.57 107.56)">
   <path d="m0 0h17.603l-1.326 2.049h-8.922c-5.426 5.185-7.476 12.781-7.476 20.015 0 21.462 12.66 30.625 39.789 30.625h45.334v-31.951h-40.753c-14.348 0-15.915-20.858-0.12-20.858 12.901 0 12.298 16.397 2.531 18.809h28.576c7.234-5.547 10.368-13.625 10.368-21.582 0-21.703-14.95-28.817-38.944-28.817h-46.66z" fill="#231f20"/>
  </g>
  <g transform="matrix(.35278 0 0 -.35278 182.58 321.97)">
   <path d="m203.08 619.45c0.134 0.805 0.359 1.599 0.672 2.362 2.48 17.815 23.475 32.497 51.303 37.001v0.457c-29.304-4.73-51.108-20.718-51.975-39.82m38.575-39.096c0.199 0.094 0.398 0.19 0.593 0.287-20.435 6.12-35.209 18.126-38.189 32.319-0.354 0.672-0.623 1.382-0.81 2.114 1.874-15.195 17.015-28.186 38.406-34.72" fill="url(#t)"/>
   <path d="m203.06 619.36c0.133 0.838 0.364 1.666 0.69 2.46 2.504 15.863 23.49 28.938 51.299 32.949v0.455c-29.489-4.248-51.383-18.673-51.989-35.864m43.753-35.836c0.149 0.118 0.296 0.239 0.441 0.361-21.998 4.742-38.479 15.36-42.698 28.225-0.418 0.625-0.754 1.292-1.011 1.987 3.076-13.888 20.108-25.489 43.268-30.573" fill="url(#s)"/>
   <path d="m203.1 619.6c0.186 1.021 0.517 2.023 0.988 2.964 3.674 13.222 24.145 23.99 50.96 27.379v0.452c-29.051-3.672-50.732-16.008-51.948-30.795m47.11-32.718c0.108 0.132 0.213 0.266 0.317 0.401-22.904 3.704-40.449 12.894-45.53 24.222-0.52 0.654-0.939 1.365-1.262 2.114 3.71-12.462 22.045-22.724 46.475-26.737" fill="url(#r)"/>
   <path d="m223.63 638.57c-12.375-5.035-19.566-11.638-20.481-18.734 0.293 1.431 0.872 2.817 1.725 4.045 2.667 5.36 9.159 10.296 18.926 14.268 8.798 3.579 19.536 6.082 31.252 7.347v0.456c-11.777-1.269-22.575-3.784-31.422-7.382m29.156-47.672c0.07 0.141 0.138 0.281 0.206 0.424-22.015 2.691-39.459 9.687-46.326 18.561-0.577 0.436-1.085 0.923-1.526 1.451 5.981-9.752 24.243-17.537 47.646-20.436" fill="url(#q)"/>
   <path d="m206.4 625.64c0.681 0.624 1.459 1.17 2.33 1.614 8.194 6.717 25.307 11.88 46.317 13.788v0.448c-23.004-2.1-41.386-8.128-48.647-15.85m48.013-30.488c0.042 0.144 0.082 0.29 0.121 0.436-19.522 1.828-35.624 6.472-44.239 12.553-0.422 0.115-0.828 0.249-1.213 0.4 8.448-6.489 25.061-11.467 45.331-13.389" fill="url(#p)"/>
   <path d="m213.54 628.49c0.249 0.014 0.502 0.02 0.759 0.02h0.224c9.244 3.913 23.624 6.842 40.529 8.077v0.446c-17.438-1.287-32.217-4.395-41.512-8.543m0.99-20.833c9.386-3.952 23.843-6.901 40.786-8.132 0.02 0.147 0.039 0.294 0.056 0.442-16.513 1.183-30.648 3.983-39.971 7.737-0.284-0.024-0.573-0.04-0.871-0.047" fill="url(#o)"/>
   <path d="m223.67 628.81c-0.465-0.097-0.922-0.195-1.372-0.295h2.054c8.432 1.706 18.957 2.975 30.7 3.624v0.453c-11.762-0.65-22.547-1.939-31.382-3.782m-4.357-20.037c1.371-0.344 2.825-0.677 4.357-0.996 8.984-1.875 19.982-3.176 31.975-3.815 3e-3 0.149 5e-3 0.302 7e-3 0.453-14.184 0.756-26.628 2.414-35.799 4.656-0.175-0.104-0.354-0.204-0.54-0.298" fill="url(#n)"/>
   <path d="m230.85 626.46c-4.013-0.435-7.681-0.931-10.944-1.481 0.181-0.131 0.357-0.269 0.526-0.413 4.488 0.731 9.723 1.371 15.515 1.894zm-8.617-15.237c8.839-1.345 20.252-2.329 33.209-2.8-0.019 0.158-0.039 0.315-0.06 0.473-12.653 0.483-24 1.467-32.835 2.783-0.099-0.155-0.204-0.308-0.314-0.456" fill="url(#m)"/>
   <path d="m222.44 622.21c0.09-0.149 0.176-0.3 0.259-0.453 0.34 0.028 0.687 0.055 1.04 0.082 7.263 0.556 15.845 0.974 25.208 1.238-0.131 0.147-0.265 0.293-0.401 0.439-9.648-0.275-18.677-0.712-26.106-1.306m1.225-7.939c8.743-0.664 19.532-1.12 30.875-1.358-0.044 0.151-0.089 0.302-0.135 0.453-11.472 0.242-21.988 0.708-30.635 1.368-0.031-0.155-0.066-0.31-0.105-0.463" fill="url(#l)"/>
   <path d="m223.81 618.49c0.025-0.151 0.048-0.302 0.067-0.453h28.583c-0.081 0.152-0.163 0.302-0.247 0.453z" fill="url(#k)"/>
   <path d="m163.21 637.31v-5.904h0.453v5.451h2.154v0.453zm0-8.074v-4.365h2.607v0.454l-2.154-1e-3v3.912z" fill="url(#j)"/>
   <path d="m159.64 638.54v-7.13h0.454v6.678h5.723v0.452zm0-9.3v-5.592h6.177v0.453h-5.723v5.139z" fill="url(#i)"/>
   <path d="m156 640.02v-8.609h0.453v8.156h9.365v0.453zm0-10.779v-7.071h9.818v0.452h-9.365v6.619z" fill="url(#h)"/>
   <path d="m152.28 641.8v-10.391h0.453v9.938h13.081v0.453zm0-12.561v-8.853h0.227l13.307 1e-3v0.453l-13.081-1e-3v8.4z" fill="url(#g)"/>
   <path d="m148.49 643.94v-12.538h0.453v12.085h16.873v0.453zm0-14.708v-10.999h17.326v0.453h-16.873v10.546z" fill="url(#f)"/>
   <path d="m144.62 646.53v-15.124h0.453v14.672h20.742v0.452zm0-17.294v-13.586l21.195 1e-3v0.453l-20.742-1e-3v13.133z" fill="url(#e)"/>
   <path d="m140.67 649.65v-18.24h0.453v17.787h24.69v0.453zm0-20.41v-16.701h0.226l24.917 1e-3v0.452l-24.69-1e-3v16.249z" fill="url(#d)"/>
   <path d="m136.64 653.4v-21.995h0.452v21.542h28.72v0.453zm0-24.165v-20.456h0.226l28.946 1e-3v0.454l-28.72-2e-3v20.003z" fill="url(#c)"/>
   <path d="m132.53 657.92v-26.517h0.453v26.065h32.831v0.452zm0-28.687v-24.98h0.227l33.057 3e-3v0.453l-32.831-2e-3v24.526z" fill="url(#b)"/>
   <path d="m128.34 631.41h0.453v29.057h-0.453zm0-29.781h0.453v27.611h-0.453z" fill="url(#a)"/>
   <g clip-path="url(#u)">
    <g transform="translate(43.134 657.97)">
     <path d="m0 0h-1.038v1.161h2.322v-8.139h-1.284z" fill="#231f20"/>
    </g>
    <g transform="translate(48.818 659.32)">
     <path d="m0 0c1.619 0 2.501-0.938 2.501-2.121 0-0.972-0.614-1.63-1.251-1.843v-0.044c0.849-0.257 1.396-0.96 1.396-2.088 0-1.295-0.915-2.277-2.612-2.277-1.541 0-2.735 0.803-2.814 2.4h1.228c0.056-0.759 0.615-1.34 1.574-1.34 0.95 0 1.418 0.581 1.418 1.34 0 1.072-0.692 1.44-2.02 1.44h-0.291v1.05h0.302c1.15 0.011 1.853 0.346 1.853 1.216 0 0.704-0.457 1.173-1.328 1.173-0.893 0-1.307-0.536-1.385-1.106h-1.239c0.089 1.407 1.184 2.2 2.668 2.2" fill="#231f20"/>
    </g>
    <path d="m53.108 655.56h5.973v-1.072h-5.973z" fill="#231f20"/>
    <g transform="translate(61.583 657.97)">
     <path d="m0 0h-1.038v1.161h2.322v-8.139h-1.284z" fill="#231f20"/>
    </g>
    <g transform="translate(69.869 659.15)">
     <path d="m0 0v-1.117h-3.74v-2.221c0.301 0.401 0.96 0.737 1.685 0.737 1.999 0 2.613-1.485 2.613-2.713 0-1.619-0.926-2.847-2.813-2.847-1.675 0-2.647 0.926-2.836 2.199h1.239c0.168-0.692 0.748-1.139 1.608-1.139 1.094 0 1.585 0.748 1.585 1.753 0 1.061-0.524 1.664-1.585 1.664-0.748 0-1.251-0.413-1.462-1.016h-1.207v4.7z" fill="#231f20"/>
    </g>
    <g transform="translate(72.438 650.91)">
     <path d="m0 0c-0.458 0-0.815 0.357-0.815 0.815s0.357 0.815 0.815 0.815c0.447 0 0.804-0.357 0.804-0.815s-0.357-0.815-0.804-0.815" fill="#231f20"/>
    </g>
    <g transform="translate(77.351 658.11)">
     <path d="m0 0c-1.485 0-1.653-1.429-1.653-2.947 0-1.597 0.168-2.992 1.653-2.992s1.653 1.395 1.653 2.992c0 1.518-0.168 2.947-1.653 2.947m0 1.161c2.277 0 2.903-1.786 2.903-4.108 0-2.367-0.626-4.154-2.903-4.154s-2.903 1.787-2.903 4.154c0 2.322 0.626 4.108 2.903 4.108" fill="#231f20"/>
    </g>
    <g transform="translate(86.854 659.15)">
     <path d="m0 0v-1.117h-3.74v-2.221c0.301 0.401 0.96 0.737 1.685 0.737 1.999 0 2.613-1.485 2.613-2.713 0-1.619-0.926-2.847-2.814-2.847-1.674 0-2.646 0.926-2.835 2.199h1.239c0.167-0.692 0.748-1.139 1.608-1.139 1.094 0 1.585 0.748 1.585 1.753 0 1.061-0.525 1.664-1.585 1.664-0.748 0-1.251-0.413-1.462-1.016h-1.207v4.7z" fill="#231f20"/>
    </g>
    <g transform="translate(89.424 650.91)">
     <path d="m0 0c-0.457 0-0.815 0.357-0.815 0.815s0.358 0.815 0.815 0.815c0.447 0 0.804-0.357 0.804-0.815s-0.357-0.815-0.804-0.815" fill="#231f20"/>
    </g>
    <g transform="translate(64.844 639.35)">
     <path d="m0 0c1.92 1.686 3.941 3.16 3.941 4.756 0 0.849-0.368 1.429-1.317 1.429-0.894 0-1.374-0.625-1.407-1.541h-1.228c0.045 1.765 1.183 2.624 2.623 2.624 1.653 0 2.591-0.993 2.591-2.456 0-1.976-2.01-3.483-3.316-4.678h3.539v-1.061h-5.426z" fill="#231f20"/>
    </g>
    <g transform="translate(74.291 645.43)">
     <path d="m0 0c-1.485 0-1.652-1.429-1.652-2.947 0-1.597 0.167-2.992 1.652-2.992s1.653 1.395 1.653 2.992c0 1.518-0.168 2.947-1.653 2.947m0 1.161c2.277 0 2.903-1.786 2.903-4.108 0-2.367-0.626-4.154-2.903-4.154s-2.903 1.787-2.903 4.154c0 2.322 0.626 4.108 2.903 4.108" fill="#231f20"/>
    </g>
    <g transform="translate(78.446 639.35)">
     <path d="m0 0c1.92 1.686 3.941 3.16 3.941 4.756 0 0.849-0.368 1.429-1.317 1.429-0.894 0-1.374-0.625-1.407-1.541h-1.228c0.045 1.765 1.183 2.624 2.623 2.624 1.653 0 2.591-0.993 2.591-2.456 0-1.976-2.01-3.483-3.316-4.678h3.539v-1.061h-5.426z" fill="#231f20"/>
    </g>
    <g transform="translate(84.89 639.35)">
     <path d="m0 0c1.92 1.686 3.941 3.16 3.941 4.756 0 0.849-0.368 1.429-1.317 1.429-0.894 0-1.374-0.625-1.407-1.541h-1.228c0.045 1.765 1.183 2.624 2.623 2.624 1.653 0 2.591-0.993 2.591-2.456 0-1.976-2.01-3.483-3.316-4.678h3.539v-1.061h-5.426z" fill="#231f20"/>
    </g>
    <g transform="translate(46.161 633.39)">
     <path d="m0 0h4.567v-1.039h-3.294v-2.288h2.568v-1.039h-2.568v-3.394h-1.273z" fill="#231f20"/>
    </g>
    <g transform="translate(52.817 629.26)">
     <path d="m0 0h3.405c-0.022 0.949-0.77 1.552-1.719 1.552-0.859 0-1.552-0.581-1.686-1.552m1.742-3.729c-1.764 0-3.07 1.251-3.07 3.182s1.25 3.17 3.07 3.17c1.753 0 2.992-1.216 2.992-3.025 0-0.212-0.011-0.413-0.045-0.626h-4.7c0.089-1.015 0.815-1.629 1.753-1.629 0.781 0 1.217 0.379 1.451 0.859h1.374c-0.346-1.071-1.318-1.931-2.825-1.931" fill="#231f20"/>
    </g>
    <g transform="translate(61.036 625.53)">
     <path d="m0 0c-1.474 0-2.512 0.871-2.568 1.987h1.318c0.044-0.503 0.524-0.915 1.228-0.915 0.737 0 1.127 0.312 1.127 0.736 0 1.206-3.572 0.514-3.572 2.769 0 0.982 0.915 1.775 2.366 1.775 1.396 0 2.311-0.748 2.378-1.976h-1.272c-0.045 0.536-0.458 0.905-1.15 0.905-0.682 0-1.039-0.279-1.039-0.693 0-1.239 3.473-0.547 3.54-2.769 0-1.038-0.905-1.819-2.356-1.819" fill="#231f20"/>
    </g>
    <g transform="translate(64.967 630.75)">
     <path d="m0 0h-0.726v1.039h0.726v1.529h1.284v-1.529h1.496v-1.039h-1.496v-3.405c0-0.458 0.179-0.648 0.715-0.648h0.781v-1.06h-1.005c-1.094 0-1.775 0.457-1.775 1.708z" fill="#231f20"/>
    </g>
    <path d="m68.921 631.78h1.273v-6.152h-1.273zm-0.168 1.63c0 0.458 0.357 0.815 0.816 0.815 0.446 0 0.803-0.357 0.803-0.815s-0.357-0.815-0.803-0.815c-0.459 0-0.816 0.357-0.816 0.815" fill="#231f20"/>
    <g transform="translate(71.143 631.78)">
     <path d="m0 0h1.295l1.284-4.946 1.307 4.946h1.328l1.25-4.924 1.273 4.924h1.251l-1.909-6.152h-1.34l-1.24 4.544-1.239-4.544h-1.339z" fill="#231f20"/>
    </g>
    <g transform="translate(83.829 630.78)">
     <path d="m0 0c-0.949 0-1.865-0.715-1.865-2.043 0-1.329 0.916-2.099 1.865-2.099 0.96 0 1.864 0.748 1.864 2.077 0 1.317-0.904 2.065-1.864 2.065m-0.268 1.105c1.039 0 1.753-0.491 2.132-0.993v0.893h1.284v-6.152h-1.284v0.916c-0.39-0.525-1.127-1.016-2.154-1.016-1.597 0-2.881 1.306-2.881 3.204s1.284 3.148 2.903 3.148" fill="#231f20"/>
    </g>
    <path d="m88.653 633.89h1.273v-8.262h-1.273z" fill="#231f20"/>
    <g transform="translate(54.1 623.55)">
     <path d="m0 0v-1.083l-2.467-1.217v0.938zm-1.094-10.674c-1.552 0-2.747 0.849-2.747 2.222h1.363c0.055-0.636 0.502-1.15 1.384-1.15 0.893 0 1.395 0.48 1.395 1.139 0 1.876-4.12 0.659-4.12 3.517 0 1.362 1.083 2.211 2.669 2.211 1.485 0 2.534-0.782 2.646-2.11h-1.407c-0.044 0.524-0.502 1.004-1.306 1.027-0.737 0.022-1.306-0.335-1.306-1.083 0-1.753 4.108-0.659 4.108-3.495 0-1.161-0.949-2.278-2.679-2.278" fill="#231f20"/>
    </g>
    <g transform="translate(56.469 619.11)">
     <path d="m0 0h1.295l1.284-4.946 1.307 4.946h1.328l1.25-4.924 1.273 4.924h1.251l-1.909-6.152h-1.34l-1.24 4.544-1.239-4.544h-1.339z" fill="#231f20"/>
    </g>
    <path d="m66.408 619.11h1.273v-6.152h-1.273zm-0.167 1.629c0 0.458 0.357 0.815 0.815 0.815 0.446 0 0.803-0.357 0.803-0.815 0-0.457-0.357-0.815-0.803-0.815-0.458 0-0.815 0.358-0.815 0.815" fill="#231f20"/>
    <g transform="translate(72.103 618.1)">
     <path d="m0 0c-0.949 0-1.865-0.715-1.865-2.043 0-1.329 0.916-2.099 1.865-2.099 0.96 0 1.865 0.748 1.865 2.077 0 1.317-0.905 2.065-1.865 2.065m-0.268 1.105c1.039 0 1.753-0.491 2.133-0.993v0.893h1.283v-6.152h-1.283v0.916c-0.391-0.525-1.128-1.016-2.155-1.016-1.597 0-2.881 1.306-2.881 3.204s1.284 3.148 2.903 3.148" fill="#231f20"/>
    </g>
    <g transform="translate(77.129 618.07)">
     <path d="m0 0h-0.726v1.039h0.726v1.529h1.284v-1.529h1.496v-1.039h-1.496v-3.405c0-0.458 0.179-0.648 0.715-0.648h0.781v-1.06h-1.005c-1.094 0-1.775 0.457-1.775 1.708z" fill="#231f20"/>
    </g>
    <g transform="translate(81.082 616.26)">
     <path d="m0 0-0.737-0.257v0.982l0.737 0.246v3.986h1.273v-3.55l0.748 0.256v-0.971l-0.748-0.257v-3.74h-1.273z" fill="#231f20"/>
    </g>
    <g transform="translate(86.777 618.1)">
     <path d="m0 0c-0.949 0-1.865-0.715-1.865-2.043 0-1.329 0.916-2.099 1.865-2.099 0.96 0 1.865 0.748 1.865 2.077 0 1.317-0.905 2.065-1.865 2.065m-0.268 1.105c1.039 0 1.753-0.491 2.133-0.993v0.893h1.283v-6.152h-1.283v0.916c-0.391-0.525-1.128-1.016-2.155-1.016-1.597 0-2.881 1.306-2.881 3.204s1.284 3.148 2.903 3.148" fill="#231f20"/>
    </g>
   </g>
  </g>
 </g>
</svg>
