<svg width="267" height="146" viewBox="0 0 267 146" fill="none" xmlns="http://www.w3.org/2000/svg">
<path d="M11.97 11.29V132.05H67.04C68.61 127.52 68.43 122.12 61.64 120.03C57.98 118.98 52.4 117.07 47.87 113.93C44.38 111.49 38.29 106.09 38.29 96.68V73.15H58.85C70.87 73.15 76.62 77.51 78.72 90.05C87.96 83.78 95.8 74.37 95.8 63.39C95.8 57.47 93.53 52.76 90.75 49.62C87.09 55.89 79.25 63.21 66.53 63.21H38.47V24.19H59.9C58.85 35.52 61.82 46.5 71.05 51.72C86.91 45.1 101.72 30.63 99.98 11.29H11.97Z" fill="white"/>
<path d="M0 0V145.14H266.93V0H0ZM3.7 141.45V3.7H124.58L82.99 141.45H3.7ZM232.16 98.31L207.47 91.74L223 134.5L195.07 98.65L187.57 123.17L180.9 98.41L151.79 133.3L168.75 91.09L143.85 96.83L161.87 78.65L117.23 70.78L162.11 64.42L144.71 45.64L169.4 52.21L153.87 9.45L181.8 45.3L189.3 20.78L195.97 45.54L225.08 10.65L208.12 52.86L233.02 47.12L215 65.3L259.64 73.17L214.76 79.53L232.16 98.31Z" fill="white"/>
<path d="M190.08 86.31C198.005 86.31 204.43 79.8853 204.43 71.96C204.43 64.0347 198.005 57.61 190.08 57.61C182.155 57.61 175.73 64.0347 175.73 71.96C175.73 79.8853 182.155 86.31 190.08 86.31Z" fill="white"/>
</svg>
