<?xml version="1.0" encoding="UTF-8"?><svg id="Layer_2" xmlns="http://www.w3.org/2000/svg" viewBox="0 0 13.65 24.04"><defs><style>.cls-1{fill:#fff;}</style></defs><g id="Layer_1-2"><g><g><g><line class="cls-1" x1="13.22" y1="6.74" x2="8.4" y2="11.57"/><polygon class="cls-1" points="8.4 11.57 8.16 11.75 7.89 11.86 7.6 11.9 7.31 11.86 7.04 11.75 6.81 11.57 12.42 5.95 6.81 .33 7.04 .15 7.31 .04 7.6 0 7.89 .04 8.16 .15 8.4 .33 13.22 5.15 13.4 5.39 13.51 5.66 13.55 5.95 13.51 6.24 13.4 6.51 13.22 6.74 8.4 11.57"/></g><polygon class="cls-1" points="5.15 5.95 .33 10.77 .15 11.01 .04 11.28 0 11.57 .04 11.86 .15 12.13 .33 12.36 5.15 17.19 5.38 17.37 5.66 17.48 5.95 17.52 6.23 17.48 6.51 17.37 6.74 17.19 1.13 11.57 6.74 5.95 6.51 5.77 6.23 5.66 5.95 5.62 5.66 5.66 5.38 5.77 5.15 5.95"/></g><g><path class="cls-1" d="m1.25,23.21c-.09.14-.28.22-.44.22-.35,0-.67-.27-.67-.69s.31-.68.67-.68c.16,0,.35.06.44.21v-.19h.29v1.31h-.29v-.19Zm-.41-.06c.21,0,.4-.15.4-.41s-.21-.4-.4-.4c-.22,0-.4.16-.4.4s.18.41.4.41Z"/><path class="cls-1" d="m2.23,23.4h-.29v-1.31h.29v.2c.08-.15.26-.22.4-.22.32,0,.5.2.5.58v.76h-.29v-.73c0-.21-.11-.33-.28-.33s-.34.09-.34.35v.7Z"/><path class="cls-1" d="m3.91,22.08h.28v.24h-.28v1.07h-.29v-1.07h-.24v-.24h.24v-.5h.29v.5Z"/><path class="cls-1" d="m4.83,24.04h-.3l.28-.7-.52-1.25h.31l.37.9.37-.9h.31l-.81,1.95Z"/><path class="cls-1" d="m7.29,23.4h-.36l-.48-.71h-.21v.71h-.3v-1.93h.76c.42,0,.59.31.59.61,0,.28-.14.56-.5.6l.51.72Zm-1.05-1.66v.68h.43c.22,0,.3-.17.3-.34s-.08-.34-.29-.34h-.44Z"/><path class="cls-1" d="m8.73,22.91h-.78l-.19.48h-.32l.73-1.93h.32l.73,1.93h-.31l-.19-.48Zm-.68-.27h.58l-.29-.81-.29.81Z"/><path class="cls-1" d="m11.2,21.46h.27l.24,1.93h-.3l-.17-1.38-.57,1.17h-.25l-.57-1.17-.17,1.38h-.3l.24-1.93h.26l.66,1.38.66-1.38Z"/><path class="cls-1" d="m13.15,22.91h-.78l-.19.48h-.32l.73-1.93h.32l.73,1.93h-.31l-.19-.48Zm-.68-.27h.58l-.29-.81-.29.81Z"/></g></g></g></svg>