<?xml version="1.0" encoding="UTF-8"?><svg id="Layer_2" xmlns="http://www.w3.org/2000/svg" xmlns:xlink="http://www.w3.org/1999/xlink" viewBox="0 0 44.15 12.06"><defs><style>.cls-1{fill:none;}.cls-2{clip-path:url(#clippath);}.cls-3,.cls-4{fill:#fff;}.cls-5{clip-path:url(#clippath-1);}.cls-6{clip-path:url(#clippath-2);}.cls-4{fill-rule:evenodd;}</style><clipPath id="clippath"><rect class="cls-1" width="44.15" height="12.06"/></clipPath><clipPath id="clippath-1"><rect class="cls-1" x="-8.37" y="-18.09" width="61.27" height="43.32"/></clipPath><clipPath id="clippath-2"><rect class="cls-1" x="-8.37" y="-18.09" width="61.27" height="43.32"/></clipPath></defs><g id="Layer_1-2"><g class="cls-2"><g class="cls-5"><g class="cls-6"><path class="cls-3" d="m1.14,10.65c-.15-.15-.22-.38-.22-.67v-1.18h.22v1.18c0,.24.05.42.16.54.11.12.26.18.47.18s.36-.06.47-.18c.11-.12.16-.3.16-.54v-1.18h.21v1.18c0,.29-.07.52-.22.67-.15.15-.36.23-.62.23s-.48-.08-.63-.23"/><path class="cls-3" d="m3.61,10.74c-.16-.09-.29-.22-.39-.38-.09-.16-.14-.34-.14-.54s.05-.38.14-.54c.09-.16.22-.29.39-.38.17-.09.35-.14.56-.14.15,0,.3.03.43.08.13.05.24.13.33.22l-.14.14c-.16-.16-.37-.25-.61-.25-.16,0-.31.04-.45.11-.13.07-.24.18-.31.31-.08.13-.11.28-.11.44s.04.31.11.44c.08.13.18.23.31.31.13.07.28.11.45.11.25,0,.45-.08.61-.25l.14.14c-.09.1-.2.17-.33.23s-.27.08-.43.08c-.2,0-.39-.05-.55-.14"/><polygon class="cls-3" points="6.88 10.67 6.88 10.86 5.19 10.86 5.19 10.71 6.56 8.98 5.21 8.98 5.21 8.79 6.85 8.79 6.85 8.94 5.48 10.67 6.88 10.67"/><polygon class="cls-3" points="8.03 10.14 8.03 10.86 7.81 10.86 7.81 10.14 6.98 8.79 7.22 8.79 7.92 9.95 8.63 8.79 8.85 8.79 8.03 10.14"/><polygon class="cls-3" points="11.3 8.79 11.3 10.86 11.09 10.86 11.09 9.21 10.27 10.6 10.17 10.6 9.36 9.21 9.36 10.86 9.15 10.86 9.15 8.79 9.33 8.79 10.23 10.32 11.12 8.79 11.3 8.79"/><polygon class="cls-3" points="12.68 10.14 12.68 10.86 12.46 10.86 12.46 10.14 11.64 8.79 11.87 8.79 12.58 9.95 13.29 8.79 13.51 8.79 12.68 10.14"/><path class="cls-3" d="m16.01,8.98c.15.13.22.3.22.52s-.07.39-.22.52c-.15.13-.36.19-.62.19h-.56v.65h-.22v-2.07h.77c.26,0,.47.06.62.19m-.16.9c.11-.09.16-.22.16-.38s-.05-.3-.16-.39c-.11-.09-.26-.13-.47-.13h-.55v1.03h.55c.2,0,.36-.04.47-.13"/><path class="cls-3" d="m18.12,10.86l-.47-.66c-.05,0-.11,0-.17,0h-.56v.66h-.22v-2.07h.77c.26,0,.47.06.62.19.15.13.22.3.22.52,0,.16-.04.3-.12.41-.08.11-.2.19-.35.24l.51.71h-.24Zm-.17-.98c.11-.09.16-.22.16-.38s-.05-.3-.16-.39c-.11-.09-.26-.13-.47-.13h-.55v1.04h.55c.2,0,.36-.05.47-.14"/><path class="cls-3" d="m19.19,10.74c-.17-.09-.3-.22-.39-.38-.09-.16-.14-.34-.14-.54s.05-.38.14-.54c.09-.16.22-.29.39-.38.17-.09.35-.14.56-.14s.39.05.55.14c.16.09.29.22.39.38.09.16.14.34.14.54s-.05.38-.14.54c-.09.16-.22.29-.39.38-.16.09-.35.14-.55.14s-.39-.05-.56-.14m1-.17c.13-.07.24-.18.31-.31.07-.13.11-.28.11-.44s-.04-.31-.11-.44c-.07-.13-.18-.23-.31-.31-.13-.07-.28-.11-.44-.11s-.31.04-.44.11c-.13.07-.24.18-.31.31-.08.13-.11.28-.11.44s.04.31.11.44c.08.13.18.23.31.31.13.07.28.11.44.11s.31-.04.44-.11"/><path class="cls-3" d="m22.78,9.83h.21v.79c-.1.08-.21.15-.34.19-.13.05-.27.07-.42.07-.21,0-.39-.05-.56-.14-.17-.09-.3-.22-.39-.38-.09-.16-.14-.34-.14-.54s.05-.38.14-.54c.09-.16.22-.29.39-.38.17-.09.35-.14.56-.14.16,0,.3.03.43.08.13.05.24.12.33.22l-.14.14c-.16-.16-.37-.24-.62-.24-.17,0-.32.04-.45.11-.13.07-.24.18-.32.31-.08.13-.12.28-.12.44s.04.31.12.44c.08.13.18.23.32.31.13.07.28.11.45.11.21,0,.39-.05.54-.16v-.7Z"/><path class="cls-3" d="m25.02,10.86l-.47-.66c-.05,0-.11,0-.17,0h-.56v.66h-.22v-2.07h.77c.26,0,.47.06.62.19.15.13.22.3.22.52,0,.16-.04.3-.12.41-.08.11-.2.19-.35.24l.51.71h-.24Zm-.17-.98c.11-.09.16-.22.16-.38s-.05-.3-.16-.39c-.11-.09-.26-.13-.47-.13h-.55v1.04h.55c.2,0,.36-.05.47-.14"/><path class="cls-3" d="m27.04,10.31h-1.15l-.25.55h-.23l.95-2.07h.22l.95,2.07h-.23l-.25-.55Zm-.08-.18l-.5-1.11-.5,1.11h.99Z"/><polygon class="cls-3" points="30.01 8.79 30.01 10.86 29.8 10.86 29.8 9.21 28.99 10.6 28.88 10.6 28.07 9.21 28.07 10.86 27.86 10.86 27.86 8.79 28.04 8.79 28.94 10.32 29.83 8.79 30.01 8.79"/><path class="cls-3" d="m31.03,10.74c-.17-.09-.3-.22-.39-.38-.09-.16-.14-.34-.14-.54s.05-.38.14-.54c.09-.16.22-.29.39-.38.17-.09.35-.14.56-.14s.39.05.55.14c.16.09.29.22.39.38.09.16.14.34.14.54s-.05.38-.14.54c-.09.16-.22.29-.39.38-.16.09-.35.14-.55.14s-.39-.05-.56-.14m1-.17c.13-.07.24-.18.31-.31.07-.13.11-.28.11-.44s-.04-.31-.11-.44c-.07-.13-.18-.23-.31-.31-.13-.07-.28-.11-.44-.11s-.31.04-.44.11c-.13.07-.24.18-.31.31-.08.13-.11.28-.11.44s.04.31.11.44c.08.13.18.23.31.31.13.07.28.11.44.11s.31-.04.44-.11"/><polygon class="cls-3" points="35.94 8.79 35.24 10.86 35.01 10.86 34.41 9.1 33.8 10.86 33.57 10.86 32.87 8.79 33.1 8.79 33.69 10.57 34.31 8.79 34.52 8.79 35.12 10.58 35.73 8.79 35.94 8.79"/><path class="cls-3" d="m37.57,10.31h-1.15l-.25.55h-.23l.95-2.07h.22l.95,2.07h-.23l-.25-.55Zm-.08-.18l-.5-1.11-.5,1.11h.99Z"/><polygon class="cls-3" points="40.12 8.79 40.12 10.86 39.94 10.86 38.61 9.18 38.61 10.86 38.39 10.86 38.39 8.79 38.57 8.79 39.91 10.47 39.91 8.79 40.12 8.79"/><rect class="cls-3" x="40.8" y="8.79" width=".22" height="2.07"/><path class="cls-3" d="m42.99,10.31h-1.15l-.25.55h-.23l.95-2.07h.22l.95,2.07h-.23l-.25-.55Zm-.08-.18l-.5-1.11-.5,1.11h.99Z"/><polygon class="cls-3" points="43.35 5.5 43.35 6.64 38.61 6.64 38.61 .51 43.24 .51 43.24 1.65 40.01 1.65 40.01 2.98 42.86 2.98 42.86 4.08 40.01 4.08 40.01 5.5 43.35 5.5"/><polygon class="cls-3" points="36.11 6.64 36.1 2.96 34.3 5.99 33.66 5.99 31.87 3.04 31.87 6.64 30.53 6.64 30.53 .51 31.71 .51 34 4.32 36.26 .51 37.42 .51 37.44 6.64 36.11 6.64"/><polygon class="cls-3" points="26.93 5.5 26.93 6.64 22.18 6.64 22.18 .51 26.81 .51 26.81 1.65 23.59 1.65 23.59 2.98 26.44 2.98 26.44 4.08 23.59 4.08 23.59 5.5 26.93 5.5"/><path class="cls-3" d="m14.95.51h2.78c.67,0,1.25.13,1.76.38.51.25.91.61,1.19,1.07.28.46.42,1,.42,1.61s-.14,1.15-.42,1.61c-.28.46-.68.82-1.19,1.07-.51.25-1.1.38-1.76.38h-2.78V.51Zm2.71,4.96c.61,0,1.1-.17,1.47-.51.36-.34.55-.8.55-1.39s-.18-1.05-.55-1.39c-.36-.34-.85-.51-1.47-.51h-1.3v3.8h1.3Z"/><path class="cls-3" d="m10.53,6.74c-.64,0-1.21-.14-1.72-.41-.51-.27-.91-.65-1.2-1.13-.29-.48-.43-1.02-.43-1.62s.14-1.14.43-1.62c.29-.48.69-.86,1.2-1.13.51-.27,1.08-.41,1.72-.41s1.21.14,1.72.41c.51.27.91.65,1.2,1.13.29.48.44,1.02.44,1.62s-.15,1.14-.44,1.62c-.29.48-.69.86-1.2,1.13-.51.27-1.08.41-1.72.41m0-1.21c.36,0,.69-.08.98-.25.29-.17.52-.4.69-.7.17-.3.25-.64.25-1.02s-.08-.72-.25-1.02c-.17-.3-.4-.53-.69-.7-.29-.17-.62-.25-.98-.25s-.69.08-.98.25c-.29.17-.52.4-.69.7-.17.3-.25.64-.25,1.02s.08.72.25,1.02c.17.3.4.53.69.7s.62.25.98.25"/><path class="cls-3" d="m4.21,6.74c-.62,0-1.19-.14-1.69-.41-.5-.27-.9-.65-1.19-1.13-.29-.48-.43-1.03-.43-1.63s.14-1.15.43-1.63c.29-.48.69-.86,1.19-1.13.5-.27,1.07-.41,1.7-.41.53,0,1.01.09,1.44.28.43.19.79.46,1.08.81l-.91.84c-.41-.48-.93-.72-1.54-.72-.38,0-.72.08-1.02.25-.3.17-.53.4-.7.7-.17.3-.25.64-.25,1.02s.08.72.25,1.02c.17.3.4.53.7.7.3.17.64.25,1.02.25.61,0,1.13-.24,1.54-.73l.91.84c-.29.36-.65.63-1.09.81-.43.19-.91.28-1.44.28"/><path class="cls-4" d="m28.67,1.51c.44,0,.8.36.8.8s-.36.8-.8.8-.8-.36-.8-.8.36-.8.8-.8"/><path class="cls-4" d="m28.67,4.02c.44,0,.8.36.8.8s-.36.8-.8.8-.8-.36-.8-.8.36-.8.8-.8"/></g></g></g></g></svg>