<?xml version="1.0" encoding="UTF-8"?><svg id="Layer_2" xmlns="http://www.w3.org/2000/svg" xmlns:xlink="http://www.w3.org/1999/xlink" viewBox="0 0 51.2 11.63"><defs><style>.cls-1{fill:none;}.cls-2{clip-path:url(#clippath);}.cls-3{fill:#fff;}</style><clipPath id="clippath"><rect class="cls-1" width="51.2" height="11.63"/></clipPath></defs><g id="Layer_1-2"><g class="cls-2"><g><polygon class="cls-3" points="21.05 10.72 17.72 10.72 17.72 5.67 21.05 5.67 21.05 6.27 18.39 6.27 18.39 7.65 21.05 7.65 21.05 8.25 18.39 8.25 18.39 10.12 21.05 10.12 21.05 10.72 21.05 10.72"/><path class="cls-3" d="m24.16,7.63h-.03c-.09-.02-.19-.04-.28-.05-.09-.01-.2-.02-.32-.02-.2,0-.39.04-.57.13-.18.09-.36.2-.53.34v2.69h-.64v-3.79h.64v.56c.25-.2.48-.35.67-.43.19-.08.39-.13.59-.13.11,0,.19,0,.24,0,.05,0,.12.02.22.03v.65h0Z"/><path class="cls-3" d="m26.96,9.79v-1.05c-.19.01-.42.03-.69.05-.26.02-.47.06-.63.1-.18.05-.33.13-.44.24-.11.11-.17.26-.17.45,0,.22.07.38.2.49.13.11.33.16.6.16.22,0,.43-.04.61-.13.19-.09.36-.19.52-.31h0Zm.63.93h-.63v-.4c-.06.04-.13.09-.23.16-.1.07-.19.12-.28.16-.11.05-.23.1-.37.13-.14.04-.3.05-.48.05-.34,0-.63-.11-.87-.34-.24-.23-.36-.51-.36-.86,0-.29.06-.52.18-.7.12-.18.3-.32.53-.42.23-.1.51-.17.83-.21.32-.04.67-.06,1.04-.08v-.1c0-.14-.03-.26-.08-.36-.05-.09-.12-.17-.22-.22-.09-.05-.2-.09-.33-.11-.13-.02-.26-.03-.4-.03-.17,0-.35.02-.56.07-.21.04-.42.11-.64.19h-.03v-.65c.12-.03.3-.07.54-.11.24-.04.47-.06.7-.06.27,0,.5.02.7.07.2.04.37.12.51.23.14.1.25.24.33.4.07.17.11.37.11.61v2.57h0Z"/><path class="cls-3" d="m31.28,9.63c0,.35-.14.63-.43.85-.29.22-.68.33-1.17.33-.28,0-.54-.03-.77-.1-.23-.07-.43-.14-.59-.22v-.72h.03c.2.15.42.27.67.36.25.09.48.13.71.13.28,0,.5-.05.66-.14.16-.09.24-.23.24-.43,0-.15-.04-.26-.13-.34-.09-.08-.25-.14-.5-.2-.09-.02-.21-.04-.35-.07-.15-.03-.28-.06-.4-.09-.33-.09-.57-.22-.71-.39-.14-.17-.21-.38-.21-.63,0-.16.03-.3.1-.44.06-.14.16-.26.29-.37.13-.11.29-.19.48-.25.2-.06.41-.09.66-.09.23,0,.45.03.69.08.23.06.42.12.58.2v.68h-.03c-.16-.12-.36-.22-.59-.3-.23-.08-.46-.12-.68-.12s-.43.04-.59.13c-.16.09-.24.22-.24.4,0,.16.05.27.15.35.09.08.25.14.46.19.12.03.25.05.39.08.15.03.27.05.36.07.3.07.52.18.68.35.16.17.24.39.24.66h0Z"/><path class="cls-3" d="m37.49,10.72h-.64v-2.16c0-.16,0-.32-.02-.47-.01-.15-.05-.27-.09-.36-.05-.1-.13-.17-.22-.22-.1-.05-.24-.07-.42-.07s-.36.04-.54.13c-.18.09-.36.2-.54.34,0,.05.01.11.02.18,0,.07,0,.14,0,.21v2.42h-.64v-2.16c0-.17,0-.33-.02-.48-.01-.15-.05-.27-.09-.36-.05-.1-.13-.17-.22-.22-.1-.05-.24-.07-.42-.07s-.35.04-.52.13c-.18.09-.35.2-.52.33v2.83h-.64v-3.79h.64v.42c.2-.16.4-.29.6-.39.2-.09.41-.14.63-.14.26,0,.48.05.66.16.18.11.31.26.4.45.26-.22.49-.37.71-.47.21-.1.44-.14.68-.14.42,0,.72.13.92.38.2.25.3.6.3,1.06v2.46h0Z"/><path class="cls-3" d="m41.5,10.72h-.64v-.42c-.21.17-.42.3-.62.39-.2.09-.41.14-.65.14-.4,0-.71-.12-.93-.36-.22-.24-.33-.6-.33-1.07v-2.46h.64v2.16c0,.19,0,.36.03.49.02.14.06.25.12.35.06.1.14.17.24.22.1.05.24.07.42.07.16,0,.35-.04.54-.13.2-.09.38-.2.55-.33v-2.83h.64v3.79h0Z"/><path class="cls-3" d="m45.23,9.63c0,.35-.14.63-.43.85-.29.22-.68.33-1.17.33-.28,0-.54-.03-.77-.1-.23-.07-.43-.14-.59-.22v-.72h.03c.2.15.42.27.67.36.25.09.48.13.71.13.28,0,.5-.05.66-.14.16-.09.24-.23.24-.43,0-.15-.04-.26-.13-.34-.09-.08-.25-.14-.5-.2-.09-.02-.21-.04-.35-.07-.15-.03-.28-.06-.4-.09-.33-.09-.57-.22-.71-.39-.14-.17-.21-.38-.21-.63,0-.16.03-.3.1-.44.06-.14.16-.26.29-.37.13-.11.29-.19.48-.25.2-.06.41-.09.66-.09.23,0,.45.03.69.08.23.06.42.12.58.2v.68h-.03c-.16-.12-.36-.22-.59-.3-.23-.08-.46-.12-.68-.12s-.43.04-.59.13c-.16.09-.24.22-.24.4,0,.16.05.27.15.35.09.08.25.14.46.19.12.03.25.05.4.08.15.03.27.05.36.07.3.07.52.18.69.35.16.17.24.39.24.66h0Z"/><polygon class="cls-3" points="50.57 8.78 48.72 8.78 48.72 10.63 48.15 10.63 48.15 8.78 46.31 8.78 46.31 8.24 48.15 8.24 48.15 6.39 48.72 6.39 48.72 8.24 50.57 8.24 50.57 8.78 50.57 8.78"/><path class="cls-3" d="m15.62,10.72H.47V.62h15.15v10.1h0ZM.27.42v10.5h15.55V.42H.27Z"/><polygon class="cls-3" points="8.05 1.74 8.17 2.13 8.58 2.13 8.25 2.37 8.37 2.76 8.05 2.51 7.72 2.76 7.84 2.37 7.51 2.13 7.92 2.13 8.05 1.74 8.05 1.74"/><polygon class="cls-3" points="6.36 2.19 6.49 2.58 6.9 2.58 6.56 2.82 6.69 3.21 6.36 2.97 6.03 3.21 6.16 2.82 5.83 2.58 6.24 2.58 6.36 2.19 6.36 2.19"/><polygon class="cls-3" points="5.13 3.42 5.26 3.81 5.66 3.81 5.33 4.05 5.46 4.44 5.13 4.2 4.8 4.44 4.93 4.05 4.6 3.81 5.01 3.81 5.13 3.42 5.13 3.42"/><polygon class="cls-3" points="4.68 5.11 4.8 5.5 5.21 5.5 4.88 5.73 5.01 6.12 4.68 5.88 4.35 6.12 4.48 5.73 4.15 5.5 4.55 5.5 4.68 5.11 4.68 5.11"/><polygon class="cls-3" points="5.13 6.79 5.26 7.18 5.66 7.18 5.33 7.42 5.46 7.81 5.13 7.56 4.8 7.81 4.93 7.42 4.6 7.18 5.01 7.18 5.13 6.79 5.13 6.79"/><polygon class="cls-3" points="6.36 8.02 6.49 8.41 6.9 8.41 6.56 8.65 6.69 9.04 6.36 8.8 6.03 9.04 6.16 8.65 5.83 8.41 6.24 8.41 6.36 8.02 6.36 8.02"/><polygon class="cls-3" points="8.05 8.47 8.17 8.86 8.58 8.86 8.25 9.1 8.37 9.49 8.05 9.25 7.72 9.49 7.84 9.1 7.51 8.86 7.92 8.86 8.05 8.47 8.05 8.47"/><polygon class="cls-3" points="9.73 8.02 9.85 8.41 10.26 8.41 9.93 8.65 10.06 9.04 9.73 8.8 9.4 9.04 9.53 8.65 9.19 8.41 9.6 8.41 9.73 8.02 9.73 8.02"/><polygon class="cls-3" points="10.96 6.79 11.08 7.18 11.49 7.18 11.16 7.42 11.29 7.81 10.96 7.56 10.63 7.81 10.76 7.42 10.43 7.18 10.84 7.18 10.96 6.79 10.96 6.79"/><polygon class="cls-3" points="11.41 5.11 11.54 5.5 11.94 5.5 11.61 5.73 11.74 6.12 11.41 5.88 11.08 6.12 11.21 5.73 10.88 5.5 11.29 5.5 11.41 5.11 11.41 5.11"/><polygon class="cls-3" points="10.96 3.42 11.08 3.81 11.49 3.81 11.16 4.05 11.29 4.44 10.96 4.2 10.63 4.44 10.76 4.05 10.43 3.81 10.84 3.81 10.96 3.42 10.96 3.42"/><polygon class="cls-3" points="9.73 2.19 9.85 2.58 10.26 2.58 9.93 2.82 10.06 3.21 9.73 2.97 9.4 3.21 9.53 2.82 9.19 2.58 9.6 2.58 9.73 2.19 9.73 2.19"/></g></g></g></svg>