<?xml version="1.0" encoding="UTF-8"?><svg id="Layer_2" xmlns="http://www.w3.org/2000/svg" viewBox="0 0 78.74 8.68"><defs><style>.cls-1{fill:#fff;}</style></defs><g id="Layer_1-2"><g><polygon class="cls-1" points="19.83 8.51 15.7 .15 16.99 .15 19.83 5.8 22.67 .15 23.95 .15 19.83 8.51"/><polygon class="cls-1" points="78.74 0 74.62 6.54 70.49 0 70.49 8.51 71.68 8.51 71.68 3.95 74.62 8.68 77.55 3.95 77.55 8.51 78.74 8.51 78.74 0"/><polygon class="cls-1" points="0 1.2 0 8.51 1.19 8.51 1.19 4.92 5.36 4.92 5.36 8.51 6.55 8.51 6.55 0 5.36 1.2 5.36 3.73 1.19 3.73 1.19 0 0 1.2"/><polygon class="cls-1" points="10.43 4.92 14.01 4.92 14.01 3.73 10.43 3.73 10.43 1.35 13.27 1.35 14.46 .15 9.24 .15 9.24 8.51 14.61 8.51 14.61 7.32 10.43 7.32 10.43 4.92"/><polygon class="cls-1" points="33.1 1.2 33.1 8.51 38.32 8.51 38.32 7.31 34.29 7.31 34.29 0 33.1 1.2"/><polygon class="cls-1" points="40.11 1.2 40.11 8.51 41.3 8.51 41.3 0 40.11 1.2"/><polygon class="cls-1" points="58.01 1.19 58.01 5.68 52.64 0 52.64 8.51 53.83 8.51 53.83 2.97 59.2 8.65 59.2 0 58.01 1.19"/><path class="cls-1" d="m66.87,1.19v4.21c0,1.29-.68,2.14-1.97,2.14s-1.98-.85-1.98-2.14V0l-1.19,1.19v4.28c0,1.92,1.08,3.17,3.17,3.17s3.16-1.25,3.16-3.17V0l-1.19,1.19Z"/><polygon class="cls-1" points="42.95 8.51 44.23 8.51 46.97 2.59 49.71 8.51 51 8.51 46.97 0 42.95 8.51"/><polygon class="cls-1" points="26.83 4.92 30.41 4.92 30.41 3.73 26.83 3.73 26.83 1.35 29.67 1.35 30.86 .15 25.64 .15 25.64 8.51 31.01 8.51 31.01 7.32 26.83 7.32 26.83 4.92"/></g></g></svg>