<?xml version="1.0" encoding="UTF-8"?><svg id="Layer_2" xmlns="http://www.w3.org/2000/svg" viewBox="0 0 104.59 13.62"><defs><style>.cls-1{letter-spacing:.41em;}.cls-2{letter-spacing:.41em;}.cls-3{letter-spacing:.4em;}.cls-4,.cls-5{fill:#fff;}.cls-5{font-family:Lato-Black, Lato;font-size:4.05px;font-weight:800;}.cls-5,.cls-6{isolation:isolate;}.cls-7{letter-spacing:.39em;}.cls-8{letter-spacing:.39em;}</style></defs><g id="Layer_1-2"><g><g class="cls-6"><text class="cls-5" transform="translate(61.87 12.41)"><tspan class="cls-1" x="0" y="0">T</tspan><tspan class="cls-3" x="4.14" y="0">R</tspan><tspan class="cls-8" x="8.42" y="0">Ó</tspan><tspan class="cls-2" x="13.29" y="0">JMIAS</tspan><tspan class="cls-7" x="33.68" y="0">T</tspan><tspan class="cls-1" x="37.75" y="0">O</tspan></text></g><g><path class="cls-4" d="m6.7,7.76h-1.79v-3.25H1.79v3.25H0V.08h1.79v3.21h3.12V.08h1.79v7.68Z"/><path class="cls-4" d="m14.67,4.83l-.71-2.1c-.05-.13-.1-.29-.16-.47-.06-.18-.12-.38-.18-.59-.06.21-.11.41-.17.6-.06.18-.12.34-.17.47l-.71,2.09-.41,1.21-.45,1.34c-.04.1-.1.19-.21.27-.1.08-.23.12-.37.12h-1.39L12.71.09h1.82l2.97,7.68h-1.38c-.15,0-.28-.04-.38-.11-.1-.07-.17-.17-.21-.28l-.45-1.34-.41-1.21Z"/><path class="cls-4" d="m25.35,5.78s.08,0,.13.03c.04.01.08.04.12.08l.71.74c-.31.4-.7.71-1.16.92-.46.2-1.01.31-1.65.31-.58,0-1.11-.1-1.57-.3-.46-.2-.85-.47-1.18-.82-.32-.35-.57-.77-.74-1.24-.17-.48-.26-1-.26-1.57s.1-1.1.3-1.58c.2-.48.47-.9.82-1.24.35-.35.78-.62,1.27-.81C22.63.1,23.17,0,23.77,0c.29,0,.56.03.81.08.26.05.5.12.72.21.22.09.43.2.61.32.19.12.35.26.5.41l-.6.81s-.08.09-.14.14c-.05.04-.13.06-.22.06-.06,0-.12-.01-.18-.04-.06-.03-.12-.06-.18-.1-.06-.04-.13-.09-.21-.13-.07-.05-.16-.09-.27-.13-.1-.04-.22-.08-.36-.11-.14-.03-.3-.04-.48-.04-.32,0-.62.06-.89.17-.27.11-.5.28-.69.49-.19.21-.34.47-.45.77-.11.3-.16.64-.16,1.02s.05.74.16,1.05c.11.31.25.56.44.77.19.21.4.37.65.47s.51.16.79.16c.16,0,.31,0,.44-.02.13-.02.26-.05.37-.08.12-.04.22-.09.33-.15.11-.06.21-.14.32-.23.04-.04.09-.06.14-.08.05-.02.1-.04.15-.04h0Z"/><path class="cls-4" d="m31.28,3.19h.28c.26,0,.45-.08.57-.25l1.73-2.51c.09-.14.2-.23.32-.28.12-.05.27-.07.45-.07h1.55l-2.28,3.1c-.08.11-.17.21-.25.28-.09.07-.18.14-.27.18.13.05.25.12.36.21.11.08.21.2.31.34l2.32,3.56h-1.59c-.1,0-.19,0-.26-.02-.07-.01-.13-.04-.18-.06-.05-.03-.1-.06-.14-.1-.04-.04-.08-.09-.11-.14l-1.74-2.67c-.06-.1-.14-.17-.24-.21-.09-.04-.22-.06-.39-.06h-.43v3.27h-1.78V.08h1.78v3.11Z"/><path class="cls-4" d="m44.35.08v1.37h-3.15v1.79h2.41v1.32h-2.41v1.83h3.15v1.37h-4.94V.08h4.94Z"/><path class="cls-4" d="m49.53,4.92v2.84h-1.78V.09h2.5c.56,0,1.03.06,1.42.17.39.11.71.27.96.47.25.2.43.44.54.72s.17.58.17.91c0,.25-.03.48-.1.71-.07.22-.17.43-.3.62-.13.19-.29.35-.48.5-.19.15-.41.27-.66.36.12.06.23.13.33.22.11.09.2.2.27.32l1.63,2.67h-1.61c-.3,0-.51-.11-.64-.34l-1.28-2.23c-.06-.1-.12-.17-.2-.21-.07-.04-.18-.06-.32-.06h-.45Zm0-1.23h.72c.24,0,.45-.03.62-.09.17-.06.31-.15.42-.26.11-.11.19-.24.24-.38.05-.15.07-.31.07-.47,0-.34-.11-.6-.33-.79-.22-.19-.56-.28-1.02-.28h-.72v2.28Z"/><path class="cls-4" d="m57.03,6.94c0-.13.02-.24.07-.35.05-.11.11-.2.2-.28.08-.08.18-.14.3-.19.11-.05.24-.07.37-.07s.25.02.36.07c.11.05.21.11.3.19.08.08.15.18.2.28.05.11.07.23.07.35s-.02.25-.07.36c-.05.11-.11.2-.2.28-.08.08-.18.14-.3.19-.11.05-.23.07-.36.07s-.26-.02-.37-.07c-.11-.05-.21-.11-.3-.19-.08-.08-.15-.18-.2-.28-.05-.11-.07-.23-.07-.36Zm0-3.6c0-.13.02-.24.07-.35.05-.11.11-.2.2-.28.08-.08.18-.14.3-.19.11-.05.24-.07.37-.07s.25.02.36.07c.11.05.21.11.3.19.08.08.15.18.2.28.05.11.07.23.07.35s-.02.25-.07.36c-.05.11-.11.2-.2.28-.08.08-.18.14-.3.19-.11.05-.23.07-.36.07s-.26-.02-.37-.07c-.11-.05-.21-.11-.3-.19-.08-.08-.15-.18-.2-.28-.05-.11-.07-.23-.07-.36Z"/><path class="cls-4" d="m66.71,1.64c-.05.08-.11.15-.17.19-.06.04-.13.06-.22.06-.08,0-.17-.02-.26-.07-.09-.05-.2-.11-.32-.17-.12-.06-.25-.12-.4-.17-.15-.05-.32-.08-.52-.08-.33,0-.58.07-.75.22-.16.14-.24.33-.24.57,0,.15.05.28.15.38.1.1.23.19.38.26.16.07.34.14.55.21.21.06.42.13.63.21.21.07.42.16.63.26.21.1.39.23.55.39.16.16.29.35.39.58.1.22.15.5.15.82,0,.35-.06.69-.18,1-.12.31-.3.58-.54.81-.23.23-.52.41-.86.54-.34.13-.73.2-1.16.2-.24,0-.48-.02-.73-.07-.25-.05-.48-.12-.72-.21-.23-.09-.45-.2-.65-.32s-.38-.26-.53-.41l.53-.83c.04-.06.09-.11.16-.15.07-.04.15-.06.23-.06.11,0,.21.03.32.1.11.07.23.14.36.22.14.08.29.15.47.22.18.07.38.1.62.1.32,0,.57-.07.75-.21.18-.14.27-.37.27-.68,0-.18-.05-.33-.15-.44-.1-.11-.23-.21-.39-.28-.16-.07-.34-.14-.54-.2-.2-.06-.41-.12-.63-.18-.21-.07-.42-.15-.63-.25-.2-.1-.39-.23-.55-.4-.16-.17-.29-.37-.38-.61-.1-.25-.15-.55-.15-.91,0-.29.06-.57.17-.84.12-.27.29-.52.51-.73.22-.21.5-.38.83-.51.33-.13.7-.2,1.12-.2.24,0,.46.02.69.06.22.04.44.09.64.16.2.07.39.16.56.26.18.1.33.21.47.34l-.44.83Z"/><path class="cls-4" d="m72.31,5.2v2.57h-1.78V.08h2.71c.54,0,1,.06,1.39.2.39.13.71.3.96.53.25.22.44.49.56.8.12.31.18.64.18.99,0,.38-.06.73-.18,1.05-.12.32-.31.59-.56.82-.25.23-.57.41-.96.54-.39.13-.85.19-1.38.19h-.93Zm0-1.34h.93c.46,0,.8-.11,1-.33s.31-.53.31-.93c0-.18-.03-.34-.08-.48-.05-.14-.13-.27-.24-.37-.11-.11-.24-.19-.41-.24-.16-.06-.35-.08-.58-.08h-.93v2.44Z"/><path class="cls-4" d="m83.05,4.83l-.71-2.1c-.05-.13-.1-.29-.16-.47-.06-.18-.12-.38-.18-.59-.06.21-.11.41-.17.6-.06.18-.12.34-.17.47l-.71,2.09-.41,1.21-.45,1.34c-.04.1-.1.19-.21.27-.1.08-.23.12-.37.12h-1.39L81.09.09h1.82l2.97,7.68h-1.38c-.15,0-.28-.04-.38-.11-.1-.07-.17-.17-.21-.28l-.45-1.34-.41-1.21Z"/><path class="cls-4" d="m93.74,5.78s.08,0,.13.03c.04.01.08.04.12.08l.71.74c-.31.4-.7.71-1.16.92-.46.2-1.01.31-1.65.31-.58,0-1.11-.1-1.57-.3-.46-.2-.85-.47-1.18-.82-.32-.35-.57-.77-.74-1.24-.17-.48-.26-1-.26-1.57,0-.57.1-1.1.3-1.58.2-.48.47-.9.82-1.24.35-.35.78-.62,1.27-.81C91.01.1,91.56,0,92.15,0c.29,0,.56.03.81.08.26.05.5.12.72.21.22.09.43.2.61.32.19.12.35.26.5.41l-.6.81s-.08.09-.14.14c-.05.04-.13.06-.22.06-.06,0-.12-.01-.18-.04-.06-.03-.12-.06-.18-.1-.06-.04-.13-.09-.21-.13-.07-.05-.16-.09-.27-.13-.1-.04-.22-.08-.36-.11-.14-.03-.3-.04-.48-.04-.32,0-.62.06-.89.17-.27.11-.5.28-.69.49-.19.21-.34.47-.45.77-.11.3-.16.64-.16,1.02,0,.39.05.74.16,1.05.11.31.25.56.44.77.19.21.4.37.65.47.25.11.51.16.79.16.16,0,.31,0,.44-.02.13-.02.26-.05.37-.08.12-.04.22-.09.33-.15.11-.06.21-.14.32-.23.04-.04.09-.06.14-.08.05-.02.1-.04.15-.04h0Z"/><path class="cls-4" d="m102.83.08v1.37h-3.15v1.79h2.41v1.32h-2.41v1.83h3.15v1.37h-4.94V.08h4.94Z"/></g></g></g></svg>