<?xml version="1.0" encoding="UTF-8"?><svg id="Layer_2" xmlns="http://www.w3.org/2000/svg" viewBox="0 0 14.16 26.27"><defs><style>.cls-1{fill:#fff;}</style></defs><g id="Layer_1-2"><g><path class="cls-1" d="m13.47,16.74H.88c-.38,0-.68-.31-.68-.68,0-.18.07-.35.2-.48L10.38,5.59l-1.86-1.85L1.36,10.9c-.27.27-.7.27-.97,0-.13-.13-.2-.3-.2-.48v-4.82c0-.38.31-.68.68-.68h0c.38,0,.68.3.68.68,0,0,0,0,0,0v3.17l6.48-6.48c.27-.27.7-.27.97,0l2.82,2.82c.27.27.27.7,0,.97L2.52,15.37h10.27v-2.82h-4.22c-.38-.01-.67-.33-.66-.71.01-.36.3-.64.66-.66h4.91c.38,0,.68.31.68.68v4.18c0,.38-.3.69-.68.69,0,0,0,0,0,0Z"/><path class="cls-1" d="m.88,4.1c-.38,0-.68-.31-.68-.68H.19V.68C.19.31.5,0,.88,0s.68.31.68.68v2.74c0,.38-.31.68-.68.68Z"/><path class="cls-1" d="m.52,17.73v.64l.34-.14v.27c-.07.03-.14.06-.34.14v.54h.84v.27H.2v-.68l-.2.07v-.27l.2-.07v-.78h.32Z"/><path class="cls-1" d="m2.74,18.2v1.26h-.21l-.04-.15h-.03c-.06.1-.17.17-.29.17h-.22c-.19.01-.35-.13-.36-.32,0,0,0-.01,0-.02v-.95h.31v.91c0,.07.05.12.12.13,0,0,.01,0,.02,0h.19c.09,0,.16-.06.2-.14v-.89h.31Z"/><path class="cls-1" d="m3.88,18.2h.31v.12l-.28.48.31.53v.12h-.31l-.26-.52h-.24v.52h-.31v-1.73h.31v.96h.24l.24-.49Z"/><path class="cls-1" d="m5.34,19.47l-.04-.15h-.03c-.06.1-.17.17-.28.17h-.19c-.19,0-.35-.14-.35-.32,0,0,0,0,0,0v-.14c0-.19.16-.34.35-.33,0,0,0,0,0,0h.45v-.09c0-.07-.04-.13-.11-.14,0,0-.02,0-.03,0h-.56v-.26h.64c.19-.01.35.13.36.32,0,0,0,.01,0,.02v.93h-.21Zm-.1-.37v-.15h-.37c-.06,0-.12.04-.12.11,0,0,0,.01,0,.02v.04c0,.06.04.12.11.12,0,0,.01,0,.02,0h.17c.09,0,.16-.06.2-.14h0Z"/><path class="cls-1" d="m6.51,18.98l-.35-.06c-.16-.03-.28-.17-.29-.34v-.05c0-.19.16-.34.34-.33,0,0,.01,0,.02,0h.63v.19l-.07.07h-.49c-.06,0-.12.04-.12.1,0,0,0,0,0,0,0,.07.02.11.1.12l.36.06c.16.02.27.16.27.32v.06c0,.19-.16.34-.34.33,0,0-.01,0-.02,0h-.69v-.26h.63c.06,0,.11-.04.11-.1,0,0,0-.01,0-.02,0-.06-.03-.11-.09-.11,0,0,0,0,0,0Z"/><path class="cls-1" d="m7.53,18.04h-.31v-.35h.31v.35Zm0,1.42h-.31v-1.26h.31v1.26Z"/><path class="cls-1" d="m8.98,18.96h-.8v.12c0,.07.05.12.12.12,0,0,.01,0,.02,0h.62v.26h-.71c-.19.01-.35-.13-.36-.32,0,0,0-.01,0-.02v-.62c0-.19.16-.34.34-.33,0,0,.01,0,.02,0h.4c.19-.01.35.13.36.32,0,0,0,.01,0,.02v.45Zm-.81-.26h.5v-.14c0-.07-.05-.12-.12-.12,0,0-.01,0-.02,0h-.22c-.07,0-.13.04-.14.1,0,0,0,.01,0,.02v.14Z"/><path class="cls-1" d="m10.06,18.74l-.22.73h-.32l-.31-1.14v-.12h.33l.16.88h.02l.2-.71h.3l.2.71h.02l.16-.88h.34v.12l-.31,1.14h-.32l-.22-.73h-.02Z"/><path class="cls-1" d="m11.54,18.04h-.31v-.35h.31v.35Zm0,1.42h-.31v-1.26h.31v1.26Z"/><path class="cls-1" d="m12.17,19.08c0,.07.05.12.11.12,0,0,.01,0,.02,0h.57v.26h-.66c-.19.01-.35-.13-.36-.32,0,0,0-.01,0-.02v-.59c0-.19.16-.34.34-.33,0,0,.01,0,.02,0h.66v.19l-.07.07h-.49c-.07,0-.13.04-.14.1,0,0,0,.01,0,.02v.5Z"/><path class="cls-1" d="m14.15,19.47h-1.04v-.26l.63-.72v-.02h-.53l-.07-.07v-.19h1.02v.26l-.63.72v.02h.63v.26Z"/><path class="cls-1" d="m.44,21.72h-.13v-1.22h.13v1.22Z"/><path class="cls-1" d="m1.49,21.72h-.12v-.66s-.01-.07-.04-.1c-.03-.03-.07-.04-.1-.04h-.16s-.06,0-.09.02c-.02.02-.04.03-.06.05-.02.02-.04.05-.05.08v.64h-.12v-.89h.08l.02.12h0s.03-.05.05-.07c.02-.02.04-.04.07-.05.03-.02.06-.02.1-.02h.16s.07,0,.1.02c.03.01.06.03.08.05.02.02.04.05.05.08.01.03.02.06.02.1v.66Z"/><path class="cls-1" d="m1.82,21.08s0,.06.03.08c.02.02.05.04.09.04l.25.05c.05,0,.1.03.14.07.04.04.05.1.05.15,0,.07-.03.13-.07.17-.02.02-.05.04-.08.05-.03.01-.07.02-.1.02h-.43v-.1h.43c.08,0,.14-.06.14-.14h0s0-.06-.03-.08c-.02-.02-.05-.04-.09-.04l-.25-.05c-.05,0-.1-.03-.14-.07-.04-.04-.05-.1-.05-.15,0-.07.02-.13.07-.17.05-.05.12-.07.19-.07h.39v.07l-.04.03h-.35c-.08,0-.14.06-.14.14,0,0,0,0,0,0Z"/><path class="cls-1" d="m2.47,20.94v-.1h.14l.05-.26h.07v.26h.25v.1h-.25v.54c0,.08.06.14.14.14,0,0,0,0,0,0h.16v.1h-.16s-.07,0-.1-.02c-.03-.01-.06-.03-.08-.05-.02-.02-.04-.05-.05-.08-.01-.03-.02-.06-.02-.1v-.54h-.15Z"/><path class="cls-1" d="m3.9,20.88l-.31.83c-.03.08-.07.16-.13.23-.05.05-.12.07-.19.07h-.04v-.1h.04c.09,0,.15-.06.19-.19l-.33-.83v-.05h.12l.27.75h0l.25-.75h.12v.05Z"/><path class="cls-1" d="m3.97,20.94v-.1h.14l.05-.26h.07v.26h.25v.1h-.25v.54c0,.08.06.14.14.14,0,0,0,0,0,0h.16v.1h-.17s-.07,0-.1-.02c-.03-.01-.06-.03-.08-.05-.05-.05-.07-.11-.07-.17v-.54h-.14Z"/><path class="cls-1" d="m4.72,20.83h.12v.66s.01.07.04.1c.03.03.07.04.1.04h.16s.06,0,.09-.02c.02-.02.04-.03.06-.05.02-.02.04-.05.05-.08v-.64h.12v.89h-.08l-.02-.12h0s-.03.05-.05.07c-.02.02-.04.04-.07.05-.03.01-.06.02-.1.02h-.16s-.07,0-.1-.02c-.03-.01-.06-.03-.08-.05-.02-.02-.04-.05-.05-.08-.01-.03-.02-.06-.02-.1v-.66Z"/><path class="cls-1" d="m5.63,20.94v-.1h.14l.05-.26h.07v.26h.25v.1h-.25v.54c0,.08.06.14.14.14,0,0,0,0,0,0h.17v.1h-.17s-.07,0-.1-.02c-.03-.01-.06-.03-.08-.05-.02-.02-.04-.05-.05-.08-.01-.03-.02-.06-.02-.1v-.54h-.14Z"/><path class="cls-1" d="m.86,23.82l-.36-.85h0l-.12,1.02h-.13v-.05l.16-1.16h.16l.37.88h0l.37-.88h.16l.16,1.16v.05h-.13l-.12-1.02h0l-.36.85h-.13Z"/><path class="cls-1" d="m1.97,22.77v.21h-.12v-.21h.12Zm0,.33v.89h-.12v-.89h.12Z"/><path class="cls-1" d="m2.6,23.48l.21-.37h.12v.05l-.23.37.24.41v.05h-.12l-.23-.41h-.24v.41h-.12v-1.22h.12v.71h.24Z"/><path class="cls-1" d="m3.63,23.08v.11h-.17s-.06,0-.09.02c-.02.01-.05.03-.06.05-.02.02-.04.05-.05.07v.64h-.12v-.89h.08l.02.12h0s.03-.05.05-.07c.02-.02.04-.04.07-.05.03-.01.06-.02.09-.02h.17Z"/><path class="cls-1" d="m3.77,23.76v-.43s0-.07.02-.1c.01-.03.03-.06.05-.08.02-.02.05-.04.08-.05.03-.01.07-.02.1-.02h.22s.07,0,.1.02c.03.01.06.03.08.05.02.02.04.05.05.08.01.03.02.06.02.1v.43s0,.07-.02.1c-.01.03-.03.06-.05.08-.02.02-.05.04-.08.05-.03.01-.07.02-.1.02h-.21c-.07,0-.14-.02-.19-.07-.05-.05-.07-.11-.07-.17Zm.12-.43v.43c0,.07.06.14.13.14,0,0,0,0,0,0h.22c.08,0,.14-.06.14-.13,0,0,0,0,0,0v-.43c0-.08-.06-.14-.13-.14,0,0,0,0,0,0h-.22c-.07,0-.14.06-.14.13,0,0,0,0,0,0Z"/><path class="cls-1" d="m5.43,23.99h-.42c-.07,0-.14-.02-.19-.07-.04-.05-.07-.11-.07-.17v-.42s0-.07.02-.1c.01-.03.03-.06.05-.08.02-.02.05-.04.08-.05.03-.01.07-.02.1-.02h.19s.07,0,.1.02c.03.01.06.03.08.05.02.02.04.05.05.08.01.03.02.06.02.1v.27h-.59v.15c0,.08.06.14.14.14,0,0,0,0,0,0h.42v.1Zm-.56-.66v.17h.47v-.17s-.01-.08-.04-.1c-.03-.03-.07-.04-.1-.04h-.19s-.07.01-.1.04c-.03.03-.04.07-.04.1h0Z"/><path class="cls-1" d="m5.72,23.74v-.97h.12v.97c0,.08.06.14.14.14,0,0,0,0,0,0h.03v.1h-.03s-.07,0-.1-.02c-.03-.01-.06-.03-.08-.05-.05-.05-.07-.11-.07-.17h0Z"/><path class="cls-1" d="m6.84,23.99h-.42c-.07,0-.14-.02-.19-.07-.04-.05-.07-.11-.07-.17v-.42c0-.07.03-.13.07-.17.02-.02.05-.04.08-.05.03-.01.07-.02.1-.02h.19s.07,0,.1.02c.03.01.06.03.08.05.02.02.04.05.05.08.01.03.02.06.02.1v.27h-.59v.15c0,.08.06.14.14.14,0,0,0,0,0,0h.42v.1Zm-.56-.66v.17h.47v-.17s-.01-.08-.04-.1c-.03-.03-.07-.04-.1-.04h-.19s-.07.01-.1.04c-.03.03-.04.07-.04.1h0Z"/><path class="cls-1" d="m7.49,23.48l.21-.37h.12v.05l-.23.37.24.41v.05h-.12l-.23-.41h-.24v.41h-.12v-1.22h.12v.71h.24Z"/><path class="cls-1" d="m7.93,23.2v-.1h.14l.05-.26h.07v.26h.25v.1h-.25v.54s.01.07.04.1c.03.03.06.04.1.04h.17v.1h-.17s-.07,0-.1-.02c-.03-.01-.06-.03-.08-.05-.02-.02-.04-.05-.05-.08-.01-.03-.02-.06-.02-.1v-.54h-.14Z"/><path class="cls-1" d="m9.17,23.08v.11h-.16s-.06,0-.09.02c-.02.01-.04.03-.06.05-.02.02-.04.05-.05.07v.64h-.12v-.89h.08l.02.12h0s.03-.05.05-.07c.02-.02.04-.04.07-.05.03-.01.06-.02.1-.02h.16Z"/><path class="cls-1" d="m9.31,23.76v-.43s0-.07.02-.1c.01-.03.03-.06.05-.08.02-.02.05-.04.08-.05.03-.01.07-.02.1-.02h.22s.07,0,.1.02c.03.01.06.03.08.05.02.02.04.05.05.08.01.03.02.06.02.1v.43s0,.07-.02.1c-.01.03-.03.06-.05.08-.02.02-.05.04-.08.05-.03.01-.07.02-.1.02h-.22c-.07,0-.14-.02-.19-.07-.04-.05-.07-.11-.07-.17Zm.12-.43v.43s.01.07.04.1c.03.03.06.04.1.04h.22s.08-.01.1-.04c.03-.03.04-.06.04-.1v-.43s-.01-.08-.04-.1c-.03-.03-.07-.04-.1-.04h-.22s-.07.01-.1.04c-.03.03-.04.07-.04.1h0Z"/><path class="cls-1" d="m11.05,23.99h-.12v-.66s-.01-.08-.04-.1c-.03-.03-.07-.04-.1-.04h-.16s-.06,0-.09.02c-.02.02-.04.03-.06.05-.02.02-.04.05-.05.08v.64h-.12v-.89h.08l.02.12h0s.03-.05.05-.07c.02-.02.04-.04.07-.05.03-.01.06-.02.1-.02h.16s.07,0,.1.02c.03.01.06.03.08.05.02.02.04.05.05.08.01.03.02.06.02.1v.67Z"/><path class="cls-1" d="m11.45,22.77v.21h-.12v-.21h.12Zm0,.33v.89h-.12v-.89h.12Z"/><path class="cls-1" d="m12.08,23.48l.21-.37h.12v.05l-.23.37.24.41v.05h-.12l-.23-.41h-.24v.41h-.12v-1.22h.12v.71h.24Z"/><path class="cls-1" d="m12.74,22.77v.21h-.12v-.21h.12Zm0,.33v.89h-.12v-.89h.12Z"/><path class="cls-1" d="m.4,25.04v.21h-.12v-.21h.12Zm0,.33v.89h-.12v-.89h.12Z"/><path class="cls-1" d="m1.25,26.25h-.13v-1.22h.79v.08l-.03.03h-.62v.49h.49v.11h-.49v.5Z"/><path class="cls-1" d="m2.05,26.03v-.43s0-.07.02-.1c.01-.03.03-.06.05-.08.02-.02.05-.04.08-.05.03-.01.07-.02.1-.02h.22s.07,0,.1.02c.03.01.06.03.08.05.02.02.04.05.05.08.01.03.02.06.02.1v.43s0,.07-.02.1c-.01.03-.03.06-.05.08-.02.02-.05.04-.08.05-.03.01-.07.02-.1.02h-.22c-.07,0-.14-.02-.19-.07-.05-.05-.07-.11-.07-.17Zm.12-.43v.43c0,.07.06.14.13.14,0,0,0,0,0,0h.22s.08-.01.1-.04c.03-.03.04-.07.04-.1v-.43s-.01-.08-.04-.1c-.03-.03-.07-.04-.1-.04h-.22c-.07,0-.14.06-.14.13,0,0,0,0,0,0h0Z"/><path class="cls-1" d="m2.95,25.47v-.1h.14l.05-.26h.07v.26h.25v.1h-.25v.54c0,.08.06.14.14.14,0,0,0,0,0,0h.16v.1h-.16s-.07,0-.1-.02c-.03-.01-.06-.03-.08-.05-.05-.05-.07-.11-.07-.17v-.54h-.14Z"/><path class="cls-1" d="m3.69,26.03v-.43s0-.07.02-.1c.01-.03.03-.06.05-.08.02-.02.05-.04.08-.05.03-.01.07-.02.1-.02h.22s.07,0,.1.02c.03.01.06.03.08.05.02.02.04.05.05.08.01.03.02.06.02.1v.43s0,.07-.02.1c-.01.03-.03.06-.05.08-.02.02-.05.04-.08.05-.03.01-.07.02-.1.02h-.21c-.07,0-.14-.02-.19-.07-.05-.05-.07-.11-.07-.17Zm.13-.43v.43s.01.08.04.1c.03.03.07.04.1.04h.22c.07,0,.14-.06.14-.13,0,0,0,0,0,0v-.43c0-.07-.05-.14-.12-.15,0,0-.02,0-.02,0h-.22s-.08.01-.1.04c-.02.03-.04.06-.03.1Z"/><path class="cls-1" d="m5.42,26.25h-.12v-.66c0-.08-.06-.14-.13-.14,0,0,0,0,0,0h-.16s-.06,0-.09.02c-.02.02-.04.03-.06.05-.02.02-.04.05-.05.08v.64h-.12v-.89h.08l.02.12h0c.03-.05.07-.09.12-.12.03-.01.06-.02.1-.02h.16s.07,0,.1.02c.03.01.06.03.08.05.02.02.04.05.05.08.01.03.02.06.02.1v.66Z"/><path class="cls-1" d="m5.83,25.04v.21h-.12v-.21h.12Zm0,.33v.89h-.12v-.89h.12Z"/><path class="cls-1" d="m6.46,25.74l.21-.37h.12v.05l-.23.37.24.41v.05h-.12l-.23-.41h-.23v.41h-.12v-1.22h.12v.7h.24Z"/><path class="cls-1" d="m7.12,25.04v.21h-.12v-.21h.12Zm0,.33v.89h-.12v-.89h.12Z"/></g></g></svg>