<?xml version="1.0" encoding="UTF-8"?><svg id="Layer_2" xmlns="http://www.w3.org/2000/svg" viewBox="0 0 46.25 14.52"><defs><style>.cls-1{fill:#fff;}</style></defs><g id="Layer_1-2"><g><polygon class="cls-1" points="3.73 14.46 6.85 14.46 6.85 6.22 3.73 3.36 3.73 14.46"/><polygon class="cls-1" points="10.59 14.46 7.47 14.46 7.47 6.22 10.59 3.36 10.59 14.46"/><polygon class="cls-1" points="0 0 0 14.46 3.12 14.46 3.12 2.86 0 0"/><rect class="cls-1" x="13.41" y="3.36" width=".13" height="11.1"/><rect class="cls-1" x="16.14" y="6.24" width=".41" height="3.25"/><path class="cls-1" d="m18.68,8.31v.04l-.69-2.1h-.36v3.25h.37v-2.04s.02.07.03.1c.09.27.16.47.21.6l.28.81c.08.22.13.39.16.49v.05h.38v-3.25h-.38v2.07h0Z"/><path class="cls-1" d="m21.5,8.6c0-.31-.13-.56-.39-.76l-.34-.26c-.16-.12-.26-.23-.29-.31-.03-.07-.04-.13-.04-.19,0-.13.04-.24.11-.33.07-.09.17-.14.3-.14.14,0,.27.07.4.23l.11.13v-.58l-.03-.02c-.16-.12-.34-.17-.52-.17-.29,0-.51.13-.66.38-.09.14-.13.29-.13.45,0,.14.02.27.06.37.07.18.22.36.44.52l.29.21c.18.13.26.3.26.52,0,.13-.04.24-.11.33-.08.1-.17.15-.29.15-.18,0-.33-.08-.46-.24l-.11-.13v.58l.02.02c.14.11.32.17.54.17.16,0,.31-.05.44-.14.26-.18.39-.45.39-.8h0Z"/><polygon class="cls-1" points="23.61 6.24 22.25 6.24 22.25 6.63 22.72 6.63 22.72 9.5 23.13 9.5 23.13 6.63 23.61 6.63 23.61 6.24"/><path class="cls-1" d="m25.48,6.24l-.25.82c-.03.09-.05.15-.05.18l-.05.19s-.02.08-.03.12l-.38-1.31h-.44l.62,1.83v1.42h.41v-1.42l.6-1.83h-.43Z"/><polygon class="cls-1" points="26.59 6.63 27.06 6.63 27.06 9.5 27.47 9.5 27.47 6.63 27.94 6.63 27.94 6.24 26.59 6.24 26.59 6.63"/><path class="cls-1" d="m29.81,8.53c0,.2-.01.35-.04.42-.04.12-.13.18-.28.18-.12,0-.2-.06-.24-.17-.03-.08-.04-.21-.04-.39v-2.33h-.41v2.31c0,.22.02.41.06.55.09.29.31.44.66.44.19,0,.35-.05.45-.14.17-.15.25-.44.25-.89v-2.26h-.41v2.29h0Z"/><polygon class="cls-1" points="31.08 6.63 31.54 6.63 31.54 9.5 31.96 9.5 31.96 6.63 32.43 6.63 32.43 6.24 31.08 6.24 31.08 6.63"/><path class="cls-1" d="m17.51,11.23l-.18,1.02c-.1.57-.17.99-.21,1.24l-.33-2.26h-.36l-.46,3.25h.41v-.05c.09-.73.17-1.38.24-1.95,0-.03,0-.07,0-.09l.31,2.1h.34l.11-.66.14-.8.11-.59s0-.02,0-.04l.11,1.18c.04.42.07.7.08.86v.06h.41l-.4-3.25h-.36Z"/><polygon class="cls-1" points="19.19 14.48 20.29 14.48 20.29 14.09 19.6 14.09 19.6 12.99 20.27 12.99 20.27 12.59 19.6 12.59 19.6 11.61 20.29 11.61 20.29 11.23 19.19 11.23 19.19 14.48"/><polygon class="cls-1" points="21.08 11.61 21.55 11.61 21.55 14.48 21.96 14.48 21.96 11.61 22.43 11.61 22.43 11.23 21.08 11.23 21.08 11.61"/><path class="cls-1" d="m24.58,12.1c0-.45-.15-.73-.44-.83-.09-.03-.21-.04-.38-.04h-.47v3.25h.41v-1.32l.57,1.32h.44l-.69-1.54c.27-.03.56-.21.56-.84h0Zm-.43.18c-.02.14-.06.23-.13.27-.05.03-.14.05-.26.05h-.05v-.98h.08c.15,0,.25.04.3.12.04.07.07.19.07.36,0,.08,0,.14,0,.19h0Z"/><path class="cls-1" d="m26.32,11.17c-.24,0-.42.09-.55.27-.18.27-.28.68-.28,1.23,0,.04,0,.09,0,.16,0,.07,0,.13,0,.16h0s0,.08,0,.12v.02c0,.36.07.69.21.98.12.26.32.39.6.39.3,0,.52-.14.64-.41.13-.29.2-.61.2-.97,0-.05,0-.13,0-.26,0-.12,0-.2,0-.27,0-.18-.02-.39-.06-.63-.1-.54-.35-.81-.77-.81h0Zm0,2.94c-.16,0-.27-.1-.33-.31-.07-.25-.1-.54-.1-.85,0,0,0-.02,0-.04v-.12c0-.56.06-.93.18-1.09.06-.07.13-.11.23-.11s.18.04.24.13c.11.17.17.51.17,1.02v.19c0,.54-.07,1.18-.4,1.18h0Z"/><path class="cls-1" d="m28.6,11.23h-.46v3.25h.41v-1.5h.03c.24,0,.43-.05.56-.14.19-.13.29-.4.29-.78,0-.14-.02-.28-.07-.42-.09-.27-.34-.41-.76-.41h0Zm.34,1.24c-.05.08-.15.12-.3.12h-.09v-.98h.02c.21,0,.34.05.39.16.03.07.05.15.05.25v.1c0,.16-.02.28-.06.35h0Z"/><path class="cls-1" d="m31.06,11.17c-.24,0-.42.09-.55.27-.18.27-.28.68-.28,1.23,0,.04,0,.09,0,.16,0,.07,0,.13,0,.16h0s0,.08,0,.12v.02c0,.36.07.69.21.98.12.26.32.39.6.39.3,0,.52-.14.64-.41.13-.29.2-.61.2-.97,0-.05,0-.13,0-.26,0-.12,0-.2,0-.27,0-.18-.02-.39-.06-.63-.1-.54-.35-.81-.77-.81h0Zm0,2.94c-.16,0-.27-.1-.33-.31-.07-.25-.1-.54-.1-.85,0,0,0-.02,0-.04v-.12c0-.56.06-.93.18-1.09.06-.07.13-.11.23-.11s.18.04.24.13c.11.17.17.51.17,1.02v.19c0,.54-.07,1.18-.4,1.18h0Z"/><polygon class="cls-1" points="33.29 11.23 32.88 11.23 32.88 14.48 33.97 14.48 33.97 14.09 33.29 14.09 33.29 11.23"/><rect class="cls-1" x="34.81" y="11.23" width=".41" height="3.25"/><polygon class="cls-1" points="36.08 11.61 36.55 11.61 36.55 14.48 36.96 14.48 36.96 11.61 37.44 11.61 37.44 11.23 36.08 11.23 36.08 11.61"/><path class="cls-1" d="m38.51,11.23l-.64,3.25h.43l.12-.64h.56l.12.64h.43l-.65-3.25h-.38,0Zm.41,2.23h-.43l.12-.81.08-.56.23,1.37Z"/><polygon class="cls-1" points="40.78 11.23 40.36 11.23 40.36 14.48 41.46 14.48 41.46 14.09 40.78 14.09 40.78 11.23"/><path class="cls-1" d="m43.34,13.29v.04l-.69-2.1h-.36v3.25h.37v-2.04s.02.07.03.1c.09.27.16.47.21.6l.28.81c.08.22.13.39.16.49v.05h.38v-3.25h-.38v2.07h0Z"/><path class="cls-1" d="m45.82,11.23l-.25.82c-.03.09-.05.15-.05.18l-.05.19s-.02.08-.03.12l-.38-1.31h-.44l.62,1.83v1.42h.41v-1.42l.6-1.83h-.43Z"/></g></g></svg>