<?xml version="1.0" encoding="UTF-8"?><svg id="Layer_2" xmlns="http://www.w3.org/2000/svg" xmlns:xlink="http://www.w3.org/1999/xlink" viewBox="0 0 31.98 21.16"><defs><style>.cls-1{fill:none;}.cls-2{clip-path:url(#clippath);}.cls-3{fill:#fff;}</style><clipPath id="clippath"><rect class="cls-1" y="0" width="31.97" height="21.16"/></clipPath></defs><g id="Layer_1-2"><g><path class="cls-3" d="m22.2,10.65l-1.49-2.5c.24-.07.46-.17.66-.31.2-.14.37-.3.51-.49.14-.19.25-.39.33-.61.08-.22.12-.45.12-.69,0-.29-.05-.57-.16-.83-.11-.26-.26-.49-.45-.69-.19-.2-.41-.36-.67-.48-.26-.12-.54-.18-.84-.18h-2.89s-.05,0-.07.01c-.02,0-.03.02-.03.04,0,.02,0,.05.03.07l.15.25c.13.22.37.37.63.38.29.01.61.03.61.03h1.57c.19,0,.36.04.52.12.16.08.3.18.42.31.12.13.21.28.28.44.07.17.1.33.1.51s-.03.33-.1.49c-.07.16-.16.3-.27.43-.12.12-.25.23-.4.31-.11.06-.81.25-1.05.29-.14.02-.21.18-.14.3.43.7,1.64,2.73,1.64,2.73.03.05.06.08.09.11.03.03.07.04.12.04h.72c.06,0,.09,0,.09-.02,0,0,0-.02-.01-.04,0-.02-.02-.03-.03-.05h0Z"/><path class="cls-3" d="m20.21,4.64c.19,0,.37.04.53.12.16.08.31.19.43.32.12.13.22.28.29.45.07.17.1.34.1.52s-.03.34-.1.5c-.07.16-.16.31-.28.43-.12.13-.25.23-.41.32-.12.06-.82.26-1.06.3-.06.01-.11.05-.13.1-.03.06-.02.12.01.17.42.69,1.63,2.71,1.64,2.73.03.04.06.08.09.1.03.02.07.04.11.04h.72s.06,0,.07,0c0,0,0-.01,0-.02,0-.01-.02-.03-.02-.04h0s-1.51-2.52-1.51-2.52h.03c.23-.07.45-.18.65-.31.2-.14.37-.3.51-.48.14-.18.25-.39.33-.61.08-.22.12-.45.12-.68,0-.29-.05-.56-.16-.82-.11-.26-.26-.49-.44-.69-.19-.2-.41-.35-.67-.47-.26-.12-.53-.18-.83-.18h-2.89s-.04,0-.06.01c-.02,0-.02.02-.02.02,0,.02,0,.04.02.06l.15.25c.13.22.36.36.61.37.29.01.61.03.61.03h1.57Zm1.94,6.13h-.72c-.05,0-.1-.01-.13-.04-.04-.03-.07-.06-.1-.11-.01-.02-1.22-2.04-1.64-2.73-.04-.06-.04-.14-.01-.21.03-.07.09-.11.17-.13.25-.04.94-.23,1.04-.29.15-.08.28-.19.4-.31.11-.12.2-.26.27-.42.06-.16.1-.32.1-.48s-.03-.34-.1-.5c-.07-.16-.16-.31-.28-.44-.12-.13-.26-.23-.42-.31-.16-.08-.33-.12-.51-.12h-1.57s-.32-.01-.61-.03c-.27-.01-.51-.16-.65-.39l-.15-.25s-.03-.06-.03-.08c0-.02,0-.05.05-.06.02-.01.05-.02.08-.02h2.89c.3,0,.59.06.85.18.26.12.49.28.68.48.19.2.34.44.45.7.11.26.16.54.16.84,0,.24-.04.47-.12.69-.08.22-.19.43-.34.62-.14.19-.32.35-.52.49-.19.13-.41.24-.64.31l1.48,2.48s.02.03.03.05c0,.02.01.03.01.05,0,.03-.04.04-.11.04h0Z"/><path class="cls-3" d="m25.94,21.11l-.26-.44s.08-.03.12-.05c.04-.02.07-.05.09-.09.03-.03.04-.07.06-.11.01-.04.02-.08.02-.12,0-.05,0-.1-.03-.15-.02-.05-.05-.09-.08-.12s-.07-.06-.12-.08c-.05-.02-.09-.03-.15-.03h-.51s0,0-.01,0c0,0,0,0,0,0,0,0,0,0,0,.01l.03.04s.07.06.11.07c.05,0,.11,0,.11,0h.28s.06,0,.09.02c.03.01.05.03.07.06.02.02.04.05.05.08.01.03.02.06.02.09s0,.06-.02.09c-.01.03-.03.05-.05.08-.02.02-.04.04-.07.06-.02.01-.14.04-.18.05-.02,0-.04.03-.02.05.07.12.29.48.29.48,0,0,.01.01.02.02,0,0,.01,0,.02,0h.13s.02,0,.02,0c0,0,0,0,0,0,0,0,0,0,0,0h0Z"/><path class="cls-3" d="m25.58,20.04s.07,0,.1.02c.03.02.06.04.08.06.02.02.04.05.05.08.01.03.02.06.02.1s0,.06-.02.09c-.01.03-.03.06-.05.08-.02.02-.05.04-.08.06-.02.01-.15.05-.19.05,0,0,0,0-.01,0,0,0,0,0,0,.01.07.12.29.48.29.48,0,0,0,.01.01.01,0,0,0,0,0,0h.11l-.27-.45h.03s.08-.04.11-.06c.03-.02.06-.05.09-.08.02-.03.04-.07.06-.1.01-.04.02-.08.02-.11,0-.05,0-.09-.03-.14-.02-.04-.04-.08-.07-.12-.03-.03-.07-.06-.11-.08-.04-.02-.09-.03-.14-.03h-.5l.02.03s.06.05.09.06c.05,0,.11,0,.11,0h.28Zm.34,1.11h-.13s-.02,0-.03-.01c0,0-.02-.01-.02-.02,0,0-.21-.36-.29-.48,0-.02-.01-.04,0-.05,0-.02.02-.03.04-.03.04,0,.16-.04.18-.05.02-.01.05-.03.07-.05.02-.02.03-.04.04-.07.01-.03.02-.05.02-.08s0-.05-.02-.08c-.01-.03-.03-.05-.05-.07-.02-.02-.04-.04-.07-.05-.03-.01-.05-.02-.08-.02h-.28s-.06,0-.11,0c-.05,0-.1-.03-.13-.08l-.03-.04s0-.02,0-.02c0-.01,0-.02.02-.03,0,0,.01,0,.02,0h.51c.06,0,.11.01.16.03.05.02.09.05.13.09.04.04.06.08.08.13.02.05.03.1.03.15,0,.04,0,.09-.02.13-.01.04-.04.08-.06.11-.03.03-.06.06-.1.09-.03.02-.06.04-.1.05l.25.42s0,0,0,0c0,0,0,.01,0,.02,0,.02-.01.02-.04.02h0Z"/><path class="cls-3" d="m6.38,9.9c.06,0,.11.02.16.06.05.04.07.11.07.19v.46c0,.07-.02.12-.06.16-.04.04-.1.06-.16.06H.25c-.15,0-.23-.08-.23-.23V.53c0-.07.02-.12.06-.16.04-.04.1-.06.18-.06h.46c.07,0,.12.02.16.05.04.04.06.09.06.17v9.37h5.43Z"/><path class="cls-3" d="m.26.32c-.07,0-.13.02-.17.06-.04.04-.05.09-.05.15v10.08c0,.14.07.21.21.21h6.14c.06,0,.11-.02.15-.06.04-.04.06-.09.06-.15v-.46c0-.08-.02-.14-.06-.18-.04-.04-.09-.06-.14-.06H.93V.53c0-.07-.02-.13-.06-.16-.04-.03-.09-.05-.15-.05h-.46Zm6.12,10.54H.25c-.16,0-.25-.09-.25-.25V.53c0-.07.02-.13.07-.18.04-.05.11-.07.2-.07h.46c.07,0,.13.02.18.06.05.04.07.1.07.19v9.35h5.41c.06,0,.12.02.17.07.05.05.08.12.08.21v.46c0,.07-.02.13-.07.18-.05.05-.11.07-.18.07h0Z"/><path class="cls-3" d="m6,3.35c.06,0,.12,0,.18.01.18.02.34-.11.34-.3V.25c0-.08-.02-.14-.06-.17-.04-.04-.1-.05-.16-.05h-.46c-.08,0-.14.02-.18.06-.04.04-.06.1-.06.16v2.84c0,.14.12.26.26.26h.14Z"/><path class="cls-3" d="m6,3.33h0c.06,0,.13,0,.19.01.08,0,.16-.02.23-.07.06-.05.09-.13.09-.21V.25c0-.07-.02-.13-.06-.16-.04-.03-.09-.05-.15-.05h-.46c-.07,0-.13.02-.17.06-.04.04-.05.09-.05.15v2.84c0,.06.03.12.07.17.05.05.11.07.17.07h.14Zm.22.05s-.03,0-.04,0c-.06,0-.12-.01-.18-.01h-.14s0,0,0,0c-.08,0-.15-.03-.2-.08-.05-.05-.08-.12-.08-.2V.25c0-.07.02-.13.07-.18C5.68.02,5.75,0,5.83,0h.46c.07,0,.13.02.18.06.05.04.07.1.07.19v2.82c0,.09-.04.18-.11.24-.06.05-.14.08-.22.08h0Z"/><g class="cls-2"><path class="cls-3" d="m27.41,1.24v9.37c0,.08-.02.14-.06.17-.04.04-.1.05-.16.05h-.46c-.08,0-.14-.02-.18-.06-.04-.04-.06-.1-.06-.16V.53c0-.15.08-.23.23-.23h5.02c.07,0,.12.02.16.06.04.04.06.1.06.16v.46c0,.09-.02.15-.07.19-.05.04-.1.06-.16.06h-4.32Z"/><path class="cls-3" d="m26.71.32c-.14,0-.21.07-.21.21v10.08c0,.06.02.11.05.15.04.04.09.06.17.06h.46c.06,0,.11-.02.15-.05.04-.03.06-.08.06-.16V1.22h4.34c.05,0,.1-.02.14-.06.04-.04.06-.1.06-.18v-.46c0-.06-.02-.11-.06-.15-.04-.04-.09-.06-.15-.06h-5.02Zm.47,10.54h-.46c-.09,0-.15-.02-.2-.07-.04-.05-.07-.11-.07-.18V.53c0-.16.09-.25.25-.25h5.02c.07,0,.13.02.18.07.05.05.07.11.07.18v.46c0,.09-.03.16-.08.21-.05.05-.11.07-.17.07h-4.3v9.35c0,.09-.02.15-.07.19-.05.04-.11.06-.18.06h0Z"/></g><path class="cls-3" d="m24.04,17.28v1.08s0,.02,0,.02c0,0-.01,0-.02,0h-.05s-.02,0-.02,0c0,0,0-.01,0-.02v-1.16s0-.03.03-.03h.58s.01,0,.02,0c0,0,0,.01,0,.02v.05s0,.02,0,.02c0,0-.01,0-.02,0h-.5Z"/><path class="cls-3" d="m23.97,18.34h.02v-1.1h.52v-.02h-.55v1.13h0Zm.04.08h-.05s-.04-.01-.05-.02c-.01-.01-.02-.03-.02-.05v-1.16s.03-.07.07-.07h.58s.04,0,.05.02c.01.01.02.03.02.05v.05s-.01.04-.02.05c-.01.01-.03.02-.05.02h-.45v1.03s-.01.04-.02.05c-.01.01-.03.02-.05.02h0Z"/><path class="cls-3" d="m22.53,14.47v1.08s0,.02,0,.02c0,0-.01,0-.02,0h-.05s-.02,0-.02,0c0,0,0-.01,0-.02v-1.16s0-.03.03-.03h.58s.01,0,.02,0c0,0,0,.01,0,.02v.05s0,.02,0,.02c0,0-.01,0-.02,0h-.5Z"/><path class="cls-3" d="m22.46,15.53h.02v-1.1h.52v-.02h-.55v1.13h0Zm.04.08h-.05s-.04-.01-.05-.02c-.01-.01-.02-.03-.02-.05v-1.16s.03-.07.07-.07h.58s.04,0,.05.02c.01.01.02.03.02.05v.05s-.01.04-.02.05c-.01.01-.03.02-.05.02h-.45v1.03s-.01.04-.02.05c-.01.01-.03.02-.05.02h0Z"/><path class="cls-3" d="m15.82,10.6s0-.03,0-.04v-.05s0,0,0,0c-.22-.54-.45-1.08-.69-1.63-.24-.54-.48-1.09-.72-1.63-.24-.54-.48-1.08-.72-1.63-.24-.54-.47-1.08-.69-1.63,0,0-.01-.02-.02-.04s-.01-.03-.03-.05c-.01-.02-.03-.03-.06-.04-.02-.01-.06-.02-.1-.02h-.03c-.08,0-.13.01-.15.04-.02.03-.04.06-.05.08l-2.86,6.53s0,.02,0,.03c0,.01,0,.04,0,.08,0,.08.06.12.17.12h.5c.14,0,.26-.08.31-.21.4-.99,2.09-4.76,2.09-4.76,0,0,1.68,3.75,2.1,4.75.06.13.18.22.33.22h.47c.11,0,.17-.04.17-.12,0,0,0-.02,0-.03h0Z"/><path class="cls-3" d="m12.75,5.73l.02.04s1.68,3.76,2.1,4.75c.05.12.17.2.31.2h.47c.13,0,.15-.05.15-.09,0,0,0-.01,0-.02h0s0-.03,0-.04v-.06c-.23-.53-.46-1.07-.7-1.61-.24-.55-.49-1.1-.72-1.63-.24-.54-.48-1.08-.72-1.63-.24-.53-.47-1.08-.69-1.63,0,0-.01-.02-.02-.04,0-.01-.01-.03-.02-.04-.01-.01-.03-.02-.05-.03-.02,0-.05-.01-.09-.01h-.03c-.09,0-.12.02-.13.04-.02.03-.04.05-.05.08l-2.86,6.52s0,.01,0,.02c0,0,0,.03,0,.08,0,.04.02.09.15.09h.5c.13,0,.25-.08.29-.2.4-.98,2.08-4.72,2.09-4.76l.02-.04h0Zm2.9,5.04h-.47c-.15,0-.29-.09-.35-.23-.4-.93-1.9-4.29-2.09-4.71-.19.42-1.7,3.79-2.07,4.72-.05.14-.19.22-.33.22h-.5c-.16,0-.19-.07-.19-.14,0-.05,0-.07,0-.09,0-.01,0-.02.01-.03l2.86-6.52s.03-.05.05-.08c.03-.04.08-.05.17-.05h.03s.08,0,.11.02c.03.01.05.03.06.05.01.02.02.04.03.06,0,.02.01.03.01.03.23.55.46,1.1.69,1.63.24.54.48,1.08.72,1.63.23.53.48,1.07.72,1.63.24.54.47,1.09.69,1.63l.04.1-.03-.03s0,.01,0,.02h0s0,.03,0,.03c0,.06-.03.14-.19.14h0Z"/><path class="cls-3" d="m19.15,15.35l.05-.06s.05-.03.07,0c.1.08.21.13.35.13s.22-.06.22-.16h0c0-.09-.05-.14-.28-.19-.26-.06-.41-.14-.41-.36h0c0-.21.17-.35.41-.35.15,0,.28.04.39.11.03.02.04.06.01.09l-.05.07s-.04.02-.06,0c-.1-.07-.2-.1-.3-.1-.13,0-.21.07-.21.15h0c0,.1.06.15.3.2.26.06.39.16.39.35h0c0,.23-.18.36-.43.36-.16,0-.32-.05-.45-.15-.03-.02-.04-.07-.01-.1h0Z"/><path class="cls-3" d="m20.62,15.39l.7-.85h-.64s-.06-.03-.06-.06v-.08s.02-.04.04-.04h.87s.06.03.06.06v.09l-.73.89h.67s.05.02.05.05v.07s-.03.06-.06.06h-.89s-.05-.02-.05-.05v-.05s.01-.06.03-.09h0Z"/><path class="cls-3" d="m23.65,15.06v-.65s.02-.05.05-.05h.09s.07.03.07.07v.63c0,.23.12.35.32.35s.31-.12.31-.34v-.64s.03-.06.06-.06h.08s.07.03.07.07v.62c0,.36-.21.54-.52.54s-.52-.18-.52-.53h0Z"/><path class="cls-3" d="m25.58,14.88l.46-.47s0-.05-.02-.05h-.13s-.07.01-.09.04l-.4.42v.04s-.01,0-.01.01c0,.03,0,.09,0,.09,0,0,.06.06.06.06l.39.51s.05.04.09.04h.12s.05-.04.03-.06l-.48-.63h0Z"/><path class="cls-3" d="m19.12,20.46l.51-.52h-.26l-.44.46v.04s-.01,0-.01.01c0,.03,0,.09,0,.09,0,0,.06.06.06.06l.42.55h.25l-.53-.69h0Z"/><path class="cls-3" d="m27.2,14.35h-.13s-.03.01-.04.03l-.51,1.16s0,.04.02.04h.14s.03-.01.04-.03l.12-.27.08-.18.22-.5.22.5.08.18.12.27s.02.03.04.03h.14s.04-.02.03-.04l-.51-1.15s-.02-.03-.04-.03h0Z"/><path class="cls-3" d="m27.2,17.12h-.13s-.03.01-.04.03l-.51,1.16s0,.04.02.04h.14s.03-.01.04-.03l.12-.27.08-.18.22-.5.22.5.08.18.12.27s.02.03.04.03h.14s.04-.02.03-.04l-.51-1.15s-.02-.03-.04-.03h0Z"/><path class="cls-3" d="m22.72,17.12h-.13s-.03.01-.04.03l-.51,1.16s0,.04.02.04h.14s.03-.01.04-.03l.12-.27.08-.18.22-.5.22.5.08.18.12.27s.02.03.04.03h.14s.04-.02.03-.04l-.51-1.15s-.02-.03-.04-.03h0Z"/><path class="cls-3" d="m18.07,16.8l.09.04s.03.04,0,.06l-.14.11s-.04.02-.07.02h-.06s-.04-.03-.02-.05l.12-.16s.05-.03.08-.02h0Zm-.61,1.35l.06-.07s.05-.03.08,0c.1.08.21.13.35.13s.22-.06.22-.16h0c0-.09-.05-.14-.28-.19-.26-.06-.41-.14-.41-.36h0c0-.21.17-.35.41-.35.16,0,.28.04.4.12.02.02.03.05.01.08l-.06.08s-.04.02-.06.01c-.1-.07-.2-.1-.3-.1-.13,0-.21.07-.21.15h0c0,.1.06.15.3.2.26.06.39.16.39.35h0c0,.23-.18.36-.43.36-.17,0-.33-.05-.47-.16-.02-.02-.02-.05,0-.06h0Z"/><path class="cls-3" d="m18.88,17.14h.12s.05.02.06.05l.28.87.28-.86s.04-.06.08-.06h.04s.08.03.1.07l.28.85.28-.85s.05-.06.08-.06h.1s.04.02.03.04l-.39,1.12s-.04.06-.08.06h-.06s-.06-.02-.07-.05l-.28-.84-.28.83s-.04.06-.08.06h-.06s-.06-.02-.07-.05l-.39-1.12s.01-.05.04-.05h0Z"/><path class="cls-3" d="m21.29,17.14h.06s.07.03.07.07v1.07s-.03.07-.07.07h-.07s-.06-.03-.06-.06v-1.09s.03-.07.07-.07h0Z"/><path class="cls-3" d="m25.39,17.81v.36h.59s.06.03.06.06v.06s-.03.07-.07.07h-.71s-.07-.03-.07-.07v-.38l-.07.03s-.06,0-.06-.04v-.08s.02-.06.05-.07l.08-.04v-.51s.02-.06.06-.06h.08s.07.03.07.07v.41l.23-.1s.05,0,.05.04v.08s-.02.06-.05.07l-.24.11h0Z"/><polygon class="cls-3" points="17.47 19.93 17.68 19.93 17.68 21.14 17.47 21.14 17.47 19.93 17.47 19.93"/><path class="cls-3" d="m21.19,20.54h0c0-.24-.18-.44-.42-.44s-.42.2-.42.44h0c0,.24.18.44.42.44s.42-.2.42-.44h0Zm-1.05,0h0c0-.34.26-.63.64-.63s.63.28.63.62h0c0,.34-.26.63-.64.63s-.63-.28-.63-.63h0Z"/><polygon class="cls-3" points="22.02 19.93 22.22 19.93 22.22 20.96 22.87 20.96 22.87 21.14 22.02 21.14 22.02 19.93 22.02 19.93"/><path class="cls-3" d="m24.36,20.54h0c0-.24-.18-.44-.42-.44s-.42.2-.42.44h0c0,.24.18.44.42.44s.42-.2.42-.44h0Zm-1.05,0h0c0-.34.26-.63.64-.63s.63.28.63.62h0c0,.34-.26.63-.64.63s-.63-.28-.63-.63h0Z"/><path class="cls-3" d="m26.65,20.63v-.7h.21v.69c0,.23.12.35.32.35s.31-.12.31-.34v-.7h.21v.69c0,.36-.21.54-.52.54s-.52-.18-.52-.53h0Z"/></g></g></svg>