<?xml version="1.0" encoding="UTF-8"?><svg id="Layer_2" xmlns="http://www.w3.org/2000/svg" viewBox="0 0 18.21 29.12"><defs><style>.cls-1,.cls-2{font-family:ArialMT, Arial;}.cls-3{font-size:2.86px;letter-spacing:.05em;}.cls-3,.cls-4,.cls-5,.cls-2{fill:#fff;}.cls-5{stroke:#fff;stroke-miterlimit:10;stroke-width:.09px;}.cls-6{font-family:Arial-BoldMT, Arial;font-weight:700;}.cls-2{font-size:2.07px;letter-spacing:.05em;}</style></defs><g id="Layer_1-2"><g><g><path class="cls-4" d="m8.42,4.78v-2.26c-.28.03-.55.08-.82.15l.82,2.11Z"/><path class="cls-4" d="m9.8,4.77l.81-2.1c-.27-.07-.54-.12-.81-.15v2.25Z"/><path class="cls-4" d="m11.08,5.27l1.52-1.67c-.23-.16-.46-.31-.71-.44l-.82,2.11Z"/><path class="cls-4" d="m5.61,3.6l1.52,1.67-.82-2.11c-.25.13-.48.28-.71.44Z"/><path class="cls-4" d="m4.6,4.53c-.18.21-.35.43-.5.66l2.02,1.01-1.52-1.67Z"/><path class="cls-4" d="m4.6,4.53c-.18.21-.35.43-.5.66l2.02,1.01-1.52-1.67Z"/><path class="cls-4" d="m12.71,7.43l2.25-.21c-.06-.27-.13-.54-.23-.8l-2.02,1.01Z"/><path class="cls-4" d="m15.01,9.41c.04-.27.07-.55.08-.83l-2.25.21,2.18.62Z"/><path class="cls-4" d="m12.09,6.2l2.02-1.01c-.15-.23-.32-.45-.5-.66l-1.52,1.67Z"/><path class="cls-4" d="m12.82,13.14c.22-.17.42-.36.61-.56l-1.81-1.36,1.19,1.92Z"/><polygon class="cls-4" points="9.11 8.45 9.11 8.45 9.11 8.45 9.11 8.45"/><path class="cls-4" d="m11.65,13.87l-1.19-1.92.42,2.22c.27-.08.52-.18.78-.3Z"/><path class="cls-4" d="m7.34,14.17l.41-2.22-1.19,1.92c.25.12.51.22.78.3Z"/><polygon class="cls-4" points="9.11 8.45 9.11 8.45 9.11 8.45 9.11 8.45"/><path class="cls-4" d="m3.48,6.42c-.09.26-.17.53-.23.8l2.25.21-2.03-1.01Z"/><path class="cls-4" d="m14.27,11.48c.14-.24.26-.49.37-.74l-2.18-.62,1.81,1.36Z"/><path class="cls-4" d="m8.7,14.42c.14,0,.28.01.41.01s.28,0,.42-.02l-.42-2.22-.41,2.22Z"/><path class="cls-4" d="m4.78,12.58c.19.2.4.39.61.56l1.19-1.92-1.8,1.36Z"/><rect class="cls-4" x="9.11" y="8.45" width="0" height="0"/><path class="cls-4" d="m3.13,8.59c0,.28.03.55.08.83l2.18-.62-2.25-.21Z"/><path class="cls-4" d="m5.76,10.12l-2.18.62c.11.26.23.51.37.74l1.8-1.36Z"/><circle class="cls-4" cx="9.11" cy="8.45" r="2.84"/><path class="cls-4" d="m9.11,5.05c.09,0,.15-.07.15-.15V1.35c-.05,0-.1,0-.15,0s-.1,0-.15,0v3.55c0,.09.07.15.15.15Z"/><path class="cls-4" d="m9.26.93V.15c0-.09-.07-.15-.15-.15s-.15.07-.15.15v.78c.05,0,.1,0,.15,0s.1,0,.15,0Z"/><path class="cls-4" d="m6.23.66c-.03-.08-.12-.12-.2-.09-.08.03-.12.12-.09.2l.28.73c.09-.04.19-.08.29-.11l-.28-.73Z"/><path class="cls-4" d="m7.8,5.3s.04,0,.06-.01c.08-.03.12-.12.09-.2l-1.28-3.31c-.1.04-.19.07-.29.11l1.28,3.3c.02.06.08.1.14.1Z"/><path class="cls-4" d="m6.67,6s.07-.01.1-.04c.06-.06.07-.15.01-.22l-2.38-2.61c-.08.07-.15.14-.23.21l2.37,2.6s.07.05.11.05Z"/><path class="cls-4" d="m3.58,2.24c-.06-.06-.15-.07-.22-.01-.06.06-.07.15-.01.22l.54.59c.07-.07.15-.14.23-.21l-.54-.59Z"/><path class="cls-4" d="m5.86,7.06c.06,0,.11-.03.14-.09.04-.08,0-.17-.07-.21l-3.14-1.56c-.05.09-.09.18-.14.28l3.14,1.56s.05.02.07.02Z"/><path class="cls-4" d="m1.68,4.66c-.08-.04-.17,0-.21.07-.04.08,0,.17.07.21l.73.36c.04-.09.09-.19.14-.28l-.73-.36Z"/><path class="cls-4" d="m5.5,8.35c.08,0,.15-.06.15-.14,0-.08-.05-.16-.14-.17l-3.47-.32c-.01.1-.02.2-.02.31l3.47.32s0,0,.01,0Z"/><path class="cls-4" d="m.79,7.6c-.08,0-.16.05-.17.14s.05.16.14.17l.84.08c0-.1.01-.21.02-.31l-.83-.08Z"/><path class="cls-4" d="m5.77,9.48c-.02-.08-.11-.13-.19-.11l-3.33.95c.03.1.06.2.09.3l3.32-.95c.08-.02.13-.11.11-.19Z"/><path class="cls-4" d="m1.02,10.67c-.08.02-.13.11-.11.19.02.07.08.11.15.11.01,0,.03,0,.04,0l.83-.24c-.03-.1-.06-.2-.09-.3l-.83.24Z"/><path class="cls-4" d="m2.34,13.45c-.07.05-.08.15-.03.22.03.04.08.06.12.06.03,0,.06-.01.09-.03l.71-.54c-.06-.08-.13-.16-.19-.24l-.71.54Z"/><path class="cls-4" d="m6.34,10.62c-.05-.07-.15-.08-.22-.03l-2.74,2.07c.06.08.12.16.19.24l2.74-2.07c.07-.05.08-.15.03-.22Z"/><path class="cls-4" d="m7.28,11.48c-.07-.04-.17-.02-.21.05l-1.8,2.9c.09.06.17.11.26.16l1.8-2.9c.04-.07.02-.17-.05-.21Z"/><path class="cls-4" d="m4.57,15.56c-.04.07-.02.17.05.21.03.02.05.02.08.02.05,0,.1-.03.13-.07l.48-.77c-.09-.05-.18-.11-.26-.16l-.48.77Z"/><path class="cls-4" d="m7.42,16.73c-.02.08.04.16.12.18,0,0,.02,0,.03,0,.07,0,.14-.05.15-.13l.17-.9c-.1-.02-.2-.03-.3-.05l-.17.9Z"/><path class="cls-4" d="m8.47,11.94c-.08-.01-.16.04-.18.12l-.62,3.35c.1.02.2.04.3.05l.62-3.35c.02-.08-.04-.16-.12-.18Z"/><path class="cls-4" d="m9.75,11.94c-.08.02-.14.1-.12.18l.63,3.35c.1-.02.2-.03.3-.06l-.63-3.35c-.02-.08-.1-.14-.18-.12Z"/><path class="cls-4" d="m10.5,16.78c.01.07.08.13.15.13,0,0,.02,0,.03,0,.08-.02.14-.1.12-.18l-.17-.9c-.1.02-.2.04-.3.05l.17.9Z"/><path class="cls-4" d="m13.39,15.72s.08.07.13.07c.03,0,.06,0,.08-.02.07-.04.09-.14.05-.21l-.48-.77c-.09.06-.17.11-.26.16l.48.77Z"/><path class="cls-4" d="m10.94,11.48c-.07.04-.09.14-.05.21l1.8,2.9c.09-.05.18-.11.26-.16l-1.8-2.9c-.04-.07-.14-.09-.21-.05Z"/><path class="cls-4" d="m11.88,10.62c-.05.07-.04.16.03.22l2.74,2.06c.06-.08.13-.16.19-.24l-2.74-2.07c-.07-.05-.16-.04-.22.03Z"/><path class="cls-4" d="m15.7,13.69s.06.03.09.03c.05,0,.09-.02.12-.06.05-.07.04-.16-.03-.22l-.71-.54c-.06.08-.12.16-.19.24l.71.54Z"/><path class="cls-4" d="m17.12,10.96s.03,0,.04,0c.07,0,.13-.04.15-.11.02-.08-.02-.17-.11-.19l-.83-.24c-.03.1-.05.2-.09.3l.83.24Z"/><path class="cls-4" d="m12.45,9.47c-.02.08.02.17.11.19l3.32.94c.03-.1.06-.2.09-.3l-3.33-.94c-.08-.02-.17.02-.19.11Z"/><path class="cls-4" d="m12.57,8.2c0,.08.07.14.15.14,0,0,0,0,.01,0l3.47-.32c0-.1-.01-.21-.02-.31l-3.47.32c-.08,0-.15.08-.14.17Z"/><path class="cls-4" d="m17.43,7.59l-.83.08c.01.1.02.2.02.31l.84-.08c.08,0,.15-.08.14-.17,0-.08-.08-.15-.17-.14Z"/><path class="cls-4" d="m16.67,4.93c.08-.04.11-.13.07-.21s-.13-.11-.21-.07l-.73.36c.05.09.09.18.14.28l.73-.37Z"/><path class="cls-4" d="m12.22,6.97c.03.05.08.09.14.09.02,0,.05,0,.07-.02l3.14-1.57c-.04-.09-.09-.19-.14-.28l-3.14,1.57c-.08.04-.11.13-.07.21Z"/><path class="cls-4" d="m11.45,5.96s.07.04.1.04c.04,0,.08-.02.11-.05l2.37-2.61c-.07-.07-.15-.14-.23-.21l-2.37,2.61c-.06.06-.05.16.01.22Z"/><path class="cls-4" d="m14.86,2.44c.06-.06.05-.16-.01-.22-.06-.06-.16-.05-.22.01l-.54.59c.08.07.15.14.23.21l.54-.59Z"/><path class="cls-4" d="m12.27.77c.03-.08,0-.17-.09-.2-.08-.03-.17,0-.2.09l-.28.73c.1.04.19.07.29.11l.28-.73Z"/><path class="cls-4" d="m10.36,5.29s.04.01.06.01c.06,0,.12-.04.14-.1l1.28-3.3c-.09-.04-.19-.08-.29-.11l-1.28,3.31c-.03.08,0,.17.09.2Z"/></g><text class="cls-3" transform="translate(.32 20.77)"><tspan class="cls-1"><tspan x="0" y="0">International</tspan></tspan><tspan class="cls-6"><tspan x="-.32" y="3.17">Day of Light</tspan></tspan></text><text class="cls-2" transform="translate(5.4 28.45)"><tspan x="0" y="0">16 May</tspan></text><line class="cls-5" x1=".17" y1="25.51" x2="18.16" y2="25.51"/></g></g></svg>