<?xml version="1.0" encoding="UTF-8"?><svg id="Layer_2" xmlns="http://www.w3.org/2000/svg" viewBox="0 0 32.27 22.18"><defs><style>.cls-1{fill:#fff;}</style></defs><g id="Layer_1-2"><g><g id="Layer_1-3"><path class="cls-1" d="m.19,22.18c-.11,0-.19-.09-.19-.19v-2.33c0-.11.09-.19.19-.19.05,0,.1.02.14.06l.64.64.64-.64s.08-.06.14-.06c.05,0,.1.02.14.06.04.04.06.08.06.14v2.33c0,.11-.09.19-.19.19-.11,0-.19-.09-.19-.19v-1.87l-.45.46s-.08.06-.14.06c-.05,0-.1-.02-.14-.06l-.45-.45v1.87c0,.11-.09.19-.19.19Z"/><path class="cls-1" d="m2.92,22.18c-.32,0-.58-.26-.58-.58v-1.56c0-.32.26-.58.58-.58h.78c.32,0,.58.26.58.58v1.56c0,.32-.26.58-.58.58h-.78Zm.97-2.14c0-.05-.02-.1-.06-.14-.04-.04-.08-.06-.14-.06h-.78c-.05,0-.1.02-.14.06-.04.04-.06.08-.06.14v1.56c0,.11.09.19.19.19h.78c.11,0,.19-.09.19-.19v-1.56Z"/><path class="cls-1" d="m4.86,22.18c-.11,0-.19-.09-.19-.19v-2.33c0-.05.02-.1.06-.14.04-.04.08-.06.14-.06.05,0,.1.02.14.06l1.22,1.22v-1.09c0-.05.02-.1.06-.14.04-.04.08-.06.14-.06.11,0,.19.09.19.19v2.33c0,.11-.09.19-.19.19-.11,0-.19-.09-.19-.19v-.7l-1.17-1.17v1.87c0,.11-.09.19-.19.19Z"/><path class="cls-1" d="m7.58,22.18c-.32,0-.58-.26-.58-.58v-1.56c0-.32.26-.58.58-.58h.78c.32,0,.58.26.58.58v1.56c0,.15-.06.3-.18.41-.11.11-.25.18-.41.17h-.78Zm.97-2.14c0-.05-.02-.1-.06-.14-.04-.04-.08-.06-.14-.06h-.78c-.05,0-.1.02-.14.06-.04.04-.06.08-.06.14v1.56c0,.05.02.1.06.14.04.04.08.06.14.06h.78c.05,0,.1-.02.14-.06.04-.04.06-.08.06-.14v-1.56Z"/><path class="cls-1" d="m9.91,22.18c-.32,0-.58-.26-.58-.58v-1.56c0-.32.26-.58.58-.58h.78c.32,0,.58.26.58.58,0,.05-.02.1-.06.14-.04.04-.08.06-.14.06-.05,0-.1-.02-.14-.06-.04-.04-.06-.08-.06-.14,0-.05-.02-.1-.06-.14-.04-.04-.08-.06-.14-.06h-.78c-.05,0-.1.02-.14.06-.04.04-.06.08-.06.14v1.56c0,.11.09.19.19.19h.78c.11,0,.19-.09.19-.19,0-.05.02-.1.06-.14.04-.04.08-.06.14-.06.11,0,.19.09.19.19,0,.32-.26.58-.58.58h-.78Z"/><path class="cls-1" d="m13.61,19.65v2.33c0,.11-.09.19-.19.19-.11,0-.19-.09-.19-.19v-.97h-1.17v.97c0,.11-.09.19-.19.19-.11,0-.19-.09-.19-.19v-2.33c0-.05.02-.1.06-.14.04-.04.08-.06.14-.06.11,0,.19.09.19.19v.97h1.17v-.97c0-.11.09-.19.19-.19.11,0,.19.09.19.19Z"/><path class="cls-1" d="m15.75,22.18c-.11,0-.19-.09-.19-.19v-.78c0-.05-.02-.1-.06-.14-.04-.04-.08-.06-.14-.06h-.97v.97c0,.05-.02.1-.06.14-.07.08-.19.08-.27,0,0,0,0,0,0,0-.04-.04-.06-.08-.06-.14v-2.33c0-.05.02-.1.06-.14.04-.04.08-.06.14-.06h1.17c.32,0,.58.26.58.58v.39c0,.15-.06.3-.18.41.12.09.18.22.18.37v.78c0,.11-.09.19-.19.19h0Zm-1.36-1.55h.97c.05,0,.1-.02.14-.06.04-.04.06-.08.06-.14v-.39c0-.05-.02-.1-.06-.14-.04-.04-.08-.06-.14-.06h-.97v.78Z"/><path class="cls-1" d="m16.91,22.18c-.32,0-.58-.26-.58-.58v-1.56c0-.32.26-.58.58-.58h.78c.32,0,.58.26.58.58v1.56c0,.15-.06.3-.18.41-.11.11-.25.18-.41.17h-.78Zm.97-2.14c0-.05-.02-.1-.06-.14-.03-.04-.08-.06-.14-.06h-.78c-.11,0-.19.09-.19.19v1.56c0,.05.02.1.06.14.04.04.08.06.14.06h.78c.11,0,.19-.09.19-.19v-1.56Z"/><path class="cls-1" d="m18.86,22.18c-.11,0-.19-.09-.19-.19v-2.33c0-.11.09-.19.19-.19.05,0,.1.02.14.06l.64.64.64-.64s.08-.06.14-.06c.11,0,.19.09.19.19v2.33c0,.11-.09.19-.19.19-.11,0-.19-.09-.19-.19v-1.87l-.45.46c-.07.08-.19.08-.27,0,0,0,0,0,0,0l-.45-.45v1.87c0,.11-.09.19-.19.19h0Z"/><path class="cls-1" d="m21.19,22.18c-.11,0-.19-.09-.19-.19v-1.95c0-.32.26-.58.58-.58h.78c.32,0,.58.26.58.58v1.94c0,.11-.09.19-.19.19-.11,0-.19-.09-.19-.19v-.97h-1.17v.97c0,.11-.09.19-.19.19h0Zm.19-1.55h1.17v-.59c0-.11-.09-.19-.19-.19h-.78c-.05,0-.1.02-.14.06-.04.04-.06.08-.06.14v.59Z"/><path class="cls-1" d="m23.52,22.18c-.05,0-.1-.02-.14-.06-.04-.04-.06-.08-.06-.14v-2.33c0-.05.02-.1.06-.14.07-.08.19-.08.27,0,0,0,0,0,0,0l1.22,1.22v-1.09c0-.05.02-.1.06-.14.04-.04.08-.06.14-.06.11,0,.19.09.19.19v2.33c0,.11-.09.19-.19.19-.11,0-.19-.09-.19-.19v-.7l-1.17-1.17v1.87c0,.05-.02.1-.06.14-.04.04-.08.06-.14.06Z"/><path class="cls-1" d="m26.24,22.18c-.32,0-.58-.26-.58-.58v-1.56c0-.32.26-.58.58-.58h.78c.32,0,.58.26.58.58,0,.05-.02.1-.06.14-.04.04-.08.06-.14.06-.05,0-.1-.02-.14-.06-.04-.04-.06-.08-.06-.14,0-.05-.02-.1-.06-.14-.04-.04-.08-.06-.14-.06h-.78c-.05,0-.1.02-.14.06-.04.04-.06.08-.06.14v1.56c0,.11.09.19.19.19h.78c.11,0,.19-.09.19-.19,0-.05.02-.1.06-.14.04-.04.08-.06.14-.06.11,0,.19.09.19.19,0,.32-.26.58-.58.58h-.78Z"/><path class="cls-1" d="m29.35,21.01h-.97v.78h1.36c.11,0,.19.09.19.19,0,.11-.09.19-.19.19h-1.55c-.11,0-.19-.09-.19-.19v-2.33c0-.05.02-.1.06-.14.04-.04.08-.06.14-.06h1.55c.11,0,.19.09.19.19,0,.05-.02.1-.06.14-.03.04-.08.06-.14.06h-1.36v.78h.97c.11,0,.19.09.19.19,0,.11-.09.19-.19.19h0Z"/><path class="cls-1" d="m32.07,22.18c-.11,0-.19-.09-.19-.19v-.78c0-.05-.02-.1-.06-.14-.04-.04-.08-.06-.14-.06h-.97v.97c0,.05-.02.1-.06.14-.07.08-.19.08-.27,0,0,0,0,0,0,0-.04-.04-.06-.08-.06-.14v-2.33c0-.05.02-.1.06-.14.04-.04.08-.06.14-.06h1.17c.32,0,.58.26.58.58v.39c0,.15-.06.3-.18.41.12.09.18.22.18.37v.78c0,.11-.09.19-.19.19h0Zm-1.36-1.55h.97c.05,0,.1-.02.14-.06.04-.04.06-.08.06-.14v-.39c0-.05-.02-.1-.06-.14-.04-.04-.08-.06-.14-.06h-.97v.78Z"/></g><g id="Layer_2-2"><path class="cls-1" d="m16.13,4.82c1.92,0,3.47,1.56,3.47,3.47,0,1.92-1.56,3.47-3.47,3.47-1.92,0-3.47-1.55-3.47-3.47,0-1.92,1.56-3.47,3.47-3.47m0-.39c-2.13,0-3.86,1.73-3.86,3.86,0,2.13,1.73,3.86,3.86,3.86,2.13,0,3.86-1.73,3.86-3.86h0c0-2.13-1.73-3.86-3.86-3.86Z"/><path class="cls-1" d="m16.13,6.75c-1.21,0-2.35.58-3.09,1.54,1.28,1.7,3.69,2.05,5.4.77.29-.22.55-.48.77-.77-.73-.96-1.87-1.53-3.08-1.54Zm1.16,1.54c0,.64-.52,1.16-1.16,1.16-.64,0-1.16-.52-1.16-1.16s.52-1.16,1.16-1.16h0c.64,0,1.16.52,1.16,1.16Zm-3.75,0c.38-.41.84-.73,1.36-.93-.42.55-.42,1.31,0,1.86-.52-.2-.99-.52-1.36-.93Zm3.82.93c.42-.55.42-1.31,0-1.86.52.2.99.52,1.36.93-.38.41-.84.73-1.36.93h0Z"/><path class="cls-1" d="m21.69,3.45c-.31.09-.63-.09-.71-.4s.09-.63.4-.71c.31-.09.63.09.71.4.03.1.03.21,0,.31-.05.2-.21.35-.4.4Z"/><path class="cls-1" d="m16.13,1.16c-.32,0-.58-.26-.58-.58C15.55.26,15.81,0,16.13,0c.32,0,.58.26.58.58,0,.32-.26.58-.58.58h0Z"/><path class="cls-1" d="m10.73,3.47c-.32,0-.58-.26-.58-.58,0-.32.26-.58.58-.58.32,0,.58.26.58.58,0,.32-.26.58-.58.58,0,0,0,0,0,0Z"/><path class="cls-1" d="m8.42,8.88c-.32,0-.58-.26-.58-.58s.26-.58.58-.58.58.26.58.58c0,.32-.26.58-.58.58Z"/><path class="cls-1" d="m10.73,14.27c-.32,0-.58-.26-.58-.58s.26-.58.58-.58.58.26.58.58h0c0,.32-.26.58-.58.58Z"/><path class="cls-1" d="m16.13,16.59c-.32,0-.58-.26-.58-.58s.26-.58.58-.58.58.26.58.58h0c0,.32-.26.58-.58.58Z"/><path class="cls-1" d="m21.53,14.27c-.32,0-.58-.26-.58-.58s.26-.58.58-.58.58.26.58.58h0c0,.32-.26.58-.58.58Z"/><path class="cls-1" d="m23.85,8.88c-.32,0-.58-.26-.58-.58s.26-.58.58-.58.58.26.58.58-.26.58-.58.58h0Z"/></g></g></g></svg>