<?xml version="1.0" encoding="UTF-8"?><svg id="Layer_2" xmlns="http://www.w3.org/2000/svg" viewBox="0 0 37.71 18.53"><defs><style>.cls-1{fill:#fff;}</style></defs><g id="Layer_1-2"><g><path class="cls-1" d="m7.29,10.94c-.13,0-.26-.02-.38-.06v3.51c-.03,1.91-1.59,3.44-3.49,3.44v.71c2.3,0,4.17-1.84,4.22-4.14h0v-3.52c-.11.05-.23.06-.35.06Z"/><path class="cls-1" d="m4.49,0c-.84,0-1.63.23-2.3.64h-.03v.02C.86,1.45,0,2.87,0,4.5c0,2.48,2.02,4.5,4.5,4.5s4.5-2.02,4.5-4.5c-.01-2.49-2.02-4.5-4.51-4.5Zm3.77,4.5c0,.6-.14,1.18-.4,1.69v-3.38c.26.5.4,1.07.4,1.68ZM3.81.79c.12-.02.25-.04.37-.05v7.52c-.13-.01-.25-.02-.37-.05V.79Zm-.64,7.24c-.13-.04-.25-.1-.37-.16V1.12c.12-.06.25-.12.37-.16v7.06ZM4.82.73c.13.01.25.03.37.05v7.41c-.12.02-.25.04-.37.05V.73Zm1.01.24c.13.05.25.11.37.16v6.72c-.12.06-.25.12-.37.16V.97ZM1.14,2.76v3.45c-.27-.52-.42-1.1-.42-1.73,0-.61.15-1.21.42-1.73Zm.64,4.36V1.88c.12-.12.24-.24.37-.33v5.92c-.13-.12-.25-.23-.37-.35Zm5.07.31V1.54c.13.11.26.22.37.35v5.2c-.11.13-.24.25-.37.35Z"/><circle class="cls-1" cx="7.29" cy="9.66" r=".92"/><path class="cls-1" d="m3.51,11.67c-.69,0-1.32.29-1.77.74v-3.63c-.25-.16-.49-.35-.7-.55v5.9c0,1.36,1.1,2.46,2.46,2.46s2.46-1.1,2.46-2.46c.01-1.36-1.09-2.46-2.45-2.46Z"/><path class="cls-1" d="m11.44,5.79v-3.42c0-1.04.55-1.63,1.55-1.63s1.55.59,1.55,1.63v3.42c0,1.04-.55,1.63-1.55,1.63s-1.55-.59-1.55-1.63Zm2.08.06v-3.55c0-.46-.2-.64-.53-.64s-.53.17-.53.64v3.55c0,.46.2.64.53.64s.53-.17.53-.64Z"/><path class="cls-1" d="m15.23.83h1.54c1.06,0,1.51.5,1.51,1.5v.26c0,.67-.2,1.09-.66,1.27v.02c.55.18.77.67.77,1.36v.56c0,1-.53,1.54-1.55,1.54h-1.61V.83Zm1.42,2.64c.38,0,.61-.16.61-.69v-.37c0-.46-.16-.67-.52-.67h-.5v1.71h.4Zm.18,2.93c.35,0,.53-.16.53-.64v-.56c0-.6-.19-.79-.66-.79h-.45v2h.58Z"/><path class="cls-1" d="m18.74,7.32v-.93c.11.03.23.03.33.03.41,0,.6-.19.6-.63V.82h1.02v4.95c0,1.07-.49,1.57-1.49,1.57-.18.02-.32.01-.47-.02Z"/><path class="cls-1" d="m11.28,9.91h1.55c1.02,0,1.52.56,1.52,1.61v3.29c0,1.04-.5,1.61-1.52,1.61h-1.56v-6.5h.01Zm1.54,5.56c.32,0,.52-.16.52-.64v-3.38c0-.46-.19-.64-.52-.64h-.53v4.64h.53Z"/><path class="cls-1" d="m15.04,9.91h2.78v.93h-1.76v1.71h1.4v.93h-1.4v2h1.76v.93h-2.78v-6.49Z"/><path class="cls-1" d="m18.26,14.86v-.37h.96v.44c0,.46.2.64.53.64s.53-.16.53-.65c0-.54-.2-.88-.87-1.47-.85-.75-1.13-1.28-1.13-2.03,0-1.02.53-1.62,1.52-1.62s1.49.59,1.49,1.63v.27h-.96v-.32c0-.46-.18-.64-.51-.64s-.51.17-.51.63.22.82.88,1.4c.85.75,1.12,1.27,1.12,2.08,0,1.06-.54,1.65-1.54,1.65-1.01-.01-1.51-.6-1.51-1.65Z"/><path class="cls-1" d="m21.88,9.91h1.02v6.49h-1.02v-6.49Z"/><path class="cls-1" d="m23.6,14.86v-3.42c0-1.04.52-1.63,1.52-1.63s1.52.59,1.52,1.63v.56h-.97v-.61c0-.46-.2-.64-.53-.64s-.53.17-.53.64v3.56c0,.46.2.64.53.64s.53-.16.53-.64v-1.27h-.51v-.93h1.48v2.12c0,1.04-.52,1.63-1.52,1.63-1,0-1.52-.59-1.52-1.64Z"/><path class="cls-1" d="m27.3,9.91h1.28l.99,3.89h.02v-3.89h.91v6.49h-1.05l-1.23-4.75h-.02v4.75h-.91v-6.49Z"/><path class="cls-1" d="m31.25,9.91h2.78v.93h-1.76v1.71h1.4v.93h-1.4v2h1.76v.93h-2.78v-6.49Z"/><path class="cls-1" d="m34.63,9.91h1.56c1.02,0,1.52.56,1.52,1.61v3.29c0,1.04-.5,1.61-1.52,1.61h-1.56v-6.5Zm1.53,5.56c.32,0,.52-.16.52-.64v-3.38c0-.46-.19-.64-.52-.64h-.52v4.64h.52Z"/></g></g></svg>