<?xml version="1.0" encoding="UTF-8"?><svg id="Layer_2" xmlns="http://www.w3.org/2000/svg" viewBox="0 0 28.26 22.12"><defs><style>.cls-1{fill:#fff;}</style></defs><g id="Layer_1-2"><g><path class="cls-1" d="m13.44.06s-.17.04-.35.04c-.24,0-.29,0-.29.06s-.05.07-.27.07c-.15,0-.27.02-.27.04,0,.02-.09.04-.2.04-.13,0-.2.02-.2.06,0,.08.35.07.4,0,.02-.03.11-.05.21-.05.18,0,.47-.08.47-.14,0-.02.06-.02.14,0,.1.03.2.02.33-.02.13-.05.4-.07.97-.07.81,0,1.11.04,1.14.18.02.06.02.05.03-.01,0-.07.03-.08.21-.06.11,0,.24.05.29.1.06.05.1.06.16.03.08-.04.23-.02.32.05.09.08.41.07.41,0,0-.05-.05-.06-.2-.05-.13,0-.21,0-.22-.04-.01-.04-.11-.06-.27-.06-.18,0-.25-.02-.27-.07-.02-.06-.09-.07-.33-.05-.21,0-.31,0-.31-.04-.03-.08-1.81-.08-1.89,0Z"/><path class="cls-1" d="m11.55.5s.05.04.11.04c.06,0,.13-.02.14-.04.02-.03-.03-.04-.11-.04s-.14.02-.14.04Z"/><path class="cls-1" d="m17.03.5c.09.06.22.06.22,0,0-.03-.07-.04-.14-.04-.11,0-.13.01-.08.04Z"/><path class="cls-1" d="m11.3.59s-.09.04-.16.04c-.09,0-.13.02-.13.07,0,.04-.04.07-.09.07-.05,0-.12.03-.16.07s-.09.05-.13.04-.07,0-.09.04c-.02.04-.07.07-.12.07s-.09.02-.09.04c0,.02-.05.04-.11.04s-.11.02-.11.04c0,.08.11.05.43-.11.17-.09.39-.18.48-.2.09-.03.2-.08.23-.11s.09-.07.13-.07c.04,0,.08-.02.09-.04.01-.03-.01-.04-.06-.04s-.1.02-.12.04Z"/><path class="cls-1" d="m17.28.57c-.06.06.02.1.11.06.08-.04.11-.04.18.05.04.05.08.09.08.07s.05,0,.11.04c.12.08.25.09.25.03,0-.03-.05-.04-.11-.04-.07,0-.11-.03-.11-.07s-.04-.07-.11-.07c-.06,0-.11-.02-.11-.04,0-.05-.24-.06-.28-.02Z"/><path class="cls-1" d="m18.08.9s.16.13.29.13c.04,0,.12.03.17.07.04.04.12.07.15.07s.09.04.13.09c.03.05.11.11.17.13.06.03.1.06.09.09-.01.02,0,.04.04.04.04,0,.07-.02.07-.05,0-.07-.12-.18-.19-.18-.04,0-.1-.05-.15-.11s-.12-.11-.16-.11c-.04,0-.09-.02-.1-.04-.01-.03-.1-.04-.18-.04-.11,0-.15-.02-.15-.07,0-.08-.11-.09-.16-.02Z"/><path class="cls-1" d="m9.91,1.24s-.07.07-.12.07-.09.02-.09.04c0,.02-.03.04-.07.04s-.07.03-.07.07c0,.06.04.05.19-.03.22-.13.31-.19.27-.23-.04-.04-.09-.03-.12.04Z"/><path class="cls-1" d="m9.37,1.58s.06.04.09.04.06-.02.06-.04c0-.03-.04-.04-.09-.04-.05,0-.08.02-.06.04Z"/><path class="cls-1" d="m19.23,1.58s.04.04.09.04c.05,0,.09.03.11.05,0,.03.04.04.05.03.04-.04-.09-.17-.18-.17-.04,0-.07.02-.07.04Z"/><path class="cls-1" d="m9.25,1.67s-.04.04-.09.04c-.1,0-.31.21-.31.31,0,.04.04.02.12-.06.11-.11.17-.13.26-.12.02,0,.03-.01.01-.04s0-.05.04-.07c.08-.03.09-.12.02-.12-.02,0-.04.02-.04.04Z"/><path class="cls-1" d="m19.57,1.78s.04.07.07.07.04.03.04.07c0,.05.03.06.1.04.07-.03.09-.02.07.04s.01.09.13.12c.18.04.44.3.4.37-.02.03,0,.04.02.02.03-.02.08,0,.12.02.04.03.07.04.07.01s-.04-.07-.09-.1-.09-.08-.09-.1c0-.05-.24-.25-.31-.26-.04,0-.14-.08-.23-.18-.17-.18-.33-.24-.28-.11Z"/><path class="cls-1" d="m13.54,1.89c-.07.07.08.09.82.08.93,0,1.19-.07.32-.08-.31,0-.68,0-.84-.01-.16,0-.3,0-.31.01Z"/><path class="cls-1" d="m12.94,1.97c0,.06-.15.12-.32.13-.22,0-.19.07.02.07.12,0,.21-.02.21-.04,0-.03.13-.04.31-.04s.31-.02.31-.04c0-.05-.32-.09-.39-.04-.03.02-.07.01-.1-.01-.04-.04-.05-.04-.05,0Z"/><path class="cls-1" d="m15.61,2.03c-.07.03-.04.04.11.04s.18-.01.11-.04c-.05-.02-.1-.04-.11-.04s-.06.02-.11.04Z"/><path class="cls-1" d="m8.1,2.61c-.3.3-.55.56-.55.58,0,.02.04.04.1.04.08,0,.09,0,.03-.04-.06-.04-.05-.05.02-.11.05-.04.1-.07.13-.07.02,0,.03-.02.03-.04,0-.05.2-.27.25-.27.02,0,.14-.12.27-.27.13-.15.27-.27.31-.27.04,0,.08-.02.09-.04.01-.03,0-.04-.06-.04s-.32.23-.63.54Z"/><path class="cls-1" d="m15.45,2.16s.02.06.04.07c.03.01.04,0,.04-.04,0-.04-.02-.07-.04-.07-.02,0-.04.02-.04.04Z"/><path class="cls-1" d="m11.97,2.26c-.14.07-.16.1-.09.11.04,0,.1,0,.12-.04.02-.03.12-.05.22-.05.12,0,.19-.02.19-.06,0-.09-.23-.07-.43.04Z"/><path class="cls-1" d="m13.88,2.2c0,.06.26.09.32.03.03-.03.06-.03.07,0,.02.05.88.03.94-.03.02-.02-.23-.04-.64-.04-.38,0-.68.02-.68.04Z"/><path class="cls-1" d="m13.25,2.3s.07.05.15.05c.08,0,.21,0,.29.01.08,0,.14-.02.13-.04-.02-.06-.57-.09-.57-.02Z"/><path class="cls-1" d="m15.59,2.31c0,.05.04.07.13.06.14-.02.24-.08.13-.08-.04,0-.11-.01-.16-.03-.08-.02-.1,0-.1.04Z"/><path class="cls-1" d="m11.45,2.47s-.15.1-.23.12c-.17.03-.22.11-.07.11.05,0,.09-.02.09-.04,0-.03.05-.04.11-.04s.11-.02.11-.04c0-.03.07-.04.16-.04.18,0,.21-.06.06-.11q-.14-.04-.22.06Z"/><path class="cls-1" d="m12.8,2.43s-.09.04-.2.04c-.15,0-.2.02-.2.07,0,.04-.05.07-.16.07-.18,0-.22.07-.04.08.06,0,.17-.03.23-.07.09-.06.12-.06.15-.02.03.04.08.03.21-.06.19-.13.23-.14.27-.07.04.07.16.05.16-.02,0-.05-.05-.07-.2-.07-.11,0-.2.02-.2.04Z"/><path class="cls-1" d="m13.86,2.51c-.09.09.05.1.84.1.53,0,.88.02.9.04.01.02.16.04.32.04.18,0,.28-.02.27-.04-.01-.02-.13-.04-.27-.02-.18,0-.27,0-.31-.05-.05-.05-.21-.06-.84-.06-.43,0-.8,0-.83-.02s-.06-.02-.08,0Z"/><path class="cls-1" d="m13.24,2.59c-.08.08-.01.11.26.11.19,0,.29-.02.29-.05,0-.04-.08-.04-.24-.03-.14.01-.25,0-.26-.02,0-.03-.03-.03-.05-.01Z"/><path class="cls-1" d="m20.76,2.71c0,.09.3.42.34.38.02-.02-.04-.09-.13-.18-.09-.08-.18-.18-.19-.21-.02-.05-.03-.05-.03,0Z"/><path class="cls-1" d="m10.83,2.77s.04.07.09.07.09-.03.09-.07-.04-.07-.09-.07-.09.03-.09.07Z"/><path class="cls-1" d="m11.86,2.74s.18.11.21.08c.01-.01,0-.04,0-.07-.04-.06-.2-.07-.2,0Z"/><path class="cls-1" d="m12.87,2.73s-.13.05-.18.09c-.05.04-.11.05-.12.04s-.09,0-.18.04-.18.07-.19.06c-.01,0-.04,0-.05.02-.02.01.04.03.11.03s.15-.02.17-.04c.01-.03.09-.04.16-.04.08,0,.14-.03.16-.07.02-.05.07-.06.22-.04.17.02.2.01.2-.05,0-.07-.1-.09-.29-.04Z"/><path class="cls-1" d="m16.27,2.75c-.09.05,0,.08.22.08.11,0,.21.02.22.05,0,.03.08.05.15.05.08,0,.13-.02.11-.04s-.07-.04-.11-.02c-.05.01-.1,0-.12-.04-.04-.08-.37-.13-.46-.07Z"/><path class="cls-1" d="m11.55,2.86s.02.06.07.04c.04-.01.1-.03.13-.03.04,0,.05-.02.04-.04-.04-.08-.25-.05-.25.03Z"/><path class="cls-1" d="m10.6,2.88s-.01.04-.03.04c-.02,0-.1.01-.18.04-.1.04-.14.07-.12.12.03.08.11.1.11.03,0-.05.25-.18.35-.18.03,0,.06-.02.06-.04,0-.03-.04-.04-.09-.04s-.09.02-.09.04Z"/><path class="cls-1" d="m20.04,2.88c0,.08.53.6.58.57.1-.06.05-.14-.26-.45-.13-.14-.32-.21-.32-.11Z"/><path class="cls-1" d="m11.32,2.97c0,.07.13.09.15.02.02-.04,0-.06-.06-.06-.05,0-.09.02-.09.04Z"/><path class="cls-1" d="m11.9,3.01s.03.09.01.11c-.01.01.01.03.07.03.15,0,.16-.08,0-.15-.13-.06-.13-.06-.09,0Z"/><path class="cls-1" d="m17.03,2.98s.06.04.13.04c.08,0,.13,0,.13-.02s-.06-.03-.13-.04c-.07-.01-.13,0-.13.02Z"/><path class="cls-1" d="m20.53,3c.03.05.07.09.08.08.01,0-.01-.05-.06-.1-.08-.07-.08-.07-.02.02Z"/><path class="cls-1" d="m11.1,3.06s.04.03.09.02.09-.03.09-.04-.04-.02-.09-.02-.09.02-.09.04Z"/><path class="cls-1" d="m17.34,3.08s.04.07.11.07c.06,0,.11.02.11.04,0,.02.04.04.09.04.14,0,.1-.06-.09-.15-.21-.09-.23-.09-.23,0Z"/><path class="cls-1" d="m20.01,3.1s0,.04.02.04c.03,0,.05-.02.05-.04,0-.03,0-.04-.02-.04-.01,0-.04.02-.05.04Z"/><path class="cls-1" d="m11.01,3.16s.03.08.07.09c.04.01.07.01.07,0s-.03-.05-.07-.09c-.06-.06-.07-.06-.07,0Z"/><path class="cls-1" d="m11.68,3.18s.04.06.09.06.09-.02.09-.04-.04-.05-.09-.06c-.06-.01-.09,0-.09.04Z"/><path class="cls-1" d="m21.14,3.15s0,.04.04.04c.04,0,.07.03.07.07s.02.07.04.07c.03,0,.04.03.04.06s.02.08.04.09c.09.05.04-.16-.06-.27-.12-.13-.14-.14-.18-.07Z"/><path class="cls-1" d="m9.92,3.33c-.1.1-.22.18-.25.18-.07,0-.37.3-.37.36,0,.02-.02.04-.04.04-.07,0-.71.66-.84.86-.06.11-.17.24-.22.3-.12.12-.14.23-.04.23.04,0,.07-.04.07-.08,0-.04.07-.15.16-.25s.16-.19.16-.22.21-.26.47-.52c.26-.26.47-.49.47-.51s.03-.04.07-.04.07-.03.07-.07c0-.04.04-.07.11-.07s.15-.05.23-.16c.07-.09.16-.16.21-.16.04,0,.08-.02.08-.04,0-.1-.15-.04-.32.13Z"/><path class="cls-1" d="m11.48,3.26s-.13.09-.17.13c-.04.04-.12.08-.17.08s-.09.02-.09.04c0,.02.04.04.09.04s.09-.02.09-.04c0-.03.05-.04.11-.04s.12-.03.13-.07c.01-.04.05-.05.09-.04.04.02.07,0,.07-.04,0-.1-.05-.12-.15-.06Z"/><path class="cls-1" d="m7.46,3.28s-.03.05-.07.05-.07.04-.07.09.02.09.04.09c.05,0,.16-.23.12-.26-.01-.01-.02,0-.02.03Z"/><path class="cls-1" d="m10.78,3.28s.04.04.09.04.09-.02.09-.04c0-.03-.04-.04-.09-.04s-.09.02-.09.04Z"/><path class="cls-1" d="m17.87,3.27c-.13.03-.09.1.06.1.09,0,.13-.02.12-.05-.02-.06-.08-.08-.18-.05Z"/><path class="cls-1" d="m10.56,3.37s.12.1.15.06c.01-.01.01-.04,0-.06-.03-.05-.15-.05-.15,0Z"/><path class="cls-1" d="m18.08,3.42s.03.04.1.04c.1,0,.11,0,.06-.04-.09-.05-.12-.05-.16,0Z"/><path class="cls-1" d="m10.42,3.51s-.04.04-.09.04-.09.02-.09.04c0,.02-.03.04-.07.04s-.07.03-.07.07-.02.07-.04.07c-.02,0-.04.03-.04.07s.03.07.07.07c.04,0,.05-.03.04-.07-.02-.04,0-.07.04-.07.1,0,.44-.31.34-.31-.04,0-.08.02-.08.04Z"/><path class="cls-1" d="m10.74,3.51s.02.03.04.02c.03-.01.04-.04.04-.05,0,0-.02-.02-.04-.02-.02,0-.04.02-.04.05Z"/><path class="cls-1" d="m18.33,3.5c0,.06.13.19.18.19.09,0,.22.11.22.18,0,.07.14.04.17-.03,0-.03-.02-.05-.06-.05s-.12-.04-.17-.09c-.11-.11-.35-.23-.35-.19Z"/><path class="cls-1" d="m7.23,3.6s-.02.04-.05.04c-.08,0-.17.14-.18.26,0,.06-.02.1-.04.1-.02,0-.04.02-.04.05,0,.04.02.04.07,0,.04-.03.07-.09.07-.12s.06-.13.13-.2c.14-.14.16-.17.09-.17-.02,0-.04.02-.04.04Z"/><path class="cls-1" d="m10.83,3.63s.04.06.09.06.09-.03.09-.06c0-.04-.04-.06-.09-.06s-.09.03-.09.06Z"/><path class="cls-1" d="m21.49,3.67c.03.06.08.11.11.11.03,0,.05.02.05.04,0,.02.03.04.07.04.09,0,.09-.02-.07-.18-.16-.17-.23-.18-.17-.02Z"/><path class="cls-1" d="m10.69,3.76s-.08.07-.12.07c-.03,0-.13.06-.21.13-.08.07-.17.13-.2.13-.09,0-.12.09-.04.12.04.01.13-.04.22-.13.09-.09.2-.16.25-.16.05,0,.09-.03.09-.06s.03-.07.06-.09c.03,0,.04-.03.03-.05s-.05,0-.09.04Z"/><path class="cls-1" d="m9.79,3.91s.12.1.15.06c.01-.01.01-.04,0-.06-.03-.05-.15-.05-.15,0Z"/><path class="cls-1" d="m18.96,3.95c0,.06.26.28.33.28.03,0,.13.07.2.17.08.09.15.15.17.13.01-.02-.03-.08-.09-.13-.07-.05-.12-.13-.12-.16,0-.03-.05-.06-.11-.08-.06-.01-.13-.05-.15-.08-.04-.07-.23-.17-.23-.13Z"/><path class="cls-1" d="m21.7,3.96s.03.06.07.08c.04.01.09.08.12.14.04.09.05.1.07.04.02-.09-.06-.21-.15-.21-.04,0-.05-.02-.04-.04.01-.03,0-.04-.02-.04-.03,0-.05.02-.05.04Z"/><path class="cls-1" d="m9.7,4.05s-.03.04-.07.04-.06.02-.05.05c.03.09.1.08.16-.03.03-.06.03-.11,0-.11s-.04.02-.04.04Z"/><path class="cls-1" d="m6.78,4.15s.03.1.06.14c.05.07.06.07.05-.04,0-.07-.03-.13-.05-.14-.03,0-.06.01-.06.04Z"/><path class="cls-1" d="m9.48,4.23s.02.04.04.04c.03,0,.04-.02.04-.04,0-.03-.02-.04-.04-.04-.02,0-.04.02-.04.04Z"/><path class="cls-1" d="m9.87,4.35c-.06.07-.2.2-.31.3s-.18.18-.17.2c.03.03.21-.09.21-.13s.12-.17.16-.17c.04,0,.16-.12.16-.17,0-.03.03-.05.06-.07.03,0,.04-.03.03-.05-.01-.01-.08.03-.14.09Z"/><path class="cls-1" d="m6.69,4.41c0,.08,0,.09.07.04.07-.05.05-.13-.03-.13-.02,0-.04.04-.04.09Z"/><path class="cls-1" d="m9.39,4.36s-.02.04-.04.04c-.06,0-.51.46-.48.49.01.01.11-.06.21-.17.12-.11.22-.18.26-.16s.05.01.04,0,0-.08.04-.14c.04-.06.05-.1.02-.1-.02,0-.04.02-.04.04Z"/><path class="cls-1" d="m22.03,4.38s.08.09.08.13.02.07.04.07c.07,0,.05-.13-.02-.21-.04-.04-.09-.06-.13-.06-.04,0-.03.02.02.06Z"/><path class="cls-1" d="m6.53,4.61c-.07.08-.08.16-.01.16.03,0,.04-.03.04-.07,0-.03.04-.09.08-.11.06-.04.06-.04,0-.04-.04,0-.09.03-.12.06Z"/><path class="cls-1" d="m19.72,4.59s.02.05.04.07c.03.01.04.06.04.11s.05.12.11.17.11.12.11.15c0,.09.11.22.18.22.03,0,.05.05.05.11s.03.12.07.13c.04.01.05.05.04.07-.02.03.02.1.09.16s.12.15.12.2c0,.1.07.12.1.02.02-.04-.03-.12-.1-.2-.08-.07-.13-.18-.13-.22,0-.05-.02-.09-.04-.09-.02,0-.04-.03-.04-.06s-.05-.1-.11-.15-.11-.12-.11-.16-.04-.12-.09-.17-.12-.15-.14-.22c-.05-.12-.17-.21-.17-.13Z"/><path class="cls-1" d="m22.21,4.7s.03.09.06.12c.04.06.19.4.26.59.01.04.04.07.07.05.07-.04.05-.2-.02-.2-.04,0-.07-.04-.07-.09,0-.05-.02-.1-.04-.12-.02-.01-.04-.07-.04-.12,0-.04-.02-.09-.04-.09-.02,0-.04-.05-.04-.11,0-.07-.03-.11-.06-.11s-.06.03-.05.06Z"/><path class="cls-1" d="m6.39,4.95c0,.06,0,.09.02.05,0-.03,0-.08,0-.11-.01-.03-.02,0-.02.06Z"/><path class="cls-1" d="m9.3,4.94s-.05.07-.11.1c-.11.06-.15.13-.08.13.04,0,.28-.2.28-.24,0-.01-.02-.03-.04-.03-.02,0-.04.02-.04.04Z"/><path class="cls-1" d="m8.72,5.02c.01.08-.11.24-.19.24-.02,0-.04.02-.04.04,0,.03.05.04.12.03.1-.01.13-.05.18-.2.04-.16.04-.19-.01-.19-.04,0-.06.03-.05.08Z"/><path class="cls-1" d="m6.24,5.12c0,.08.08.09.11.03.01-.04,0-.07-.04-.07-.04,0-.07.02-.07.04Z"/><path class="cls-1" d="m8.97,5.2c-.05.05-.03.19.04.19.04,0,.07-.04.07-.09,0-.09-.06-.15-.11-.11Z"/><path class="cls-1" d="m6.15,5.35s.02.09.04.09c.03,0,.04-.04.04-.09s-.02-.09-.04-.09c-.02,0-.04.04-.04.09Z"/><path class="cls-1" d="m8.02,5.42s-.06.1-.09.12-.03.04-.02.06c.05.05.18-.11.16-.2-.01-.07-.02-.07-.05.01Z"/><path class="cls-1" d="m8.4,5.49s.02.08.04.06c.03-.01.04-.06.04-.09s-.02-.06-.04-.06c-.02,0-.04.04-.04.09Z"/><path class="cls-1" d="m8.83,5.53s-.07.09-.05.09c.05,0,.18-.13.15-.16-.01,0-.06.02-.1.07Z"/><path class="cls-1" d="m6.02,5.58c0,.06.02.13.04.17.04.05.04.05.04-.03,0-.05.01-.13.03-.17.02-.05,0-.07-.04-.07-.04,0-.07.04-.07.1Z"/><path class="cls-1" d="m22.64,5.55s.02.08.04.09c.03.01.04-.01.04-.06,0-.05-.02-.09-.04-.09-.02,0-.04.03-.04.06Z"/><path class="cls-1" d="m8.25,5.69c-.05.04-.07.09-.05.14.03.07.04.07.07-.02.02-.05.06-.1.09-.1.02,0,.04-.02.04-.04,0-.06-.05-.05-.15.02Z"/><path class="cls-1" d="m8.64,5.74c0,.07.02.11.05.11.08,0,.08-.11,0-.17-.04-.04-.06-.02-.06.06Z"/><path class="cls-1" d="m7.8,5.73s-.02.09,0,.11c.04.04.08-.03.06-.11-.01-.08-.02-.08-.05,0Z"/><path class="cls-1" d="m22.75,5.85c0,.08.03.16.06.18.04.02.05.07.04.11s0,.1.04.15c.04.04.07.15.07.22,0,.08.02.15.04.15.03,0,.04-.07.04-.16s-.02-.16-.04-.16c-.02,0-.04-.07-.04-.15s-.02-.16-.05-.17c-.02,0-.05-.08-.05-.16,0-.08-.03-.14-.05-.14-.03,0-.05.06-.05.13Z"/><path class="cls-1" d="m5.93,5.91c0,.06-.02.11-.04.11-.02,0-.04.08-.04.17,0,.13.01.15.04.1.02-.04.04-.11.04-.17,0-.05.02-.1.04-.1s.04-.05.04-.11-.01-.11-.04-.11c-.03,0-.04.05-.04.11Z"/><path class="cls-1" d="m7.66,5.93c0,.08.02.13.06.13.04,0,.05-.04.04-.12-.02-.17-.1-.18-.1-.01Z"/><path class="cls-1" d="m8.49,5.88s-.02.1-.04.12c-.02.03-.07.12-.1.2-.04.09-.09.18-.13.21-.05.04-.05.05,0,.06.09,0,.19-.12.19-.22,0-.05.03-.09.07-.09s.07-.04.07-.11c0-.06.02-.12.05-.13.03,0,.04-.04.02-.07-.05-.08-.12-.06-.12.03Z"/><path class="cls-1" d="m16.19,5.85s-.13.04-.19.04c-.13,0-.7.37-.8.51-.41.58-.53.91-.66,1.88-.05.37-.04,1.89.02,2.34.16,1.18.65,1.94,1.42,2.21.34.12,1.09.13,1.32.03.08-.04.21-.1.3-.13.31-.13.62-.47.81-.86.3-.64.39-1.02.42-1.74.01-.29.04-.55.05-.59.02-.06.12-.07.56-.07h.53v.53s.03.53.03.53h.27v-.53s.03-.53.03-.53h1.12v.58c0,.36.02.58.04.58s.04-.21.04-.54.02-.54.04-.54.04-.02.04-.04c0-.03-.04-.04-.09-.04-.07,0-.09-.03-.09-.16,0-.09.02-.16.04-.16.06,0,.05-.33,0-.4-.03-.03-.05-.18-.05-.37,0-.18-.01-.31-.04-.31s-.04.16-.04.36c0,.21.02.36.04.36s.04.08.04.18v.18h-.55s-.55-.03-.55-.03v-.53s-.03-.53-.03-.53h-.31v.53s-.03.53-.03.53h-.54s-.54.03-.54.03l-.03-.24c-.02-.13-.03-.37-.03-.53s-.03-.38-.06-.49c-.04-.11-.09-.32-.12-.47s-.08-.3-.1-.34-.11-.18-.18-.31c-.17-.32-.23-.39-.51-.59-.34-.24-.71-.35-1.18-.35-.21,0-.43.02-.48.04Zm.76.76c.14.04.33.13.41.2.4.31.56,1.06.56,2.57s-.18,2.26-.68,2.63c-.18.13-.22.13-.56.13-.32,0-.4-.01-.57-.12-.24-.15-.36-.32-.46-.65-.04-.13-.1-.34-.14-.45-.08-.24-.09-2.41-.02-2.85.09-.57.12-.68.22-.88.17-.35.33-.49.75-.61.13-.03.22-.06.22-.06,0,0,.12.04.27.08Z"/><path class="cls-1" d="m8.09,6.02s-.04.11-.08.13c-.07.04-.07.04.01.05.09,0,.15-.08.15-.21,0-.04-.02-.06-.04-.06-.02,0-.04.04-.04.09Z"/><path class="cls-1" d="m9.87,5.97s-.03.8-.03,1.76v1.73l.17-.02c.89-.13,1.49-.14,1.92-.02.26.07.56.33.66.56.1.23.12,1.02.03,1.27-.08.24-.29.52-.49.65-.35.23-.95.31-1.33.17-.07-.03-.22-.07-.34-.1-.11-.03-.34-.12-.51-.2-.17-.09-.33-.15-.37-.15-.05,0-.06.09-.06.45v.45l.29.13c.16.07.33.13.38.13.05,0,.17.03.26.07.13.05.32.07.77.07.57,0,.62,0,.92-.13.43-.18.84-.47,1-.7.15-.22.37-.67.37-.77,0-.04.03-.19.07-.35.06-.23.06-.33.02-.64-.06-.44-.18-.79-.32-.97-.28-.37-.62-.6-1.05-.71-.47-.12-.84-.16-1.14-.11-.17.03-.31.04-.33.02-.03-.02-.05-1.2-.04-1.72,0-.07.11-.08,1.41-.09h1.4v-.78h-1.82c-1-.02-1.83,0-1.85,0Z"/><path class="cls-1" d="m7.59,6.18s.02.07.04.07c.03,0,.04-.02.04-.04,0-.03-.02-.06-.04-.07-.02-.01-.04,0-.04.04Z"/><path class="cls-1" d="m20.67,6.25c0,.09.02.13.05.12.07-.02.07-.22,0-.24-.03,0-.05.04-.05.12Z"/><path class="cls-1" d="m7.48,6.29s0,.27.03.31c.02.01.03-.05.03-.16,0-.18-.02-.22-.06-.15Z"/><path class="cls-1" d="m7.86,6.34s.02.09.04.09.05-.04.06-.09c.01-.06,0-.09-.04-.09-.04,0-.06.04-.06.09Z"/><path class="cls-1" d="m5.71,6.51c0,.1-.02.18-.04.18-.02,0-.04.09-.04.2,0,.16-.02.2-.07.2-.06,0-.07.04-.05.27.01.21,0,.27-.04.27-.05,0-.06.09-.06.35,0,.2-.02.37-.04.39-.03.02-.04.38-.04.94s.02.93.04.94c.03.01.04.16.04.32,0,.22.01.29.06.29s.06-.05.04-.26c-.01-.14-.04-.28-.07-.31s-.03-.09-.01-.15c.01-.05,0-.09-.01-.09-.06,0-.04-.24,0-.28.03-.02.03-.05,0-.09-.07-.09-.05-1.22.03-1.31.04-.04.05-.17.05-.31-.01-.33-.01-.34.09-.44.08-.08.09-.12.05-.24-.04-.11-.03-.17.01-.25.03-.06.06-.18.06-.26,0-.08.03-.18.06-.22.08-.07.07-.3-.01-.32-.03,0-.05.05-.05.17Z"/><path class="cls-1" d="m20.8,6.48c0,.07.02.13.04.13.03,0,.04.07.04.16s.02.16.05.16c.06,0,.03-.19-.07-.41q-.06-.15-.07-.03Z"/><path class="cls-1" d="m7.77,6.56s0,.09.02.09.03-.04.04-.09,0-.09-.02-.09-.04.04-.04.09Z"/><path class="cls-1" d="m7.3,6.56s0,.04.04.04.06-.02.04-.04c-.01-.03-.04-.04-.04-.04s-.03.02-.04.04Z"/><path class="cls-1" d="m7.96,6.56c.02.06.08.07.09.02,0-.02-.02-.04-.05-.05-.03,0-.05,0-.04.04Z"/><path class="cls-1" d="m8.11,6.59c-.04.1-.04.11.04.11s.09-.04.03-.13c-.03-.05-.04-.04-.07.01Z"/><path class="cls-1" d="m7.35,6.77c-.09.13-.12.28-.05.3.03,0,.05-.04.06-.12,0-.07.04-.15.06-.16.03-.02.04-.05.03-.08s-.05,0-.1.06Z"/><path class="cls-1" d="m7.65,6.75s.04.04.06.04.05-.02.06-.04-.02-.05-.06-.05-.07.02-.06.05Z"/><path class="cls-1" d="m23.08,6.89c0,.11.04.22.06.25s.03.09.01.14c-.01.04,0,.1.02.11.03.02.03.08,0,.16-.04.14.01.19.06.06.04-.12.03-.51-.02-.51-.02,0-.04-.09-.04-.2,0-.13-.02-.2-.06-.2s-.05.06-.04.19Z"/><path class="cls-1" d="m8,6.83s.02.09.04.09c.03,0,.04-.04.04-.09s-.02-.09-.04-.09c-.02,0-.04.04-.04.09Z"/><path class="cls-1" d="m7.55,7.04c0,.11.02.15.06.14.03,0,.05-.04.05-.07,0-.03,0-.09,0-.14-.01-.16-.1-.09-.1.07Z"/><path class="cls-1" d="m7.91,7.04s-.06.2-.13.34-.12.29-.11.32c.04.12.11.08.11-.06,0-.08.02-.15.04-.16.03-.01.04-.07.04-.12s.03-.1.07-.11c.08-.03.09-.29.02-.29-.02,0-.04.04-.04.08Z"/><path class="cls-1" d="m21.02,7s-.04.23,0,.27c.06.04.08-.03.05-.17-.01-.07-.04-.11-.06-.09Z"/><path class="cls-1" d="m7.45,7.37c0,.07.03.13.05.11.05-.03.03-.22-.03-.23-.02,0-.04.04-.02.12Z"/><path class="cls-1" d="m7.19,7.35s.01.06.03.03c.01-.03,0-.07,0-.09-.01-.02-.03,0-.02.06Z"/><path class="cls-1" d="m21.11,7.42c0,.07.02.13.04.13.03,0,.04-.06.04-.13,0-.08-.02-.13-.04-.13-.02,0-.04.06-.04.13Z"/><path class="cls-1" d="m7.14,7.51s.02.04.04.04c.03,0,.04-.02.04-.04,0-.03-.02-.04-.04-.04-.02,0-.04.02-.04.04Z"/><path class="cls-1" d="m7.28,7.57s.03.04.07.07c.05.04.07.04.07-.02,0-.04-.03-.07-.07-.07s-.07,0-.07.02Z"/><path class="cls-1" d="m7.05,7.66s0,.07.02.07.03-.03.04-.07c.01-.04,0-.07-.02-.07-.03,0-.04.03-.04.07Z"/><path class="cls-1" d="m21.2,7.8c0,.15.02.2.06.2.06,0,.07-.09.03-.37,0-.02-.02-.03-.05-.03-.02,0-.04.09-.04.2Z"/><path class="cls-1" d="m23.29,7.69s-.02.12-.02.22c0,.09,0,.19-.02.22-.02.03,0,.09.04.13.1.1.17.24.14.28-.01.02-.03.41-.03.86,0,.61,0,.83.04.84.09.03.08-1.92,0-1.95-.04-.02-.05-.1-.04-.34.01-.29-.02-.39-.1-.27Z"/><path class="cls-1" d="m7.21,7.82s.05.04.07.02c.06-.04.05-.07-.03-.07-.04,0-.05.02-.04.04Z"/><path class="cls-1" d="m7.55,7.97c0,.08-.01.19-.04.25-.07.12-.07.42,0,.42.03,0,.04-.09.04-.2,0-.15.02-.2.07-.2s.07-.05.07-.2-.02-.2-.07-.2-.07.04-.06.14Z"/><path class="cls-1" d="m7.41,8.75s-.01.19-.02.31c0,.13,0,.24.03.24.02,0,.04-.14.04-.31s0-.31-.02-.31-.02.04-.02.08Z"/><path class="cls-1" d="m7.25,10.19c0,.62.02.84.06.86.04.01.05-.18.05-.84,0-.7-.01-.86-.06-.86s-.06.15-.05.84Z"/><path class="cls-1" d="m23.29,10.58c.02.24.01.32-.04.41-.04.06-.07.16-.07.22,0,.07-.03.16-.05.22-.08.14-.08.44,0,.44.04,0,.06-.05.04-.2,0-.13,0-.21.04-.22.04,0,.06-.1.06-.22,0-.14.02-.2.06-.2.09,0,.08-.68-.01-.71-.05-.02-.05.04-.03.28Z"/><path class="cls-1" d="m21.34,11.01c0,.28-.01.37-.07.39-.04.02-.07.09-.07.22,0,.11-.02.21-.04.22-.07.04-.06.29.02.27.04-.01.05-.07.04-.13-.02-.09,0-.12.08-.14.07-.02.09-.04.07-.1-.04-.09-.03-.33.02-.36s.05-.72,0-.72c-.02,0-.04.16-.04.36Z"/><path class="cls-1" d="m5.51,10.99c-.05.14-.03.41.04.44.04.02.07.09.07.23,0,.12.02.2.05.2.05,0,.04-.13-.04-.57-.03-.13-.04-.27-.02-.31.02-.04,0-.07-.02-.07-.02,0-.06.03-.07.07Z"/><path class="cls-1" d="m7.4,11.08s-.04.45,0,.55c.02.04.06.13.09.19.04.11.05.11.05-.04,0-.08-.01-.14-.04-.14-.02,0-.04-.13-.05-.3s-.03-.28-.04-.26Z"/><path class="cls-1" d="m21.7,11.69c-.08.05-.02.19.08.17.04,0,.09-.04.09-.09.02-.09-.09-.14-.17-.09Z"/><path class="cls-1" d="m5.71,12.04c0,.08.03.13.07.13.04,0,.06.05.06.15,0,.09.02.17.04.18.03.01.04.1.04.18s.02.15.04.15c.03,0,.04.04.04.09s.03.09.07.09c.04,0,.07.04.07.11,0,.06.02.11.04.11.03,0,.04.05.04.11s.03.12.07.13c.04.01.07.07.07.12s.02.09.04.09c.1,0,.03-.22-.13-.42-.04-.06-.05-.09-.02-.1.03,0-.02-.09-.1-.18-.11-.12-.14-.19-.13-.27.02-.06,0-.1-.02-.1-.04,0-.1-.16-.13-.34-.04-.27-.08-.38-.13-.38-.04,0-.06.05-.06.13Z"/><path class="cls-1" d="m22.99,11.94s-.04.08-.04.13c0,.06-.03.13-.07.16-.08.07-.09.33,0,.31.03-.01.06-.07.07-.13,0-.06.04-.15.06-.2.05-.1.04-.32-.01-.26Z"/><path class="cls-1" d="m7.59,12s.02.04.04.04c.03,0,.04-.02.04-.04,0-.03-.02-.04-.04-.04-.02,0-.04.02-.04.04Z"/><path class="cls-1" d="m7.64,12.22c0,.1.22.37.22.27,0-.04-.02-.09-.04-.1-.02-.01-.04-.06-.04-.11,0-.04-.03-.09-.07-.11-.04-.01-.07,0-.07.05Z"/><path class="cls-1" d="m20.98,12.24c0,.1.08.13.11.04.04-.1.04-.11-.04-.11-.04,0-.07.03-.07.06Z"/><path class="cls-1" d="m21.43,12.26c0,.11.06.15.16.11.1-.04.06-.17-.06-.19-.07-.01-.1,0-.1.08Z"/><path class="cls-1" d="m20.89,12.48s.02.05.04.04c.03-.01.04-.04.04-.07,0-.02-.02-.04-.04-.04-.02,0-.04.03-.04.07Z"/><path class="cls-1" d="m7.85,12.7c-.01.09,0,.11.05.1.04,0,.08-.06.09-.12.02-.14-.11-.13-.14.01Z"/><path class="cls-1" d="m20.8,12.68s.02.08.04.06c.03-.01.04-.06.04-.09s-.02-.06-.04-.06c-.02,0-.04.04-.04.09Z"/><path class="cls-1" d="m22.74,12.64c-.07.08-.03.21.06.21.07,0,.08-.06.02-.19-.03-.07-.04-.08-.09-.02Z"/><path class="cls-1" d="m8,12.87s.03.07.07.09c.04.01.07.05.07.09,0,.03.05.11.12.17.06.06.13.15.16.21.02.06.06.1.09.1.09,0,.04-.13-.11-.28-.09-.09-.16-.18-.16-.21,0-.05-.16-.23-.2-.23-.01,0-.02.03-.02.06Z"/><path class="cls-1" d="m20.63,12.9s-.05.11-.05.14-.07.12-.16.2c-.09.08-.16.18-.16.22,0,.1.06.09.11-.01.03-.04.13-.2.24-.33.1-.14.19-.27.19-.28,0-.06-.12-.01-.17.07Z"/><path class="cls-1" d="m22.65,12.94s-.04.04,0,.07c.06.04.11,0,.09-.06-.01-.03-.04-.03-.08,0Z"/><path class="cls-1" d="m22.53,13.1c-.04.11-.03.15.04.15.04,0,.07-.04.07-.11,0-.13-.07-.15-.11-.04Z"/><path class="cls-1" d="m22.44,13.36s-.02.09,0,.11c.04.04.08-.02.06-.11q-.02-.08-.05,0Z"/><path class="cls-1" d="m22.33,13.62s.02.09.04.09c.03,0,.04-.04.04-.09s-.02-.09-.04-.09c-.02,0-.04.04-.04.09Z"/><path class="cls-1" d="m8.52,13.64s0,.05.02.04c.02-.02.19.12.37.31.3.31.39.36.39.24,0-.02-.03-.04-.05-.04-.03,0-.16-.12-.28-.27-.12-.14-.25-.27-.28-.27-.03,0-.06-.03-.06-.05,0-.07-.08-.05-.11.03Z"/><path class="cls-1" d="m19.82,13.91c-.18.18-.33.35-.33.37,0,.02-.04.06-.1.09-.11.06-.23.22-.19.26.01.02.1-.06.19-.16.09-.1.18-.18.2-.16s.03,0,.01-.04c-.02-.04,0-.07.03-.07.06,0,.58-.53.58-.59,0-.08-.08-.01-.39.31Z"/><path class="cls-1" d="m22.16,13.92c-.05.12-.14.27-.2.34-.08.09-.09.13-.04.18s.05.03.05-.07c0-.07.02-.12.05-.12.07,0,.17-.14.18-.24,0-.04.03-.08.07-.08s.07-.04.07-.09c0-.17-.08-.13-.17.08Z"/><path class="cls-1" d="m6.47,13.84c0,.09.01.09.05.05s.04-.07,0-.11-.05-.03-.05.05Z"/><path class="cls-1" d="m6.56,14.02c0,.1.04.11.13.04.06-.04.06-.05,0-.09-.1-.07-.13-.05-.13.04Z"/><path class="cls-1" d="m6.69,14.2s.02.04.04.04c.03,0,.04.05.04.11s.02.11.04.11c.07,0,.05-.18-.02-.25-.08-.07-.12-.08-.12-.02Z"/><path class="cls-1" d="m9.3,14.37s.09.12.2.23c.25.23.27.15.03-.09-.17-.18-.23-.21-.23-.14Z"/><path class="cls-1" d="m6.92,14.51s.02.05.04.05c.03,0,.04.04.04.09,0,.1.1.22.18.22.03,0,.05-.02.05-.04,0-.03-.03-.04-.07-.04-.04,0-.06-.03-.05-.06s-.02-.11-.09-.17c-.06-.05-.11-.08-.11-.05Z"/><path class="cls-1" d="m21.79,14.52s.02.04.04.04c.03,0,.04-.02.04-.04,0-.03-.02-.04-.04-.04-.02,0-.04.02-.04.04Z"/><path class="cls-1" d="m21.67,14.68c-.04.1-.27.33-.31.29-.01-.02-.01,0,0,.04.01.04,0,.1-.04.14-.04.04-.07.08-.07.09,0,.05-1.24,1.24-1.28,1.24-.03,0-.13.07-.21.15-.09.08-.18.16-.23.18-.1.04-.1.12.01.12.05,0,.09-.03.09-.06,0-.04.05-.09.11-.12s.11-.09.11-.12c0-.03.04-.06.09-.06.09,0,.54-.41.54-.49,0-.03.02-.05.04-.05.08,0,.9-.86.9-.94,0-.05.02-.09.04-.09.07,0,.32-.27.32-.34,0-.09-.09-.08-.12.01Z"/><path class="cls-1" d="m19.05,14.69s.03.04.07.04c.04,0,.05-.02.04-.04-.01-.03-.04-.04-.07-.04-.02,0-.04.02-.04.04Z"/><path class="cls-1" d="m9.8,14.77s-.01.05.08.11c.18.11.2.11.11-.03-.08-.12-.09-.12-.19-.08Z"/><path class="cls-1" d="m18.78,14.87c-.06.08-.13.12-.17.11s-.1.03-.16.09c-.05.06-.13.12-.18.12-.11,0-.11.07,0,.1.06.01.09,0,.09-.04,0-.04.02-.06.04-.06.08,0,.59-.37.57-.41-.04-.07-.09-.04-.19.09Z"/><path class="cls-1" d="m7.23,14.96s.02.04.04.04c.03,0,.04.04.04.09s.03.09.07.09c.06,0,.06-.02-.01-.13-.08-.13-.15-.18-.15-.09Z"/><path class="cls-1" d="m10.11,15.01s-.04.04-.02.04.11.05.18.11.16.11.19.11c.03,0,.05.03.05.06s.05.06.13.05c.08,0,.13-.03.13-.07,0-.03-.03-.05-.07-.03-.04.01-.09,0-.13-.04s-.09-.07-.12-.07c-.03,0-.1-.05-.16-.11-.12-.13-.11-.13-.2-.07Z"/><path class="cls-1" d="m7.46,15.27s.04.08.09.11.09.08.09.1c0,.04.23.25.28.25.02,0,.03.02.03.04,0,.06.23.27.3.27.03,0-.09-.14-.27-.32-.5-.49-.53-.51-.53-.45Z"/><path class="cls-1" d="m17.97,15.34s-.03.07-.05.09c-.04,0-.04.04-.02.06s.05.02.06-.02c.01-.03.07-.05.13-.05.09,0,.11,0,.06-.07-.07-.09-.18-.09-.18,0Z"/><path class="cls-1" d="m10.83,15.46s.04.04.09.04.09-.02.09-.04c0-.03-.04-.04-.09-.04s-.09.02-.09.04Z"/><path class="cls-1" d="m11.03,15.55s0,.05.03.06c.03.01.13.04.23.07.09.03.17.07.17.09s.04.04.09.04.09-.02.09-.04c0-.03-.04-.04-.09-.04s-.09-.02-.09-.04c0-.03-.05-.04-.11-.04-.07,0-.11-.03-.11-.07,0-.08-.16-.09-.2-.02Z"/><path class="cls-1" d="m17.56,15.56s.04.07.15.06c.08,0,.14-.03.14-.05,0-.03-.07-.05-.14-.06-.11,0-.15,0-.15.05Z"/><path class="cls-1" d="m17.32,15.68s-.07.04-.12.04c-.04,0-.09.02-.09.04,0,.02.04.04.09.04s.09-.02.09-.04c0-.02.05-.06.13-.09.11-.04.11-.05.02-.05-.05,0-.11.01-.13.04Z"/><path class="cls-1" d="m11.68,15.89s.05.07.16.07.16-.02.16-.07-.05-.07-.16-.07-.16.02-.16.07Z"/><path class="cls-1" d="m16.77,15.89s-.09.06-.18.06c-.12,0-.15.01-.11.05s.09.04.22,0c.09-.03.22-.05.27-.05s.1-.02.1-.05c0-.09-.27-.08-.3,0Z"/><path class="cls-1" d="m19.81,15.89s.02.07.04.07c.02,0,.03-.03.02-.07-.02-.04-.04-.07-.04-.07s-.02.03-.02.07Z"/><path class="cls-1" d="m8.88,15.98c-.06.06-.03.13.08.18.12.05.13.04.09-.11-.03-.09-.11-.13-.17-.07Z"/><path class="cls-1" d="m12.13,16.01c.06.03.16.07.21.09.05.02.13.03.17.02.04-.02.07,0,.07.01s.03.03.07.02c.13-.05.06-.11-.13-.11-.11,0-.2-.02-.2-.04,0-.03-.07-.04-.14-.04-.15,0-.15,0-.04.05Z"/><path class="cls-1" d="m8.51,16.05s-.02.05,0,.07c0,.01.03,0,.04-.05.03-.08,0-.09-.04-.02Z"/><path class="cls-1" d="m11.16,16.09s.04.04.05.04c0,0,.02-.02.02-.04,0-.03-.02-.04-.05-.04-.02,0-.03.02-.02.04Z"/><path class="cls-1" d="m16.04,16.08s.04.06.09.09c.08.04.09.04.09-.01,0-.05.03-.06.11-.04.07.02.11,0,.11-.02,0-.03-.09-.05-.2-.05s-.2.01-.2.04Z"/><path class="cls-1" d="m8.31,16.11s.12.15.15.15c.06,0,.02-.07-.06-.13-.05-.03-.09-.04-.09-.03Z"/><path class="cls-1" d="m12.76,16.17c0,.11.27.16.4.08.03-.02.12-.03.19,0,.1.02.13.01.13-.04,0-.05-.07-.07-.36-.07-.2,0-.36.01-.36.03Z"/><path class="cls-1" d="m15.27,16.2c0,.06-.13.07-.88.07-.55,0-.88.02-.88.04,0,.07,1.68.06,1.74,0,.06-.06.55-.08.63-.02.07.05.12,0,.09-.09-.04-.1-.71-.1-.71,0Z"/><path class="cls-1" d="m8.49,16.36s.02.04.04.04c.03,0,.06-.02.07-.04.01-.03,0-.04-.04-.04-.04,0-.07.02-.07.04Z"/><path class="cls-1" d="m8.63,16.45s.04.04.1.04c.08,0,.09,0,.03-.04-.09-.06-.13-.06-.13,0Z"/><path class="cls-1" d="m9.41,16.45c-.04.06.01.13.09.13.04,0,.06-.04.06-.09,0-.09-.11-.13-.16-.04Z"/><path class="cls-1" d="m8.85,16.53c0,.08.36.41.44.41.04,0,.11.04.14.09.06.1.17.12.28.04.05-.04.05-.04-.02-.04-.18.01-.24,0-.27-.1-.01-.05-.06-.09-.1-.09-.09,0-.28-.15-.28-.21,0-.02-.04-.06-.09-.09s-.09-.04-.09-.02Z"/><path class="cls-1" d="m9.77,16.72s.04.04.05.04c0,0,.02-.02.02-.04,0-.03-.02-.04-.05-.04-.02,0-.03.02-.02.04Z"/><path class="cls-1" d="m19.29,16.96s0,.09-.08.11c-.08.03-.09.04-.02.04.1,0,.23-.11.19-.18-.04-.07-.13-.05-.09.02Z"/><path class="cls-1" d="m9.7,17.19c0,.07.04.08.13.02.04-.03.04-.04-.03-.06-.06-.01-.09,0-.09.04Z"/><path class="cls-1" d="m18.9,17.2c-.07.04-.13.09-.13.11,0,.02-.04.04-.09.04-.12,0-.16.07-.07.11.1.04.15.03.15-.02,0-.08.12-.18.22-.18.05,0,.09-.03.09-.07,0-.09-.04-.09-.19.01Z"/><path class="cls-1" d="m9.93,17.29c0,.09.13.2.21.18.04-.02.07-.04.06-.04-.13-.09-.27-.16-.27-.13Z"/><path class="cls-1" d="m18.15,17.43s-.04.04.01.06c.04.01.08,0,.09-.01.04-.06-.04-.09-.11-.05Z"/><path class="cls-1" d="m10.2,17.53s.05.04.13.04c.09,0,.11,0,.05-.04-.09-.06-.18-.06-.18,0Z"/><path class="cls-1" d="m18.37,17.53s.04.04.09.04.09-.02.09-.04c0-.03-.04-.04-.09-.04s-.09.02-.09.04Z"/><path class="cls-1" d="m10.47,17.61s.04.04.09.04.09.03.09.07c0,.05.05.07.18.07.1,0,.18.02.18.04,0,.02.04.04.1.04.09,0,.09,0-.03-.11-.08-.06-.17-.09-.21-.09-.04.01-.13,0-.21-.05-.16-.09-.19-.09-.19-.03Z"/><path class="cls-1" d="m17.92,17.67c-.11.11-.1.13.05.13.07,0,.14-.03.16-.07.01-.04.07-.07.12-.07s.09-.02.09-.04c0-.05-.03-.05-.16,0-.05.02-.11.02-.13,0-.02-.02-.08,0-.12.05Z"/><path class="cls-1" d="m17.56,17.86s-.08.07-.11.06c-.1-.01-.16,0-.16.05,0,.02.06.04.13.04.09,0,.13-.02.13-.07,0-.04.04-.07.11-.07.06,0,.11-.02.11-.04,0-.07-.16-.05-.22.02Z"/><path class="cls-1" d="m11.24,17.92c-.11.04-.05.1.1.1.16,0,.21-.06.09-.11-.08-.03-.1-.03-.18,0Z"/><path class="cls-1" d="m17.03,18.04c-.05.06-.04.07.09.07.15,0,.19-.06.07-.11-.09-.04-.09-.04-.15.04Z"/><path class="cls-1" d="m11.55,18.07s.06.04.13.04c.08,0,.13-.02.13-.04,0-.02-.06-.04-.13-.04-.07,0-.13.02-.13.04Z"/><path class="cls-1" d="m11.86,18.15s.09.04.2.04c.15,0,.2.02.2.07s.05.07.2.07c.11,0,.2-.02.2-.04,0-.03-.07-.04-.14-.04-.08,0-.2-.03-.26-.07-.13-.07-.4-.09-.4-.02Z"/><path class="cls-1" d="m16.53,18.15s.09.04.2.04.2-.02.2-.04-.09-.04-.2-.04c-.11,0-.2.01-.2.04Z"/><path class="cls-1" d="m16.21,18.23c-.15.04-.08.1.1.1.13,0,.18-.02.18-.07,0-.07-.11-.08-.28-.04Z"/><path class="cls-1" d="m13.33,18.29s-.34.07-.46.04c-.09-.02-.16,0-.16.04,0,.03.15.04.36.04.28,0,.36-.01.36-.06,0-.09-.08-.13-.1-.07Z"/><path class="cls-1" d="m15.4,18.32c-.08.08,0,.1.33.1.22,0,.36-.02.36-.04s-.07-.04-.14-.04c-.08,0-.23,0-.33-.02-.1,0-.2,0-.21,0Z"/><path class="cls-1" d="m13.66,18.42s-.09.03-.12.01c-.03-.01-.06,0-.06.04,0,.05.14.07.92.07.72,0,.92,0,.92-.05s-.16-.06-.73-.05c-.4,0-.76,0-.8-.03-.04-.02-.09-.02-.13,0Z"/><path class="cls-1" d="m21.46,18.94c-.04.09-.07.18-.07.2,0,.02-.05.14-.12.28-.11.22-.13.28-.22.49-.01.04-.04.1-.06.13-.1.17-.14.27-.14.31,0,.03-.07.2-.16.39s-.16.36-.16.39c0,.11-.25.55-.38.67-.18.18-.33.16-.53-.04-.09-.09-.17-.19-.17-.21,0-.03-.09-.16-.2-.29s-.22-.28-.23-.33c-.01-.04-.04-.08-.06-.08-.01,0-.06-.06-.11-.13l-.08-.13.27-.19c.15-.11.3-.25.34-.32.08-.16.09-.48,0-.66-.07-.17-.35-.37-.6-.45-.23-.07-2.13-.08-2.13,0,0,.02.05.04.1.04.06,0,.15.04.2.09.1.08.1.11.1,1.38,0,1.2,0,1.31-.08,1.37-.04.04-.14.08-.2.08-.07,0-.12.02-.12.04s.28.04.76.04.76-.02.76-.04-.06-.04-.13-.04c-.23,0-.27-.13-.26-.75.01-.52.02-.53.12-.55.06,0,.11.01.13.07.02.04.09.16.18.26.08.1.15.2.15.23,0,.03.03.08.07.11.04.04.12.13.18.22.06.09.16.23.22.32l.11.17h.99c.63,0,.99-.02.99-.04s-.06-.04-.13-.04c-.27,0-.35-.27-.18-.63l.1-.2h.53s.53-.03.53-.03l.06.13c.23.45.23.73,0,.73-.06,0-.11.02-.11.04s.26.04.7.04.7-.02.7-.04-.02-.04-.04-.04c-.07,0-.31-.28-.31-.36,0-.04-.02-.09-.04-.11-.02-.02-.11-.23-.21-.47s-.22-.53-.27-.65c-.3-.65-.34-.75-.34-.82,0-.04-.05-.17-.11-.27-.06-.1-.11-.22-.11-.25,0-.03-.04-.09-.09-.13-.09-.08-.09-.08-.16.09Zm-3,.28c.18.1.23.23.23.55,0,.14-.02.31-.05.37-.07.17-.28.26-.58.26h-.27v-1.26h.27c.17,0,.31.03.4.08Zm2.92.78s.04.17.09.28c.1.22.23.53.23.55,0,0-.19.02-.43.02-.32,0-.43-.01-.43-.06,0-.03.07-.2.16-.38s.16-.35.16-.38c0-.09.09-.17.16-.14.04.01.06.06.06.11Z"/><path class="cls-1" d="m0,18.96s.04.04.1.04.15.04.2.1c.1.1.1.13.1,1.39,0,1.18,0,1.28-.08,1.35-.04.04-.14.08-.2.08-.07,0-.12.02-.12.04s.28.04.76.04.76-.02.76-.04-.06-.04-.13-.04c-.24,0-.29-.12-.31-.72-.02-.61-.06-.56.44-.6.37-.03.5-.07.7-.24.13-.11.21-.22.27-.39.08-.23.08-.25,0-.44-.09-.23-.4-.52-.56-.52-.05,0-.11-.02-.12-.04-.02-.03-.37-.04-.93-.04s-.89.02-.89.04Zm1.55.26c.23.18.3.53.17.86-.09.22-.24.33-.45.31h-.17s0-.6,0-.6c0-.32,0-.6.01-.62.04-.06.35-.03.44.05Z"/><path class="cls-1" d="m2.79,18.96s.06.04.13.04c.27,0,.28.03.28,1.49,0,.97-.01,1.34-.05,1.38-.03.03-.12.05-.2.05s-.15.02-.15.04.47.04,1.32.04h1.32l.03-.22c.02-.12.04-.25.05-.3.07-.27.07-.37.03-.4-.03-.02-.06,0-.08.05-.1.3-.19.42-.49.57-.18.09-.28.12-.54.12-.46,0-.47-.02-.47-.73v-.57h.15c.2,0,.37.18.45.49.04.13.08.24.1.23.06-.01.05-1.67,0-1.68-.02,0-.06.06-.07.14-.06.35-.26.58-.49.58h-.13v-1.17h.38c.21,0,.42.02.46.04.04.02.11.05.16.07s.13.15.2.3c.07.14.13.27.16.27.02,0,.03-.2.03-.45v-.45h-1.28c-.82,0-1.28.02-1.28.04Z"/><path class="cls-1" d="m5.88,18.96s.06.04.13.04c.08,0,.17.04.22.1.1.1.1.13.1,1.39,0,1.18,0,1.28-.08,1.35-.04.04-.15.08-.22.08-.08,0-.14.02-.14.04,0,.03.45.04,1.33.04h1.33s.05-.35.05-.35c.07-.41.08-.58.02-.58-.02,0-.05.05-.06.12-.03.16-.33.51-.43.51-.04,0-.12.03-.16.07-.06.04-.2.07-.41.07-.28,0-.33-.01-.42-.1-.09-.1-.09-.14-.09-.64v-.53s.18-.01.18-.01c.16-.01.18,0,.31.2.07.12.15.28.16.36.07.35.11.09.11-.68,0-.53-.02-.83-.04-.83-.02,0-.04.04-.04.09,0,.15-.21.51-.33.58-.06.03-.16.05-.22.04-.11-.01-.11-.02-.11-.58v-.56h.38c.22-.02.4,0,.43.02.02.02.08.04.12.04.11,0,.3.24.34.43.05.3.11.16.11-.29v-.45h-1.28c-.82,0-1.28.02-1.28.04Z"/><path class="cls-1" d="m9.03,18.96s.05.04.13.04c.07,0,.16.04.2.09.07.08.08.22.08,1.39s0,1.3-.08,1.37c-.04.04-.14.08-.2.08-.07,0-.12.02-.12.04s.28.04.76.04.76-.02.76-.04-.06-.04-.13-.04c-.24,0-.3-.13-.31-.69,0-.28.01-.53.04-.56.06-.08.21-.07.24.02.04.1.43.66.48.68.02,0,.07.09.12.19.04.09.14.23.2.31q.12.14.57.14c.24,0,.44,0,.44-.02s-.08-.09-.18-.18c-.09-.09-.29-.34-.44-.55-.14-.22-.31-.44-.36-.5-.06-.06-.1-.13-.1-.16,0-.02.11-.11.24-.19.27-.17.43-.41.43-.66,0-.31-.29-.68-.61-.76-.21-.06-2.18-.08-2.18-.02Zm1.74.25c.08.04.18.11.21.17.08.12.09.6.02.77-.07.16-.33.26-.62.24h-.24s0-.6,0-.6c0-.32,0-.6,0-.62.03-.06.49-.03.63.04Z"/><path class="cls-1" d="m13.64,18.95s-.04.63.01.66c.03.01.06,0,.07-.05.1-.31.26-.42.63-.42h.24v1.34c0,.98-.01,1.35-.05,1.39-.03.03-.12.05-.2.05s-.15.02-.15.04.29.04.79.04.79-.02.79-.04-.06-.04-.13-.04c-.27,0-.28-.03-.28-1.47v-1.31h.25c.35,0,.49.09.63.39.06.13.13.23.15.21.02-.02.03-.22.01-.44l-.02-.39h-1.36c-.75,0-1.37.01-1.39.03Z"/><path class="cls-1" d="m23.36,18.96s.04.04.1.04c.05,0,.14.04.2.09.1.09.1.09.1,1.39,0,1.2,0,1.3-.08,1.37-.04.04-.14.08-.2.08-.07,0-.12.02-.12.04s.29.04.79.04.79-.02.79-.04-.06-.04-.13-.04c-.26,0-.27-.06-.27-1.45s.01-1.47.27-1.47c.07,0,.13-.02.13-.04,0-.03-.29-.04-.79-.04s-.79.02-.79.04Z"/><path class="cls-1" d="m25.16,18.96s.03.04.07.04.13.06.22.14l.16.14v2.36l-.12.14c-.07.09-.16.14-.22.14-.06,0-.11.02-.11.04s.21.04.54.04c.31,0,.54-.02.54-.04,0-.03-.07-.05-.17-.06-.12,0-.19-.05-.26-.14-.09-.12-.09-.19-.1-1.16,0-.68,0-1.03.04-1.03.05,0,.22.18.44.47.78,1.03,1,1.32,1.24,1.61.08.09.18.23.22.31.18.3.19.21.19-1.27,0-1.25,0-1.41.08-1.53.04-.08.13-.14.2-.16.27-.05.1-.1-.35-.1s-.62.05-.34.1c.23.05.27.2.27,1.04,0,.42-.02.74-.04.74s-.12-.11-.22-.23c-.09-.13-.2-.27-.24-.31s-.15-.19-.25-.33c-.1-.14-.24-.34-.31-.43-.07-.09-.21-.26-.29-.38l-.16-.2h-.53c-.32,0-.53.01-.53.04Z"/></g></g></svg>