<?xml version="1.0" encoding="UTF-8"?><svg id="Layer_2" xmlns="http://www.w3.org/2000/svg" viewBox="0 0 52.75 12.81"><defs><style>.cls-1{fill:#fff;}</style></defs><g id="Layer_1-2"><g><path class="cls-1" d="m33.34,9.57l-2.7.94v-5.59l-2.25-2.73-1.8,2.18v-1.38h-2.25v-1.57h7.63v-.45h-8.08v2.02h-.9v3.38h.45v-2.93h2.7v1.48h0v5.6l-.68-.24v-1.88h-1.58v.45h1.13v1.27l-1.57-.55v-.52h-.45v.84l5.4,1.88,5.4-1.88v-.81s-.45,0-.45,0v.49Zm-6.76.43h0v-4.92l1.8-2.18,1.8,2.18v5.59l-.68.24v-2.19l-1.13-1.11-1.13,1.11v2.19l-.68-.24v-.67Zm1.13,1.06v-2.16l.68-.67.68.67v2.16l-.68.24-.67-.23Z"/><path class="cls-1" d="m28.7,7.05l.58-.58v-.64l-.58-.58h-.64l-.58.58v.64l.58.58h.64Zm-.77-1.03l.32-.32h.26l.32.32v.26l-.32.32h-.26l-.32-.32v-.26Z"/><rect class="cls-1" x="25" y="6.13" width=".45" height="1.34"/><rect class="cls-1" x="24.1" y="4.32" width=".45" height="1.34"/><rect class="cls-1" x="31.96" y="7.73" width="1.35" height=".45"/><rect class="cls-1" x="31.96" y="5.01" width="1.35" height=".45"/><rect class="cls-1" x="31.96" y="2.3" width="1.35" height=".45"/><rect class="cls-1" x="32.64" y="6.37" width=".67" height=".45"/><rect class="cls-1" x="32.64" y="3.68" width=".67" height=".45"/><g><path class="cls-1" d="m38.21,5.61h-.33l-.28-1c-.02-.06-.03-.16-.03-.22h-.02c0,.06-.01.16-.03.22l-.28,1h-.33l-.34-1.65h.31l.19,1.05c.01.08.03.18.03.24h.02c0-.06.03-.16.05-.24l.25-.95h.32l.26.95c.02.07.03.18.03.24h.02c0-.06.01-.17.03-.24l.2-1.05h.29l-.34,1.65Z"/><path class="cls-1" d="m39.43,4.98v.63h-.31v-.63l-.46-1.02h.32l.24.55c.02.05.05.14.05.18h.02s.03-.13.05-.18l.23-.55h.31l-.46,1.02Z"/><path class="cls-1" d="m40.65,5.61h-.54v-1.65h.54c.42,0,.73.19.73.8s-.26.86-.72.86m0-1.4h-.24v1.14h.23c.28,0,.4-.12.4-.6s-.15-.55-.39-.55"/><polygon class="cls-1" points="41.59 5.61 41.59 5.33 42.39 4.22 41.67 4.22 41.64 3.96 42.71 3.96 42.71 4.25 41.91 5.36 42.69 5.36 42.71 5.61 41.59 5.61"/><rect class="cls-1" x="43.02" y="3.96" width=".31" height="1.65"/><path class="cls-1" d="m44.64,5.61l-.12-.43h-.51l-.12.43h-.31l.49-1.65h.42l.48,1.65h-.32Zm-.18-.68l-.15-.54c-.02-.06-.03-.15-.03-.19h-.02s-.02.14-.03.19l-.15.54h.39Z"/><polygon class="cls-1" points="45.2 5.61 45.2 4.94 45.08 4.99 45.08 4.73 45.2 4.69 45.2 3.96 45.51 3.96 45.51 4.56 45.7 4.49 45.7 4.74 45.51 4.82 45.51 5.35 46.13 5.35 46.15 5.61 45.2 5.61"/><path class="cls-1" d="m37.53,8.32l-.12-.43h-.51l-.12.43h-.31l.49-1.65h.42l.48,1.65h-.32Zm-.18-.68l-.15-.54c-.02-.06-.03-.15-.03-.19h-.02s-.02.14-.03.19l-.15.54h.39Z"/><path class="cls-1" d="m39.26,8.32s-.09.01-.12.01c-.14,0-.21-.05-.28-.2l-.22-.45h-.23v.64h-.3v-1.65h.57c.32,0,.53.14.53.48,0,.23-.1.38-.29.45l.2.38c.03.05.04.07.09.07.02,0,.04,0,.05,0v.27Zm-.61-1.41h-.25v.53h.23c.17,0,.26-.09.26-.28,0-.16-.07-.25-.24-.25"/><path class="cls-1" d="m40.16,8.34c-.49,0-.68-.27-.68-.85,0-.62.25-.85.67-.85.12,0,.23.02.44.08l-.07.28c-.17-.06-.27-.09-.36-.09-.23,0-.36.08-.36.57s.14.59.37.59c.08,0,.18-.03.38-.12l.06.28c-.22.09-.34.11-.46.11"/><polygon class="cls-1" points="41.81 8.32 41.81 7.61 41.21 7.61 41.21 8.32 40.9 8.32 40.9 6.67 41.21 6.67 41.21 7.34 41.81 7.34 41.81 6.67 42.12 6.67 42.12 8.32 41.81 8.32"/><rect class="cls-1" x="42.55" y="6.67" width=".31" height="1.65"/><polygon class="cls-1" points="43.86 6.92 43.86 8.32 43.54 8.32 43.54 6.92 43.15 6.92 43.15 6.67 44.25 6.67 44.25 6.92 43.86 6.92"/><polygon class="cls-1" points="44.54 8.32 44.54 6.67 45.52 6.67 45.52 6.92 44.85 6.92 44.85 7.35 45.48 7.35 45.48 7.61 44.85 7.61 44.85 8.06 45.52 8.06 45.54 8.32 44.54 8.32"/><path class="cls-1" d="m47.09,8.32s-.08,0-.12,0c-.15,0-.2-.05-.29-.22l-.27-.5-.21.28v.44h-.31v-1.65h.31v.81h.02s.05-.11.11-.19l.46-.62h.32v.02l-.5.65.35.65c.03.06.05.07.1.07.02,0,.03,0,.05,0v.27Z"/><polygon class="cls-1" points="47.96 6.92 47.96 8.32 47.65 8.32 47.65 6.92 47.26 6.92 47.26 6.67 48.36 6.67 48.36 6.92 47.96 6.92"/><path class="cls-1" d="m49.24,8.34c-.37,0-.61-.13-.61-.61v-1.06h.31v1.06c0,.24.08.34.3.34.22,0,.31-.09.31-.34v-1.06h.3v1.06c0,.43-.22.61-.62.61"/><path class="cls-1" d="m51.44,8.32s-.09.01-.12.01c-.14,0-.21-.05-.28-.2l-.22-.45h-.23v.64h-.3v-1.65h.57c.32,0,.53.14.53.48,0,.23-.1.38-.29.45l.2.38c.03.05.04.07.09.07.02,0,.04,0,.05,0v.27Zm-.61-1.41h-.25v.53h.23c.17,0,.26-.09.26-.28,0-.16-.07-.25-.24-.25"/><path class="cls-1" d="m52.29,7.69v.63h-.31v-.63l-.46-1.02h.32l.24.55c.02.05.05.14.05.18h.01s.03-.13.05-.18l.23-.55h.31l-.46,1.02Z"/><polygon class="cls-1" points="4.13 1.1 3.76 1.38 3.91 1.59 4.22 1.37 4.57 1.37 4.68 .54 3.89 .4 3.82 .82 4.08 .87 4.11 .7 4.38 .75 4.34 1.1 4.13 1.1"/><polygon class="cls-1" points="13.5 1.37 13.8 1.59 13.96 1.38 13.59 1.1 13.38 1.1 13.33 .75 13.61 .7 13.64 .87 13.9 .82 13.82 .4 13.03 .54 13.15 1.37 13.5 1.37"/><path class="cls-1" d="m16.45,2.93l-.16.21.42.32.36-.48v-.21l-.73-.55-.57.75v.42l.48.36v.53h0s-.91-.68-.91-.68v-.54l-.54-.41.15-.2-.77-.57.24-.13.68.51-.15.2.49.37.16-.21-.49-.37.15-.2-.58-.44h0v-.3l.73.55-.15.2.4.3.16-.21-.39-.3.15-.2-.89-.67v-.31l1.04.78-.15.2.3.22.16-.21-.3-.22.15-.2-1.2-.9v-.34h-.26v.29l-.41.07.05.26.37-.07v.9l-.71.39-.33-.24-.16.21.23.17-.42.23-.8-.39-.2-.58h-.33v-.5h-5.72v.5h-.33l-.2.58-.8.39-.42-.23.23-.17-.16-.21-.33.24-.71-.39v-.9l.37.07.05-.26-.41-.07v-.29h-.26v.34l-1.2.9.15.2-.29.22.16.21.3-.22-.15-.2,1.04-.78v.31l-.89.67.15.2-.39.3.16.21.4-.3-.15-.2.73-.55v.3h0s-.58.44-.58.44l.15.2-.49.37.16.21.49-.37-.15-.2.68-.51.24.13-.77.57.15.2-.54.41v.54l-.91.68h0v-.53l.48-.36v-.42l-.57-.75-.73.55v.21l.36.48.42-.32-.16-.21-.21.16-.15-.2.41-.31.36.47v.2l-.48.36v.75l.21.28.47-.35v.86h-.47l-.42.59.75,1.51h1.36v-.27s-.32-.65-.32-.65h-.37l-.15-.3h.84v-1.36l.28-.21,1.07.55v.73l-.25.36.24.49h.37l.19.38h-.9l-.46-.93.23-.32v-.58h-.5v.26h.24v.23l-.27.38.61,1.22h1.36v-.27s-.32-.65-.32-.65h-.37l-.1-.2.21-.3v-.97l-1.1-.56.45-.34v.33h1.57l.38-.11v1.65l2.86,1.1,2.86-1.1v-1.39l.39.11,1.56-.34v-.25l.45.34-1.1.56v.97l.21.3-.1.2h-.37l-.32.65v.27h1.36l.61-1.22-.27-.38v-.23h.24v-.26h-.5v.58l.23.32-.46.93h-.9l.19-.38h.37l.24-.49-.25-.36v-.73l1.07-.55.28.21v1.36h.84l-.15.3h-.37l-.32.65v.27h1.36l.75-1.51-.41-.59h-.47v-.86l.47.35.21-.28v-.75l-.48-.36v-.2l.36-.47.41.31-.15.2-.21-.16Zm-4.6-1.44l.17.51.73.36v.61l-.75-.56h-.29v-.92h.14Zm.89,1.8l-.57.27-.14-.4h-.32v-.49h.2l.83.62Zm-6.75-.38h-.32l-.15.43-.52-.08.79-.59h.2v.24Zm-1.04.34h0s0,0,0,0h0Zm.73-1.26l.17-.51h.14v.92h-.29l-.75.56v-.61l.73-.36Zm9.9,3.16h-.26v.26h.86l.25.35-.61,1.22h-.9l.19-.38h.37l.41-.82h-1v-1.22l-1.15-.86.25-.33-.21-.16-.39.51v.29l-1.28.28-.4-.12v-.22h-.26v1.7l-2.6,1-2.6-1v-1.96h-.26v.22l-.41.12h-1.27v-.32l-.38-.51-.21.16.25.33-1.15.86v1.22h-1l.41.82h.37l.19.38h-.9l-.61-1.22.25-.35h.86v-.26h-.26v-1.06l.49-.37v-.54l.52-.39-.15-.2.78-.58.92.5v.97l1.02.15.16-.46h.4V.99h5.19v2.44h.4l.17.5,1-.47v-.94l.92-.5.78.58-.15.2.52.39v.54l.49.37v1.06Z"/><path class="cls-1" d="m6.52,1.25v4.24l2.34.9,2.34-.9V1.25h-4.68Zm1.61,3.55s-.07.04-.1.06c-.03.02-.07.03-.09.04-.03.01-.07.02-.1.03-.04,0-.07,0-.12,0-.06,0-.12,0-.17-.02-.05-.01-.1-.04-.14-.07-.04-.03-.07-.07-.09-.11-.02-.04-.03-.1-.03-.16v-.43c0-.06.01-.11.04-.16.02-.04.06-.08.09-.11.04-.03.09-.05.14-.07.05-.01.11-.02.17-.02.07,0,.14.01.2.03.07.02.12.06.18.11l-.09.15s-.09-.06-.14-.08c-.05-.02-.1-.03-.15-.03-.03,0-.06,0-.09.01-.03,0-.06.02-.08.03-.02.01-.04.04-.05.06-.01.02-.02.05-.02.08v.43s0,.06.02.09c.01.02.03.04.05.06.02.01.04.02.07.03.03,0,.06,0,.09,0,.04,0,.08,0,.11,0,.03,0,.06-.02.1-.04v-.24h-.16v-.17h.37v.5Zm.03-2.18s0,.09-.03.12c-.02.04-.04.06-.07.09-.03.02-.07.04-.11.05-.04.01-.09.02-.13.02h-.28v.41h-.2v-1.12h.48s.09,0,.14.02c.04.01.08.03.11.06.03.02.05.06.07.09.02.04.03.08.03.13v.13Zm.79,2.45h-.17v-2.91h.17v2.91Zm1.55-.28l-.3-.04.04.3h-.29l.04-.3-.31.04v-.29l.31.04-.04-.3h.29l-.04.3.3-.04v.29Zm0-1.18l-.3-.04.04.3h-.29l.04-.3-.31.04v-.29l.31.04-.04-.3h.29l-.04.3.3-.04v.29Zm.07-1.16v.24h-.95v-.24l-.05-.39.24.16-.06.23h.28l-.09-.23.16-.26.16.26-.09.23h.28l-.06-.23.23-.16-.05.39Zm-2.74-.08h-.27v.35h.27s.07,0,.09-.02c.03-.02.04-.04.04-.08v-.13s-.01-.07-.04-.09c-.03-.02-.06-.03-.09-.03"/><polygon class="cls-1" points="15.53 10.13 16 10.13 15.23 9.1 15.95 8.23 15.49 8.23 14.94 8.96 14.83 8.96 14.83 8.23 14.48 8.23 14.48 10.13 14.83 10.13 14.83 9.29 14.95 9.29 15.53 10.13"/><path class="cls-1" d="m.64,8.23c.08,0,.16.01.23.03.07.02.13.05.18.1.05.04.09.1.12.16.03.06.04.14.04.22v.22c0,.08-.01.15-.05.21-.03.06-.07.11-.12.15-.05.04-.11.07-.18.09-.07.02-.14.03-.22.03h-.29v.7h-.35v-1.9h.64Zm.23.51c0-.07-.02-.12-.07-.15-.04-.04-.1-.05-.17-.05h-.29v.59h.29c.06,0,.11-.01.16-.04.05-.03.07-.07.07-.13v-.22Z"/><path class="cls-1" d="m2.51,8.24c.09.03.17.07.24.12.07.05.12.12.17.19.04.08.06.16.06.26v.72c0,.1-.02.19-.06.27-.04.08-.09.14-.16.2-.07.05-.15.09-.24.12-.09.03-.19.04-.29.04h-.04c-.1,0-.2-.01-.29-.04-.09-.03-.17-.07-.24-.12-.07-.05-.12-.12-.16-.19-.04-.08-.06-.17-.06-.27v-.72c0-.1.02-.19.06-.26.04-.08.1-.14.17-.19.07-.05.15-.09.24-.12.09-.03.18-.04.28-.04h.04c.1,0,.19.01.28.04m.12.58c0-.05-.01-.09-.03-.13-.02-.04-.05-.07-.09-.1-.04-.03-.08-.05-.13-.06-.05-.01-.1-.02-.15-.02h-.04c-.05,0-.1,0-.15.02-.05.01-.09.03-.13.06-.04.03-.07.06-.09.1-.02.04-.03.08-.03.13v.72c0,.05.01.1.03.14.02.04.05.07.09.1.04.03.08.04.13.06.05.01.1.02.15.02h.04c.05,0,.1,0,.15-.02.05-.01.09-.03.13-.06.04-.03.07-.06.09-.1.02-.04.03-.08.03-.14v-.72Z"/><polygon class="cls-1" points="3.6 8.23 3.6 9.83 4.4 9.83 4.4 10.13 3.25 10.13 3.25 8.23 3.6 8.23"/><rect class="cls-1" x="4.65" y="8.23" width=".35" height="1.9"/><polygon class="cls-1" points="5.24 8.54 5.24 8.23 6.72 8.23 6.72 8.54 6.15 8.54 6.15 10.13 5.8 10.13 5.8 8.54 5.24 8.54"/><polygon class="cls-1" points="7.31 9.3 7.31 9.83 8.09 9.83 8.09 10.13 6.96 10.13 6.96 8.23 8.03 8.23 8.03 8.54 7.31 8.54 7.31 9.01 7.92 9.01 7.92 9.3 7.31 9.3"/><path class="cls-1" d="m9.05,8.51c-.05,0-.1,0-.14.02-.05.01-.09.03-.12.06-.03.03-.06.06-.08.1-.02.04-.03.08-.03.13v.72c0,.11.04.19.11.24.07.05.16.07.27.07.1,0,.18-.01.26-.04.08-.03.15-.07.22-.12l.15.25c-.09.08-.19.14-.29.17-.1.03-.21.04-.34.04-.1,0-.2-.01-.29-.04-.09-.03-.17-.07-.23-.12-.06-.05-.12-.12-.15-.19-.04-.08-.06-.17-.06-.27v-.72c0-.1.02-.18.06-.26.04-.08.09-.14.16-.2.07-.05.14-.09.23-.12.09-.03.18-.04.28-.04.08,0,.14,0,.2.02.06.01.11.03.16.05.05.02.09.05.13.08.04.03.09.07.13.12l-.19.24c-.06-.06-.12-.1-.19-.14-.07-.04-.15-.06-.24-.06"/><polygon class="cls-1" points="11.07 8.23 11.42 8.23 11.42 10.13 11.07 10.13 11.07 9.36 10.29 9.36 10.29 10.13 9.94 10.13 9.94 8.23 10.29 8.23 10.29 9.06 11.07 9.06 11.07 8.23"/><polygon class="cls-1" points="13.05 8.23 13.35 8.23 13.35 10.13 12.87 10.13 12.1 8.63 12.1 10.13 11.79 10.13 11.79 8.23 12.25 8.23 13.05 9.77 13.05 8.23"/><rect class="cls-1" x="13.74" y="8.23" width=".35" height="1.9"/><path class="cls-1" d="m17.1,8.22l.61,1.92h-.36l-.13-.45h-.66l-.13.45h-.37l.63-1.92h.42Zm.03,1.19l-.24-.83-.25.83h.49Z"/><polygon class="cls-1" points="12.65 12.78 13.12 12.78 12.35 11.75 13.06 10.88 12.61 10.88 12.06 11.61 11.95 11.61 11.95 10.88 11.6 10.88 11.6 12.78 11.95 12.78 11.95 11.94 12.07 11.94 12.65 12.78"/><path class="cls-1" d="m3.63,11.73h.71v.85c-.06.04-.12.07-.17.1-.05.03-.11.05-.16.07-.05.02-.11.04-.17.05-.06.01-.12.01-.19.01-.11,0-.21-.01-.3-.04-.09-.03-.17-.06-.24-.11-.07-.05-.12-.11-.16-.19-.04-.08-.06-.17-.06-.28v-.72c0-.1.02-.19.06-.27.04-.08.09-.14.16-.19.07-.05.15-.09.24-.12.09-.03.19-.04.29-.04.12,0,.24.02.35.06.11.04.21.1.3.18l-.16.25c-.07-.05-.15-.1-.23-.13-.09-.03-.17-.05-.26-.05-.05,0-.1,0-.15.02-.05.01-.09.03-.13.06-.04.03-.07.06-.09.1-.02.04-.03.08-.03.13v.72c0,.06.01.1.03.14s.05.07.09.1c.04.03.08.04.13.06.05.01.1.02.16.02.07,0,.13,0,.18-.01.05,0,.11-.03.17-.07v-.41h-.36v-.28Z"/><path class="cls-1" d="m5.28,10.88c.11,0,.2.01.29.04.09.02.16.06.23.11.06.05.11.11.15.19.04.08.05.17.05.28v.67c0,.11-.02.2-.06.28-.04.08-.09.14-.16.19s-.15.09-.24.11c-.09.02-.19.04-.29.04h-.6v-1.9h.63Zm.37.62c0-.05,0-.1-.03-.14-.02-.04-.04-.07-.08-.1-.03-.03-.07-.04-.12-.05-.05-.01-.1-.02-.15-.02h-.29v1.29h.26c.05,0,.11,0,.16-.02s.09-.03.13-.05c.04-.03.07-.06.09-.1.02-.04.03-.09.03-.14v-.67Z"/><path class="cls-1" d="m7.19,10.87l.61,1.92h-.36l-.13-.45h-.66l-.13.45h-.37l.63-1.92h.42Zm.03,1.19l-.24-.83-.25.83h.49Z"/><polygon class="cls-1" points="9.3 10.88 9.61 10.88 9.61 12.78 9.12 12.78 8.35 11.28 8.35 12.78 8.04 12.78 8.04 10.88 8.5 10.88 9.3 12.42 9.3 10.88"/><path class="cls-1" d="m10.71,11.66c.1.02.18.05.26.08.08.03.14.07.2.11.05.04.09.1.12.16.03.06.04.14.04.23,0,.1-.02.18-.06.25-.04.07-.09.13-.15.17s-.14.08-.22.1c-.08.02-.17.03-.27.03-.08,0-.15,0-.22-.02-.07-.02-.14-.04-.21-.07-.06-.03-.12-.07-.18-.11-.06-.04-.1-.09-.14-.15l.23-.22s.05.07.09.1c.04.03.08.06.12.08.04.02.09.04.14.06.05.02.09.02.14.02.04,0,.09,0,.13-.01.04,0,.08-.02.12-.04.04-.02.06-.04.09-.08.02-.03.03-.07.03-.12s-.02-.09-.05-.12c-.03-.03-.07-.06-.12-.08-.05-.02-.1-.04-.15-.05-.05-.01-.1-.03-.15-.04-.09-.03-.17-.06-.24-.09-.07-.03-.13-.07-.18-.11-.05-.04-.09-.1-.11-.16-.03-.06-.04-.13-.04-.21,0-.09.02-.17.05-.24.04-.07.09-.12.15-.17.06-.04.14-.08.22-.1.08-.02.17-.03.27-.03.13,0,.25.02.36.07.1.04.19.1.27.16l-.19.26s-.05-.04-.08-.06c-.03-.02-.07-.04-.11-.06-.04-.02-.08-.03-.12-.04-.04-.01-.08-.02-.12-.02-.04,0-.08,0-.13.01s-.08.02-.11.04c-.03.02-.06.04-.08.07-.02.03-.03.07-.03.11s.01.08.04.11c.03.03.06.05.1.08.04.02.08.04.13.05.05.01.1.03.14.04"/><path class="cls-1" d="m14.22,10.87l.61,1.92h-.36l-.13-.45h-.66l-.13.45h-.37l.63-1.92h.42Zm.03,1.19l-.24-.83-.25.83h.49Z"/><polygon class="cls-1" points="8.91 10.51 9.25 10.51 8.99 10.97 8.78 10.97 8.91 10.51"/><rect class="cls-1" x="20.23" y="2.24" width=".22" height="8.31"/></g></g></g></svg>