<?xml version="1.0" encoding="UTF-8"?><svg id="Layer_2" xmlns="http://www.w3.org/2000/svg" viewBox="0 0 38.31 16.7"><defs><style>.cls-1{fill:#fff;}</style></defs><g id="Layer_1-2"><g><g><path class="cls-1" d="m6.34,7.31h.69c.86,0,1.55-.7,1.55-1.55s-.7-1.55-1.55-1.55h-1.75v4.13h1.06v-1.02Zm0-2.06h.69c.28,0,.5.23.5.5s-.23.5-.5.5h-.69v-1.01Z"/><polygon class="cls-1" points="23.15 7.28 21.9 7.28 21.9 4.2 20.81 4.2 20.81 8.33 23.15 8.33 23.15 7.28"/><polygon class="cls-1" points="36.34 4.12 34.37 8.33 35.55 8.33 36.34 6.46 37.12 8.33 38.3 8.33 36.34 4.12"/><path class="cls-1" d="m28.88,7.37c-.47,0-.89-.2-1.06-.31l-.5.91c.18.13.81.43,1.56.43,1.05,0,1.62-.63,1.62-1.38,0-.7-.4-1.07-1.35-1.26-.21-.04-.6-.15-.6-.36,0-.24.2-.29.48-.29.31,0,.6.09.89.23l.46-.87c-.18-.12-.74-.36-1.36-.36-.86,0-1.62.47-1.62,1.31,0,.66.38,1.06,1.07,1.23.47.11.85.2.85.45,0,.17-.14.26-.47.26Z"/><path class="cls-1" d="m14.38,4.2s-.01,0-.02,0c-.42-1.65-1.33-3.11-2.57-4.2l-.04.04c1.12,1.13,1.93,2.57,2.25,4.19-.96.18-1.69,1.02-1.69,2.03,0,.95.64,1.75,1.51,1.99-1.02,3.42-4.18,5.91-7.93,5.91-2.28,0-4.35-.93-5.85-2.42l-.04.04c1.53,1.73,3.77,2.83,6.26,2.83,3.9,0,7.18-2.67,8.1-6.29,0,0,.01,0,.02,0,1.14,0,2.06-.92,2.06-2.06s-.92-2.06-2.06-2.06Z"/></g><g><path class="cls-1" d="m21.93,12.35c.12.1.18.24.18.42s-.06.32-.18.42c-.12.1-.29.15-.49.15h-.4v.5h-.23v-1.65h.63c.21,0,.37.05.49.15Zm-.17.7c.08-.06.12-.16.12-.27s-.04-.21-.12-.27c-.08-.06-.19-.1-.34-.1h-.39v.74h.39c.15,0,.26-.03.34-.1Z"/><path class="cls-1" d="m22.61,13.78c-.1-.06-.17-.13-.23-.23-.05-.1-.08-.21-.08-.33s.03-.23.08-.33c.05-.1.13-.17.23-.23.1-.05.21-.08.33-.08s.23.03.33.08c.1.05.17.13.23.23.05.1.08.21.08.33s-.03.23-.08.33c-.05.1-.13.17-.23.23-.1.06-.21.08-.33.08s-.23-.03-.33-.08Zm.54-.17c.06-.04.11-.09.15-.16.04-.07.05-.14.05-.23s-.02-.16-.05-.23c-.04-.07-.08-.12-.15-.15-.06-.04-.13-.05-.21-.05s-.15.02-.21.05c-.06.04-.11.09-.15.15-.04.07-.05.14-.05.23s.02.16.05.23c.04.07.09.12.15.16.06.04.13.06.21.06s.15-.02.21-.06Z"/><path class="cls-1" d="m23.88,12.1h.22v1.75h-.22v-1.75Z"/><path class="cls-1" d="m24.59,13.82c-.09-.03-.16-.06-.22-.1l.09-.18c.05.04.12.07.2.09.08.02.15.04.23.04.19,0,.29-.06.29-.17,0-.04-.01-.07-.04-.09-.03-.02-.06-.04-.1-.05-.04-.01-.1-.02-.17-.03-.1-.02-.18-.03-.24-.05-.06-.02-.12-.05-.16-.1s-.07-.12-.07-.21c0-.11.05-.2.14-.27.09-.07.22-.1.37-.1.08,0,.16.01.25.03.08.02.15.05.2.08l-.09.18c-.1-.07-.22-.1-.35-.1-.09,0-.17.02-.21.05-.05.03-.07.07-.07.13,0,.04.01.07.04.1.03.02.06.04.1.05.04.01.1.02.17.04.1.02.18.04.24.06.06.02.11.05.16.1.04.05.06.11.06.2,0,.11-.05.2-.14.27-.09.07-.22.1-.39.1-.1,0-.2-.01-.29-.04Z"/><path class="cls-1" d="m26.16,13.27l-.25.24v.34h-.22v-1.75h.22v1.12l.67-.62h.27l-.52.52.57.73h-.27l-.46-.58Z"/><path class="cls-1" d="m27.92,12.72c.09.08.14.21.14.38v.75h-.21v-.17c-.04.06-.09.1-.16.13s-.15.05-.24.05c-.14,0-.25-.03-.33-.1-.08-.07-.12-.16-.12-.27s.04-.2.12-.27c.08-.07.2-.1.37-.1h.35v-.04c0-.1-.03-.17-.08-.22-.06-.05-.14-.08-.24-.08-.07,0-.14.01-.21.04s-.13.06-.18.1l-.09-.17c.06-.05.14-.09.23-.12.09-.03.18-.04.28-.04.17,0,.3.04.39.13Zm-.22.92c.06-.04.11-.09.13-.16v-.17h-.34c-.19,0-.28.06-.28.19,0,.06.02.11.07.15.05.04.11.05.2.05s.16-.02.22-.06Z"/><path class="cls-1" d="m30.21,13.44h-.86l-.18.41h-.24l.73-1.65h.23l.73,1.65h-.24l-.18-.41Zm-.08-.19l-.35-.81-.35.81h.7Z"/><path class="cls-1" d="m32,12.6v1.08c0,.22-.05.38-.16.48s-.27.16-.48.16c-.12,0-.23-.02-.33-.05-.1-.03-.19-.08-.25-.14l.11-.17c.06.05.13.09.21.12.08.03.17.04.26.04.14,0,.25-.03.32-.1.07-.07.1-.17.1-.32v-.1c-.05.06-.12.11-.19.15-.08.03-.16.05-.25.05-.12,0-.22-.03-.32-.08-.09-.05-.17-.12-.22-.21-.05-.09-.08-.2-.08-.31s.03-.22.08-.31c.05-.09.13-.16.22-.21.09-.05.2-.08.32-.08.09,0,.18.02.26.05.08.03.14.09.2.15v-.19h.21Zm-.42.95c.06-.03.11-.08.15-.15.04-.06.05-.13.05-.21,0-.12-.04-.22-.12-.29-.08-.07-.18-.11-.3-.11s-.23.04-.31.11c-.08.07-.12.17-.12.29,0,.08.02.15.05.21.04.06.09.11.15.15.06.03.14.05.22.05s.15-.02.22-.05Z"/><path class="cls-1" d="m33.52,13.3h-.99c.01.11.06.2.14.27.08.07.18.1.3.1.15,0,.26-.05.35-.15l.12.15c-.06.07-.12.12-.21.15-.08.03-.17.05-.28.05-.13,0-.24-.03-.34-.08-.1-.05-.18-.13-.23-.23-.05-.1-.08-.21-.08-.33s.03-.23.08-.33c.05-.1.13-.17.22-.23.09-.05.2-.08.32-.08s.22.03.31.08c.09.05.16.13.22.23.05.1.08.21.08.33,0,.02,0,.04,0,.07Zm-.87-.42c-.07.07-.11.15-.13.26h.79c-.01-.11-.05-.19-.13-.26s-.16-.1-.27-.1-.2.03-.27.1Z"/><path class="cls-1" d="m34.85,12.73c.09.09.14.23.14.4v.72h-.22v-.69c0-.12-.03-.21-.09-.27-.06-.06-.14-.09-.24-.09-.12,0-.22.04-.28.11-.07.07-.1.17-.1.31v.64h-.22v-1.25h.21v.19c.04-.06.11-.11.18-.15.08-.03.16-.05.26-.05.16,0,.28.05.37.14Z"/><path class="cls-1" d="m35.59,13.78c-.1-.06-.17-.13-.23-.23-.06-.1-.08-.21-.08-.33s.03-.23.08-.33c.06-.1.13-.17.23-.23.1-.05.21-.08.33-.08.11,0,.21.02.3.07.09.05.15.11.2.2l-.17.11c-.04-.06-.09-.1-.14-.13-.06-.03-.12-.04-.19-.04-.08,0-.15.02-.22.05-.06.04-.11.09-.15.15-.04.07-.05.14-.05.23s.02.17.05.23c.04.07.09.12.15.15s.14.05.22.05c.07,0,.13-.01.19-.04.06-.03.1-.07.14-.13l.17.11c-.05.09-.12.15-.2.2-.09.05-.19.07-.3.07-.12,0-.24-.03-.33-.08Z"/><path class="cls-1" d="m36.39,14.3s-.08-.03-.12-.06l.07-.17s.11.06.18.06c.06,0,.1-.02.14-.06.03-.04.05-.09.05-.16v-1.31h.22v1.31c0,.13-.03.23-.1.3-.07.07-.16.11-.29.11-.05,0-.1,0-.15-.02Zm.32-1.99s-.04-.06-.04-.1.01-.08.04-.1c.03-.03.06-.04.11-.04s.08.01.11.04c.03.03.04.06.04.1s-.01.08-.04.11c-.03.03-.06.04-.11.04s-.08-.01-.11-.04Z"/><path class="cls-1" d="m38.17,12.72c.09.08.14.21.14.38v.75h-.21v-.17c-.04.06-.09.1-.16.13-.07.03-.15.05-.24.05-.14,0-.25-.03-.33-.1-.08-.07-.12-.16-.12-.27s.04-.2.12-.27c.08-.07.2-.1.37-.1h.35v-.04c0-.1-.03-.17-.08-.22-.06-.05-.14-.08-.24-.08-.07,0-.14.01-.21.04-.07.02-.13.06-.18.1l-.09-.17c.06-.05.14-.09.23-.12.09-.03.18-.04.28-.04.17,0,.3.04.39.13Zm-.22.92c.06-.04.11-.09.13-.16v-.17h-.34c-.19,0-.28.06-.28.19,0,.06.02.11.07.15.05.04.11.05.2.05s.16-.02.22-.06Z"/><path class="cls-1" d="m21.33,15.95l-.3.31v.43h-.23v-1.65h.23v.92l.88-.92h.26l-.69.74.74.91h-.27l-.62-.73Z"/><path class="cls-1" d="m22.58,16.61c-.1-.06-.17-.13-.23-.23-.05-.1-.08-.21-.08-.33s.03-.23.08-.33c.05-.1.13-.17.23-.23.1-.05.21-.08.33-.08s.23.03.33.08c.1.05.17.13.23.23.05.1.08.21.08.33s-.03.23-.08.33c-.05.1-.13.17-.23.23-.1.06-.21.08-.33.08s-.23-.03-.33-.08Zm.54-.17c.06-.04.11-.09.15-.16.04-.07.05-.14.05-.23s-.02-.16-.05-.23c-.04-.07-.08-.12-.15-.15-.06-.04-.13-.05-.21-.05s-.15.02-.21.05-.11.09-.15.15c-.04.07-.05.14-.05.23s.02.16.05.23c.04.07.09.12.15.16.06.04.13.06.21.06s.15-.02.21-.06Z"/><path class="cls-1" d="m23.92,16.66c-.09-.03-.16-.06-.22-.1l.09-.18c.05.04.12.07.2.09.08.02.15.04.23.04.19,0,.29-.06.29-.17,0-.04-.01-.07-.04-.09-.03-.02-.06-.04-.1-.05-.04-.01-.1-.02-.17-.03-.1-.02-.18-.03-.24-.05-.06-.02-.12-.05-.16-.1-.04-.05-.07-.12-.07-.21,0-.11.05-.2.14-.27.09-.07.22-.1.37-.1.08,0,.16.01.24.03.08.02.15.05.2.08l-.09.18c-.1-.07-.22-.1-.35-.1-.09,0-.17.02-.21.05-.05.03-.07.07-.07.12,0,.04.01.07.04.1.03.02.06.04.1.05.04.01.1.02.17.04.1.02.18.04.24.06.06.02.11.05.16.1.04.05.06.11.06.2,0,.11-.05.2-.14.27-.09.07-.22.1-.39.1-.1,0-.2-.01-.29-.04Z"/><path class="cls-1" d="m26.92,15.56c.09.09.14.23.14.41v.72h-.22v-.69c0-.12-.03-.21-.08-.27-.05-.06-.13-.09-.23-.09-.11,0-.2.04-.27.11-.07.07-.1.17-.1.31v.64h-.22v-.69c0-.12-.03-.21-.08-.27-.05-.06-.13-.09-.23-.09-.11,0-.2.04-.27.11-.07.07-.1.17-.1.31v.64h-.22v-1.25h.21v.19c.04-.06.1-.11.18-.15.07-.03.15-.05.25-.05s.18.02.25.06c.07.04.13.1.17.17.05-.07.11-.13.19-.17.08-.04.18-.06.28-.06.15,0,.28.05.37.14Z"/><path class="cls-1" d="m27.47,15.15s-.04-.06-.04-.1.01-.08.04-.11c.03-.03.06-.04.11-.04s.08.01.11.04c.03.03.04.06.04.1s-.01.08-.04.11c-.03.03-.06.04-.11.04s-.08-.01-.11-.04Zm0,.28h.22v1.25h-.22v-1.25Z"/><path class="cls-1" d="m28.32,16.61c-.1-.06-.17-.13-.23-.23-.06-.1-.08-.21-.08-.33s.03-.23.08-.33c.06-.1.13-.17.23-.23.1-.05.21-.08.33-.08.11,0,.21.02.3.07.09.05.15.11.2.2l-.17.11c-.04-.06-.09-.1-.14-.13-.06-.03-.12-.04-.19-.04-.08,0-.15.02-.22.05-.06.04-.11.09-.15.15-.04.07-.05.14-.05.23s.02.17.05.23c.04.07.09.12.15.15.06.04.14.05.22.05.07,0,.13-.01.19-.04.06-.03.1-.07.14-.13l.17.11c-.05.09-.12.15-.2.2-.09.05-.19.07-.3.07-.12,0-.24-.03-.33-.08Z"/><path class="cls-1" d="m30.34,16.5v.19h-1.03v-.15l.72-.92h-.71v-.19h.99v.15l-.72.92h.74Z"/><path class="cls-1" d="m31.66,15.56c.09.09.14.23.14.4v.72h-.22v-.69c0-.12-.03-.21-.09-.27-.06-.06-.14-.09-.24-.09-.12,0-.22.04-.28.11-.07.07-.1.17-.1.31v.64h-.22v-1.25h.21v.19c.04-.06.11-.11.18-.15.08-.03.16-.05.26-.05.16,0,.28.05.37.14Z"/><path class="cls-1" d="m33.05,15.55c.09.08.14.21.14.38v.75h-.21v-.17c-.04.06-.09.1-.16.13s-.15.05-.24.05c-.14,0-.25-.03-.33-.1-.08-.07-.12-.16-.12-.27s.04-.2.12-.27c.08-.07.2-.1.37-.1h.35v-.04c0-.1-.03-.17-.08-.22-.06-.05-.14-.08-.24-.08-.07,0-.14.01-.21.04-.07.02-.13.06-.18.1l-.09-.17c.06-.05.14-.09.23-.12.09-.03.18-.04.28-.04.17,0,.3.04.39.13Zm-.22.92c.06-.04.11-.09.13-.16v-.17h-.34c-.19,0-.28.06-.28.19,0,.06.02.11.07.15.05.04.11.05.2.05s.16-.02.22-.06Z"/></g></g></g></svg>