<?xml version="1.0" encoding="UTF-8"?><svg id="Layer_2" xmlns="http://www.w3.org/2000/svg" viewBox="0 0 45.52 15.17"><defs><style>.cls-1{fill:#fff;}</style></defs><g id="Layer_1-2"><path class="cls-1" d="m13.08,11.87l-1.34,1.4,1.54,1.9,1.71-1.93-1.9-1.37Zm16.77-4.42h-1.37c-.11,3.22-2.6,5.71-5.82,5.71s-5.82-2.63-5.82-5.94,2.55-5.91,5.82-5.91c2.91,0,5.24,2.07,5.74,4.84h1.4c-.5-3.5-3.5-6.16-7.14-6.16-4,0-7.22,3.22-7.22,7.22s3.22,7.25,7.22,7.25,7.08-3.08,7.2-7.03Zm-18.95,4.79l1.06-1.15-1.51-1.18-.81.84,1.26,1.48Zm28.28.67v1.26h6.36v-1.26h-6.36Zm0-12.57v1.26h6.36V.34h-6.36Zm-7.25,5.82v1.26h11.51v-1.26h-11.51ZM36.73.34v13.8h1.32V.34h-1.32Zm-5.6,0v13.8h1.32V.34h-1.32ZM11.96,11.09l1.12.78c.87-1.2,1.37-2.66,1.37-4.28C14.45,3.58,11.23.36,7.22.36S0,3.58,0,7.59s3.22,7.25,7.22,7.25c1.71,0,3.28-.59,4.51-1.57l-.84-1.04c-.98.81-2.27,1.29-3.67,1.29-3.28,0-5.82-2.63-5.82-5.94S3.95,1.68,7.22,1.68s5.82,2.63,5.82,5.91c0,1.29-.39,2.52-1.09,3.5Z"/></g></svg>