<?xml version="1.0" encoding="UTF-8" standalone="no"?><!DOCTYPE svg PUBLIC "-//W3C//DTD SVG 1.1//EN" "http://www.w3.org/Graphics/SVG/1.1/DTD/svg11.dtd"><svg width="100%" height="100%" viewBox="0 0 2894 1500" version="1.1" xmlns="http://www.w3.org/2000/svg" xmlns:xlink="http://www.w3.org/1999/xlink" xml:space="preserve" xmlns:serif="http://www.serif.com/" style="fill-rule:evenodd;clip-rule:evenodd;stroke-linejoin:round;stroke-miterlimit:2;"><g id="Warstwa-1" serif:id="Warstwa 1"><g><path d="M1290.52,874.738c-9.509,0 -18.875,-0.616 -28.075,-1.775c22.229,-12.571 42.416,-28.308 59.987,-46.617c85.775,-15.095 150.955,-89.895 150.955,-180.012c0,-90.096 -65.18,-164.892 -150.951,-179.996c-17.566,-18.313 -37.758,-34.046 -59.991,-46.617c9.204,-1.146 18.566,-1.766 28.075,-1.766c125.937,0 228.371,102.441 228.371,228.379c0,125.95 -102.434,228.404 -228.371,228.404m-384.105,-228.404c0,-125.938 102.45,-228.379 228.375,-228.379c125.942,0 228.396,102.441 228.396,228.379c0,125.95 -102.454,228.404 -228.396,228.404c-125.925,0 -228.375,-102.454 -228.375,-228.404m384.105,-260.2c-27.088,0 -53.196,4.225 -77.763,11.937c-24.625,-7.746 -50.817,-11.937 -77.967,-11.937c-143.475,0 -260.196,116.721 -260.196,260.2c0,143.483 116.721,260.225 260.196,260.225c27.15,0 53.342,-4.2 77.967,-11.95c24.567,7.725 50.675,11.95 77.763,11.95c143.483,0 260.187,-116.742 260.187,-260.225c0,-143.479 -116.704,-260.2 -260.187,-260.2" style="fill:#3b4453;fill-rule:nonzero;"/></g><g><path d="M2067.49,683.492l77.03,-180.458l79.225,180.458l-156.255,0Zm104.184,-288.858l-52.088,0l-217.154,501.067l73.362,0l63.817,-147.725l213.471,0l64.559,147.725l74.087,0l-220.054,-501.067Zm-413.142,214.221c-38.179,-23.959 -62.388,-40.33 -72.65,-49.121c-17.613,-15.654 -26.421,-32.263 -26.421,-49.871c-0,-17.096 6.958,-31.271 20.917,-42.521c13.933,-11.233 32.404,-16.871 55.408,-16.871c35.717,0 74.617,16.809 116.687,50.409l-0,-81.409c-37.612,-22.992 -75.475,-34.479 -113.55,-34.479c-43.958,0 -79.633,12.608 -106.958,37.767c-27.354,25.179 -41.033,57.079 -41.033,95.708c-0,33.254 10.741,61.613 32.225,85.071c15.141,16.146 47.121,39.854 95.954,71.129c31.742,20.063 52.483,35.209 62.262,45.467c14.163,14.683 21.242,31.554 21.242,50.629c-0,20.033 -7.087,35.813 -21.262,47.292c-14.175,11.487 -33.746,17.233 -58.667,17.233c-44.488,0 -88.229,-24.408 -131.234,-73.271l-0,94.638c38.605,31.796 83.809,47.667 135.63,47.667c43.987,0 79.675,-12.459 107.066,-37.38c27.363,-24.929 41.063,-56.458 41.063,-94.583c-0,-38.604 -10.267,-70.642 -30.821,-96.063c-15.175,-18.562 -43.779,-41.054 -85.858,-67.441m-1125.17,3.066l-59.308,0l-0,-156.375l59.308,0c34.175,0 59.308,6 75.421,18.004c16.108,11.988 24.167,31.934 24.167,59.825c-0,52.355 -33.196,78.546 -99.588,78.546m79.829,44.942c62.584,-19.587 93.879,-61.2 93.879,-124.863c-0,-43.595 -13.691,-77.37 -41.07,-101.362c-27.384,-24 -66.509,-36.004 -117.35,-36.004l-146.684,0l-0,501.067l72.088,0l-0,-223.38l21.233,0c25.875,0 48.083,8.059 66.65,24.18c12.692,11.216 30.258,33.92 52.725,68.104l85.825,131.096l86.567,0l-121.775,-183.167c-19.075,-28.804 -36.446,-47.371 -52.088,-55.671m523.267,23.979c-9.321,9.679 -21.362,14.513 -36.116,14.513l-32.305,0l-0,-103.671l32.305,0c14.754,0 26.795,4.796 36.116,14.387c9.338,9.604 13.996,22.025 13.996,37.321c-0,15.288 -4.658,27.759 -13.996,37.45m24.917,-106.154c-9.833,-7.458 -21.029,-12.542 -33.579,-15.263c-9.154,-1.862 -21.875,-2.8 -38.154,-2.8l-65.113,0l-0,173.776l65.113,0c15.1,0 26.545,-0.667 34.341,-2.03c11.529,-1.866 21.709,-5.591 30.53,-11.183c27.129,-17.321 40.687,-41.921 40.687,-73.796c-0,-28.671 -11.275,-51.571 -33.825,-68.704m-201.538,62.542c17.125,-9.325 25.684,-22.475 25.684,-39.442c-0,-13.229 -4.959,-23.871 -14.871,-31.933c-9.925,-8.046 -23.454,-12.092 -40.579,-12.092c-17.471,0 -31.975,3.058 -43.513,9.171l-0,29.787c11.875,-6.496 23.242,-9.741 34.1,-9.741c8.146,0 14.542,1.745 19.208,5.225c4.663,3.479 7.001,8.108 7.001,13.879c-0,6.633 -2.375,11.971 -7.13,16.041c-4.746,4.08 -11.283,6.205 -19.587,6.371l-0,31.084c19.133,0.846 28.704,8.816 28.704,23.933c-0,15.283 -9.925,22.921 -29.771,22.921c-11.712,0 -24.596,-4.558 -38.679,-13.738l-0,33.609c11.875,7.471 27.817,11.208 47.842,11.208c19.171,0 34.316,-4.629 45.446,-13.879c11.116,-9.258 16.679,-21.604 16.679,-37.063c-0,-22.416 -10.175,-37.525 -30.534,-45.341" style="fill:#981d33;fill-rule:nonzero;"/><path d="M2405.42,502.951l-13.032,0l0,-80.677l27.953,0c9.882,0 16.862,0.779 20.941,2.337c4.078,1.559 7.344,4.162 9.798,7.81c2.454,3.647 3.681,7.527 3.681,11.639c0,6.167 -2.155,11.373 -6.466,15.618c-4.311,4.244 -9.849,6.631 -16.613,7.162c3.051,1.26 5.919,3.333 8.605,6.217c2.686,2.885 6.085,7.611 10.196,14.176l9.749,15.718l-15.916,0l-7.063,-12.634c-5.107,-9.086 -9.152,-14.972 -12.137,-17.657c-2.984,-2.686 -6.963,-4.029 -11.937,-4.029l-7.759,0l0,34.32Zm0,-69.735l0,24.273l15.916,0c6.765,0 11.705,-0.978 14.822,-2.935c3.117,-1.956 4.676,-5.056 4.676,-9.301c0,-4.443 -1.509,-7.56 -4.526,-9.351c-3.018,-1.79 -8.34,-2.686 -15.967,-2.686l-14.921,0Zm17.01,-45.561c13.397,0 25.898,3.366 37.504,10.097c11.606,6.732 20.774,15.884 27.506,27.456c6.731,11.573 10.097,24.058 10.097,37.454c0,13.463 -3.35,25.964 -10.048,37.503c-6.698,11.54 -15.85,20.659 -27.456,27.357c-11.606,6.698 -24.14,10.047 -37.603,10.047c-13.529,0 -26.096,-3.332 -37.702,-9.997c-11.606,-6.666 -20.758,-15.784 -27.456,-27.357c-6.698,-11.573 -10.047,-24.09 -10.047,-37.553c0,-13.463 3.366,-25.98 10.097,-37.553c6.731,-11.573 15.9,-20.708 27.506,-27.406c11.605,-6.699 24.14,-10.048 37.602,-10.048Zm0,12.435c-17.242,-0 -31.982,6.118 -44.218,18.354c-12.235,12.236 -18.353,26.975 -18.353,44.218c0,17.309 6.101,32.049 18.304,44.218c12.202,12.17 26.958,18.254 44.267,18.254c17.243,-0 31.966,-6.101 44.169,-18.304c12.203,-12.202 18.304,-26.925 18.304,-44.168c0,-17.243 -6.118,-31.982 -18.354,-44.218c-12.236,-12.236 -26.942,-18.354 -44.119,-18.354Z" style="fill:#981d33;fill-rule:nonzero;"/></g><g><path d="M501.355,1146.14l0,-129.933l74.004,0l0,16.554l-55.55,0l0,38.429l53.837,0l0,16.738l-53.837,0l0,58.212l-18.454,0Zm214.429,-129.933l18.646,-0l-0,129.933l-18.646,-0l-0,-129.933Zm165.733,129.933l0,-129.933l18.455,-0l0,113.192l61.825,-0l0,16.741l-80.28,-0Zm238.405,-54.975l40.487,-0l-20.512,-46.8l-19.975,46.8Zm-42.838,54.975l56.309,-129.933l13.541,-0l57.038,129.933l-19.213,-0l-16.741,-38.237l-55.359,-0l-16.516,38.237l-19.059,-0Zm254.763,-0l-0,-129.933l16.171,-0l46.766,54.571l46.83,-54.571l16.166,-0l-0,129.933l-18.066,-0l-0,-101.429l-44.93,52.35l-44.866,-52.35l-0,101.429l-18.071,-0Zm271.917,-0l-0,-129.933l78.183,-0l-0,16.554l-59.733,-0l-0,39.379l58.021,-0l-0,16.742l-58.021,-0l-0,40.517l61.637,-0l-0,16.741l-80.087,-0Zm221.658,-0l-0,-129.933l16.171,-0l85.609,100.858l-0,-100.858l18.445,-0l-0,129.933l-16.512,-0l-85.259,-100.954l-0,100.954l-18.454,-0Zm301.338,-0l-0,-113l-47.754,-0l-0,-16.933l113.958,-0l-0,16.933l-47.75,-0l-0,113l-18.454,-0Zm192.904,-10.145l-0,-24.48c5.896,6.759 11.509,11.609 16.867,14.588c5.358,2.95 11.063,4.442 17.121,4.442c6.433,-0 11.508,-1.492 15.221,-4.505c3.704,-3.012 5.575,-7.07 5.575,-12.208c-0,-4.217 -1.234,-7.925 -3.738,-11.096c-2.508,-3.204 -8.5,-7.8 -17.95,-13.791c-14.708,-9.48 -23.904,-16.838 -27.675,-22.038c-3.746,-5.2 -5.616,-11.412 -5.616,-18.579c-0,-10.113 3.587,-18.392 10.716,-24.888c7.167,-6.471 16.396,-9.7 27.65,-9.7c5.009,-0 9.959,0.725 14.842,2.184c4.85,1.462 9.762,3.712 14.708,6.754l-0,21.117c-5.704,-4.601 -10.937,-7.93 -15.787,-10.021c-4.821,-2.059 -9.642,-3.109 -14.459,-3.109c-5.833,-0 -10.591,1.429 -14.27,4.313c-3.675,2.887 -5.517,6.596 -5.517,11.129c-0,6.438 7.642,14.429 22.892,23.971l2.791,1.679c12.459,7.738 20.642,14.558 24.475,20.454c3.838,5.925 5.771,13.25 5.771,21.971c-0,9.892 -3.579,18.071 -10.779,24.542c-7.192,6.466 -16.388,9.7 -27.617,9.7c-7.004,-0 -13.312,-0.984 -18.958,-2.979c-5.642,-1.967 -11.067,-5.109 -16.263,-9.45" style="fill:#9c162f;fill-rule:nonzero;"/></g></g></svg>