<?xml version="1.0" encoding="UTF-8"?><svg id="Layer_2" xmlns="http://www.w3.org/2000/svg" viewBox="0 0 23.86 25.24"><defs><style>.cls-1{fill:#fff;}</style></defs><g id="Layer_1-2"><g><path class="cls-1" d="m5.35,9.07s-.08.05-.13.06c-.05.01-.09.02-.13.02-.07,0-.14,0-.2-.03-.06-.02-.13-.04-.2-.06l-.04-.02v.03s-.03.04-.04.07c0,.03-.01.05-.02.06v.02s.01.01.01.01c.03.02.07.03.11.05.04.01.08.02.13.03.04,0,.08.01.12.02.04,0,.08,0,.11,0,.08,0,.16-.01.23-.04.07-.02.13-.06.18-.11.05-.05.09-.11.12-.17.03-.07.04-.14.05-.23h0c0-.1-.02-.17-.05-.24-.03-.06-.08-.12-.14-.16-.06-.04-.12-.07-.18-.09-.07-.02-.13-.03-.19-.03h-.02s-.06,0-.09-.01c-.03,0-.06-.02-.09-.04-.03-.02-.05-.04-.06-.07-.02-.02-.02-.05-.02-.08,0-.03,0-.06.02-.09.02-.03.04-.05.06-.06.03-.02.06-.03.1-.04.04,0,.08-.01.13-.01.07,0,.13,0,.17.02.05.02.09.04.13.06l.03.02.05-.19h-.02s-.06-.04-.09-.05c-.03-.01-.06-.02-.09-.03-.03,0-.06-.01-.09-.01-.03,0-.06,0-.09,0h0c-.15,0-.27.04-.36.1-.09.07-.14.16-.14.28h0c0,.08.02.14.05.19.03.05.07.09.12.12.04.03.09.05.15.07.05.01.1.02.14.02.09,0,.17.01.22.04.06.03.1.06.13.09.03.03.05.07.06.1.01.04.01.07.01.08,0,.06-.01.12-.04.16-.03.04-.06.08-.1.11Z"/><path class="cls-1" d="m9.3,9.27c.09.04.18.07.28.07s.19-.02.27-.07c.08-.04.16-.1.22-.18.06-.07.11-.16.15-.26s.05-.21.05-.32-.02-.22-.05-.32c-.04-.1-.09-.19-.15-.26-.06-.07-.14-.13-.22-.18-.17-.09-.38-.09-.55,0-.08.04-.16.1-.22.18-.06.07-.11.16-.15.26-.04.1-.05.21-.05.32s.02.22.05.32c.04.1.09.19.15.26.06.07.14.13.22.18Zm-.21-1c.03-.08.07-.14.11-.2.05-.06.1-.1.17-.13.06-.03.13-.05.2-.05s.14.02.2.05c.06.03.12.08.17.13.05.06.08.12.11.2.03.08.04.16.04.25s-.01.17-.04.25c-.03.08-.06.14-.11.2-.05.06-.1.1-.17.13-.13.07-.28.06-.4,0-.06-.03-.12-.08-.17-.13-.05-.06-.09-.12-.11-.2-.03-.08-.04-.16-.04-.25s.01-.17.04-.25Z"/><polygon class="cls-1" points="13.57 7.61 13.57 9.32 13.74 9.32 13.74 8.12 14.25 8.73 14.75 8.13 14.75 9.32 14.92 9.32 14.92 7.61 14.25 8.44 13.57 7.61"/><polygon class="cls-1" points="19.26 7.9 19.26 7.7 18.27 7.7 18.27 9.32 19.28 9.32 19.28 9.12 18.45 9.12 18.45 8.47 19.15 8.47 19.15 8.27 18.45 8.27 18.45 7.9 19.26 7.9"/><path class="cls-1" d="m5.47,17.57c.06,0,.11-.02.16-.06.04-.04.08-.08.11-.13.03-.05.05-.11.07-.17.02-.06.02-.12.02-.18,0-.04,0-.08-.01-.12,0-.04-.02-.09-.04-.13-.02-.04-.04-.08-.06-.11-.02-.03-.04-.05-.06-.07.02-.03.04-.06.06-.1.02-.05.02-.1.02-.16,0-.08-.01-.14-.03-.19-.02-.05-.05-.09-.09-.12-.04-.03-.08-.05-.13-.06-.05,0-.1-.01-.15-.01h-.59v.56s-.02,0-.03,0c-.02,0-.03-.02-.04-.03l-.02-.02-.12.14.02.02s.04.04.07.06c.02.01.05.02.07.03.02,0,.04.01.06.01v.86h.72Zm-.55-1.42h.42c.09,0,.15.01.18.04.03.02.05.07.05.14,0,.04,0,.07-.02.1,0,.02-.02.04-.04.05-.02.01-.04.02-.07.03-.03,0-.07,0-.11,0h-.42v-.37Zm0,.57h.55s.06,0,.09.03c.03.02.05.05.06.08.02.03.03.07.04.1,0,.04.01.07.01.1s0,.07-.01.11c0,.04-.02.08-.04.11-.02.03-.04.06-.06.09-.02.02-.05.03-.07.03h-.55v-.66Z"/><path class="cls-1" d="m9.21,17.34c.06.07.13.13.22.18.08.04.17.07.27.07s.18-.02.27-.07c.08-.04.15-.1.22-.18.06-.07.11-.16.14-.26.03-.1.05-.21.05-.32s-.02-.22-.05-.32c-.03-.1-.08-.19-.14-.26-.06-.07-.13-.13-.22-.18-.17-.09-.37-.09-.53,0-.08.04-.16.1-.22.18-.06.07-.11.16-.14.26-.04.1-.05.21-.05.32s.02.22.05.32c.04.1.08.19.14.26Zm.02-.83c.03-.08.06-.14.11-.2.05-.06.1-.1.16-.13.06-.03.13-.05.2-.05s.13.02.19.05c.06.03.12.08.16.13.05.06.08.12.11.2.03.08.04.16.04.25s-.01.17-.04.25-.06.14-.11.2c-.05.06-.1.1-.16.13-.12.06-.27.06-.39,0-.06-.03-.12-.08-.16-.13-.05-.06-.08-.12-.11-.2-.03-.08-.04-.16-.04-.25s.01-.17.04-.25Z"/><path class="cls-1" d="m13.51,16.61s.04.04.07.06c.02.01.05.02.07.03.02,0,.04.01.06.01v.86h.17v-.85h.74v.85h.17v-1.62h-.17v.57h-.74v-.57h-.17v.56s-.02,0-.03,0c-.02,0-.03-.02-.04-.03l-.02-.02-.12.14.02.02Z"/><path class="cls-1" d="m18.04,17.08c.04.1.08.19.14.26.06.07.13.13.22.18.08.04.17.07.27.07s.18-.02.27-.07c.08-.04.15-.1.22-.18.06-.07.11-.16.14-.26.03-.1.05-.21.05-.32s-.02-.22-.05-.32c-.03-.1-.08-.19-.14-.26-.06-.07-.13-.13-.22-.18-.17-.09-.37-.09-.53,0-.08.04-.16.1-.22.18-.06.07-.11.16-.14.26-.04.1-.05.21-.05.32s.02.22.05.32Zm.16-.56c.03-.08.06-.14.11-.2.05-.06.1-.1.16-.13.06-.03.13-.05.2-.05s.13.02.19.05c.06.03.12.08.16.13.05.06.08.12.11.2.03.08.04.16.04.25s-.01.17-.04.25-.06.14-.11.2c-.05.06-.1.1-.16.13-.12.06-.27.06-.39,0-.06-.03-.12-.08-.16-.13-.05-.06-.08-.12-.11-.2-.03-.08-.04-.16-.04-.25s.01-.17.04-.25Z"/><rect class="cls-1" x="7.2" y="16.54" width=".46" height=".46" transform="translate(-9.68 10.17) rotate(-45)"/><rect class="cls-1" x="11.76" y="16.54" width=".46" height=".46" transform="translate(-8.35 13.39) rotate(-45)"/><rect class="cls-1" x="16.15" y="16.54" width=".46" height=".46" transform="translate(-7.06 16.5) rotate(-45)"/><polygon class="cls-1" points="5.24 13.44 5.24 12.02 5.7 12.02 5.7 11.82 4.62 11.82 4.62 12.02 5.07 12.02 5.07 13.44 5.24 13.44"/><polygon class="cls-1" points="8.15 11.82 8.15 13.44 8.32 13.44 8.32 12.59 9.05 12.59 9.05 13.44 9.23 13.44 9.23 11.82 9.05 11.82 9.05 12.39 8.32 12.39 8.32 11.82 8.15 11.82"/><rect class="cls-1" x="11.75" y="11.82" width=".17" height="1.62"/><polygon class="cls-1" points="14.45 13.44 14.63 13.44 14.63 12.26 15.54 13.53 15.54 11.82 15.36 11.82 15.36 12.98 14.45 11.72 14.45 13.44"/><path class="cls-1" d="m18.2,12.05c-.06.07-.11.16-.15.26-.04.1-.05.21-.05.32s.02.22.05.31c.04.1.08.19.14.26.06.08.13.14.21.18.08.04.17.07.26.07.06,0,.13-.01.19-.04.06-.02.12-.06.18-.1.06-.04.11-.1.15-.16.04-.06.08-.14.1-.21.01-.04.02-.09.02-.13,0-.04,0-.08,0-.12v-.05s0-.03,0-.05c0,0,0-.01,0-.02,0,0,0,0,0-.01,0-.03,0-.05,0-.07v-.04s0-.01,0-.02v-.04h-.63v.2h.46v.07s0,.05,0,.07c0,.07-.01.14-.04.21-.03.06-.07.12-.11.17-.05.05-.1.09-.16.11-.12.06-.24.05-.35,0-.06-.03-.11-.08-.16-.13-.05-.06-.08-.12-.11-.2-.03-.08-.04-.16-.04-.25,0-.08.01-.16.04-.24.03-.08.06-.14.11-.2.04-.06.1-.1.16-.14.06-.03.13-.05.19-.05.03,0,.07,0,.12.01.04,0,.09.02.14.05l.03.02.06-.19h-.02c-.06-.04-.12-.06-.18-.07-.06,0-.11-.01-.16-.01-.09,0-.18.02-.26.07-.08.04-.15.1-.22.18Z"/><path class="cls-1" d="m11.91,22.69c-.35.13-.79.2-1.16.31-.4.12-.81.23-1.21.35-.02,0-.04.01-.06.02-.5-.11-.98-.25-1.45-.42.54-.09,1.07-.18,1.62-.28.03,0,.06-.02.07-.04l.2-.3s-.01-.05-.05-.04c-.36.09-.81.11-1.19.18-.41.08-.83.14-1.24.21-.02,0-.04,0-.07.01-.49-.21-.97-.45-1.42-.72.63,0,1.23-.02,1.86-.02.03,0,.06-.01.08-.03l.27-.27s0-.05-.03-.05c-.37.03-.8-.02-1.18-.01-.41,0-.83,0-1.24.02-.13,0-.22,0-.3.02C2.38,19.62.41,16.31.41,12.58.41,7.24,4.44,2.77,9.78,1.72c.02.2.04.39.07.57,0,.04.03.1.07.12.03.01.1-.01.14-.04.23-.16.45-.32.68-.47.3-.2.61-.39.91-.59.04-.02.05-.07.08-.12-.3-.07-.57-.14-.85-.2-.27-.06-.54-.14-.81-.19-.27-.05-.54-.15-.86-.18.05.08.08.14.11.19.08.12.16.23.23.34.03.04.04.07.04.09.02.04.04.07.05.11C4.13,2.46,0,7.07,0,12.58c0,3.91,2.09,7.37,5.27,9.44,0,0,0,.02,0,.02.23.57.45,1.15.69,1.72.01.03.06.03.09,0l.28-.28s.03-.05.02-.07c-.13-.33-.26-.65-.39-.98.34.19.69.37,1.05.53.02.05.06.12.12.2.38.51.76,1.02,1.16,1.53.02.03.07.02.09,0l.2-.31s.02-.05,0-.07c-.26-.34-.51-.67-.76-1.01.44.16.89.3,1.35.41.03.05.08.1.14.17.46.46.92.92,1.4,1.37.02.02.07.01.09-.02l.15-.33s0-.05-.01-.07c-.32-.32-.64-.62-.97-.95.42.07.84.13,1.27.16v-.39c-.32-.02-.64-.06-.96-.11.49-.14.97-.28,1.47-.43.03,0,.05-.03.06-.05l.15-.32s-.02-.05-.05-.04Z"/><path class="cls-1" d="m23.86,12.67c0-3.91-2.09-7.37-5.27-9.44,0,0,0-.02,0-.02-.23-.57-.45-1.15-.69-1.72-.01-.03-.06-.03-.09,0l-.28.28s-.03.05-.02.07c.13.33.26.65.39.98-.34-.19-.69-.37-1.05-.53-.02-.05-.06-.12-.12-.2-.38-.51-.76-1.02-1.16-1.53-.02-.03-.07-.02-.09,0l-.2.31s-.02.05,0,.07c.26.34.51.67.76,1.01-.44-.16-.89-.3-1.35-.41-.03-.05-.08-.1-.14-.17-.46-.46-.92-.92-1.4-1.37-.02-.02-.07-.01-.09.02l-.15.33s0,.05.01.07c.32.32.64.62.97.95-.42-.07-.84-.13-1.27-.16v.39c.32.02.64.06.96.11-.49.14-.97.28-1.47.43-.03,0-.05.03-.06.05l-.15.32s.02.05.05.04c.35-.13.79-.2,1.16-.31.4-.12.81-.23,1.21-.35.02,0,.04-.01.06-.02.5.11.98.25,1.45.42-.54.09-1.07.18-1.62.28-.03,0-.06.02-.07.04l-.2.3s.01.05.05.04c.36-.09.81-.11,1.19-.18.41-.08.83-.14,1.24-.21.02,0,.04,0,.07-.01.49.21.97.45,1.42.72-.63,0-1.23.02-1.86.02-.03,0-.06.01-.08.03l-.27.27s0,.05.03.05c.37-.03.8.02,1.18.01.41,0,.83,0,1.24-.02.13,0,.22,0,.3-.02,3.01,2.01,4.98,5.32,4.98,9.05,0,5.34-4.02,9.81-9.37,10.86-.02-.2-.04-.39-.07-.57,0-.04-.03-.1-.07-.12-.03-.01-.1.01-.14.04-.23.16-.45.32-.68.47-.3.2-.61.39-.91.59-.04.02-.05.07-.08.12.3.07.57.14.85.2.27.06.54.14.81.19.27.05.54.15.86.18-.05-.08-.08-.14-.11-.19-.08-.12-.16-.23-.23-.34-.03-.04-.04-.07-.04-.09-.02-.04-.04-.07-.05-.11,5.5-1.11,9.63-5.72,9.63-11.22Z"/></g></g></svg>