<?xml version="1.0" encoding="UTF-8"?><svg id="Layer_2" xmlns="http://www.w3.org/2000/svg" viewBox="0 0 40.03 14.3"><defs><style>.cls-1{fill:#fff;}</style></defs><g id="Layer_1-2"><g><g id="Kształt_1"><path class="cls-1" d="m9.35,7.45h1.2v-1.04h-1.2v1.04Zm-3.87.48c-.07,0-.15-.02-.22-.02-.49,0-.84.3-1.08.76h-.01v-.63h-1.15v4.71h1.2v-2.83c0-.63.47-.85.89-.85.12,0,.25.01.37.02v-1.15Zm1.78-.02c-1.38,0-1.85.87-1.85,2.48s.4,2.51,1.85,2.48c1.38,0,1.85-.87,1.85-2.48s-.4-2.5-1.85-2.48Zm0,4.14c-.59,0-.64-.69-.64-1.66s.05-1.65.64-1.65c.49,0,.65.48.65,1.65s-.16,1.66-.65,1.66ZM1.81,6.68H.61v1.35H0v.82h.61v2.7c0,.96.17,1.24,1.12,1.24.28,0,.53-.02.79-.05v-.84c-.08,0-.17.02-.27.02-.35,0-.43-.15-.43-.52v-2.55h.7v-.82h-.7v-1.35Zm13.86,1.23c-.57,0-1.01.25-1.19.76h-.02c-.13-.48-.53-.76-1.08-.76-.51,0-.88.17-1.19.61h-.02v-.48h-1.15v4.71h1.21v-3.11c0-.54.24-.8.63-.8.34,0,.47.21.47.61v3.3h1.21v-3.11c0-.54.24-.8.63-.8.34,0,.47.21.47.61v3.3h1.2v-3.43c0-.91-.37-1.41-1.16-1.41Zm-6.33,4.75c0,.52-.04.76-.47.76-.07,0-.13,0-.19-.02v.88c.18,0,.35.02.49.02,1.08,0,1.37-.43,1.37-1.22v-5.04h-1.2v4.63Zm7.99.08h1.2v-4.71h-1.2v4.71Zm10.78-6.07h-1.2v1.35h-.61v.82h.61v2.7c0,.96.17,1.24,1.12,1.24.28,0,.52-.02.79-.05v-.84c-.08,0-.18.02-.27.02-.35,0-.43-.15-.43-.52v-2.55h.7v-.82h-.7v-1.35Zm2.67,1.23c-1.38,0-1.85.87-1.85,2.48s.4,2.51,1.85,2.48c1.37,0,1.85-.87,1.85-2.48s-.4-2.5-1.85-2.48Zm0,4.14c-.59,0-.65-.69-.65-1.66s.05-1.65.65-1.65c.49,0,.64.48.64,1.65s-.15,1.66-.64,1.66Zm-5.58-2.01l-.72-.25c-.4-.13-.52-.32-.52-.55,0-.33.26-.5.56-.5.39,0,.53.23.53.71h1.08v-.19c0-.85-.51-1.34-1.6-1.34-1.24,0-1.72.64-1.72,1.42,0,.67.34,1.08,1,1.31l.85.31c.23.09.43.23.43.53,0,.38-.24.56-.61.56-.41,0-.63-.27-.63-.68v-.16h-1.09v.17c0,.9.38,1.5,1.73,1.5,1.01,0,1.74-.49,1.74-1.48,0-.71-.28-1.1-1.04-1.35Zm-2.86-.69c0-.85-.27-1.44-1.7-1.44-.91,0-1.65.37-1.65,1.45v.11h1.08v-.13c0-.36.19-.61.56-.61.4,0,.56.22.56.57,0,.32-.12.46-.48.55l-.68.18c-.83.23-1.19.59-1.19,1.47,0,.63.3,1.35,1.14,1.35.57,0,.92-.12,1.2-.61h.02c.03.15.07.34.15.49h1.15c-.12-.27-.15-.47-.15-.91v-2.48Zm-1.15,1.97c0,.52-.42.73-.74.73s-.45-.3-.45-.66c0-.42.19-.66.68-.76.15-.03.35-.11.51-.24v.93Zm-3.86-3.87h1.2v-1.04h-1.2v1.04Zm5.43.58c-1.31-4.5-4.32-5.08-6.54-4.61C14.69,3.75,13.06.08,10.27,0c-1.22-.03-2.67.54-4.42,2.57,3.04-1.89,5.33-1.37,6.67.37l2.41,3.13c3.18-1.57,5.23-2.12,7.84,1.96Z"/></g><g id="Kształt_1_kopia"><path class="cls-1" d="m37.14,7.91c-.47,0-.8.18-1.07.62h-.02v-.5h-1.15v6.26h1.2v-1.99h.02c.25.38.56.56,1.01.56.99,0,1.44-.73,1.44-2.48s-.45-2.48-1.44-2.48Zm-.39,4.03c-.53,0-.64-.53-.64-1.55s.1-1.55.64-1.55.63.52.63,1.55-.1,1.55-.63,1.55Zm2.08-5.45v6.26h1.2v-6.26h-1.2Z"/></g><g id="Kształt_1_kopia_2"><path class="cls-1" d="m33.7,10.84c-.55,0-1,.45-1,1s.45,1,1,1,1-.45,1-1-.45-1-1-1Z"/></g></g></g></svg>