<?xml version="1.0" encoding="UTF-8"?><svg id="Layer_2" xmlns="http://www.w3.org/2000/svg" viewBox="0 0 24.61 18.98"><defs><style>.cls-1{fill:#fff;fill-rule:evenodd;}</style></defs><g id="Layer_1-2"><path id="path4" class="cls-1" d="m20.48,6.43c.13,0,.19.07.19.13v7.54c0,.06-.08.14-.19.14-.12,0-.19-.08-.19-.14v-7.54s.07-.13.19-.13m-.7.13c0-.31.33-.63.71-.63s.72.33.72.63v7.54c0,.4-.36.66-.73.66s-.7-.24-.7-.66v-7.54h0Zm-3.34,0c0-.3.35-.63.72-.63s.72.32.72.63v1.96h-.54v-1.96c0-.06-.11-.13-.18-.13s-.18.07-.18.13v7.59c0,.08.1.14.18.14s.18-.06.18-.14v-2.26h.54v2.26c0,.41-.34.66-.72.66s-.72-.26-.72-.66v-7.59Zm-3.29,0c0-.33.3-.63.67-.63s.71.29.71.63v1.96h-.55v-1.96c0-.06-.07-.13-.15-.13-.08,0-.17.07-.17.13v1.44c0,.51.26,1.34.47,2.06.21.72.43,1.65.43,2.16v1.93c0,.44-.34.66-.71.66s-.7-.25-.7-.66v-2.26h.51v2.26c0,.07.08.14.19.14s.17-.07.17-.14v-1.93c0-.51-.25-1.48-.44-2.16-.2-.68-.43-1.54-.43-2.06v-1.44Zm-3.11-.63h1.18v.47h-.57v3.45h.57v.49h-.57v3.98h.78v.49h-1.4V5.92Zm-3.34,0h.61l.37,4.13v-4.13h.46v8.88h-.46l-.54-5.29v5.29h-.44V5.92h0Zm-3.34,0h.55v8.22c0,.08.08.14.17.14.08,0,.16-.06.16-.14V5.92s.56,0,.56,0v8.22c0,.4-.33.66-.71.66s-.72-.25-.72-.66V5.92ZM0,18.16h24.61v.82H0v-.82Zm1.11-1.48h22.4v.86H1.11v-.86Zm1.15-1.43h20.15v.86H2.26v-.86Zm0-10.52h20.15v.83H2.26v-.83Zm1.69-.69L12.3,1.45l8.24,2.58h-2.42l-5.82-1.8-5.91,1.8h-2.45Zm-1.69-.92L12.3,0l10.1,3.11v.92L12.3.97,2.26,4.03v-.92Z"/></g></svg>