<?xml version="1.0" encoding="UTF-8"?><svg id="Layer_2" xmlns="http://www.w3.org/2000/svg" xmlns:xlink="http://www.w3.org/1999/xlink" viewBox="0 0 41.28 14.91"><defs><style>.cls-1{fill:none;}.cls-2{clip-path:url(#clippath);}.cls-3{fill:#fff;fill-rule:evenodd;}</style><clipPath id="clippath"><rect class="cls-1" width="41.28" height="14.91"/></clipPath></defs><g id="Layer_1-2"><g class="cls-2"><path class="cls-3" d="m22.4,3.25c.05.08.37.21.5.36.39.43.27,1.75.27,2.4s.1,1.96-.21,2.43c-.19.29-.41.32-.45.44h3.45c-.05-.15-.2-.11-.38-.34-.36-.48-.27-1.25-.27-1.91,0-.42-.05-2.7.02-2.89.56-.17,1.1-.06,1.33.35.21.36.13,1.24.13,1.73,0,.63.11,2.13-.19,2.61-.07.11-.12.18-.21.25-.18.14-.21.09-.25.22h3.45c-.05-.15-.46-.24-.59-.79-.18-.79.08-3.2-.13-4.14-.36-1.59-2.11-1.5-3.17-.72-.15.11-.26.25-.39.34v-.88l-1.43.31c-.18.04-1.45.22-1.49.24h0ZM10.46.73h-3.06c.06.09.1.09.21.14.63.3.82.7.93,1.42.12.78.08,1.78.08,2.59,0,.72.08,1.94-.17,2.51-.54,1.2-3.02,1.28-3.71.27-.37-.56-.25-1.66-.25-2.42,0-.89,0-1.78,0-2.67,0-.81-.03-1.29.65-1.68.04-.02.08-.04.11-.06.12-.08.05,0,.08-.09H1.39c.06.17.6.21.77.82.11.4.07,1.09.07,1.53,0,1.08,0,2.15,0,3.23,0,1.17.31,1.73,1.03,2.18.68.42,1.68.58,2.65.58,1.34,0,2.77-.29,3.21-1.58.16-.48.13-.96.13-1.5,0-1.06-.02-2.14.03-3.2.04-.87.18-1.5.93-1.89.2-.11.2-.05.25-.17h0Zm24.91,2.56c.68-.17,1.26-.15,1.68.28.44.45.37,1.03.37,1.78-.66.03-1.71.33-2.19.6-1.76.98-1.3,2.95.31,3.09.45.04.82-.07,1.14-.25.27-.15.58-.41.77-.63.3,1.11,1.35,1.03,2.25.63.15-.07.63-.28.7-.44-.54-.29-.82.22-.82-1.57,0-.42.02-2.08-.01-2.37-.09-.73-.44-1.18-.96-1.42-.55-.26-1.39-.33-2.09-.26-.75.08-1.28.27-1.74.64-.43.35-.7,1.15-.16,1.63.55.48,1.31.24,1.57-.33.14-.3.1-.67-.07-.91-.09-.12-.19-.2-.3-.28-.13-.09-.29-.11-.43-.19h0Zm-18.33,0c.68-.17,1.26-.15,1.68.28.44.45.37,1.03.37,1.78-.66.03-1.71.33-2.19.6-1.76.99-1.3,2.95.31,3.09.76.06,1.46-.34,1.9-.88.47,1.75,2.85.44,2.95.19-.54-.29-.82.22-.82-1.57,0-.43.02-2.07-.02-2.37-.09-.72-.43-1.17-.96-1.42-1.01-.47-2.87-.39-3.83.38-.43.35-.7,1.15-.16,1.63.55.48,1.31.24,1.57-.33.22-.47,0-.94-.38-1.19-.13-.09-.29-.11-.43-.19h0Zm-6.78-.03c.12.21.66.14.74,1.02.05.49.05,2.96,0,3.49-.02.28-.06.49-.19.69-.07.11-.12.16-.21.23-.07.06-.21.13-.24.21h3.65c-.05-.13-.22-.1-.5-.36-.49-.46-.34-1.53-.34-2.3,0-1.17,0-2.34,0-3.51l-1.43.31c-.18.03-1.45.22-1.49.24h0Zm19.68,0c.14.21.64.15.74,1.02.04.39.05,3.08.01,3.48-.1,1.04-.55.9-.64,1.14h3.46c-.04-.13-.23-.15-.42-.41-.34-.47-.24-1.69-.24-2.35v-3.43l-2.15.43c-.13.02-.68.07-.76.12h0ZM1.36,10.78v.09c.09.06.42.03.54.03h38.24c.19-.02.08.02.13-.06-.04-.13-.15-.08-.51-.08H11.09c-1,0-9.54-.06-9.73.02h0ZM31.56.4c-.35.07-.52.2-.68.41-.58.76.12,1.9,1.08,1.69.5-.11.97-.63.84-1.27-.1-.5-.61-.97-1.24-.84h0ZM14.21,2.73c-1.34.29-.97,2.35.45,2.06.49-.1.94-.6.8-1.25-.11-.5-.61-.95-1.24-.81h0Zm4.87,5.26v-2.3c-.42-.1-.65-.04-.87.24-.18.22-.27.57-.29.93-.03.39.08.72.26.96.21.28.51.28.9.17h0Zm18.33,0v-2.3c-.83-.2-1.11.44-1.16,1.17-.03.39.08.72.26.96.21.28.51.28.9.17h0ZM4.64,12.19c-1.02.26-.62,1.7.33,1.47.98-.23.6-1.71-.33-1.47h0Zm28.15,0c-1.02.26-.62,1.7.33,1.47.98-.23.6-1.71-.33-1.47h0Zm-5.29,0c-.36.09-.67.41-.58.89.07.37.45.7.92.59.98-.23.6-1.71-.33-1.47h0Zm7.76-.05h-.06s-.28,1.5-.28,1.5h.23s.16-.84.16-.84l.41.89.43-.9.15.84h.23c-.02-.23-.22-1.42-.29-1.54l-.48,1.07c-.08-.06-.1-.15-.14-.24l-.34-.79h0Zm-7.7.25c-.73.16-.47,1.22.21,1.07.68-.15.48-1.22-.21-1.07h0Zm5.29,0c-.73.16-.47,1.22.21,1.07.68-.15.48-1.22-.21-1.07h0Zm-28.15,0c-.73.16-.47,1.22.21,1.07.68-.15.48-1.22-.21-1.07h0Zm20.19,1.26h.22s0-.59,0-.59c.1.06.4.51.44.59h.27c-.09-.2-.34-.42-.41-.61.18-.12.36-.21.28-.54-.09-.35-.47-.3-.8-.3v1.45h0Zm4.79,0h.22s0-.98,0-.98l1.05,1.06v-1.53s-.22,0-.22,0v.97c-.14-.07-.41-.42-.53-.54l-.52-.52v1.54h0Zm-11.35-.01c.17.01.27.09.4-.34h.62l.14.34h.25s-.68-1.51-.68-1.51l-.73,1.51h0Zm-7.53.01h.59c-.06.08-.23.24-.09.38.04.04.14.07.23.06.13-.02.11-.08.14-.21-.1.02-.25.09-.21-.07.04-.19.15.01.15-.37h-.57v-.49s.55,0,.55,0v-.19s-.55,0-.55,0v-.35h.57v-.2h-.8v1.45h0Zm-8.69,0h.22s0-.58,0-.58c.33,0,.58-.08.59-.41.02-.52-.46-.46-.82-.46v1.45h0Zm10.75,0h.22s0-.58,0-.58c.33,0,.58-.08.59-.41.02-.52-.46-.46-.81-.46v1.45h0Zm-5.9-.44l-.21.04c.09.59.72.51.88.2.31-.61-.56-.67-.58-.87.02-.12.06-.19.18-.2.06,0,.12.02.15.04.1.07,0,.04.12.1l.14-.11c-.32-.58-1.17.01-.67.43.17.14.52.15.49.43-.02.13-.12.21-.25.2-.18-.01-.18-.13-.24-.26h0Zm14.06,0l-.21.04c.03.21.13.38.34.42.25.06.46-.07.54-.22.31-.61-.56-.67-.58-.87-.02-.13.16-.28.34-.16.1.07,0,.04.12.1l.14-.11c-.32-.58-1.17.01-.67.43.17.14.52.15.49.43-.02.13-.12.21-.25.2-.18-.01-.18-.13-.24-.26h0Zm-5.87.44h.22c0-.8-.05-.57.46-1.44h-.26c-.09.17-.24.38-.3.55-.1-.09-.28-.44-.33-.56h-.26c.4.93.47.33.47,1.45h0Zm7.68-1.26h.34s0,1.26,0,1.26h.22s0-1.25,0-1.25h.33v-.2h-.89v.19h0Zm-14.09,0h.34s0,1.26,0,1.26h.22s0-1.25,0-1.25h.33v-.2h-.89s0,.19,0,.19h0Zm29.05,1.26h.22s0-1.44,0-1.44h-.11s-.12,0-.12,0v1.45h0Zm1.54,0h.22s0-1.44,0-1.44h-.11s-.12,0-.12,0v1.45h0Zm-37-.78c.21,0,.37-.01.37-.23,0-.22-.17-.23-.37-.23v.47h0Zm10.75,0c.21,0,.37-.01.37-.23,0-.22-.17-.23-.37-.23v.47h0Zm12.03,0c.23,0,.48-.09.34-.35-.06-.11-.17-.11-.34-.11v.47h0Zm-6.29.23h.42s-.2-.46-.2-.46l-.22.46h0Zm16.37-.96h.06s0-.03-.04-.05l-.02.05h0Z"/></g></g></svg>